<?xml version="1.0" encoding="UTF-8" standalone="no"?>
<!DOCTYPE svg PUBLIC "-//W3C//DTD SVG 1.1//EN"
 "http://www.w3.org/Graphics/SVG/1.1/DTD/svg11.dtd">
<!-- Generated by graphviz version 2.43.0 (0)
 -->
<!-- Title: DATADELIVERYhttp Pages: 1 -->
<svg width="723pt" height="1910pt"
 viewBox="0.00 0.00 723.29 1909.97" xmlns="http://www.w3.org/2000/svg" xmlns:xlink="http://www.w3.org/1999/xlink">
<g id="graph0" class="graph" transform="scale(1 1) rotate(0) translate(4 1905.97)">
<title>DATADELIVERYhttp</title>
<polygon fill="white" stroke="transparent" points="-4,4 -4,-1905.97 719.29,-1905.97 719.29,4 -4,4"/>
<!-- Victim: 10.0.0.11
DATA DELIVERY
http -->
<g id="node1" class="node">
<title>Victim: 10.0.0.11
DATA DELIVERY
http</title>
<polygon fill="salmon" stroke="black" stroke-width="3" points="407.58,-1804.96 407.58,-1859.35 308.42,-1897.8 168.17,-1897.8 69.01,-1859.35 69.01,-1804.96 168.17,-1766.5 308.42,-1766.5 407.58,-1804.96"/>
<polygon fill="none" stroke="black" stroke-width="3" points="411.59,-1802.23 411.59,-1862.07 309.17,-1901.79 167.42,-1901.79 65,-1862.07 65,-1802.23 167.42,-1762.51 309.17,-1762.51 411.59,-1802.23"/>
<text text-anchor="middle" x="238.29" y="-1851.95" font-family="Arial" font-size="24.00">Victim: 10.0.0.11</text>
<text text-anchor="middle" x="238.29" y="-1825.95" font-family="Arial" font-size="24.00">DATA DELIVERY</text>
<text text-anchor="middle" x="238.29" y="-1799.95" font-family="Arial" font-size="24.00">http</text>
</g>
<!-- DATA DELIVERY
http | ID: 14 -->
<g id="node2" class="node">
<title>DATA DELIVERY
http | ID: 14</title>
<g id="a_node2"><a xlink:title="ET WEB_SPECIFIC_APPS OpenX phpAdsNew phpAds_geoPlugin Parameter Remote File Inclusion Attempt&#10;ET WEB_SPECIFIC_APPS PHP phpMyAgenda rootagenda Remote File Include Attempt&#10;ET WEB_SPECIFIC_APPS p&#45;Table for WordPress wptable&#45;tinymce.php ABSPATH Parameter RFI Attempt&#10;ET WEB_SPECIFIC_APPS SERWeb load_lang.php configdir Parameter Remote File Inclusion&#10;ET WEB_SPECIFIC_APPS PointComma pctemplate.php pcConfig Parameter Remote File Inclusion Attempt&#10;ET WEB_SPECIFIC_APPS Possible Mambo/Joomla! com_koesubmit Component &#39;koesubmit.php&#39; Remote File Inclusion Attempt&#10;ET WEB_SPECIFIC_APPS Joomla Simple RSS Reader admin.rssreader.php mosConfig_live_site Parameter Remote File Inclusion&#10;ET WEB_SPECIFIC_APPS Ve&#45;EDIT edit_htmlarea.php highlighter Parameter Remote File Inclusion&#10;ET WEB_SPECIFIC_APPS OBOphiX fonctions_racine.php chemin_lib parameter Remote File Inclusion Attempt&#10;ET WEB_SPECIFIC_APPS SAPID get_infochannel.inc.php Remote File inclusion Attempt&#10;ET WEB_SPECIFIC_APPS PHPOF DB_AdoDB.Class.PHP PHPOF_INCLUDE_PATH parameter Remote File Inclusion&#10;ET WEB_SPECIFIC_APPS TECHNOTE shop_this_skin_path Parameter Remote File Inclusion&#10;ET WEB_SPECIFIC_APPS Possible OpenSiteAdmin pageHeader.php Remote File Inclusion Attempt&#10;ET WEB_SPECIFIC_APPS Joomla Onguma Time Sheet Component onguma.class.php mosConfig_absolute_path Parameter Remote File Inclusion&#10;ET WEB_SPECIFIC_APPS ProdLer prodler.class.php sPath Parameter Remote File Inclusion Attempt&#10;ET WEB_SPECIFIC_APPS MODx CMS snippet.reflect.php reflect_base Remote File Inclusion&#10;ET WEB_SPECIFIC_APPS phPortal gunaysoft.php icerikyolu Parameter Remote File Inclusion&#10;ET WEB_SPECIFIC_APPS Sisplet CMS komentar.php site_path Parameter Remote File Inclusion Attempt&#10;ET WEB_SPECIFIC_APPS phptraverse mp3_id.php GLOBALS Parameter Remote File Inclusion Attempt&#10;ET WEB_SPECIFIC_APPS PHP Classifieds class.phpmailer.php lang_path Parameter Remote File Inclusion Attempt&#10;ET WEB_SPECIFIC_APPS YapBB class_yapbbcooker.php cfgIncludeDirectory Parameter Remote File Inclusion&#10;ET WEB_SPECIFIC_APPS Enthusiast path parameter Remote File Inclusion&#10;ET WEB_SPECIFIC_APPS ProjectButler RFI attempt &#10;ET WEB_SPECIFIC_APPS SERWeb main_prepend.php functionsdir Parameter Remote File Inclusion&#10;ET WEB_SPECIFIC_APPS Mambo Component com_smf smf.php Remote File Inclusion Attempt&#10;ET WEB_SPECIFIC_APPS MAXcms fm_includes_special Parameter Remote File Inclusion Attempt&#10;ET WEB_SPECIFIC_APPS PHP&#45;Paid4Mail RFI attempt &#10;ET WEB_SPECIFIC_APPS phpSkelSite theme parameter remote file inclusion&#10;ET WEB_SPECIFIC_APPS PHP Aardvark Topsites PHP CONFIG PATH Remote File Include Attempt&#10;ET WEB_SPECIFIC_APPS Possible eFront database.php Remote File Inclusion Attempt&#10;ET WEB_SPECIFIC_APPS phPortal gunaysoft.php sayfaid Parameter Remote File Inclusion">
<polygon fill="salmon" stroke="black" stroke-width="3" points="402.53,-1696.34 320.41,-1745.32 156.18,-1745.32 74.06,-1696.34 156.18,-1647.36 320.41,-1647.36 402.53,-1696.34"/>
<text text-anchor="middle" x="238.29" y="-1703.14" font-family="Arial" font-size="24.00">DATA DELIVERY</text>
<text text-anchor="middle" x="238.29" y="-1677.14" font-family="Arial" font-size="24.00">http | ID: 14</text>
</a>
</g>
</g>
<!-- DATA DELIVERY
http | ID: 14&#45;&gt;Victim: 10.0.0.11
DATA DELIVERY
http -->
<g id="edge1" class="edge">
<title>DATA DELIVERY
http | ID: 14&#45;&gt;Victim: 10.0.0.11
DATA DELIVERY
http</title>
<path fill="none" stroke="black" stroke-width="5" d="M238.29,-1745.65C238.29,-1747.75 238.29,-1749.89 238.29,-1752.04"/>
<polygon fill="black" stroke="black" stroke-width="5" points="233.92,-1752.19 238.29,-1762.19 242.67,-1752.19 233.92,-1752.19"/>
</g>
<!-- HOST DISCOVERY
http -->
<g id="node3" class="node">
<title>HOST DISCOVERY
http</title>
<g id="a_node3"><a xlink:title="ET SCAN Possible Nmap User&#45;Agent Observed&#10;ET SCAN Nmap Scripting Engine User&#45;Agent Detected (Nmap Scripting Engine)">
<ellipse fill="yellow" stroke="black" stroke-width="3" cx="238.29" cy="-42.43" rx="161.44" ry="42.35"/>
<text text-anchor="middle" x="238.29" y="-49.23" font-family="Arial" font-size="24.00">HOST DISCOVERY</text>
<text text-anchor="middle" x="238.29" y="-23.23" font-family="Arial" font-size="24.00">http</text>
</a>
</g>
</g>
<!-- VULNERABILTY DISCOVERY
ms&#45;sql&#45;s -->
<g id="node4" class="node">
<title>VULNERABILTY DISCOVERY
ms&#45;sql&#45;s</title>
<g id="a_node4"><a xlink:title="ET SCAN Suspicious inbound to Oracle SQL port 1521&#10;ET SCAN Suspicious inbound to MSSQL port 1433&#10;ET SCAN Suspicious inbound to mySQL port 3306&#10;ET SCAN Nikto Web App Scan in Progress&#10;ET SCAN Suspicious inbound to PostgreSQL port 5432&#10;ET SCAN Suspicious inbound to mSQL port 4333">
<ellipse fill="none" stroke="black" stroke-width="3" cx="238.29" cy="-223.28" rx="238.09" ry="42.35"/>
<text text-anchor="middle" x="238.29" y="-230.08" font-family="Arial" font-size="24.00">VULNERABILTY DISCOVERY</text>
<text text-anchor="middle" x="238.29" y="-204.08" font-family="Arial" font-size="24.00">ms&#45;sql&#45;s</text>
</a>
</g>
</g>
<!-- HOST DISCOVERY
http&#45;&gt;VULNERABILTY DISCOVERY
ms&#45;sql&#45;s -->
<g id="edge2" class="edge">
<title>HOST DISCOVERY
http&#45;&gt;VULNERABILTY DISCOVERY
ms&#45;sql&#45;s</title>
<path fill="none" stroke="maroon" stroke-width="5" d="M109.28,-67.9C98.47,-74.42 88.82,-82.6 81.29,-92.85 60.26,-121.52 60.26,-144.18 81.29,-172.85 83.67,-176.1 86.27,-179.13 89.04,-181.98"/>
<polygon fill="maroon" stroke="maroon" stroke-width="5" points="86.46,-185.54 96.79,-189.05 92.36,-179.08 86.46,-185.54"/>
<text text-anchor="start" x="81.29" y="-157.85" font-family="Arial" font-size="20.00" fill="maroon"> start_next: 03/11/18, 14:52:48</text>
<text text-anchor="start" x="188.29" y="-137.85" font-family="Arial" font-size="20.00" fill="maroon">gap: 3sec</text>
<text text-anchor="start" x="89.29" y="-117.85" font-family="Arial" font-size="20.00" fill="maroon">end_prev: 03/11/18, 14:52:45</text>
<text text-anchor="start" x="105.29" y="-97.85" font-family="Arial" font-weight="bold" font-size="20.00" fill="maroon">Attacker: 10.0.254.201</text>
</g>
<!-- HOST DISCOVERY
http&#45;&gt;VULNERABILTY DISCOVERY
ms&#45;sql&#45;s -->
<g id="edge12" class="edge">
<title>HOST DISCOVERY
http&#45;&gt;VULNERABILTY DISCOVERY
ms&#45;sql&#45;s</title>
<path fill="none" stroke="maroon" stroke-width="5" d="M363.49,-69.19C373.45,-75.48 382.33,-83.25 389.29,-92.85 410.16,-121.64 410.16,-144.07 389.29,-172.85 387.19,-175.76 384.91,-178.49 382.48,-181.07"/>
<polygon fill="maroon" stroke="maroon" stroke-width="5" points="379.03,-178.3 374.75,-188.34 385.03,-184.68 379.03,-178.3"/>
<text text-anchor="start" x="404.29" y="-157.85" font-family="Arial" font-size="20.00" fill="maroon"> start_next: 03/11/18, 17:37:52</text>
<text text-anchor="start" x="511.29" y="-137.85" font-family="Arial" font-size="20.00" fill="maroon">gap: 4sec</text>
<text text-anchor="start" x="412.29" y="-117.85" font-family="Arial" font-size="20.00" fill="maroon">end_prev: 03/11/18, 17:37:48</text>
<text text-anchor="start" x="428.29" y="-97.85" font-family="Arial" font-weight="bold" font-size="20.00" fill="maroon">Attacker: 10.0.254.204</text>
</g>
<!-- INFO DISCOVERY
http -->
<g id="node5" class="node">
<title>INFO DISCOVERY
http</title>
<g id="a_node5"><a xlink:title="GPL WEB_SERVER iisadmin access&#10;GPL WEB_SERVER printenv access&#10;GPL WEB_SERVER author.exe access&#10;ET WEB_SERVER PHP Easteregg Information&#45;Disclosure (phpinfo)&#10;ET WEB_SERVER PHP Easteregg Information&#45;Disclosure (funny&#45;logo)&#10;GPL WEB_SERVER globals.pl access&#10;GPL WEB_SERVER viewcode access&#10;ET WEB_SPECIFIC_APPS Request to Wordpress W3TC Plug&#45;in dbcache Directory&#10;GPL EXPLOIT ISAPI .idq attempt&#10;ET POLICY Proxy TRACE Request &#45; inbound&#10;GPL WEB_SERVER /~root access&#10;GPL WEB_SERVER service.pwd&#10;ET WEB_SERVER PHP REQUEST SuperGlobal in URI&#10;ET WEB_SERVER PHP Easteregg Information&#45;Disclosure (php&#45;logo)&#10;GPL WEB_SERVER services.cnf access&#10;GPL EXPLOIT unicode directory traversal attempt&#10;GPL EXPLOIT .htr access&#10;GPL EXPLOIT .cnf access&#10;ET WEB_SERVER PHP SERVER SuperGlobal in URI&#10;GPL WEB_SERVER .htaccess access&#10;GPL EXPLOIT iisadmpwd attempt&#10;GPL WEB_SERVER service.cnf access&#10;GPL WEB_SERVER global.asa access&#10;GPL EXPLOIT fpcount access&#10;GPL WEB_SERVER .htpasswd access&#10;GPL WEB_SERVER 403 Forbidden&#10;ET WEB_SERVER PHP SESSION SuperGlobal in URI&#10;GPL WEB_SERVER writeto.cnf access&#10;GPL EXPLOIT iissamples access&#10;ET WEB_SERVER PHP Easteregg Information&#45;Disclosure (zend&#45;logo)&#10;ET WEB_SERVER PHP ENV SuperGlobal in URI&#10;GPL WEB_SERVER authors.pwd access">
<ellipse fill="none" stroke="black" stroke-width="3" cx="238.29" cy="-390.13" rx="154.3" ry="42.35"/>
<text text-anchor="middle" x="238.29" y="-396.93" font-family="Arial" font-size="24.00">INFO DISCOVERY</text>
<text text-anchor="middle" x="238.29" y="-370.93" font-family="Arial" font-size="24.00">http</text>
</a>
</g>
</g>
<!-- VULNERABILTY DISCOVERY
ms&#45;sql&#45;s&#45;&gt;INFO DISCOVERY
http -->
<g id="edge3" class="edge">
<title>VULNERABILTY DISCOVERY
ms&#45;sql&#45;s&#45;&gt;INFO DISCOVERY
http</title>
<path fill="none" stroke="maroon" stroke-width="5" d="M99.15,-258C93.61,-262.6 88.6,-267.81 84.29,-273.71 67.01,-297.41 67.01,-316.01 84.29,-339.71 89.94,-347.45 96.83,-354.01 104.51,-359.56"/>
<polygon fill="maroon" stroke="maroon" stroke-width="5" points="102.38,-363.4 113.15,-365.2 107.17,-356.07 102.38,-363.4"/>
<text text-anchor="middle" x="236.79" y="-323.71" font-family="Arial" font-size="20.00" fill="maroon">start_next: 03/11/18, 14:52:48</text>
<text text-anchor="middle" x="236.79" y="-301.71" font-family="Arial" font-size="20.00" fill="maroon">gap: &#45;314sec</text>
<text text-anchor="middle" x="236.79" y="-279.71" font-family="Arial" font-size="20.00" fill="maroon">end_prev: 03/11/18, 14:58:02</text>
</g>
<!-- VULNERABILTY DISCOVERY
ms&#45;sql&#45;s&#45;&gt;INFO DISCOVERY
http -->
<g id="edge13" class="edge">
<title>VULNERABILTY DISCOVERY
ms&#45;sql&#45;s&#45;&gt;INFO DISCOVERY
http</title>
<path fill="none" stroke="maroon" stroke-width="5" d="M372.06,-258.44C377.37,-262.93 382.18,-267.99 386.29,-273.71 403.44,-297.51 403.44,-315.9 386.29,-339.71 381.17,-346.81 374.98,-352.92 368.08,-358.15"/>
<polygon fill="maroon" stroke="maroon" stroke-width="5" points="365.45,-354.65 359.66,-363.91 370.39,-361.87 365.45,-354.65"/>
<text text-anchor="middle" x="550.79" y="-323.71" font-family="Arial" font-size="20.00" fill="maroon">start_next: 03/11/18, 17:37:52</text>
<text text-anchor="middle" x="550.79" y="-301.71" font-family="Arial" font-size="20.00" fill="maroon">gap: &#45;292sec</text>
<text text-anchor="middle" x="550.79" y="-279.71" font-family="Arial" font-size="20.00" fill="maroon">end_prev: 03/11/18, 17:42:45</text>
</g>
<!-- DATA EXFILTRATION
http | ID: 12 -->
<g id="node6" class="node">
<title>DATA EXFILTRATION
http | ID: 12</title>
<g id="a_node6"><a xlink:title="ET WEB_SERVER Possible XXE SYSTEM ENTITY in POST BODY.&#10;GPL EXPLOIT ISAPI .ida access&#10;ET WEB_SERVER /system32/ in Uri &#45; Possible Protected Directory Access Attempt&#10;GPL WEB_SERVER Tomcat server snoop access&#10;ET WEB_SERVER ColdFusion componentutils access&#10;GPL EXPLOIT /msadc/samples/ access&#10;ET WEB_SPECIFIC_APPS PHP&#45;CGI query string parameter vulnerability&#10;GPL EXPLOIT ISAPI .idq access&#10;ET WEB_SERVER /etc/shadow Detected in URI">
<polygon fill="none" stroke="black" stroke-width="3" points="443.18,-563.55 340.74,-612.53 135.85,-612.53 33.41,-563.55 135.85,-514.57 340.74,-514.57 443.18,-563.55"/>
<text text-anchor="middle" x="238.29" y="-570.35" font-family="Arial" font-size="24.00">DATA EXFILTRATION</text>
<text text-anchor="middle" x="238.29" y="-544.35" font-family="Arial" font-size="24.00">http | ID: 12</text>
</a>
</g>
</g>
<!-- INFO DISCOVERY
http&#45;&gt;DATA EXFILTRATION
http | ID: 12 -->
<g id="edge4" class="edge">
<title>INFO DISCOVERY
http&#45;&gt;DATA EXFILTRATION
http | ID: 12</title>
<path fill="none" stroke="maroon" stroke-width="5" d="M113.15,-415.06C101.97,-421.66 91.99,-430.01 84.29,-440.56 67.01,-464.26 67.47,-482.53 84.29,-506.56 88.35,-512.35 93.07,-517.55 98.29,-522.21"/>
<polygon fill="maroon" stroke="maroon" stroke-width="5" points="95.75,-525.77 106.27,-528.66 101.25,-518.97 95.75,-525.77"/>
<text text-anchor="middle" x="236.79" y="-490.56" font-family="Arial" font-size="20.00" fill="maroon">start_next: 03/11/18, 14:52:48</text>
<text text-anchor="middle" x="236.79" y="-468.56" font-family="Arial" font-size="20.00" fill="maroon">gap: &#45;30sec</text>
<text text-anchor="middle" x="236.79" y="-446.56" font-family="Arial" font-size="20.00" fill="maroon">end_prev: 03/11/18, 14:53:18</text>
</g>
<!-- INFO DISCOVERY
http&#45;&gt;DATA EXFILTRATION
http | ID: 12 -->
<g id="edge14" class="edge">
<title>INFO DISCOVERY
http&#45;&gt;DATA EXFILTRATION
http | ID: 12</title>
<path fill="none" stroke="maroon" stroke-width="5" d="M359.66,-416.36C369.98,-422.73 379.17,-430.67 386.29,-440.56 403.44,-464.36 402.97,-482.42 386.29,-506.56 382.84,-511.55 378.89,-516.1 374.53,-520.25"/>
<polygon fill="maroon" stroke="maroon" stroke-width="5" points="371.59,-517.01 366.86,-526.85 377.29,-523.65 371.59,-517.01"/>
<text text-anchor="middle" x="550.79" y="-490.56" font-family="Arial" font-size="20.00" fill="maroon">start_next: 03/11/18, 17:37:53</text>
<text text-anchor="middle" x="550.79" y="-468.56" font-family="Arial" font-size="20.00" fill="maroon">gap: &#45;51sec</text>
<text text-anchor="middle" x="550.79" y="-446.56" font-family="Arial" font-size="20.00" fill="maroon">end_prev: 03/11/18, 17:38:44</text>
</g>
<!-- ARBITRARY CODE EXECUTION
http | ID: 97 -->
<g id="node7" class="node">
<title>ARBITRARY CODE EXECUTION
http | ID: 97</title>
<g id="a_node7"><a xlink:title="ET WEB_SERVER Possible CVE&#45;2014&#45;6271 Attempt&#10;ET WEB_SPECIFIC_APPS WEB&#45;PHP RCE PHPBB 2004&#45;1315&#10;ET WEB_SPECIFIC_APPS Golem Gaming Portal root_path Parameter Remote File inclusion Attempt&#10;ET WEB_SPECIFIC_APPS Joomla swMenuPro ImageManager.php Remote File Inclusion Attempt&#10;ETPRO WEB_SPECIFIC_APPS PHPMoAdmin RCE Attempt&#10;ET WEB_SERVER cmd.exe In URI &#45; Possible Command Execution Attempt&#10;ET WEB_SERVER Exploit Suspected PHP Injection Attack (cmd=)&#10;ET WEB_SPECIFIC_APPS FormMailer formmailer.admin.inc.php BASE_DIR Parameter Remote File Inclusion Attempt&#10;ET WEB_SPECIFIC_APPS DesktopOnNet don3_requiem.php app_path Parameter Remote File Inclusion&#10;ET WEB_SPECIFIC_APPS Joomla Dada Mail Manager Component config.dadamail.php GLOBALS Parameter Remote File Inclusion&#10;ET WEB_SERVER Possible CVE&#45;2014&#45;6271 Attempt in Headers&#10;ET WEB_SPECIFIC_APPS Achievo debugger.php config_atkroot parameter Remote File Inclusion Attempt&#10;ET CURRENT_EVENTS QNAP Shellshock CVE&#45;2014&#45;6271&#10;ET WEB_SPECIFIC_APPS KingCMS menu.php CONFIG Parameter Remote File Inclusion&#10;ET WEB_SPECIFIC_APPS AjaxPortal di.php pathtoserverdata Parameter Remote File Inclusion Attempt&#10;ET WEB_SPECIFIC_APPS BASE base_stat_common.php remote file include&#10;ET WEB_SPECIFIC_APPS DesktopOnNet frontpage.php app_path Parameter Remote File Inclusion&#10;ET WEB_SPECIFIC_APPS KR&#45;Web krgourl.php DOCUMENT_ROOT Parameter Remote File Inclusion Attempt&#10;ET WEB_SPECIFIC_APPS Joomla AjaxChat Component ajcuser.php GLOBALS Parameter Remote File Inclusion Attempt&#10;ET WEB_SPECIFIC_APPS Horde type Parameter Local File Inclusion Attempt">
<polygon fill="none" stroke="black" stroke-width="3" points="424.79,-754.54 51.79,-754.54 51.79,-694.54 424.79,-694.54 424.79,-754.54"/>
<text text-anchor="middle" x="238.29" y="-731.34" font-family="Arial" font-size="24.00">ARBITRARY CODE EXECUTION</text>
<text text-anchor="middle" x="238.29" y="-705.34" font-family="Arial" font-size="24.00">http | ID: 97</text>
</a>
</g>
</g>
<!-- DATA EXFILTRATION
http | ID: 12&#45;&gt;ARBITRARY CODE EXECUTION
http | ID: 97 -->
<g id="edge5" class="edge">
<title>DATA EXFILTRATION
http | ID: 12&#45;&gt;ARBITRARY CODE EXECUTION
http | ID: 97</title>
<path fill="none" stroke="maroon" stroke-width="5" d="M106.27,-598.44C97.84,-604.62 90.33,-611.92 84.29,-620.54 67.47,-644.56 66.14,-663.5 84.29,-686.54 84.78,-687.15 85.32,-687.76 85.91,-688.35"/>
<polygon fill="maroon" stroke="maroon" stroke-width="5" points="83.45,-691.98 94.1,-694.4 88.65,-684.94 83.45,-691.98"/>
<text text-anchor="middle" x="236.79" y="-670.54" font-family="Arial" font-size="20.00" fill="maroon">start_next: 03/11/18, 14:52:51</text>
<text text-anchor="middle" x="236.79" y="-648.54" font-family="Arial" font-size="20.00" fill="maroon">gap: &#45;27sec</text>
<text text-anchor="middle" x="236.79" y="-626.54" font-family="Arial" font-size="20.00" fill="maroon">end_prev: 03/11/18, 14:53:18</text>
</g>
<!-- DATA EXFILTRATION
http | ID: 12&#45;&gt;ARBITRARY CODE EXECUTION
http | ID: 97 -->
<g id="edge15" class="edge">
<title>DATA EXFILTRATION
http | ID: 12&#45;&gt;ARBITRARY CODE EXECUTION
http | ID: 97</title>
<path fill="none" stroke="maroon" stroke-width="5" d="M366.86,-600.25C374.28,-606.03 380.91,-612.74 386.29,-620.54 402.97,-644.67 404.35,-663.42 386.29,-686.54 385.81,-687.15 385.28,-687.76 384.68,-688.36"/>
<polygon fill="maroon" stroke="maroon" stroke-width="5" points="381.88,-685 376.42,-694.45 387.07,-692.04 381.88,-685"/>
<text text-anchor="middle" x="551.79" y="-670.54" font-family="Arial" font-size="20.00" fill="maroon">start_next: 03/11/18, 17:37:57</text>
<text text-anchor="middle" x="551.79" y="-648.54" font-family="Arial" font-size="20.00" fill="maroon">gap: &#45;47sec</text>
<text text-anchor="middle" x="551.79" y="-626.54" font-family="Arial" font-size="20.00" fill="maroon">end_prev: 03/11/18, 17:38:43</text>
</g>
<!-- ROOT PRIVILEGE ESCALATION
http | ID: 51 -->
<g id="node8" class="node">
<title>ROOT PRIVILEGE ESCALATION
http | ID: 51</title>
<g id="a_node8"><a xlink:title="GPL EXPLOIT CodeRed v2 root.exe access&#10;ET WEB_SERVER ColdFusion administrator access&#10;ETPRO WEB_SPECIFIC_APPS ipTIME firmware &lt; 9.58 RCE&#10;GPL EXPLOIT administrators.pwd access">
<polygon fill="none" stroke="black" stroke-width="3" points="425.29,-896.54 51.29,-896.54 51.29,-836.54 425.29,-836.54 425.29,-896.54"/>
<text text-anchor="middle" x="238.29" y="-873.34" font-family="Arial" font-size="24.00">ROOT PRIVILEGE ESCALATION</text>
<text text-anchor="middle" x="238.29" y="-847.34" font-family="Arial" font-size="24.00">http | ID: 51</text>
</a>
</g>
</g>
<!-- ARBITRARY CODE EXECUTION
http | ID: 97&#45;&gt;ROOT PRIVILEGE ESCALATION
http | ID: 51 -->
<g id="edge6" class="edge">
<title>ARBITRARY CODE EXECUTION
http | ID: 97&#45;&gt;ROOT PRIVILEGE ESCALATION
http | ID: 51</title>
<path fill="none" stroke="maroon" stroke-width="5" d="M94.1,-754.67C89.86,-757.11 86.51,-759.73 84.29,-762.54 66.14,-785.58 66.14,-805.5 84.29,-828.54 84.78,-829.15 85.32,-829.76 85.91,-830.35"/>
<polygon fill="maroon" stroke="maroon" stroke-width="5" points="83.45,-833.98 94.1,-836.4 88.65,-826.94 83.45,-833.98"/>
<text text-anchor="middle" x="236.79" y="-812.54" font-family="Arial" font-size="20.00" fill="maroon">start_next: 03/11/18, 14:52:52</text>
<text text-anchor="middle" x="236.79" y="-790.54" font-family="Arial" font-size="20.00" fill="maroon">gap: &#45;26sec</text>
<text text-anchor="middle" x="236.79" y="-768.54" font-family="Arial" font-size="20.00" fill="maroon">end_prev: 03/11/18, 14:53:18</text>
</g>
<!-- ARBITRARY CODE EXECUTION
http | ID: 97&#45;&gt;ROOT PRIVILEGE ESCALATION
http | ID: 51 -->
<g id="edge16" class="edge">
<title>ARBITRARY CODE EXECUTION
http | ID: 97&#45;&gt;ROOT PRIVILEGE ESCALATION
http | ID: 51</title>
<path fill="none" stroke="maroon" stroke-width="5" d="M376.42,-754.62C380.71,-757.08 384.09,-759.72 386.29,-762.54 404.35,-785.66 404.35,-805.42 386.29,-828.54 385.81,-829.15 385.28,-829.76 384.68,-830.36"/>
<polygon fill="maroon" stroke="maroon" stroke-width="5" points="381.88,-827 376.42,-836.45 387.07,-834.04 381.88,-827"/>
<text text-anchor="middle" x="551.79" y="-812.54" font-family="Arial" font-size="20.00" fill="maroon">start_next: 03/11/18, 17:37:58</text>
<text text-anchor="middle" x="551.79" y="-790.54" font-family="Arial" font-size="20.00" fill="maroon">gap: &#45;46sec</text>
<text text-anchor="middle" x="551.79" y="-768.54" font-family="Arial" font-size="20.00" fill="maroon">end_prev: 03/11/18, 17:38:44</text>
</g>
<!-- DATA MANIPULATION
http | ID: 13 -->
<g id="node9" class="node">
<title>DATA MANIPULATION
http | ID: 13</title>
<g id="a_node9"><a xlink:title="ET WEB_SERVER Possible SQL Injection Attempt UNION SELECT&#10;ET WEB_SERVER Possible SQL Injection Attempt SELECT FROM&#10;ET WEB_SERVER MYSQL SELECT CONCAT SQL Injection Attempt">
<polygon fill="none" stroke="black" stroke-width="3" points="455.67,-1027.53 346.98,-1076.51 129.61,-1076.51 20.92,-1027.53 129.61,-978.55 346.98,-978.55 455.67,-1027.53"/>
<text text-anchor="middle" x="238.29" y="-1034.33" font-family="Arial" font-size="24.00">DATA MANIPULATION</text>
<text text-anchor="middle" x="238.29" y="-1008.33" font-family="Arial" font-size="24.00">http | ID: 13</text>
</a>
</g>
</g>
<!-- ROOT PRIVILEGE ESCALATION
http | ID: 51&#45;&gt;DATA MANIPULATION
http | ID: 13 -->
<g id="edge7" class="edge">
<title>ROOT PRIVILEGE ESCALATION
http | ID: 51&#45;&gt;DATA MANIPULATION
http | ID: 13</title>
<path fill="none" stroke="maroon" stroke-width="5" d="M94.1,-896.67C89.86,-899.11 86.51,-901.73 84.29,-904.54 66.14,-927.58 67.47,-946.51 84.29,-970.54 87.61,-975.27 91.37,-979.61 95.48,-983.57"/>
<polygon fill="maroon" stroke="maroon" stroke-width="5" points="92.83,-987.06 103.24,-990.33 98.57,-980.47 92.83,-987.06"/>
<text text-anchor="middle" x="236.79" y="-954.54" font-family="Arial" font-size="20.00" fill="maroon">start_next: 03/11/18, 14:52:54</text>
<text text-anchor="middle" x="236.79" y="-932.54" font-family="Arial" font-size="20.00" fill="maroon">gap: &#45;9sec</text>
<text text-anchor="middle" x="236.79" y="-910.54" font-family="Arial" font-size="20.00" fill="maroon">end_prev: 03/11/18, 14:53:03</text>
</g>
<!-- ROOT PRIVILEGE ESCALATION
http | ID: 51&#45;&gt;DATA MANIPULATION
http | ID: 13 -->
<g id="edge17" class="edge">
<title>ROOT PRIVILEGE ESCALATION
http | ID: 51&#45;&gt;DATA MANIPULATION
http | ID: 13</title>
<path fill="none" stroke="maroon" stroke-width="5" d="M376.42,-896.62C380.71,-899.08 384.09,-901.72 386.29,-904.54 404.35,-927.66 402.97,-946.4 386.29,-970.54 383.59,-974.46 380.57,-978.1 377.29,-981.49"/>
<polygon fill="maroon" stroke="maroon" stroke-width="5" points="374.07,-978.51 369.72,-988.52 380.03,-984.92 374.07,-978.51"/>
<text text-anchor="middle" x="551.79" y="-954.54" font-family="Arial" font-size="20.00" fill="maroon">start_next: 03/11/18, 17:38:01</text>
<text text-anchor="middle" x="551.79" y="-932.54" font-family="Arial" font-size="20.00" fill="maroon">gap: &#45;14sec</text>
<text text-anchor="middle" x="551.79" y="-910.54" font-family="Arial" font-size="20.00" fill="maroon">end_prev: 03/11/18, 17:38:15</text>
</g>
<!-- SURFING
http -->
<g id="node10" class="node">
<title>SURFING
http</title>
<g id="a_node10"><a xlink:title="ET WEB_SERVER WEB&#45;PHP phpinfo access">
<ellipse fill="none" stroke="black" stroke-width="3" cx="238.29" cy="-1200.94" rx="86.03" ry="42.35"/>
<text text-anchor="middle" x="238.29" y="-1207.74" font-family="Arial" font-size="24.00">SURFING</text>
<text text-anchor="middle" x="238.29" y="-1181.74" font-family="Arial" font-size="24.00">http</text>
</a>
</g>
</g>
<!-- DATA MANIPULATION
http | ID: 13&#45;&gt;SURFING
http -->
<g id="edge8" class="edge">
<title>DATA MANIPULATION
http | ID: 13&#45;&gt;SURFING
http</title>
<path fill="none" stroke="maroon" stroke-width="5" d="M103.24,-1064.72C96.04,-1070.39 89.6,-1076.94 84.29,-1084.52 67.47,-1108.54 67.01,-1126.82 84.29,-1150.52 98.56,-1170.07 120.67,-1182.06 143.73,-1189.36"/>
<polygon fill="maroon" stroke="maroon" stroke-width="5" points="142.83,-1193.66 153.65,-1192.21 145.25,-1185.25 142.83,-1193.66"/>
<text text-anchor="middle" x="236.79" y="-1134.52" font-family="Arial" font-size="20.00" fill="maroon">start_next: 03/11/18, 14:52:54</text>
<text text-anchor="middle" x="236.79" y="-1112.52" font-family="Arial" font-size="20.00" fill="maroon">gap: &#45;8sec</text>
<text text-anchor="middle" x="236.79" y="-1090.52" font-family="Arial" font-size="20.00" fill="maroon">end_prev: 03/11/18, 14:53:02</text>
</g>
<!-- DATA MANIPULATION
http | ID: 13&#45;&gt;SURFING
http -->
<g id="edge18" class="edge">
<title>DATA MANIPULATION
http | ID: 13&#45;&gt;SURFING
http</title>
<path fill="none" stroke="maroon" stroke-width="5" d="M369.72,-1066.54C375.99,-1071.78 381.61,-1077.74 386.29,-1084.52 402.97,-1108.65 403.44,-1126.72 386.29,-1150.52 373.25,-1168.63 353.28,-1180.2 332.18,-1187.57"/>
<polygon fill="maroon" stroke="maroon" stroke-width="5" points="330.64,-1183.47 322.43,-1190.66 333.29,-1191.8 330.64,-1183.47"/>
<text text-anchor="middle" x="550.79" y="-1134.52" font-family="Arial" font-size="20.00" fill="maroon">start_next: 03/11/18, 17:38:02</text>
<text text-anchor="middle" x="550.79" y="-1112.52" font-family="Arial" font-size="20.00" fill="maroon">gap: &#45;11sec</text>
<text text-anchor="middle" x="550.79" y="-1090.52" font-family="Arial" font-size="20.00" fill="maroon">end_prev: 03/11/18, 17:38:14</text>
</g>
<!-- ACCOUNT MANIPULATION
http | ID: 98 -->
<g id="node11" class="node">
<title>ACCOUNT MANIPULATION
http | ID: 98</title>
<g id="a_node11"><a xlink:title="GPL EXPLOIT /iisadmpwd/aexp2.htr access&#10;ET WEB_SERVER SELECT USER SQL Injection Attempt in URI">
<polygon fill="none" stroke="black" stroke-width="3" points="399.79,-1385.37 76.79,-1385.37 76.79,-1325.37 399.79,-1325.37 399.79,-1385.37"/>
<text text-anchor="middle" x="238.29" y="-1362.17" font-family="Arial" font-size="24.00">ACCOUNT MANIPULATION</text>
<text text-anchor="middle" x="238.29" y="-1336.17" font-family="Arial" font-size="24.00">http | ID: 98</text>
</a>
</g>
</g>
<!-- SURFING
http&#45;&gt;ACCOUNT MANIPULATION
http | ID: 98 -->
<g id="edge9" class="edge">
<title>SURFING
http&#45;&gt;ACCOUNT MANIPULATION
http | ID: 98</title>
<path fill="none" stroke="maroon" stroke-width="5" d="M153.65,-1209.67C127.15,-1216.56 100.59,-1229.02 84.29,-1251.37 67.01,-1275.07 66.14,-1294.33 84.29,-1317.37 84.78,-1317.98 85.32,-1318.59 85.91,-1319.19"/>
<polygon fill="maroon" stroke="maroon" stroke-width="5" points="83.45,-1322.81 94.1,-1325.24 88.65,-1315.77 83.45,-1322.81"/>
<text text-anchor="middle" x="236.79" y="-1301.37" font-family="Arial" font-size="20.00" fill="maroon">start_next: 03/11/18, 14:52:58</text>
<text text-anchor="middle" x="236.79" y="-1279.37" font-family="Arial" font-size="20.00" fill="maroon">gap: &#45;19sec</text>
<text text-anchor="middle" x="236.79" y="-1257.37" font-family="Arial" font-size="20.00" fill="maroon">end_prev: 03/11/18, 14:53:17</text>
</g>
<!-- SURFING
http&#45;&gt;ACCOUNT MANIPULATION
http | ID: 98 -->
<g id="edge19" class="edge">
<title>SURFING
http&#45;&gt;ACCOUNT MANIPULATION
http | ID: 98</title>
<path fill="none" stroke="maroon" stroke-width="5" d="M322.43,-1211.23C346.99,-1218.3 371.25,-1230.49 386.29,-1251.37 403.44,-1275.17 404.35,-1294.25 386.29,-1317.37 385.81,-1317.99 385.28,-1318.59 384.68,-1319.19"/>
<polygon fill="maroon" stroke="maroon" stroke-width="5" points="381.88,-1315.83 376.42,-1325.28 387.07,-1322.87 381.88,-1315.83"/>
<text text-anchor="middle" x="551.79" y="-1301.37" font-family="Arial" font-size="20.00" fill="maroon">start_next: 03/11/18, 17:38:07</text>
<text text-anchor="middle" x="551.79" y="-1279.37" font-family="Arial" font-size="20.00" fill="maroon">gap: &#45;36sec</text>
<text text-anchor="middle" x="551.79" y="-1257.37" font-family="Arial" font-size="20.00" fill="maroon">end_prev: 03/11/18, 17:38:43</text>
</g>
<!-- RESOURCE HIJACKING
http | ID: 52 -->
<g id="node12" class="node">
<title>RESOURCE HIJACKING
http | ID: 52</title>
<g id="a_node12"><a xlink:title="GPL WEB_SERVER Oracle Java Process Manager access">
<polygon fill="none" stroke="black" stroke-width="3" points="464.63,-1516.36 351.46,-1565.34 125.13,-1565.34 11.96,-1516.36 125.13,-1467.38 351.46,-1467.38 464.63,-1516.36"/>
<text text-anchor="middle" x="238.29" y="-1523.16" font-family="Arial" font-size="24.00">RESOURCE HIJACKING</text>
<text text-anchor="middle" x="238.29" y="-1497.16" font-family="Arial" font-size="24.00">http | ID: 52</text>
</a>
</g>
</g>
<!-- ACCOUNT MANIPULATION
http | ID: 98&#45;&gt;RESOURCE HIJACKING
http | ID: 52 -->
<g id="edge10" class="edge">
<title>ACCOUNT MANIPULATION
http | ID: 98&#45;&gt;RESOURCE HIJACKING
http | ID: 52</title>
<path fill="none" stroke="maroon" stroke-width="5" d="M94.1,-1385.5C89.86,-1387.94 86.51,-1390.56 84.29,-1393.37 66.14,-1416.41 67.47,-1435.34 84.29,-1459.37 87.15,-1463.45 90.34,-1467.24 93.8,-1470.75"/>
<polygon fill="maroon" stroke="maroon" stroke-width="5" points="90.93,-1474.05 101.27,-1477.57 96.84,-1467.59 90.93,-1474.05"/>
<text text-anchor="middle" x="236.79" y="-1443.37" font-family="Arial" font-size="20.00" fill="maroon">start_next: 03/11/18, 14:53:02</text>
<text text-anchor="middle" x="236.79" y="-1421.37" font-family="Arial" font-size="20.00" fill="maroon">gap: 0sec</text>
<text text-anchor="middle" x="236.79" y="-1399.37" font-family="Arial" font-size="20.00" fill="maroon">end_prev: 03/11/18, 14:53:02</text>
</g>
<!-- ACCOUNT MANIPULATION
http | ID: 98&#45;&gt;RESOURCE HIJACKING
http | ID: 52 -->
<g id="edge20" class="edge">
<title>ACCOUNT MANIPULATION
http | ID: 98&#45;&gt;RESOURCE HIJACKING
http | ID: 52</title>
<path fill="none" stroke="maroon" stroke-width="5" d="M376.42,-1385.46C380.71,-1387.92 384.09,-1390.55 386.29,-1393.37 404.35,-1416.49 402.97,-1435.24 386.29,-1459.37 384.06,-1462.61 381.6,-1465.67 378.97,-1468.54"/>
<polygon fill="maroon" stroke="maroon" stroke-width="5" points="375.68,-1465.64 371.58,-1475.76 381.79,-1471.9 375.68,-1465.64"/>
<text text-anchor="middle" x="551.79" y="-1443.37" font-family="Arial" font-size="20.00" fill="maroon">start_next: 03/11/18, 17:38:13</text>
<text text-anchor="middle" x="551.79" y="-1421.37" font-family="Arial" font-size="20.00" fill="maroon">gap: 0sec</text>
<text text-anchor="middle" x="551.79" y="-1399.37" font-family="Arial" font-size="20.00" fill="maroon">end_prev: 03/11/18, 17:38:14</text>
</g>
<!-- RESOURCE HIJACKING
http | ID: 52&#45;&gt;DATA DELIVERY
http | ID: 14 -->
<g id="edge11" class="edge">
<title>RESOURCE HIJACKING
http | ID: 52&#45;&gt;DATA DELIVERY
http | ID: 14</title>
<path fill="none" stroke="maroon" stroke-width="5" d="M101.27,-1555.15C94.86,-1560.44 89.11,-1566.48 84.29,-1573.35 67.47,-1597.38 67.47,-1615.32 84.29,-1639.35 91.24,-1649.27 100.14,-1657.44 110.15,-1664.17"/>
<polygon fill="maroon" stroke="maroon" stroke-width="5" points="107.98,-1667.97 118.79,-1669.48 112.57,-1660.52 107.98,-1667.97"/>
<text text-anchor="middle" x="236.79" y="-1623.35" font-family="Arial" font-size="20.00" fill="maroon">start_next: 03/11/18, 14:53:06</text>
<text text-anchor="middle" x="236.79" y="-1601.35" font-family="Arial" font-size="20.00" fill="maroon">gap: 4sec</text>
<text text-anchor="middle" x="236.79" y="-1579.35" font-family="Arial" font-size="20.00" fill="maroon">end_prev: 03/11/18, 14:53:02</text>
</g>
<!-- RESOURCE HIJACKING
http | ID: 52&#45;&gt;DATA DELIVERY
http | ID: 14 -->
<g id="edge21" class="edge">
<title>RESOURCE HIJACKING
http | ID: 52&#45;&gt;DATA DELIVERY
http | ID: 14</title>
<path fill="none" stroke="maroon" stroke-width="5" d="M371.58,-1556.96C377.11,-1561.81 382.08,-1567.25 386.29,-1573.35 402.97,-1597.48 402.97,-1615.22 386.29,-1639.35 380.08,-1648.35 372.22,-1655.9 363.37,-1662.24"/>
<polygon fill="maroon" stroke="maroon" stroke-width="5" points="360.96,-1658.59 354.99,-1667.73 365.75,-1665.91 360.96,-1658.59"/>
<text text-anchor="middle" x="550.79" y="-1623.35" font-family="Arial" font-size="20.00" fill="maroon">start_next: 03/11/18, 17:38:22</text>
<text text-anchor="middle" x="550.79" y="-1601.35" font-family="Arial" font-size="20.00" fill="maroon">gap: 8sec</text>
<text text-anchor="middle" x="550.79" y="-1579.35" font-family="Arial" font-size="20.00" fill="maroon">end_prev: 03/11/18, 17:38:13</text>
</g>
</g>
</svg>
