<?xml version="1.0" encoding="UTF-8" standalone="no"?>
<!DOCTYPE svg PUBLIC "-//W3C//DTD SVG 1.1//EN"
 "http://www.w3.org/Graphics/SVG/1.1/DTD/svg11.dtd">
<!-- Generated by graphviz version 2.43.0 (0)
 -->
<!-- Title: DATAEXFILTRATIONhttp Pages: 1 -->
<svg width="723pt" height="777pt"
 viewBox="0.00 0.00 723.29 777.18" xmlns="http://www.w3.org/2000/svg" xmlns:xlink="http://www.w3.org/1999/xlink">
<g id="graph0" class="graph" transform="scale(1 1) rotate(0) translate(4 773.18)">
<title>DATAEXFILTRATIONhttp</title>
<polygon fill="white" stroke="transparent" points="-4,4 -4,-773.18 719.29,-773.18 719.29,4 -4,4"/>
<!-- Victim: 10.0.0.24
DATA EXFILTRATION
http -->
<g id="node1" class="node">
<title>Victim: 10.0.0.24
DATA EXFILTRATION
http</title>
<polygon fill="salmon" stroke="black" stroke-width="3" points="430.51,-672.16 430.51,-726.55 317.91,-765.01 158.68,-765.01 46.08,-726.55 46.08,-672.16 158.68,-633.71 317.91,-633.71 430.51,-672.16"/>
<polygon fill="none" stroke="black" stroke-width="3" points="434.51,-669.31 434.51,-729.4 318.58,-769 158.01,-769 42.08,-729.4 42.08,-669.31 158.01,-629.72 318.58,-629.72 434.51,-669.31"/>
<text text-anchor="middle" x="238.29" y="-719.16" font-family="Arial" font-size="24.00">Victim: 10.0.0.24</text>
<text text-anchor="middle" x="238.29" y="-693.16" font-family="Arial" font-size="24.00">DATA EXFILTRATION</text>
<text text-anchor="middle" x="238.29" y="-667.16" font-family="Arial" font-size="24.00">http</text>
</g>
<!-- DATA EXFILTRATION
http | ID: 12 -->
<g id="node2" class="node">
<title>DATA EXFILTRATION
http | ID: 12</title>
<g id="a_node2"><a xlink:title="GPL EXPLOIT ISAPI .ida access&#10;GPL EXPLOIT ISAPI .idq access">
<polygon fill="salmon" stroke="black" stroke-width="3" points="443.18,-563.55 340.74,-612.53 135.85,-612.53 33.41,-563.55 135.85,-514.57 340.74,-514.57 443.18,-563.55"/>
<text text-anchor="middle" x="238.29" y="-570.35" font-family="Arial" font-size="24.00">DATA EXFILTRATION</text>
<text text-anchor="middle" x="238.29" y="-544.35" font-family="Arial" font-size="24.00">http | ID: 12</text>
</a>
</g>
</g>
<!-- DATA EXFILTRATION
http | ID: 12&#45;&gt;Victim: 10.0.0.24
DATA EXFILTRATION
http -->
<g id="edge1" class="edge">
<title>DATA EXFILTRATION
http | ID: 12&#45;&gt;Victim: 10.0.0.24
DATA EXFILTRATION
http</title>
<path fill="none" stroke="black" stroke-width="5" d="M238.29,-612.86C238.29,-614.96 238.29,-617.09 238.29,-619.24"/>
<polygon fill="black" stroke="black" stroke-width="5" points="233.92,-619.4 238.29,-629.4 242.67,-619.4 233.92,-619.4"/>
</g>
<!-- HOST DISCOVERY
http -->
<g id="node3" class="node">
<title>HOST DISCOVERY
http</title>
<g id="a_node3"><a xlink:title="ET SCAN Possible Nmap User&#45;Agent Observed&#10;ET SCAN Nmap Scripting Engine User&#45;Agent Detected (Nmap Scripting Engine)">
<ellipse fill="yellow" stroke="black" stroke-width="3" cx="238.29" cy="-42.43" rx="161.44" ry="42.35"/>
<text text-anchor="middle" x="238.29" y="-49.23" font-family="Arial" font-size="24.00">HOST DISCOVERY</text>
<text text-anchor="middle" x="238.29" y="-23.23" font-family="Arial" font-size="24.00">http</text>
</a>
</g>
</g>
<!-- VULNERABILTY DISCOVERY
ms&#45;sql&#45;s -->
<g id="node4" class="node">
<title>VULNERABILTY DISCOVERY
ms&#45;sql&#45;s</title>
<g id="a_node4"><a xlink:title="ET SCAN Suspicious inbound to Oracle SQL port 1521&#10;ET SCAN Suspicious inbound to MSSQL port 1433&#10;ET SCAN Suspicious inbound to mySQL port 3306&#10;ET SCAN Nikto Web App Scan in Progress&#10;ET SCAN Suspicious inbound to PostgreSQL port 5432&#10;ET SCAN Suspicious inbound to mSQL port 4333">
<ellipse fill="none" stroke="black" stroke-width="3" cx="238.29" cy="-223.28" rx="238.09" ry="42.35"/>
<text text-anchor="middle" x="238.29" y="-230.08" font-family="Arial" font-size="24.00">VULNERABILTY DISCOVERY</text>
<text text-anchor="middle" x="238.29" y="-204.08" font-family="Arial" font-size="24.00">ms&#45;sql&#45;s</text>
</a>
</g>
</g>
<!-- HOST DISCOVERY
http&#45;&gt;VULNERABILTY DISCOVERY
ms&#45;sql&#45;s -->
<g id="edge2" class="edge">
<title>HOST DISCOVERY
http&#45;&gt;VULNERABILTY DISCOVERY
ms&#45;sql&#45;s</title>
<path fill="none" stroke="maroon" stroke-width="5" d="M109.28,-67.9C98.47,-74.42 88.82,-82.6 81.29,-92.85 60.26,-121.52 60.26,-144.18 81.29,-172.85 83.67,-176.1 86.27,-179.13 89.04,-181.98"/>
<polygon fill="maroon" stroke="maroon" stroke-width="5" points="86.46,-185.54 96.79,-189.05 92.36,-179.08 86.46,-185.54"/>
<text text-anchor="start" x="81.29" y="-157.85" font-family="Arial" font-size="20.00" fill="maroon"> start_next: 03/11/18, 14:52:49</text>
<text text-anchor="start" x="188.29" y="-137.85" font-family="Arial" font-size="20.00" fill="maroon">gap: 3sec</text>
<text text-anchor="start" x="89.29" y="-117.85" font-family="Arial" font-size="20.00" fill="maroon">end_prev: 03/11/18, 14:52:45</text>
<text text-anchor="start" x="105.29" y="-97.85" font-family="Arial" font-weight="bold" font-size="20.00" fill="maroon">Attacker: 10.0.254.201</text>
</g>
<!-- HOST DISCOVERY
http&#45;&gt;VULNERABILTY DISCOVERY
ms&#45;sql&#45;s -->
<g id="edge5" class="edge">
<title>HOST DISCOVERY
http&#45;&gt;VULNERABILTY DISCOVERY
ms&#45;sql&#45;s</title>
<path fill="none" stroke="maroon" stroke-width="5" d="M363.49,-69.19C373.45,-75.48 382.33,-83.25 389.29,-92.85 410.16,-121.64 410.16,-144.07 389.29,-172.85 387.19,-175.76 384.91,-178.49 382.48,-181.07"/>
<polygon fill="maroon" stroke="maroon" stroke-width="5" points="379.03,-178.3 374.75,-188.34 385.03,-184.68 379.03,-178.3"/>
<text text-anchor="start" x="404.29" y="-157.85" font-family="Arial" font-size="20.00" fill="maroon"> start_next: 03/11/18, 17:37:53</text>
<text text-anchor="start" x="511.29" y="-137.85" font-family="Arial" font-size="20.00" fill="maroon">gap: 5sec</text>
<text text-anchor="start" x="412.29" y="-117.85" font-family="Arial" font-size="20.00" fill="maroon">end_prev: 03/11/18, 17:37:48</text>
<text text-anchor="start" x="428.29" y="-97.85" font-family="Arial" font-weight="bold" font-size="20.00" fill="maroon">Attacker: 10.0.254.204</text>
</g>
<!-- INFO DISCOVERY
http -->
<g id="node5" class="node">
<title>INFO DISCOVERY
http</title>
<g id="a_node5"><a xlink:title="GPL EXPLOIT .cnf access&#10;GPL WEB_SERVER iisadmin access&#10;GPL WEB_SERVER .htpasswd access&#10;GPL WEB_SERVER printenv access&#10;GPL WEB_SERVER .htaccess access&#10;ET POLICY Proxy TRACE Request &#45; inbound&#10;GPL WEB_SERVER /~root access&#10;GPL EXPLOIT .htr access">
<ellipse fill="none" stroke="black" stroke-width="3" cx="238.29" cy="-390.13" rx="154.3" ry="42.35"/>
<text text-anchor="middle" x="238.29" y="-396.93" font-family="Arial" font-size="24.00">INFO DISCOVERY</text>
<text text-anchor="middle" x="238.29" y="-370.93" font-family="Arial" font-size="24.00">http</text>
</a>
</g>
</g>
<!-- VULNERABILTY DISCOVERY
ms&#45;sql&#45;s&#45;&gt;INFO DISCOVERY
http -->
<g id="edge3" class="edge">
<title>VULNERABILTY DISCOVERY
ms&#45;sql&#45;s&#45;&gt;INFO DISCOVERY
http</title>
<path fill="none" stroke="maroon" stroke-width="5" d="M99.15,-258C93.61,-262.6 88.6,-267.81 84.29,-273.71 67.01,-297.41 67.01,-316.01 84.29,-339.71 89.94,-347.45 96.83,-354.01 104.51,-359.56"/>
<polygon fill="maroon" stroke="maroon" stroke-width="5" points="102.38,-363.4 113.15,-365.2 107.17,-356.07 102.38,-363.4"/>
<text text-anchor="middle" x="236.79" y="-323.71" font-family="Arial" font-size="20.00" fill="maroon">start_next: 03/11/18, 14:52:49</text>
<text text-anchor="middle" x="236.79" y="-301.71" font-family="Arial" font-size="20.00" fill="maroon">gap: &#45;313sec</text>
<text text-anchor="middle" x="236.79" y="-279.71" font-family="Arial" font-size="20.00" fill="maroon">end_prev: 03/11/18, 14:58:02</text>
</g>
<!-- VULNERABILTY DISCOVERY
ms&#45;sql&#45;s&#45;&gt;INFO DISCOVERY
http -->
<g id="edge6" class="edge">
<title>VULNERABILTY DISCOVERY
ms&#45;sql&#45;s&#45;&gt;INFO DISCOVERY
http</title>
<path fill="none" stroke="maroon" stroke-width="5" d="M372.06,-258.44C377.37,-262.93 382.18,-267.99 386.29,-273.71 403.44,-297.51 403.44,-315.9 386.29,-339.71 381.17,-346.81 374.98,-352.92 368.08,-358.15"/>
<polygon fill="maroon" stroke="maroon" stroke-width="5" points="365.45,-354.65 359.66,-363.91 370.39,-361.87 365.45,-354.65"/>
<text text-anchor="middle" x="550.79" y="-323.71" font-family="Arial" font-size="20.00" fill="maroon">start_next: 03/11/18, 17:37:53</text>
<text text-anchor="middle" x="550.79" y="-301.71" font-family="Arial" font-size="20.00" fill="maroon">gap: &#45;292sec</text>
<text text-anchor="middle" x="550.79" y="-279.71" font-family="Arial" font-size="20.00" fill="maroon">end_prev: 03/11/18, 17:42:44</text>
</g>
<!-- INFO DISCOVERY
http&#45;&gt;DATA EXFILTRATION
http | ID: 12 -->
<g id="edge4" class="edge">
<title>INFO DISCOVERY
http&#45;&gt;DATA EXFILTRATION
http | ID: 12</title>
<path fill="none" stroke="maroon" stroke-width="5" d="M113.15,-415.06C101.97,-421.66 91.99,-430.01 84.29,-440.56 67.01,-464.26 67.47,-482.53 84.29,-506.56 88.35,-512.35 93.07,-517.55 98.29,-522.21"/>
<polygon fill="maroon" stroke="maroon" stroke-width="5" points="95.75,-525.77 106.27,-528.66 101.25,-518.97 95.75,-525.77"/>
<text text-anchor="middle" x="236.79" y="-490.56" font-family="Arial" font-size="20.00" fill="maroon">start_next: 03/11/18, 14:52:49</text>
<text text-anchor="middle" x="236.79" y="-468.56" font-family="Arial" font-size="20.00" fill="maroon">gap: &#45;3sec</text>
<text text-anchor="middle" x="236.79" y="-446.56" font-family="Arial" font-size="20.00" fill="maroon">end_prev: 03/11/18, 14:52:51</text>
</g>
<!-- INFO DISCOVERY
http&#45;&gt;DATA EXFILTRATION
http | ID: 12 -->
<g id="edge7" class="edge">
<title>INFO DISCOVERY
http&#45;&gt;DATA EXFILTRATION
http | ID: 12</title>
<path fill="none" stroke="maroon" stroke-width="5" d="M359.66,-416.36C369.98,-422.73 379.17,-430.67 386.29,-440.56 403.44,-464.36 402.97,-482.42 386.29,-506.56 382.84,-511.55 378.89,-516.1 374.53,-520.25"/>
<polygon fill="maroon" stroke="maroon" stroke-width="5" points="371.59,-517.01 366.86,-526.85 377.29,-523.65 371.59,-517.01"/>
<text text-anchor="middle" x="550.79" y="-490.56" font-family="Arial" font-size="20.00" fill="maroon">start_next: 03/11/18, 17:37:54</text>
<text text-anchor="middle" x="550.79" y="-468.56" font-family="Arial" font-size="20.00" fill="maroon">gap: &#45;3sec</text>
<text text-anchor="middle" x="550.79" y="-446.56" font-family="Arial" font-size="20.00" fill="maroon">end_prev: 03/11/18, 17:37:57</text>
</g>
</g>
</svg>
