<?xml version="1.0" encoding="UTF-8" standalone="no"?>
<!DOCTYPE svg PUBLIC "-//W3C//DTD SVG 1.1//EN"
 "http://www.w3.org/Graphics/SVG/1.1/DTD/svg11.dtd">
<!-- Generated by graphviz version 2.43.0 (0)
 -->
<!-- Title: DATADELIVERYhttp Pages: 1 -->
<svg width="1988pt" height="2077pt"
 viewBox="0.00 0.00 1988.02 2076.83" xmlns="http://www.w3.org/2000/svg" xmlns:xlink="http://www.w3.org/1999/xlink">
<g id="graph0" class="graph" transform="scale(1 1) rotate(0) translate(4 2072.83)">
<title>DATADELIVERYhttp</title>
<polygon fill="white" stroke="transparent" points="-4,4 -4,-2072.83 1984.02,-2072.83 1984.02,4 -4,4"/>
<!-- Victim: 10.0.1.5
DATA DELIVERY
http -->
<g id="node1" class="node">
<title>Victim: 10.0.1.5
DATA DELIVERY
http</title>
<polygon fill="salmon" stroke="black" stroke-width="3" points="1449.84,-1971.81 1449.84,-2026.2 1357.39,-2064.66 1226.64,-2064.66 1134.19,-2026.2 1134.19,-1971.81 1226.64,-1933.35 1357.39,-1933.35 1449.84,-1971.81"/>
<polygon fill="none" stroke="black" stroke-width="3" points="1453.85,-1969.15 1453.85,-2028.86 1358.19,-2068.65 1225.84,-2068.65 1130.18,-2028.86 1130.18,-1969.15 1225.84,-1929.36 1358.19,-1929.36 1453.85,-1969.15"/>
<text text-anchor="middle" x="1292.02" y="-2018.8" font-family="Arial" font-size="24.00">Victim: 10.0.1.5</text>
<text text-anchor="middle" x="1292.02" y="-1992.8" font-family="Arial" font-size="24.00">DATA DELIVERY</text>
<text text-anchor="middle" x="1292.02" y="-1966.8" font-family="Arial" font-size="24.00">http</text>
</g>
<!-- DATA DELIVERY
http | ID: 14 -->
<g id="node2" class="node">
<title>DATA DELIVERY
http | ID: 14</title>
<g id="a_node2"><a xlink:title="ET WEB_SPECIFIC_APPS OpenX phpAdsNew phpAds_geoPlugin Parameter Remote File Inclusion Attempt&#10;ET WEB_SPECIFIC_APPS PHP phpMyAgenda rootagenda Remote File Include Attempt&#10;ET WEB_SPECIFIC_APPS p&#45;Table for WordPress wptable&#45;tinymce.php ABSPATH Parameter RFI Attempt&#10;ET WEB_SPECIFIC_APPS SERWeb load_lang.php configdir Parameter Remote File Inclusion&#10;ET WEB_SPECIFIC_APPS PointComma pctemplate.php pcConfig Parameter Remote File Inclusion Attempt&#10;ET WEB_SPECIFIC_APPS Possible Mambo/Joomla! com_koesubmit Component &#39;koesubmit.php&#39; Remote File Inclusion Attempt&#10;ET WEB_SPECIFIC_APPS Joomla Simple RSS Reader admin.rssreader.php mosConfig_live_site Parameter Remote File Inclusion&#10;ET WEB_SPECIFIC_APPS Ve&#45;EDIT edit_htmlarea.php highlighter Parameter Remote File Inclusion&#10;ET WEB_SPECIFIC_APPS OBOphiX fonctions_racine.php chemin_lib parameter Remote File Inclusion Attempt&#10;ET WEB_SPECIFIC_APPS SAPID get_infochannel.inc.php Remote File inclusion Attempt&#10;ET WEB_SPECIFIC_APPS PHPOF DB_AdoDB.Class.PHP PHPOF_INCLUDE_PATH parameter Remote File Inclusion&#10;ET WEB_SPECIFIC_APPS TECHNOTE shop_this_skin_path Parameter Remote File Inclusion&#10;ET WEB_SPECIFIC_APPS Possible OpenSiteAdmin pageHeader.php Remote File Inclusion Attempt&#10;ET WEB_SPECIFIC_APPS Joomla Onguma Time Sheet Component onguma.class.php mosConfig_absolute_path Parameter Remote File Inclusion&#10;ET WEB_SPECIFIC_APPS ProdLer prodler.class.php sPath Parameter Remote File Inclusion Attempt&#10;ET WEB_SPECIFIC_APPS MODx CMS snippet.reflect.php reflect_base Remote File Inclusion&#10;ET WEB_SPECIFIC_APPS phPortal gunaysoft.php icerikyolu Parameter Remote File Inclusion&#10;ET WEB_SPECIFIC_APPS Sisplet CMS komentar.php site_path Parameter Remote File Inclusion Attempt&#10;ET WEB_SPECIFIC_APPS phptraverse mp3_id.php GLOBALS Parameter Remote File Inclusion Attempt&#10;ET WEB_SPECIFIC_APPS PHP Classifieds class.phpmailer.php lang_path Parameter Remote File Inclusion Attempt&#10;ET WEB_SPECIFIC_APPS YapBB class_yapbbcooker.php cfgIncludeDirectory Parameter Remote File Inclusion&#10;ET WEB_SPECIFIC_APPS Enthusiast path parameter Remote File Inclusion&#10;ET WEB_SPECIFIC_APPS ProjectButler RFI attempt &#10;ET WEB_SPECIFIC_APPS SERWeb main_prepend.php functionsdir Parameter Remote File Inclusion&#10;ET WEB_SPECIFIC_APPS Mambo Component com_smf smf.php Remote File Inclusion Attempt&#10;ET WEB_SPECIFIC_APPS MAXcms fm_includes_special Parameter Remote File Inclusion Attempt&#10;ET WEB_SPECIFIC_APPS PHP&#45;Paid4Mail RFI attempt &#10;ET WEB_SPECIFIC_APPS phpSkelSite theme parameter remote file inclusion&#10;ET WEB_SPECIFIC_APPS PHP Aardvark Topsites PHP CONFIG PATH Remote File Include Attempt&#10;ET WEB_SPECIFIC_APPS Possible eFront database.php Remote File Inclusion Attempt&#10;ET WEB_SPECIFIC_APPS phPortal gunaysoft.php sayfaid Parameter Remote File Inclusion">
<polygon fill="salmon" stroke="black" stroke-width="3" points="1456.25,-1863.19 1374.13,-1912.17 1209.9,-1912.17 1127.78,-1863.19 1209.9,-1814.21 1374.13,-1814.21 1456.25,-1863.19"/>
<text text-anchor="middle" x="1292.02" y="-1869.99" font-family="Arial" font-size="24.00">DATA DELIVERY</text>
<text text-anchor="middle" x="1292.02" y="-1843.99" font-family="Arial" font-size="24.00">http | ID: 14</text>
</a>
</g>
</g>
<!-- DATA DELIVERY
http | ID: 14&#45;&gt;Victim: 10.0.1.5
DATA DELIVERY
http -->
<g id="edge1" class="edge">
<title>DATA DELIVERY
http | ID: 14&#45;&gt;Victim: 10.0.1.5
DATA DELIVERY
http</title>
<path fill="none" stroke="black" stroke-width="5" d="M1292.02,-1912.5C1292.02,-1914.61 1292.02,-1916.74 1292.02,-1918.89"/>
<polygon fill="black" stroke="black" stroke-width="5" points="1287.64,-1919.04 1292.02,-1929.04 1296.39,-1919.04 1287.64,-1919.04"/>
</g>
<!-- HOST DISCOVERY
http -->
<g id="node3" class="node">
<title>HOST DISCOVERY
http</title>
<g id="a_node3"><a xlink:title="ET SCAN Possible Nmap User&#45;Agent Observed&#10;ET SCAN Nmap Scripting Engine User&#45;Agent Detected (Nmap Scripting Engine)">
<ellipse fill="yellow" stroke="black" stroke-width="3" cx="328.02" cy="-223.28" rx="161.44" ry="42.35"/>
<text text-anchor="middle" x="328.02" y="-230.08" font-family="Arial" font-size="24.00">HOST DISCOVERY</text>
<text text-anchor="middle" x="328.02" y="-204.08" font-family="Arial" font-size="24.00">http</text>
</a>
</g>
</g>
<!-- VULNERABILTY DISCOVERY
ms&#45;sql&#45;s -->
<g id="node4" class="node">
<title>VULNERABILTY DISCOVERY
ms&#45;sql&#45;s</title>
<g id="a_node4"><a xlink:title="ET SCAN Suspicious inbound to Oracle SQL port 1521&#10;ET SCAN Suspicious inbound to MSSQL port 1433&#10;ET SCAN Suspicious inbound to mySQL port 3306&#10;ET SCAN Nikto Web App Scan in Progress&#10;ET SCAN Suspicious inbound to PostgreSQL port 5432&#10;ET SCAN Suspicious inbound to mSQL port 4333">
<ellipse fill="none" stroke="black" stroke-width="3" cx="344.02" cy="-556.98" rx="238.09" ry="42.35"/>
<text text-anchor="middle" x="344.02" y="-563.78" font-family="Arial" font-size="24.00">VULNERABILTY DISCOVERY</text>
<text text-anchor="middle" x="344.02" y="-537.78" font-family="Arial" font-size="24.00">ms&#45;sql&#45;s</text>
</a>
</g>
</g>
<!-- HOST DISCOVERY
http&#45;&gt;VULNERABILTY DISCOVERY
ms&#45;sql&#45;s -->
<g id="edge2" class="edge">
<title>HOST DISCOVERY
http&#45;&gt;VULNERABILTY DISCOVERY
ms&#45;sql&#45;s</title>
<path fill="none" stroke="maroon" stroke-width="5" d="M327.48,-266C327.18,-319.18 327.9,-414.2 335.96,-504.39"/>
<polygon fill="maroon" stroke="maroon" stroke-width="5" points="331.62,-504.95 336.89,-514.51 340.33,-504.14 331.62,-504.95"/>
<text text-anchor="start" x="331.02" y="-415.13" font-family="Arial" font-size="20.00" fill="maroon"> start_next: 03/11/18, 14:42:24</text>
<text text-anchor="start" x="438.02" y="-395.13" font-family="Arial" font-size="20.00" fill="maroon">gap: 2sec</text>
<text text-anchor="start" x="339.02" y="-375.13" font-family="Arial" font-size="20.00" fill="maroon">end_prev: 03/11/18, 14:42:22</text>
<text text-anchor="start" x="355.02" y="-355.13" font-family="Arial" font-weight="bold" font-size="20.00" fill="maroon">Attacker: 10.0.254.201</text>
</g>
<!-- HOST DISCOVERY
http&#45;&gt;VULNERABILTY DISCOVERY
ms&#45;sql&#45;s -->
<g id="edge12" class="edge">
<title>HOST DISCOVERY
http&#45;&gt;VULNERABILTY DISCOVERY
ms&#45;sql&#45;s</title>
<path fill="none" stroke="maroon" stroke-width="5" d="M186.65,-243.87C123.38,-260.46 54.5,-291.1 16.02,-347.71 -5.19,-378.89 -5.45,-401.55 16.02,-432.56 48.19,-479.04 100.22,-508.05 153.46,-526.13"/>
<polygon fill="maroon" stroke="maroon" stroke-width="5" points="152.19,-530.32 163.05,-529.27 154.91,-522 152.19,-530.32"/>
<text text-anchor="start" x="16.02" y="-415.13" font-family="Arial" font-size="20.00" fill="maroon"> start_next: 03/11/18, 17:37:52</text>
<text text-anchor="start" x="123.02" y="-395.13" font-family="Arial" font-size="20.00" fill="maroon">gap: 4sec</text>
<text text-anchor="start" x="24.02" y="-375.13" font-family="Arial" font-size="20.00" fill="maroon">end_prev: 03/11/18, 17:37:48</text>
<text text-anchor="start" x="40.02" y="-355.13" font-family="Arial" font-weight="bold" font-size="20.00" fill="maroon">Attacker: 10.0.254.204</text>
</g>
<!-- INFO DISCOVERY
http -->
<g id="node5" class="node">
<title>INFO DISCOVERY
http</title>
<g id="a_node5"><a xlink:title="GPL WEB_SERVER iisadmin access&#10;GPL WEB_SERVER printenv access&#10;GPL WEB_SERVER author.exe access&#10;ET WEB_SERVER PHP Easteregg Information&#45;Disclosure (phpinfo)&#10;ET WEB_SERVER PHP Easteregg Information&#45;Disclosure (funny&#45;logo)&#10;GPL WEB_SERVER globals.pl access&#10;GPL WEB_SERVER viewcode access&#10;ET WEB_SPECIFIC_APPS Request to Wordpress W3TC Plug&#45;in dbcache Directory&#10;GPL EXPLOIT ISAPI .idq attempt&#10;ET POLICY Proxy TRACE Request &#45; inbound&#10;GPL WEB_SERVER /~root access&#10;GPL WEB_SERVER service.pwd&#10;ET WEB_SERVER PHP REQUEST SuperGlobal in URI&#10;ET WEB_SERVER PHP Easteregg Information&#45;Disclosure (php&#45;logo)&#10;GPL WEB_SERVER services.cnf access&#10;GPL EXPLOIT unicode directory traversal attempt&#10;GPL EXPLOIT .htr access&#10;GPL EXPLOIT .cnf access&#10;ET WEB_SERVER PHP SERVER SuperGlobal in URI&#10;GPL WEB_SERVER .htaccess access&#10;GPL EXPLOIT iisadmpwd attempt&#10;GPL WEB_SERVER service.cnf access&#10;GPL WEB_SERVER global.asa access&#10;GPL EXPLOIT fpcount access&#10;GPL WEB_SERVER .htpasswd access&#10;ET WEB_SERVER PHP SESSION SuperGlobal in URI&#10;GPL WEB_SERVER 403 Forbidden&#10;GPL WEB_SERVER writeto.cnf access&#10;GPL EXPLOIT iissamples access&#10;ET WEB_SERVER PHP Easteregg Information&#45;Disclosure (zend&#45;logo)&#10;ET WEB_SERVER PHP ENV SuperGlobal in URI&#10;GPL WEB_SERVER authors.pwd access">
<ellipse fill="none" stroke="black" stroke-width="3" cx="888.02" cy="-390.13" rx="154.3" ry="42.35"/>
<text text-anchor="middle" x="888.02" y="-396.93" font-family="Arial" font-size="24.00">INFO DISCOVERY</text>
<text text-anchor="middle" x="888.02" y="-370.93" font-family="Arial" font-size="24.00">http</text>
</a>
</g>
</g>
<!-- HOST DISCOVERY
http&#45;&gt;INFO DISCOVERY
http -->
<g id="edge23" class="edge">
<title>HOST DISCOVERY
http&#45;&gt;INFO DISCOVERY
http</title>
<path fill="none" stroke="maroon" stroke-width="5" d="M433.68,-255.38C530.92,-284.01 674.75,-326.35 774.42,-355.69"/>
<polygon fill="maroon" stroke="maroon" stroke-width="5" points="773.4,-359.95 784.23,-358.58 775.87,-351.56 773.4,-359.95"/>
<text text-anchor="middle" x="858.52" y="-323.71" font-family="Arial" font-size="20.00" fill="maroon">start_next: 03/11/18, 22:31:05</text>
<text text-anchor="middle" x="858.52" y="-301.71" font-family="Arial" font-size="20.00" fill="maroon">gap: 2sec</text>
<text text-anchor="middle" x="858.52" y="-279.71" font-family="Arial" font-size="20.00" fill="maroon">end_prev: 03/11/18, 22:31:03</text>
</g>
<!-- VULNERABILTY DISCOVERY
ms&#45;sql&#45;s&#45;&gt;INFO DISCOVERY
http -->
<g id="edge3" class="edge">
<title>VULNERABILTY DISCOVERY
ms&#45;sql&#45;s&#45;&gt;INFO DISCOVERY
http</title>
<path fill="none" stroke="maroon" stroke-width="5" d="M558.74,-538.57C599.67,-531.32 634.57,-521.06 650.02,-506.56 671.95,-485.97 643.69,-461.77 665.02,-440.56 677.2,-428.44 706.71,-418.86 740.41,-411.49"/>
<polygon fill="maroon" stroke="maroon" stroke-width="5" points="741.61,-415.71 750.5,-409.37 739.81,-407.14 741.61,-415.71"/>
<text text-anchor="middle" x="817.52" y="-490.56" font-family="Arial" font-size="20.00" fill="maroon">start_next: 03/11/18, 14:42:24</text>
<text text-anchor="middle" x="817.52" y="-468.56" font-family="Arial" font-size="20.00" fill="maroon">gap: &#45;27sec</text>
<text text-anchor="middle" x="817.52" y="-446.56" font-family="Arial" font-size="20.00" fill="maroon">end_prev: 03/11/18, 14:42:50</text>
</g>
<!-- DATA EXFILTRATION
http | ID: 12 -->
<g id="node6" class="node">
<title>DATA EXFILTRATION
http | ID: 12</title>
<g id="a_node6"><a xlink:title="ET WEB_SERVER Possible XXE SYSTEM ENTITY in POST BODY.&#10;GPL EXPLOIT ISAPI .ida access&#10;ET WEB_SERVER /system32/ in Uri &#45; Possible Protected Directory Access Attempt&#10;GPL WEB_SERVER Tomcat server snoop access&#10;ET WEB_SERVER ColdFusion componentutils access&#10;GPL EXPLOIT /msadc/samples/ access&#10;ET WEB_SPECIFIC_APPS PHP&#45;CGI query string parameter vulnerability&#10;GPL EXPLOIT ISAPI .idq access&#10;ET WEB_SERVER /etc/shadow Detected in URI">
<polygon fill="none" stroke="black" stroke-width="3" points="1179.9,-730.4 1077.46,-779.38 872.58,-779.38 770.13,-730.4 872.58,-681.42 1077.46,-681.42 1179.9,-730.4"/>
<text text-anchor="middle" x="975.02" y="-737.2" font-family="Arial" font-size="24.00">DATA EXFILTRATION</text>
<text text-anchor="middle" x="975.02" y="-711.2" font-family="Arial" font-size="24.00">http | ID: 12</text>
</a>
</g>
</g>
<!-- VULNERABILTY DISCOVERY
ms&#45;sql&#45;s&#45;&gt;DATA EXFILTRATION
http | ID: 12 -->
<g id="edge13" class="edge">
<title>VULNERABILTY DISCOVERY
ms&#45;sql&#45;s&#45;&gt;DATA EXFILTRATION
http | ID: 12</title>
<path fill="none" stroke="maroon" stroke-width="5" d="M558.74,-575.4C599.67,-582.65 634.57,-592.91 650.02,-607.41 671.95,-628 643.27,-652.62 665.02,-673.41 684.83,-692.35 736.65,-705.05 792.37,-713.48"/>
<polygon fill="maroon" stroke="maroon" stroke-width="5" points="791.92,-717.83 802.45,-714.95 793.18,-709.18 791.92,-717.83"/>
<text text-anchor="middle" x="817.52" y="-657.41" font-family="Arial" font-size="20.00" fill="maroon">start_next: 03/11/18, 17:37:53</text>
<text text-anchor="middle" x="817.52" y="-635.41" font-family="Arial" font-size="20.00" fill="maroon">gap: &#45;292sec</text>
<text text-anchor="middle" x="817.52" y="-613.41" font-family="Arial" font-size="20.00" fill="maroon">end_prev: 03/11/18, 17:42:45</text>
</g>
<!-- VULNERABILTY DISCOVERY
ms&#45;sql&#45;s&#45;&gt;DATA EXFILTRATION
http | ID: 12 -->
<g id="edge25" class="edge">
<title>VULNERABILTY DISCOVERY
ms&#45;sql&#45;s&#45;&gt;DATA EXFILTRATION
http | ID: 12</title>
<path fill="none" stroke="maroon" stroke-width="5" d="M331.39,-599.54C326.71,-624.05 326.22,-653.97 344.02,-673.41 372.76,-704.82 597.66,-718.72 770.86,-724.8"/>
<polygon fill="maroon" stroke="maroon" stroke-width="5" points="770.74,-729.17 780.88,-725.14 771.04,-720.43 770.74,-729.17"/>
<text text-anchor="middle" x="496.52" y="-657.41" font-family="Arial" font-size="20.00" fill="maroon">start_next: 03/11/18, 22:31:05</text>
<text text-anchor="middle" x="496.52" y="-635.41" font-family="Arial" font-size="20.00" fill="maroon">gap: &#45;46sec</text>
<text text-anchor="middle" x="496.52" y="-613.41" font-family="Arial" font-size="20.00" fill="maroon">end_prev: 03/11/18, 22:31:51</text>
</g>
<!-- INFO DISCOVERY
http&#45;&gt;VULNERABILTY DISCOVERY
ms&#45;sql&#45;s -->
<g id="edge24" class="edge">
<title>INFO DISCOVERY
http&#45;&gt;VULNERABILTY DISCOVERY
ms&#45;sql&#45;s</title>
<path fill="none" stroke="maroon" stroke-width="5" d="M763.89,-415.33C724.44,-422.09 680.53,-428.65 640.02,-432.56 623.64,-434.14 355.49,-428.77 344.02,-440.56 335.19,-449.62 335.07,-477.82 337.22,-504.07"/>
<polygon fill="maroon" stroke="maroon" stroke-width="5" points="332.89,-504.82 338.17,-514.37 341.6,-504.01 332.89,-504.82"/>
<text text-anchor="middle" x="496.52" y="-490.56" font-family="Arial" font-size="20.00" fill="maroon">start_next: 03/11/18, 22:31:05</text>
<text text-anchor="middle" x="496.52" y="-468.56" font-family="Arial" font-size="20.00" fill="maroon">gap: &#45;28sec</text>
<text text-anchor="middle" x="496.52" y="-446.56" font-family="Arial" font-size="20.00" fill="maroon">end_prev: 03/11/18, 22:31:33</text>
</g>
<!-- INFO DISCOVERY
http&#45;&gt;DATA EXFILTRATION
http | ID: 12 -->
<g id="edge4" class="edge">
<title>INFO DISCOVERY
http&#45;&gt;DATA EXFILTRATION
http | ID: 12</title>
<path fill="none" stroke="maroon" stroke-width="5" d="M957.72,-428.11C961.28,-431.92 964.44,-436.06 967.02,-440.56 978.12,-459.96 977.64,-592.38 976.32,-671.02"/>
<polygon fill="maroon" stroke="maroon" stroke-width="5" points="971.94,-671.2 976.14,-681.27 980.69,-671.35 971.94,-671.2"/>
<text text-anchor="middle" x="1128.52" y="-573.98" font-family="Arial" font-size="20.00" fill="maroon">start_next: 03/11/18, 14:42:24</text>
<text text-anchor="middle" x="1128.52" y="-551.98" font-family="Arial" font-size="20.00" fill="maroon">gap: &#45;13sec</text>
<text text-anchor="middle" x="1128.52" y="-529.98" font-family="Arial" font-size="20.00" fill="maroon">end_prev: 03/11/18, 14:42:37</text>
</g>
<!-- ARBITRARY CODE EXECUTION
http | ID: 97 -->
<g id="node7" class="node">
<title>ARBITRARY CODE EXECUTION
http | ID: 97</title>
<g id="a_node7"><a xlink:title="ET WEB_SERVER Possible CVE&#45;2014&#45;6271 Attempt&#10;ET WEB_SPECIFIC_APPS WEB&#45;PHP RCE PHPBB 2004&#45;1315&#10;ET WEB_SPECIFIC_APPS Golem Gaming Portal root_path Parameter Remote File inclusion Attempt&#10;ET WEB_SPECIFIC_APPS Joomla swMenuPro ImageManager.php Remote File Inclusion Attempt&#10;ETPRO WEB_SPECIFIC_APPS PHPMoAdmin RCE Attempt&#10;ET WEB_SERVER cmd.exe In URI &#45; Possible Command Execution Attempt&#10;ET WEB_SERVER Exploit Suspected PHP Injection Attack (cmd=)&#10;ET WEB_SPECIFIC_APPS FormMailer formmailer.admin.inc.php BASE_DIR Parameter Remote File Inclusion Attempt&#10;ET WEB_SPECIFIC_APPS DesktopOnNet don3_requiem.php app_path Parameter Remote File Inclusion&#10;ET WEB_SPECIFIC_APPS Joomla Dada Mail Manager Component config.dadamail.php GLOBALS Parameter Remote File Inclusion&#10;ET WEB_SERVER Possible CVE&#45;2014&#45;6271 Attempt in Headers&#10;ET WEB_SPECIFIC_APPS Achievo debugger.php config_atkroot parameter Remote File Inclusion Attempt&#10;ET CURRENT_EVENTS QNAP Shellshock CVE&#45;2014&#45;6271&#10;ET WEB_SPECIFIC_APPS KingCMS menu.php CONFIG Parameter Remote File Inclusion&#10;ET WEB_SPECIFIC_APPS AjaxPortal di.php pathtoserverdata Parameter Remote File Inclusion Attempt&#10;ET WEB_SPECIFIC_APPS BASE base_stat_common.php remote file include&#10;ET WEB_SPECIFIC_APPS DesktopOnNet frontpage.php app_path Parameter Remote File Inclusion&#10;ET WEB_SPECIFIC_APPS KR&#45;Web krgourl.php DOCUMENT_ROOT Parameter Remote File Inclusion Attempt&#10;ET WEB_SPECIFIC_APPS Joomla AjaxChat Component ajcuser.php GLOBALS Parameter Remote File Inclusion Attempt&#10;ET WEB_SPECIFIC_APPS Horde type Parameter Local File Inclusion Attempt">
<polygon fill="none" stroke="black" stroke-width="3" points="1478.52,-921.39 1105.52,-921.39 1105.52,-861.39 1478.52,-861.39 1478.52,-921.39"/>
<text text-anchor="middle" x="1292.02" y="-898.19" font-family="Arial" font-size="24.00">ARBITRARY CODE EXECUTION</text>
<text text-anchor="middle" x="1292.02" y="-872.19" font-family="Arial" font-size="24.00">http | ID: 97</text>
</a>
</g>
</g>
<!-- INFO DISCOVERY
http&#45;&gt;ARBITRARY CODE EXECUTION
http | ID: 97 -->
<g id="edge15" class="edge">
<title>INFO DISCOVERY
http&#45;&gt;ARBITRARY CODE EXECUTION
http | ID: 97</title>
<path fill="none" stroke="maroon" stroke-width="5" d="M1041.35,-395.2C1229.53,-403.81 1532.31,-430.7 1602.02,-514.56 1698.28,-630.37 1701.99,-740.77 1602.02,-853.39 1593.13,-863.4 1544.91,-871.2 1489.05,-877"/>
<polygon fill="maroon" stroke="maroon" stroke-width="5" points="1488.42,-872.66 1478.91,-878.02 1489.3,-881.37 1488.42,-872.66"/>
<text text-anchor="middle" x="1827.52" y="-657.41" font-family="Arial" font-size="20.00" fill="maroon">start_next: 03/11/18, 17:37:56</text>
<text text-anchor="middle" x="1827.52" y="-635.41" font-family="Arial" font-size="20.00" fill="maroon">gap: &#45;45sec</text>
<text text-anchor="middle" x="1827.52" y="-613.41" font-family="Arial" font-size="20.00" fill="maroon">end_prev: 03/11/18, 17:38:41</text>
</g>
<!-- DATA EXFILTRATION
http | ID: 12&#45;&gt;INFO DISCOVERY
http -->
<g id="edge14" class="edge">
<title>DATA EXFILTRATION
http | ID: 12&#45;&gt;INFO DISCOVERY
http</title>
<path fill="none" stroke="maroon" stroke-width="5" d="M1123.56,-703.46C1183.26,-684.95 1246.29,-653.33 1282.02,-599.41 1302.84,-567.97 1304.34,-544.95 1282.02,-514.56 1250.9,-472.21 1126.19,-437.88 1025.3,-416.28"/>
<polygon fill="maroon" stroke="maroon" stroke-width="5" points="1025.99,-411.96 1015.3,-414.17 1024.18,-420.52 1025.99,-411.96"/>
<text text-anchor="middle" x="1450.52" y="-573.98" font-family="Arial" font-size="20.00" fill="maroon">start_next: 03/11/18, 17:37:53</text>
<text text-anchor="middle" x="1450.52" y="-551.98" font-family="Arial" font-size="20.00" fill="maroon">gap: &#45;48sec</text>
<text text-anchor="middle" x="1450.52" y="-529.98" font-family="Arial" font-size="20.00" fill="maroon">end_prev: 03/11/18, 17:38:41</text>
</g>
<!-- DATA EXFILTRATION
http | ID: 12&#45;&gt;ARBITRARY CODE EXECUTION
http | ID: 97 -->
<g id="edge5" class="edge">
<title>DATA EXFILTRATION
http | ID: 12&#45;&gt;ARBITRARY CODE EXECUTION
http | ID: 97</title>
<path fill="none" stroke="maroon" stroke-width="5" d="M1149.09,-745.23C1207.05,-753.52 1261.77,-766.66 1281.02,-787.39 1296.58,-804.16 1299.39,-829.69 1298.28,-851.13"/>
<polygon fill="maroon" stroke="maroon" stroke-width="5" points="1293.91,-850.96 1297.46,-861.28 1302.63,-851.66 1293.91,-850.96"/>
<text text-anchor="middle" x="1450.52" y="-837.39" font-family="Arial" font-size="20.00" fill="maroon">start_next: 03/11/18, 14:42:25</text>
<text text-anchor="middle" x="1450.52" y="-815.39" font-family="Arial" font-size="20.00" fill="maroon">gap: &#45;12sec</text>
<text text-anchor="middle" x="1450.52" y="-793.39" font-family="Arial" font-size="20.00" fill="maroon">end_prev: 03/11/18, 14:42:37</text>
</g>
<!-- DATA EXFILTRATION
http | ID: 12&#45;&gt;ARBITRARY CODE EXECUTION
http | ID: 97 -->
<g id="edge26" class="edge">
<title>DATA EXFILTRATION
http | ID: 12&#45;&gt;ARBITRARY CODE EXECUTION
http | ID: 97</title>
<path fill="none" stroke="maroon" stroke-width="5" d="M961.09,-779.61C957.01,-804.54 957.56,-833.77 975.02,-853.39 984.35,-863.88 1036.01,-871.87 1095.01,-877.68"/>
<polygon fill="maroon" stroke="maroon" stroke-width="5" points="1094.94,-882.07 1105.32,-878.67 1095.78,-873.36 1094.94,-882.07"/>
<text text-anchor="middle" x="1127.52" y="-837.39" font-family="Arial" font-size="20.00" fill="maroon">start_next: 03/11/18, 22:31:07</text>
<text text-anchor="middle" x="1127.52" y="-815.39" font-family="Arial" font-size="20.00" fill="maroon">gap: &#45;26sec</text>
<text text-anchor="middle" x="1127.52" y="-793.39" font-family="Arial" font-size="20.00" fill="maroon">end_prev: 03/11/18, 22:31:33</text>
</g>
<!-- ROOT PRIVILEGE ESCALATION
http | ID: 51 -->
<g id="node8" class="node">
<title>ROOT PRIVILEGE ESCALATION
http | ID: 51</title>
<g id="a_node8"><a xlink:title="GPL EXPLOIT CodeRed v2 root.exe access&#10;ET WEB_SERVER ColdFusion administrator access&#10;ETPRO WEB_SPECIFIC_APPS ipTIME firmware &lt; 9.58 RCE&#10;GPL EXPLOIT administrators.pwd access">
<polygon fill="none" stroke="black" stroke-width="3" points="1479.02,-1063.39 1105.02,-1063.39 1105.02,-1003.39 1479.02,-1003.39 1479.02,-1063.39"/>
<text text-anchor="middle" x="1292.02" y="-1040.19" font-family="Arial" font-size="24.00">ROOT PRIVILEGE ESCALATION</text>
<text text-anchor="middle" x="1292.02" y="-1014.19" font-family="Arial" font-size="24.00">http | ID: 51</text>
</a>
</g>
</g>
<!-- ARBITRARY CODE EXECUTION
http | ID: 97&#45;&gt;ROOT PRIVILEGE ESCALATION
http | ID: 51 -->
<g id="edge6" class="edge">
<title>ARBITRARY CODE EXECUTION
http | ID: 97&#45;&gt;ROOT PRIVILEGE ESCALATION
http | ID: 51</title>
<path fill="none" stroke="maroon" stroke-width="5" d="M1105.49,-904.45C1043.97,-910.35 988.65,-918.55 979.02,-929.39 959.53,-951.32 959.53,-973.47 979.02,-995.39 988.08,-1005.59 1037.58,-1013.46 1094.64,-1019.26"/>
<polygon fill="maroon" stroke="maroon" stroke-width="5" points="1094.23,-1023.62 1104.62,-1020.25 1095.1,-1014.91 1094.23,-1023.62"/>
<text text-anchor="middle" x="1131.52" y="-979.39" font-family="Arial" font-size="20.00" fill="maroon">start_next: 03/11/18, 14:42:25</text>
<text text-anchor="middle" x="1131.52" y="-957.39" font-family="Arial" font-size="20.00" fill="maroon">gap: &#45;12sec</text>
<text text-anchor="middle" x="1131.52" y="-935.39" font-family="Arial" font-size="20.00" fill="maroon">end_prev: 03/11/18, 14:42:37</text>
</g>
<!-- ARBITRARY CODE EXECUTION
http | ID: 97&#45;&gt;ROOT PRIVILEGE ESCALATION
http | ID: 51 -->
<g id="edge16" class="edge">
<title>ARBITRARY CODE EXECUTION
http | ID: 97&#45;&gt;ROOT PRIVILEGE ESCALATION
http | ID: 51</title>
<path fill="none" stroke="maroon" stroke-width="5" d="M1292.02,-921.4C1292.02,-942.1 1292.02,-970.18 1292.02,-992.91"/>
<polygon fill="maroon" stroke="maroon" stroke-width="5" points="1287.64,-992.94 1292.02,-1002.94 1296.39,-992.94 1287.64,-992.94"/>
<text text-anchor="middle" x="1444.52" y="-979.39" font-family="Arial" font-size="20.00" fill="maroon">start_next: 03/11/18, 17:37:58</text>
<text text-anchor="middle" x="1444.52" y="-957.39" font-family="Arial" font-size="20.00" fill="maroon">gap: &#45;44sec</text>
<text text-anchor="middle" x="1444.52" y="-935.39" font-family="Arial" font-size="20.00" fill="maroon">end_prev: 03/11/18, 17:38:42</text>
</g>
<!-- ARBITRARY CODE EXECUTION
http | ID: 97&#45;&gt;ROOT PRIVILEGE ESCALATION
http | ID: 51 -->
<g id="edge27" class="edge">
<title>ARBITRARY CODE EXECUTION
http | ID: 97&#45;&gt;ROOT PRIVILEGE ESCALATION
http | ID: 51</title>
<path fill="none" stroke="maroon" stroke-width="5" d="M1478.63,-905.11C1537.06,-911 1588.83,-919.03 1598.02,-929.39 1617.47,-951.34 1617.47,-973.44 1598.02,-995.39 1589.39,-1005.12 1543.2,-1012.8 1489.22,-1018.58"/>
<polygon fill="maroon" stroke="maroon" stroke-width="5" points="1488.55,-1014.25 1479.05,-1019.63 1489.45,-1022.95 1488.55,-1014.25"/>
<text text-anchor="middle" x="1764.52" y="-979.39" font-family="Arial" font-size="20.00" fill="maroon">start_next: 03/11/18, 22:31:07</text>
<text text-anchor="middle" x="1764.52" y="-957.39" font-family="Arial" font-size="20.00" fill="maroon">gap: &#45;26sec</text>
<text text-anchor="middle" x="1764.52" y="-935.39" font-family="Arial" font-size="20.00" fill="maroon">end_prev: 03/11/18, 22:31:33</text>
</g>
<!-- DATA MANIPULATION
http | ID: 13 -->
<g id="node9" class="node">
<title>DATA MANIPULATION
http | ID: 13</title>
<g id="a_node9"><a xlink:title="ET WEB_SERVER Possible SQL Injection Attempt UNION SELECT&#10;ET WEB_SERVER Possible SQL Injection Attempt SELECT FROM&#10;ET WEB_SERVER MYSQL SELECT CONCAT SQL Injection Attempt">
<polygon fill="none" stroke="black" stroke-width="3" points="1509.39,-1194.38 1400.7,-1243.36 1183.33,-1243.36 1074.64,-1194.38 1183.33,-1145.4 1400.7,-1145.4 1509.39,-1194.38"/>
<text text-anchor="middle" x="1292.02" y="-1201.18" font-family="Arial" font-size="24.00">DATA MANIPULATION</text>
<text text-anchor="middle" x="1292.02" y="-1175.18" font-family="Arial" font-size="24.00">http | ID: 13</text>
</a>
</g>
</g>
<!-- ROOT PRIVILEGE ESCALATION
http | ID: 51&#45;&gt;DATA MANIPULATION
http | ID: 13 -->
<g id="edge7" class="edge">
<title>ROOT PRIVILEGE ESCALATION
http | ID: 51&#45;&gt;DATA MANIPULATION
http | ID: 13</title>
<path fill="none" stroke="maroon" stroke-width="5" d="M1104.62,-1046.53C1043.45,-1052.42 988.6,-1060.6 979.02,-1071.39 959.53,-1093.32 960.19,-1114.9 979.02,-1137.39 995.82,-1157.47 1043.13,-1170.35 1096.05,-1178.62"/>
<polygon fill="maroon" stroke="maroon" stroke-width="5" points="1095.45,-1182.95 1105.99,-1180.11 1096.75,-1174.3 1095.45,-1182.95"/>
<text text-anchor="middle" x="1131.52" y="-1121.39" font-family="Arial" font-size="20.00" fill="maroon">start_next: 03/11/18, 14:42:26</text>
<text text-anchor="middle" x="1131.52" y="-1099.39" font-family="Arial" font-size="20.00" fill="maroon">gap: &#45;4sec</text>
<text text-anchor="middle" x="1131.52" y="-1077.39" font-family="Arial" font-size="20.00" fill="maroon">end_prev: 03/11/18, 14:42:30</text>
</g>
<!-- ROOT PRIVILEGE ESCALATION
http | ID: 51&#45;&gt;DATA MANIPULATION
http | ID: 13 -->
<g id="edge17" class="edge">
<title>ROOT PRIVILEGE ESCALATION
http | ID: 51&#45;&gt;DATA MANIPULATION
http | ID: 13</title>
<path fill="none" stroke="maroon" stroke-width="5" d="M1292.02,-1063.55C1292.02,-1083.55 1292.02,-1110.78 1292.02,-1135.13"/>
<polygon fill="maroon" stroke="maroon" stroke-width="5" points="1287.64,-1135.37 1292.02,-1145.37 1296.39,-1135.37 1287.64,-1135.37"/>
<text text-anchor="middle" x="1444.52" y="-1121.39" font-family="Arial" font-size="20.00" fill="maroon">start_next: 03/11/18, 17:38:01</text>
<text text-anchor="middle" x="1444.52" y="-1099.39" font-family="Arial" font-size="20.00" fill="maroon">gap: &#45;15sec</text>
<text text-anchor="middle" x="1444.52" y="-1077.39" font-family="Arial" font-size="20.00" fill="maroon">end_prev: 03/11/18, 17:38:16</text>
</g>
<!-- ROOT PRIVILEGE ESCALATION
http | ID: 51&#45;&gt;DATA MANIPULATION
http | ID: 13 -->
<g id="edge28" class="edge">
<title>ROOT PRIVILEGE ESCALATION
http | ID: 51&#45;&gt;DATA MANIPULATION
http | ID: 13</title>
<path fill="none" stroke="maroon" stroke-width="5" d="M1479.05,-1047.15C1537.31,-1053.04 1588.85,-1061.05 1598.02,-1071.39 1617.47,-1093.34 1616.8,-1114.86 1598.02,-1137.39 1581.93,-1156.69 1537.11,-1169.36 1486.57,-1177.66"/>
<polygon fill="maroon" stroke="maroon" stroke-width="5" points="1485.59,-1173.39 1476.39,-1179.27 1486.95,-1182.03 1485.59,-1173.39"/>
<text text-anchor="middle" x="1764.52" y="-1121.39" font-family="Arial" font-size="20.00" fill="maroon">start_next: 03/11/18, 22:31:09</text>
<text text-anchor="middle" x="1764.52" y="-1099.39" font-family="Arial" font-size="20.00" fill="maroon">gap: &#45;9sec</text>
<text text-anchor="middle" x="1764.52" y="-1077.39" font-family="Arial" font-size="20.00" fill="maroon">end_prev: 03/11/18, 22:31:18</text>
</g>
<!-- SURFING
http -->
<g id="node10" class="node">
<title>SURFING
http</title>
<g id="a_node10"><a xlink:title="ET WEB_SERVER WEB&#45;PHP phpinfo access">
<ellipse fill="none" stroke="black" stroke-width="3" cx="1292.02" cy="-1367.8" rx="86.03" ry="42.35"/>
<text text-anchor="middle" x="1292.02" y="-1374.6" font-family="Arial" font-size="24.00">SURFING</text>
<text text-anchor="middle" x="1292.02" y="-1348.6" font-family="Arial" font-size="24.00">http</text>
</a>
</g>
</g>
<!-- DATA MANIPULATION
http | ID: 13&#45;&gt;SURFING
http -->
<g id="edge8" class="edge">
<title>DATA MANIPULATION
http | ID: 13&#45;&gt;SURFING
http</title>
<path fill="none" stroke="maroon" stroke-width="5" d="M1105.99,-1208.65C1049.14,-1216.83 996.86,-1230.05 979.02,-1251.37 960.19,-1273.86 959.96,-1295.07 979.02,-1317.37 1006.52,-1349.56 1114.1,-1360.91 1195.52,-1364.84"/>
<polygon fill="maroon" stroke="maroon" stroke-width="5" points="1195.63,-1369.23 1205.81,-1365.31 1196.02,-1360.48 1195.63,-1369.23"/>
<text text-anchor="middle" x="1131.52" y="-1301.37" font-family="Arial" font-size="20.00" fill="maroon">start_next: 03/11/18, 14:42:26</text>
<text text-anchor="middle" x="1131.52" y="-1279.37" font-family="Arial" font-size="20.00" fill="maroon">gap: &#45;3sec</text>
<text text-anchor="middle" x="1131.52" y="-1257.37" font-family="Arial" font-size="20.00" fill="maroon">end_prev: 03/11/18, 14:42:29</text>
</g>
<!-- DATA MANIPULATION
http | ID: 13&#45;&gt;SURFING
http -->
<g id="edge18" class="edge">
<title>DATA MANIPULATION
http | ID: 13&#45;&gt;SURFING
http</title>
<path fill="none" stroke="maroon" stroke-width="5" d="M1292.02,-1243.59C1292.02,-1265.91 1292.02,-1292.47 1292.02,-1315.2"/>
<polygon fill="maroon" stroke="maroon" stroke-width="5" points="1287.64,-1315.35 1292.02,-1325.35 1296.39,-1315.35 1287.64,-1315.35"/>
<text text-anchor="middle" x="1444.52" y="-1301.37" font-family="Arial" font-size="20.00" fill="maroon">start_next: 03/11/18, 17:38:01</text>
<text text-anchor="middle" x="1444.52" y="-1279.37" font-family="Arial" font-size="20.00" fill="maroon">gap: &#45;10sec</text>
<text text-anchor="middle" x="1444.52" y="-1257.37" font-family="Arial" font-size="20.00" fill="maroon">end_prev: 03/11/18, 17:38:12</text>
</g>
<!-- DATA MANIPULATION
http | ID: 13&#45;&gt;SURFING
http -->
<g id="edge29" class="edge">
<title>DATA MANIPULATION
http | ID: 13&#45;&gt;SURFING
http</title>
<path fill="none" stroke="maroon" stroke-width="5" d="M1476.39,-1209.49C1531.01,-1217.74 1580.85,-1230.78 1598.02,-1251.37 1616.8,-1273.9 1617.03,-1295.04 1598.02,-1317.37 1571.38,-1348.66 1467.62,-1360.21 1388.24,-1364.43"/>
<polygon fill="maroon" stroke="maroon" stroke-width="5" points="1387.96,-1360.06 1378.2,-1364.93 1388.4,-1368.8 1387.96,-1360.06"/>
<text text-anchor="middle" x="1764.52" y="-1301.37" font-family="Arial" font-size="20.00" fill="maroon">start_next: 03/11/18, 22:31:09</text>
<text text-anchor="middle" x="1764.52" y="-1279.37" font-family="Arial" font-size="20.00" fill="maroon">gap: &#45;6sec</text>
<text text-anchor="middle" x="1764.52" y="-1257.37" font-family="Arial" font-size="20.00" fill="maroon">end_prev: 03/11/18, 22:31:15</text>
</g>
<!-- ACCOUNT MANIPULATION
http | ID: 98 -->
<g id="node11" class="node">
<title>ACCOUNT MANIPULATION
http | ID: 98</title>
<g id="a_node11"><a xlink:title="GPL EXPLOIT /iisadmpwd/aexp2.htr access&#10;ET WEB_SERVER SELECT USER SQL Injection Attempt in URI">
<polygon fill="none" stroke="black" stroke-width="3" points="1453.52,-1552.22 1130.52,-1552.22 1130.52,-1492.22 1453.52,-1492.22 1453.52,-1552.22"/>
<text text-anchor="middle" x="1292.02" y="-1529.02" font-family="Arial" font-size="24.00">ACCOUNT MANIPULATION</text>
<text text-anchor="middle" x="1292.02" y="-1503.02" font-family="Arial" font-size="24.00">http | ID: 98</text>
</a>
</g>
</g>
<!-- SURFING
http&#45;&gt;ACCOUNT MANIPULATION
http | ID: 98 -->
<g id="edge9" class="edge">
<title>SURFING
http&#45;&gt;ACCOUNT MANIPULATION
http | ID: 98</title>
<path fill="none" stroke="maroon" stroke-width="5" d="M1205.81,-1370.29C1123.44,-1373.75 1007.7,-1384.66 979.02,-1418.22 959.96,-1440.52 959.53,-1462.3 979.02,-1484.22 989.39,-1495.89 1052.73,-1504.51 1119.75,-1510.48"/>
<polygon fill="maroon" stroke="maroon" stroke-width="5" points="1119.75,-1514.87 1130.1,-1511.38 1120.51,-1506.16 1119.75,-1514.87"/>
<text text-anchor="middle" x="1131.52" y="-1468.22" font-family="Arial" font-size="20.00" fill="maroon">start_next: 03/11/18, 14:42:27</text>
<text text-anchor="middle" x="1131.52" y="-1446.22" font-family="Arial" font-size="20.00" fill="maroon">gap: &#45;8sec</text>
<text text-anchor="middle" x="1131.52" y="-1424.22" font-family="Arial" font-size="20.00" fill="maroon">end_prev: 03/11/18, 14:42:36</text>
</g>
<!-- SURFING
http&#45;&gt;ACCOUNT MANIPULATION
http | ID: 98 -->
<g id="edge19" class="edge">
<title>SURFING
http&#45;&gt;ACCOUNT MANIPULATION
http | ID: 98</title>
<path fill="none" stroke="maroon" stroke-width="5" d="M1292.02,-1410.45C1292.02,-1432.72 1292.02,-1459.98 1292.02,-1481.89"/>
<polygon fill="maroon" stroke="maroon" stroke-width="5" points="1287.64,-1482.17 1292.02,-1492.17 1296.39,-1482.17 1287.64,-1482.17"/>
<text text-anchor="middle" x="1444.52" y="-1468.22" font-family="Arial" font-size="20.00" fill="maroon">start_next: 03/11/18, 17:38:05</text>
<text text-anchor="middle" x="1444.52" y="-1446.22" font-family="Arial" font-size="20.00" fill="maroon">gap: &#45;33sec</text>
<text text-anchor="middle" x="1444.52" y="-1424.22" font-family="Arial" font-size="20.00" fill="maroon">end_prev: 03/11/18, 17:38:39</text>
</g>
<!-- SURFING
http&#45;&gt;ACCOUNT MANIPULATION
http | ID: 98 -->
<g id="edge30" class="edge">
<title>SURFING
http&#45;&gt;ACCOUNT MANIPULATION
http | ID: 98</title>
<path fill="none" stroke="maroon" stroke-width="5" d="M1378.2,-1370.66C1458.61,-1374.44 1570.24,-1385.6 1598.02,-1418.22 1617.03,-1440.56 1617.47,-1462.27 1598.02,-1484.22 1588.08,-1495.44 1528.26,-1503.92 1464.11,-1509.92"/>
<polygon fill="maroon" stroke="maroon" stroke-width="5" points="1463.34,-1505.59 1453.78,-1510.86 1464.14,-1514.31 1463.34,-1505.59"/>
<text text-anchor="middle" x="1764.52" y="-1468.22" font-family="Arial" font-size="20.00" fill="maroon">start_next: 03/11/18, 22:31:12</text>
<text text-anchor="middle" x="1764.52" y="-1446.22" font-family="Arial" font-size="20.00" fill="maroon">gap: &#45;19sec</text>
<text text-anchor="middle" x="1764.52" y="-1424.22" font-family="Arial" font-size="20.00" fill="maroon">end_prev: 03/11/18, 22:31:31</text>
</g>
<!-- RESOURCE HIJACKING
http | ID: 52 -->
<g id="node12" class="node">
<title>RESOURCE HIJACKING
http | ID: 52</title>
<g id="a_node12"><a xlink:title="GPL WEB_SERVER Oracle Java Process Manager access">
<polygon fill="none" stroke="black" stroke-width="3" points="1518.35,-1683.21 1405.19,-1732.19 1178.85,-1732.19 1065.68,-1683.21 1178.85,-1634.23 1405.19,-1634.23 1518.35,-1683.21"/>
<text text-anchor="middle" x="1292.02" y="-1690.01" font-family="Arial" font-size="24.00">RESOURCE HIJACKING</text>
<text text-anchor="middle" x="1292.02" y="-1664.01" font-family="Arial" font-size="24.00">http | ID: 52</text>
</a>
</g>
</g>
<!-- ACCOUNT MANIPULATION
http | ID: 98&#45;&gt;RESOURCE HIJACKING
http | ID: 52 -->
<g id="edge10" class="edge">
<title>ACCOUNT MANIPULATION
http | ID: 98&#45;&gt;RESOURCE HIJACKING
http | ID: 52</title>
<path fill="none" stroke="maroon" stroke-width="5" d="M1130.1,-1533.07C1059.38,-1539.06 989.92,-1547.95 979.02,-1560.22 959.53,-1582.15 960.19,-1603.73 979.02,-1626.22 995.21,-1645.57 1039.74,-1658.24 1090.31,-1666.53"/>
<polygon fill="maroon" stroke="maroon" stroke-width="5" points="1089.94,-1670.9 1100.5,-1668.13 1091.3,-1662.26 1089.94,-1670.9"/>
<text text-anchor="middle" x="1131.52" y="-1610.22" font-family="Arial" font-size="20.00" fill="maroon">start_next: 03/11/18, 14:42:29</text>
<text text-anchor="middle" x="1131.52" y="-1588.22" font-family="Arial" font-size="20.00" fill="maroon">gap: 0sec</text>
<text text-anchor="middle" x="1131.52" y="-1566.22" font-family="Arial" font-size="20.00" fill="maroon">end_prev: 03/11/18, 14:42:29</text>
</g>
<!-- ACCOUNT MANIPULATION
http | ID: 98&#45;&gt;RESOURCE HIJACKING
http | ID: 52 -->
<g id="edge20" class="edge">
<title>ACCOUNT MANIPULATION
http | ID: 98&#45;&gt;RESOURCE HIJACKING
http | ID: 52</title>
<path fill="none" stroke="maroon" stroke-width="5" d="M1292.02,-1552.38C1292.02,-1572.39 1292.02,-1599.61 1292.02,-1623.97"/>
<polygon fill="maroon" stroke="maroon" stroke-width="5" points="1287.64,-1624.2 1292.02,-1634.2 1296.39,-1624.2 1287.64,-1624.2"/>
<text text-anchor="middle" x="1444.52" y="-1610.22" font-family="Arial" font-size="20.00" fill="maroon">start_next: 03/11/18, 17:38:12</text>
<text text-anchor="middle" x="1444.52" y="-1588.22" font-family="Arial" font-size="20.00" fill="maroon">gap: 0sec</text>
<text text-anchor="middle" x="1444.52" y="-1566.22" font-family="Arial" font-size="20.00" fill="maroon">end_prev: 03/11/18, 17:38:12</text>
</g>
<!-- ACCOUNT MANIPULATION
http | ID: 98&#45;&gt;RESOURCE HIJACKING
http | ID: 52 -->
<g id="edge31" class="edge">
<title>ACCOUNT MANIPULATION
http | ID: 98&#45;&gt;RESOURCE HIJACKING
http | ID: 52</title>
<path fill="none" stroke="maroon" stroke-width="5" d="M1453.78,-1533.59C1521.71,-1539.63 1587.54,-1548.41 1598.02,-1560.22 1617.47,-1582.17 1616.8,-1603.69 1598.02,-1626.22 1582.49,-1644.85 1540.19,-1657.3 1491.82,-1665.61"/>
<polygon fill="maroon" stroke="maroon" stroke-width="5" points="1490.9,-1661.33 1481.74,-1667.27 1492.32,-1669.96 1490.9,-1661.33"/>
<text text-anchor="middle" x="1764.52" y="-1610.22" font-family="Arial" font-size="20.00" fill="maroon">start_next: 03/11/18, 22:31:15</text>
<text text-anchor="middle" x="1764.52" y="-1588.22" font-family="Arial" font-size="20.00" fill="maroon">gap: 0sec</text>
<text text-anchor="middle" x="1764.52" y="-1566.22" font-family="Arial" font-size="20.00" fill="maroon">end_prev: 03/11/18, 22:31:15</text>
</g>
<!-- RESOURCE HIJACKING
http | ID: 52&#45;&gt;DATA DELIVERY
http | ID: 14 -->
<g id="edge11" class="edge">
<title>RESOURCE HIJACKING
http | ID: 52&#45;&gt;DATA DELIVERY
http | ID: 14</title>
<path fill="none" stroke="maroon" stroke-width="5" d="M1100.5,-1698.29C1045.81,-1706.53 996.29,-1719.57 979.02,-1740.2 960.19,-1762.7 960.19,-1783.71 979.02,-1806.2 999.7,-1830.92 1066.62,-1844.73 1133.31,-1852.45"/>
<polygon fill="maroon" stroke="maroon" stroke-width="5" points="1133.15,-1856.84 1143.57,-1853.59 1134.11,-1848.14 1133.15,-1856.84"/>
<text text-anchor="middle" x="1131.52" y="-1790.2" font-family="Arial" font-size="20.00" fill="maroon">start_next: 03/11/18, 14:42:31</text>
<text text-anchor="middle" x="1131.52" y="-1768.2" font-family="Arial" font-size="20.00" fill="maroon">gap: 2sec</text>
<text text-anchor="middle" x="1131.52" y="-1746.2" font-family="Arial" font-size="20.00" fill="maroon">end_prev: 03/11/18, 14:42:29</text>
</g>
<!-- RESOURCE HIJACKING
http | ID: 52&#45;&gt;DATA DELIVERY
http | ID: 14 -->
<g id="edge21" class="edge">
<title>RESOURCE HIJACKING
http | ID: 52&#45;&gt;DATA DELIVERY
http | ID: 14</title>
<path fill="none" stroke="maroon" stroke-width="5" d="M1292.02,-1732.38C1292.02,-1754.44 1292.02,-1780.77 1292.02,-1803.94"/>
<polygon fill="maroon" stroke="maroon" stroke-width="5" points="1287.64,-1803.99 1292.02,-1813.99 1296.39,-1803.99 1287.64,-1803.99"/>
<text text-anchor="middle" x="1444.52" y="-1790.2" font-family="Arial" font-size="20.00" fill="maroon">start_next: 03/11/18, 17:38:19</text>
<text text-anchor="middle" x="1444.52" y="-1768.2" font-family="Arial" font-size="20.00" fill="maroon">gap: 8sec</text>
<text text-anchor="middle" x="1444.52" y="-1746.2" font-family="Arial" font-size="20.00" fill="maroon">end_prev: 03/11/18, 17:38:12</text>
</g>
<!-- RESOURCE HIJACKING
http | ID: 52&#45;&gt;DATA DELIVERY
http | ID: 14 -->
<g id="edge32" class="edge">
<title>RESOURCE HIJACKING
http | ID: 52&#45;&gt;DATA DELIVERY
http | ID: 14</title>
<path fill="none" stroke="maroon" stroke-width="5" d="M1481.74,-1699.15C1534.24,-1707.44 1581.42,-1720.29 1598.02,-1740.2 1616.8,-1762.73 1616.8,-1783.67 1598.02,-1806.2 1578.03,-1830.17 1513.73,-1843.91 1449.2,-1851.77"/>
<polygon fill="maroon" stroke="maroon" stroke-width="5" points="1448.69,-1847.43 1439.26,-1852.94 1449.7,-1856.12 1448.69,-1847.43"/>
<text text-anchor="middle" x="1764.52" y="-1790.2" font-family="Arial" font-size="20.00" fill="maroon">start_next: 03/11/18, 22:31:19</text>
<text text-anchor="middle" x="1764.52" y="-1768.2" font-family="Arial" font-size="20.00" fill="maroon">gap: 4sec</text>
<text text-anchor="middle" x="1764.52" y="-1746.2" font-family="Arial" font-size="20.00" fill="maroon">end_prev: 03/11/18, 22:31:15</text>
</g>
<!-- SERVICE DISCOVERY
unknown -->
<g id="node13" class="node">
<title>SERVICE DISCOVERY
unknown</title>
<g id="a_node13"><a xlink:title="ET SCAN Potential VNC Scan 5800&#45;5820&#10;ET SCAN Potential VNC Scan 5900&#45;5920">
<ellipse fill="yellow" stroke="black" stroke-width="3" cx="328.02" cy="-42.43" rx="184.61" ry="42.35"/>
<text text-anchor="middle" x="328.02" y="-49.23" font-family="Arial" font-size="24.00">SERVICE DISCOVERY</text>
<text text-anchor="middle" x="328.02" y="-23.23" font-family="Arial" font-size="24.00">unknown</text>
</a>
</g>
</g>
<!-- SERVICE DISCOVERY
unknown&#45;&gt;HOST DISCOVERY
http -->
<g id="edge22" class="edge">
<title>SERVICE DISCOVERY
unknown&#45;&gt;HOST DISCOVERY
http</title>
<path fill="none" stroke="maroon" stroke-width="5" d="M328.02,-84.91C328.02,-110.44 328.02,-143.37 328.02,-170.59"/>
<polygon fill="maroon" stroke="maroon" stroke-width="5" points="323.64,-170.71 328.02,-180.71 332.39,-170.71 323.64,-170.71"/>
<text text-anchor="start" x="328.02" y="-157.85" font-family="Arial" font-size="20.00" fill="maroon"> start_next: 03/11/18, 22:31:03</text>
<text text-anchor="start" x="409.52" y="-137.85" font-family="Arial" font-size="20.00" fill="maroon">gap: 17222sec</text>
<text text-anchor="start" x="336.02" y="-117.85" font-family="Arial" font-size="20.00" fill="maroon">end_prev: 03/11/18, 17:44:01</text>
<text text-anchor="start" x="352.02" y="-97.85" font-family="Arial" font-weight="bold" font-size="20.00" fill="maroon">Attacker: 10.0.254.204</text>
</g>
</g>
</svg>
