<?xml version="1.0" encoding="UTF-8" standalone="no"?>
<!DOCTYPE svg PUBLIC "-//W3C//DTD SVG 1.1//EN"
 "http://www.w3.org/Graphics/SVG/1.1/DTD/svg11.dtd">
<!-- Generated by graphviz version 2.43.0 (0)
 -->
<!-- Title: DATAEXFILTRATIONetlservicemgr Pages: 1 -->
<svg width="902pt" height="2757pt"
 viewBox="0.00 0.00 902.29 2757.36" xmlns="http://www.w3.org/2000/svg" xmlns:xlink="http://www.w3.org/1999/xlink">
<g id="graph0" class="graph" transform="scale(1 1) rotate(0) translate(4 2753.36)">
<title>DATAEXFILTRATIONetlservicemgr</title>
<polygon fill="white" stroke="transparent" points="-4,4 -4,-2753.36 898.29,-2753.36 898.29,4 -4,4"/>
<!-- Victim: 10.0.0.176
DATA EXFILTRATION
etlservicemgr -->
<g id="node1" class="node">
<title>Victim: 10.0.0.176
DATA EXFILTRATION
etlservicemgr</title>
<polygon fill="salmon" stroke="black" stroke-width="3" points="587.51,-2652.35 587.51,-2706.74 474.91,-2745.2 315.68,-2745.2 203.08,-2706.74 203.08,-2652.35 315.68,-2613.89 474.91,-2613.89 587.51,-2652.35"/>
<polygon fill="none" stroke="black" stroke-width="3" points="591.51,-2649.5 591.51,-2709.59 475.58,-2749.19 315.01,-2749.19 199.08,-2709.59 199.08,-2649.5 315.01,-2609.9 475.58,-2609.9 591.51,-2649.5"/>
<text text-anchor="middle" x="395.29" y="-2699.34" font-family="Arial" font-size="24.00">Victim: 10.0.0.176</text>
<text text-anchor="middle" x="395.29" y="-2673.34" font-family="Arial" font-size="24.00">DATA EXFILTRATION</text>
<text text-anchor="middle" x="395.29" y="-2647.34" font-family="Arial" font-size="24.00">etlservicemgr</text>
</g>
<!-- DATA EXFILTRATION
etlservicemgr | ID: 27 -->
<g id="node2" class="node">
<title>DATA EXFILTRATION
etlservicemgr | ID: 27</title>
<g id="a_node2"><a xlink:title="GPL EXPLOIT ISAPI .ida access&#10;ET WEB_SERVER /system32/ in Uri &#45; Possible Protected Directory Access Attempt&#10;GPL WEB_SERVER Tomcat server snoop access&#10;GPL EXPLOIT /msadc/samples/ access&#10;ET WEB_SPECIFIC_APPS PHP&#45;CGI query string parameter vulnerability&#10;GPL EXPLOIT ISAPI .idq access&#10;ET WEB_SERVER /etc/shadow Detected in URI">
<polygon fill="salmon" stroke="black" stroke-width="3" points="622.27,-2543.73 508.78,-2592.71 281.81,-2592.71 168.32,-2543.73 281.81,-2494.75 508.78,-2494.75 622.27,-2543.73"/>
<text text-anchor="middle" x="395.29" y="-2550.53" font-family="Arial" font-size="24.00">DATA EXFILTRATION</text>
<text text-anchor="middle" x="395.29" y="-2524.53" font-family="Arial" font-size="24.00">etlservicemgr | ID: 27</text>
</a>
</g>
</g>
<!-- DATA EXFILTRATION
etlservicemgr | ID: 27&#45;&gt;Victim: 10.0.0.176
DATA EXFILTRATION
etlservicemgr -->
<g id="edge1" class="edge">
<title>DATA EXFILTRATION
etlservicemgr | ID: 27&#45;&gt;Victim: 10.0.0.176
DATA EXFILTRATION
etlservicemgr</title>
<path fill="none" stroke="black" stroke-width="5" d="M395.29,-2593.04C395.29,-2595.15 395.29,-2597.28 395.29,-2599.43"/>
<polygon fill="black" stroke="black" stroke-width="5" points="390.92,-2599.58 395.29,-2609.58 399.67,-2599.58 390.92,-2599.58"/>
</g>
<!-- HOST DISCOVERY
http -->
<g id="node3" class="node">
<title>HOST DISCOVERY
http</title>
<g id="a_node3"><a xlink:title="ET SCAN Possible Nmap User&#45;Agent Observed&#10;ET SCAN Nmap Scripting Engine User&#45;Agent Detected (Nmap Scripting Engine)">
<ellipse fill="yellow" stroke="black" stroke-width="3" cx="395.29" cy="-42.43" rx="161.44" ry="42.35"/>
<text text-anchor="middle" x="395.29" y="-49.23" font-family="Arial" font-size="24.00">HOST DISCOVERY</text>
<text text-anchor="middle" x="395.29" y="-23.23" font-family="Arial" font-size="24.00">http</text>
</a>
</g>
</g>
<!-- VULNERABILTY DISCOVERY
ms&#45;sql&#45;s -->
<g id="node4" class="node">
<title>VULNERABILTY DISCOVERY
ms&#45;sql&#45;s</title>
<g id="a_node4"><a xlink:title="ET SCAN Suspicious inbound to Oracle SQL port 1521&#10;ET SCAN Suspicious inbound to MSSQL port 1433&#10;ET SCAN Suspicious inbound to mySQL port 3306&#10;ET SCAN Nikto Web App Scan in Progress&#10;ET SCAN Suspicious inbound to PostgreSQL port 5432&#10;ET SCAN Suspicious inbound to mSQL port 4333">
<ellipse fill="none" stroke="black" stroke-width="3" cx="395.29" cy="-223.28" rx="238.09" ry="42.35"/>
<text text-anchor="middle" x="395.29" y="-230.08" font-family="Arial" font-size="24.00">VULNERABILTY DISCOVERY</text>
<text text-anchor="middle" x="395.29" y="-204.08" font-family="Arial" font-size="24.00">ms&#45;sql&#45;s</text>
</a>
</g>
</g>
<!-- HOST DISCOVERY
http&#45;&gt;VULNERABILTY DISCOVERY
ms&#45;sql&#45;s -->
<g id="edge2" class="edge">
<title>HOST DISCOVERY
http&#45;&gt;VULNERABILTY DISCOVERY
ms&#45;sql&#45;s</title>
<path fill="none" stroke="maroon" stroke-width="5" d="M266.28,-67.9C255.47,-74.42 245.82,-82.6 238.29,-92.85 217.26,-121.52 217.26,-144.18 238.29,-172.85 240.67,-176.1 243.27,-179.13 246.04,-181.98"/>
<polygon fill="maroon" stroke="maroon" stroke-width="5" points="243.46,-185.54 253.79,-189.05 249.36,-179.08 243.46,-185.54"/>
<text text-anchor="start" x="238.29" y="-157.85" font-family="Arial" font-size="20.00" fill="maroon"> start_next: 03/11/18, 14:52:48</text>
<text text-anchor="start" x="345.29" y="-137.85" font-family="Arial" font-size="20.00" fill="maroon">gap: 3sec</text>
<text text-anchor="start" x="246.29" y="-117.85" font-family="Arial" font-size="20.00" fill="maroon">end_prev: 03/11/18, 14:52:45</text>
<text text-anchor="start" x="262.29" y="-97.85" font-family="Arial" font-weight="bold" font-size="20.00" fill="maroon">Attacker: 10.0.254.201</text>
</g>
<!-- HOST DISCOVERY
http&#45;&gt;VULNERABILTY DISCOVERY
ms&#45;sql&#45;s -->
<g id="edge17" class="edge">
<title>HOST DISCOVERY
http&#45;&gt;VULNERABILTY DISCOVERY
ms&#45;sql&#45;s</title>
<path fill="none" stroke="maroon" stroke-width="5" d="M520.49,-69.19C530.45,-75.48 539.33,-83.25 546.29,-92.85 567.16,-121.64 567.16,-144.07 546.29,-172.85 544.19,-175.76 541.91,-178.49 539.48,-181.07"/>
<polygon fill="maroon" stroke="maroon" stroke-width="5" points="536.03,-178.3 531.75,-188.34 542.03,-184.68 536.03,-178.3"/>
<text text-anchor="start" x="561.29" y="-157.85" font-family="Arial" font-size="20.00" fill="maroon"> start_next: 03/11/18, 17:37:52</text>
<text text-anchor="start" x="668.29" y="-137.85" font-family="Arial" font-size="20.00" fill="maroon">gap: 4sec</text>
<text text-anchor="start" x="569.29" y="-117.85" font-family="Arial" font-size="20.00" fill="maroon">end_prev: 03/11/18, 17:37:48</text>
<text text-anchor="start" x="585.29" y="-97.85" font-family="Arial" font-weight="bold" font-size="20.00" fill="maroon">Attacker: 10.0.254.204</text>
</g>
<!-- INFO DISCOVERY
http -->
<g id="node5" class="node">
<title>INFO DISCOVERY
http</title>
<g id="a_node5"><a xlink:title="GPL WEB_SERVER iisadmin access&#10;GPL WEB_SERVER printenv access&#10;GPL WEB_SERVER author.exe access&#10;ET WEB_SERVER PHP Easteregg Information&#45;Disclosure (phpinfo)&#10;ET WEB_SERVER PHP Easteregg Information&#45;Disclosure (funny&#45;logo)&#10;GPL WEB_SERVER globals.pl access&#10;GPL WEB_SERVER viewcode access&#10;ET WEB_SPECIFIC_APPS Request to Wordpress W3TC Plug&#45;in dbcache Directory&#10;GPL EXPLOIT ISAPI .idq attempt&#10;ET POLICY Proxy TRACE Request &#45; inbound&#10;GPL WEB_SERVER /~root access&#10;GPL WEB_SERVER service.pwd&#10;ET WEB_SERVER PHP REQUEST SuperGlobal in URI&#10;ET WEB_SERVER PHP Easteregg Information&#45;Disclosure (php&#45;logo)&#10;GPL WEB_SERVER services.cnf access&#10;GPL EXPLOIT unicode directory traversal attempt&#10;GPL EXPLOIT .htr access&#10;GPL EXPLOIT .cnf access&#10;ET WEB_SERVER PHP SERVER SuperGlobal in URI&#10;GPL WEB_SERVER .htaccess access&#10;GPL EXPLOIT iisadmpwd attempt&#10;GPL WEB_SERVER service.cnf access&#10;GPL WEB_SERVER global.asa access&#10;GPL EXPLOIT fpcount access&#10;GPL WEB_SERVER .htpasswd access&#10;ET WEB_SERVER PHP SESSION SuperGlobal in URI&#10;GPL WEB_SERVER writeto.cnf access&#10;GPL EXPLOIT iissamples access&#10;ET WEB_SERVER PHP Easteregg Information&#45;Disclosure (zend&#45;logo)&#10;ET WEB_SERVER PHP ENV SuperGlobal in URI&#10;GPL WEB_SERVER authors.pwd access">
<ellipse fill="none" stroke="black" stroke-width="3" cx="395.29" cy="-390.13" rx="154.3" ry="42.35"/>
<text text-anchor="middle" x="395.29" y="-396.93" font-family="Arial" font-size="24.00">INFO DISCOVERY</text>
<text text-anchor="middle" x="395.29" y="-370.93" font-family="Arial" font-size="24.00">http</text>
</a>
</g>
</g>
<!-- VULNERABILTY DISCOVERY
ms&#45;sql&#45;s&#45;&gt;INFO DISCOVERY
http -->
<g id="edge3" class="edge">
<title>VULNERABILTY DISCOVERY
ms&#45;sql&#45;s&#45;&gt;INFO DISCOVERY
http</title>
<path fill="none" stroke="maroon" stroke-width="5" d="M256.15,-258C250.61,-262.6 245.6,-267.81 241.29,-273.71 224.01,-297.41 224.01,-316.01 241.29,-339.71 246.94,-347.45 253.83,-354.01 261.51,-359.56"/>
<polygon fill="maroon" stroke="maroon" stroke-width="5" points="259.38,-363.4 270.15,-365.2 264.17,-356.07 259.38,-363.4"/>
<text text-anchor="middle" x="393.79" y="-323.71" font-family="Arial" font-size="20.00" fill="maroon">start_next: 03/11/18, 14:52:49</text>
<text text-anchor="middle" x="393.79" y="-301.71" font-family="Arial" font-size="20.00" fill="maroon">gap: &#45;314sec</text>
<text text-anchor="middle" x="393.79" y="-279.71" font-family="Arial" font-size="20.00" fill="maroon">end_prev: 03/11/18, 14:58:02</text>
</g>
<!-- VULNERABILTY DISCOVERY
ms&#45;sql&#45;s&#45;&gt;INFO DISCOVERY
http -->
<g id="edge18" class="edge">
<title>VULNERABILTY DISCOVERY
ms&#45;sql&#45;s&#45;&gt;INFO DISCOVERY
http</title>
<path fill="none" stroke="maroon" stroke-width="5" d="M529.06,-258.44C534.37,-262.93 539.18,-267.99 543.29,-273.71 560.44,-297.51 560.44,-315.9 543.29,-339.71 538.17,-346.81 531.98,-352.92 525.08,-358.15"/>
<polygon fill="maroon" stroke="maroon" stroke-width="5" points="522.45,-354.65 516.66,-363.91 527.39,-361.87 522.45,-354.65"/>
<text text-anchor="middle" x="707.79" y="-323.71" font-family="Arial" font-size="20.00" fill="maroon">start_next: 03/11/18, 17:37:53</text>
<text text-anchor="middle" x="707.79" y="-301.71" font-family="Arial" font-size="20.00" fill="maroon">gap: &#45;291sec</text>
<text text-anchor="middle" x="707.79" y="-279.71" font-family="Arial" font-size="20.00" fill="maroon">end_prev: 03/11/18, 17:42:45</text>
</g>
<!-- DATA EXFILTRATION
http | ID: 12 -->
<g id="node6" class="node">
<title>DATA EXFILTRATION
http | ID: 12</title>
<g id="a_node6"><a xlink:title="ET WEB_SERVER Possible XXE SYSTEM ENTITY in POST BODY.&#10;GPL EXPLOIT ISAPI .ida access&#10;ET WEB_SERVER /system32/ in Uri &#45; Possible Protected Directory Access Attempt&#10;GPL WEB_SERVER Tomcat server snoop access&#10;ET WEB_SERVER ColdFusion componentutils access&#10;GPL EXPLOIT /msadc/samples/ access&#10;ET WEB_SPECIFIC_APPS PHP&#45;CGI query string parameter vulnerability&#10;GPL EXPLOIT ISAPI .idq access&#10;ET WEB_SERVER /etc/shadow Detected in URI">
<polygon fill="none" stroke="black" stroke-width="3" points="600.18,-563.55 497.74,-612.53 292.85,-612.53 190.41,-563.55 292.85,-514.57 497.74,-514.57 600.18,-563.55"/>
<text text-anchor="middle" x="395.29" y="-570.35" font-family="Arial" font-size="24.00">DATA EXFILTRATION</text>
<text text-anchor="middle" x="395.29" y="-544.35" font-family="Arial" font-size="24.00">http | ID: 12</text>
</a>
</g>
</g>
<!-- INFO DISCOVERY
http&#45;&gt;DATA EXFILTRATION
http | ID: 12 -->
<g id="edge4" class="edge">
<title>INFO DISCOVERY
http&#45;&gt;DATA EXFILTRATION
http | ID: 12</title>
<path fill="none" stroke="maroon" stroke-width="5" d="M270.15,-415.06C258.97,-421.66 248.99,-430.01 241.29,-440.56 224.01,-464.26 224.47,-482.53 241.29,-506.56 245.35,-512.35 250.07,-517.55 255.29,-522.21"/>
<polygon fill="maroon" stroke="maroon" stroke-width="5" points="252.75,-525.77 263.27,-528.66 258.25,-518.97 252.75,-525.77"/>
<text text-anchor="middle" x="393.79" y="-490.56" font-family="Arial" font-size="20.00" fill="maroon">start_next: 03/11/18, 14:52:50</text>
<text text-anchor="middle" x="393.79" y="-468.56" font-family="Arial" font-size="20.00" fill="maroon">gap: &#45;46sec</text>
<text text-anchor="middle" x="393.79" y="-446.56" font-family="Arial" font-size="20.00" fill="maroon">end_prev: 03/11/18, 14:53:36</text>
</g>
<!-- INFO DISCOVERY
http&#45;&gt;DATA EXFILTRATION
http | ID: 12 -->
<g id="edge19" class="edge">
<title>INFO DISCOVERY
http&#45;&gt;DATA EXFILTRATION
http | ID: 12</title>
<path fill="none" stroke="maroon" stroke-width="5" d="M516.66,-416.36C526.98,-422.73 536.17,-430.67 543.29,-440.56 560.44,-464.36 559.97,-482.42 543.29,-506.56 539.84,-511.55 535.89,-516.1 531.53,-520.25"/>
<polygon fill="maroon" stroke="maroon" stroke-width="5" points="528.59,-517.01 523.86,-526.85 534.29,-523.65 528.59,-517.01"/>
<text text-anchor="middle" x="707.79" y="-490.56" font-family="Arial" font-size="20.00" fill="maroon">start_next: 03/11/18, 17:37:53</text>
<text text-anchor="middle" x="707.79" y="-468.56" font-family="Arial" font-size="20.00" fill="maroon">gap: &#45;33sec</text>
<text text-anchor="middle" x="707.79" y="-446.56" font-family="Arial" font-size="20.00" fill="maroon">end_prev: 03/11/18, 17:38:27</text>
</g>
<!-- ARBITRARY CODE EXECUTION
http | ID: 97 -->
<g id="node7" class="node">
<title>ARBITRARY CODE EXECUTION
http | ID: 97</title>
<g id="a_node7"><a xlink:title="ET WEB_SERVER Possible CVE&#45;2014&#45;6271 Attempt&#10;ET WEB_SPECIFIC_APPS WEB&#45;PHP RCE PHPBB 2004&#45;1315&#10;ET WEB_SPECIFIC_APPS Golem Gaming Portal root_path Parameter Remote File inclusion Attempt&#10;ET WEB_SPECIFIC_APPS Joomla swMenuPro ImageManager.php Remote File Inclusion Attempt&#10;ETPRO WEB_SPECIFIC_APPS PHPMoAdmin RCE Attempt&#10;ET WEB_SERVER cmd.exe In URI &#45; Possible Command Execution Attempt&#10;ET WEB_SERVER Exploit Suspected PHP Injection Attack (cmd=)&#10;ET WEB_SPECIFIC_APPS FormMailer formmailer.admin.inc.php BASE_DIR Parameter Remote File Inclusion Attempt&#10;ET WEB_SPECIFIC_APPS DesktopOnNet don3_requiem.php app_path Parameter Remote File Inclusion&#10;ET WEB_SPECIFIC_APPS Joomla Dada Mail Manager Component config.dadamail.php GLOBALS Parameter Remote File Inclusion&#10;ET WEB_SERVER Possible CVE&#45;2014&#45;6271 Attempt in Headers&#10;ET WEB_SPECIFIC_APPS Achievo debugger.php config_atkroot parameter Remote File Inclusion Attempt&#10;ET CURRENT_EVENTS QNAP Shellshock CVE&#45;2014&#45;6271&#10;ET WEB_SPECIFIC_APPS KingCMS menu.php CONFIG Parameter Remote File Inclusion&#10;ET WEB_SPECIFIC_APPS AjaxPortal di.php pathtoserverdata Parameter Remote File Inclusion Attempt&#10;ET WEB_SPECIFIC_APPS BASE base_stat_common.php remote file include&#10;ET WEB_SPECIFIC_APPS DesktopOnNet frontpage.php app_path Parameter Remote File Inclusion&#10;ET WEB_SPECIFIC_APPS KR&#45;Web krgourl.php DOCUMENT_ROOT Parameter Remote File Inclusion Attempt&#10;ET WEB_SPECIFIC_APPS Joomla AjaxChat Component ajcuser.php GLOBALS Parameter Remote File Inclusion Attempt&#10;ET WEB_SPECIFIC_APPS Horde type Parameter Local File Inclusion Attempt">
<polygon fill="none" stroke="black" stroke-width="3" points="581.79,-754.54 208.79,-754.54 208.79,-694.54 581.79,-694.54 581.79,-754.54"/>
<text text-anchor="middle" x="395.29" y="-731.34" font-family="Arial" font-size="24.00">ARBITRARY CODE EXECUTION</text>
<text text-anchor="middle" x="395.29" y="-705.34" font-family="Arial" font-size="24.00">http | ID: 97</text>
</a>
</g>
</g>
<!-- DATA EXFILTRATION
http | ID: 12&#45;&gt;ARBITRARY CODE EXECUTION
http | ID: 97 -->
<g id="edge5" class="edge">
<title>DATA EXFILTRATION
http | ID: 12&#45;&gt;ARBITRARY CODE EXECUTION
http | ID: 97</title>
<path fill="none" stroke="maroon" stroke-width="5" d="M263.27,-598.44C254.84,-604.62 247.33,-611.92 241.29,-620.54 224.47,-644.56 223.14,-663.5 241.29,-686.54 241.78,-687.15 242.32,-687.76 242.91,-688.35"/>
<polygon fill="maroon" stroke="maroon" stroke-width="5" points="240.45,-691.98 251.1,-694.4 245.65,-684.94 240.45,-691.98"/>
<text text-anchor="middle" x="393.79" y="-670.54" font-family="Arial" font-size="20.00" fill="maroon">start_next: 03/11/18, 14:52:54</text>
<text text-anchor="middle" x="393.79" y="-648.54" font-family="Arial" font-size="20.00" fill="maroon">gap: &#45;43sec</text>
<text text-anchor="middle" x="393.79" y="-626.54" font-family="Arial" font-size="20.00" fill="maroon">end_prev: 03/11/18, 14:53:36</text>
</g>
<!-- DATA EXFILTRATION
http | ID: 12&#45;&gt;ARBITRARY CODE EXECUTION
http | ID: 97 -->
<g id="edge20" class="edge">
<title>DATA EXFILTRATION
http | ID: 12&#45;&gt;ARBITRARY CODE EXECUTION
http | ID: 97</title>
<path fill="none" stroke="maroon" stroke-width="5" d="M523.86,-600.25C531.28,-606.03 537.91,-612.74 543.29,-620.54 559.97,-644.67 561.35,-663.42 543.29,-686.54 542.81,-687.15 542.28,-687.76 541.68,-688.36"/>
<polygon fill="maroon" stroke="maroon" stroke-width="5" points="538.88,-685 533.42,-694.45 544.07,-692.04 538.88,-685"/>
<text text-anchor="middle" x="708.79" y="-670.54" font-family="Arial" font-size="20.00" fill="maroon">start_next: 03/11/18, 17:38:01</text>
<text text-anchor="middle" x="708.79" y="-648.54" font-family="Arial" font-size="20.00" fill="maroon">gap: &#45;12sec</text>
<text text-anchor="middle" x="708.79" y="-626.54" font-family="Arial" font-size="20.00" fill="maroon">end_prev: 03/11/18, 17:38:13</text>
</g>
<!-- ROOT PRIVILEGE ESCALATION
http | ID: 51 -->
<g id="node8" class="node">
<title>ROOT PRIVILEGE ESCALATION
http | ID: 51</title>
<g id="a_node8"><a xlink:title="GPL EXPLOIT CodeRed v2 root.exe access&#10;ET WEB_SERVER ColdFusion administrator access&#10;ETPRO WEB_SPECIFIC_APPS ipTIME firmware &lt; 9.58 RCE&#10;GPL EXPLOIT administrators.pwd access">
<polygon fill="none" stroke="black" stroke-width="3" points="582.29,-896.54 208.29,-896.54 208.29,-836.54 582.29,-836.54 582.29,-896.54"/>
<text text-anchor="middle" x="395.29" y="-873.34" font-family="Arial" font-size="24.00">ROOT PRIVILEGE ESCALATION</text>
<text text-anchor="middle" x="395.29" y="-847.34" font-family="Arial" font-size="24.00">http | ID: 51</text>
</a>
</g>
</g>
<!-- ARBITRARY CODE EXECUTION
http | ID: 97&#45;&gt;ROOT PRIVILEGE ESCALATION
http | ID: 51 -->
<g id="edge6" class="edge">
<title>ARBITRARY CODE EXECUTION
http | ID: 97&#45;&gt;ROOT PRIVILEGE ESCALATION
http | ID: 51</title>
<path fill="none" stroke="maroon" stroke-width="5" d="M251.1,-754.67C246.86,-757.11 243.51,-759.73 241.29,-762.54 223.14,-785.58 223.14,-805.5 241.29,-828.54 241.78,-829.15 242.32,-829.76 242.91,-830.35"/>
<polygon fill="maroon" stroke="maroon" stroke-width="5" points="240.45,-833.98 251.1,-836.4 245.65,-826.94 240.45,-833.98"/>
<text text-anchor="middle" x="393.79" y="-812.54" font-family="Arial" font-size="20.00" fill="maroon">start_next: 03/11/18, 14:52:55</text>
<text text-anchor="middle" x="393.79" y="-790.54" font-family="Arial" font-size="20.00" fill="maroon">gap: &#45;41sec</text>
<text text-anchor="middle" x="393.79" y="-768.54" font-family="Arial" font-size="20.00" fill="maroon">end_prev: 03/11/18, 14:53:36</text>
</g>
<!-- ARBITRARY CODE EXECUTION
http | ID: 97&#45;&gt;ROOT PRIVILEGE ESCALATION
http | ID: 51 -->
<g id="edge21" class="edge">
<title>ARBITRARY CODE EXECUTION
http | ID: 97&#45;&gt;ROOT PRIVILEGE ESCALATION
http | ID: 51</title>
<path fill="none" stroke="maroon" stroke-width="5" d="M533.42,-754.62C537.71,-757.08 541.09,-759.72 543.29,-762.54 561.35,-785.66 561.35,-805.42 543.29,-828.54 542.81,-829.15 542.28,-829.76 541.68,-830.36"/>
<polygon fill="maroon" stroke="maroon" stroke-width="5" points="538.88,-827 533.42,-836.45 544.07,-834.04 538.88,-827"/>
<text text-anchor="middle" x="708.79" y="-812.54" font-family="Arial" font-size="20.00" fill="maroon">start_next: 03/11/18, 17:38:03</text>
<text text-anchor="middle" x="708.79" y="-790.54" font-family="Arial" font-size="20.00" fill="maroon">gap: &#45;13sec</text>
<text text-anchor="middle" x="708.79" y="-768.54" font-family="Arial" font-size="20.00" fill="maroon">end_prev: 03/11/18, 17:38:16</text>
</g>
<!-- DATA MANIPULATION
http | ID: 13 -->
<g id="node9" class="node">
<title>DATA MANIPULATION
http | ID: 13</title>
<g id="a_node9"><a xlink:title="ET WEB_SERVER Possible SQL Injection Attempt UNION SELECT&#10;ET WEB_SERVER Possible SQL Injection Attempt SELECT FROM&#10;ET WEB_SERVER MYSQL SELECT CONCAT SQL Injection Attempt">
<polygon fill="none" stroke="black" stroke-width="3" points="612.67,-1027.53 503.98,-1076.51 286.61,-1076.51 177.92,-1027.53 286.61,-978.55 503.98,-978.55 612.67,-1027.53"/>
<text text-anchor="middle" x="395.29" y="-1034.33" font-family="Arial" font-size="24.00">DATA MANIPULATION</text>
<text text-anchor="middle" x="395.29" y="-1008.33" font-family="Arial" font-size="24.00">http | ID: 13</text>
</a>
</g>
</g>
<!-- ROOT PRIVILEGE ESCALATION
http | ID: 51&#45;&gt;DATA MANIPULATION
http | ID: 13 -->
<g id="edge7" class="edge">
<title>ROOT PRIVILEGE ESCALATION
http | ID: 51&#45;&gt;DATA MANIPULATION
http | ID: 13</title>
<path fill="none" stroke="maroon" stroke-width="5" d="M251.1,-896.67C246.86,-899.11 243.51,-901.73 241.29,-904.54 223.14,-927.58 224.47,-946.51 241.29,-970.54 244.61,-975.27 248.37,-979.61 252.48,-983.57"/>
<polygon fill="maroon" stroke="maroon" stroke-width="5" points="249.83,-987.06 260.24,-990.33 255.57,-980.47 249.83,-987.06"/>
<text text-anchor="middle" x="393.79" y="-954.54" font-family="Arial" font-size="20.00" fill="maroon">start_next: 03/11/18, 14:52:58</text>
<text text-anchor="middle" x="393.79" y="-932.54" font-family="Arial" font-size="20.00" fill="maroon">gap: &#45;18sec</text>
<text text-anchor="middle" x="393.79" y="-910.54" font-family="Arial" font-size="20.00" fill="maroon">end_prev: 03/11/18, 14:53:17</text>
</g>
<!-- ROOT PRIVILEGE ESCALATION
http | ID: 51&#45;&gt;DATA MANIPULATION
http | ID: 13 -->
<g id="edge22" class="edge">
<title>ROOT PRIVILEGE ESCALATION
http | ID: 51&#45;&gt;DATA MANIPULATION
http | ID: 13</title>
<path fill="none" stroke="maroon" stroke-width="5" d="M533.42,-896.62C537.71,-899.08 541.09,-901.72 543.29,-904.54 561.35,-927.66 559.97,-946.4 543.29,-970.54 540.59,-974.46 537.57,-978.1 534.29,-981.49"/>
<polygon fill="maroon" stroke="maroon" stroke-width="5" points="531.07,-978.51 526.72,-988.52 537.03,-984.92 531.07,-978.51"/>
<text text-anchor="middle" x="708.79" y="-954.54" font-family="Arial" font-size="20.00" fill="maroon">start_next: 03/11/18, 17:38:08</text>
<text text-anchor="middle" x="708.79" y="-932.54" font-family="Arial" font-size="20.00" fill="maroon">gap: &#45;4sec</text>
<text text-anchor="middle" x="708.79" y="-910.54" font-family="Arial" font-size="20.00" fill="maroon">end_prev: 03/11/18, 17:38:12</text>
</g>
<!-- SURFING
http -->
<g id="node10" class="node">
<title>SURFING
http</title>
<g id="a_node10"><a xlink:title="ET WEB_SERVER WEB&#45;PHP phpinfo access">
<ellipse fill="none" stroke="black" stroke-width="3" cx="237.29" cy="-1200.94" rx="86.03" ry="42.35"/>
<text text-anchor="middle" x="237.29" y="-1207.74" font-family="Arial" font-size="24.00">SURFING</text>
<text text-anchor="middle" x="237.29" y="-1181.74" font-family="Arial" font-size="24.00">http</text>
</a>
</g>
</g>
<!-- DATA MANIPULATION
http | ID: 13&#45;&gt;SURFING
http -->
<g id="edge8" class="edge">
<title>DATA MANIPULATION
http | ID: 13&#45;&gt;SURFING
http</title>
<path fill="none" stroke="maroon" stroke-width="5" d="M261.14,-1065.33C254.04,-1070.86 247.64,-1077.21 242.29,-1084.52 229.05,-1102.62 226.42,-1126.92 227.66,-1148.56"/>
<polygon fill="maroon" stroke="maroon" stroke-width="5" points="223.31,-1149.01 228.52,-1158.6 232.03,-1148.27 223.31,-1149.01"/>
<text text-anchor="middle" x="394.79" y="-1134.52" font-family="Arial" font-size="20.00" fill="maroon">start_next: 03/11/18, 14:52:59</text>
<text text-anchor="middle" x="394.79" y="-1112.52" font-family="Arial" font-size="20.00" fill="maroon">gap: &#45;14sec</text>
<text text-anchor="middle" x="394.79" y="-1090.52" font-family="Arial" font-size="20.00" fill="maroon">end_prev: 03/11/18, 14:53:13</text>
</g>
<!-- SERVICE DISCOVERY
unknown -->
<g id="node14" class="node">
<title>SERVICE DISCOVERY
unknown</title>
<g id="a_node14"><a xlink:title="ET SCAN Potential VNC Scan 5800&#45;5820&#10;ET SCAN Potential VNC Scan 5900&#45;5920&#10;ET SCAN Potential SSH Scan&#10;ET SCAN NMAP OS Detection Probe">
<ellipse fill="none" stroke="black" stroke-width="3" cx="395.29" cy="-1869.76" rx="184.61" ry="42.35"/>
<text text-anchor="middle" x="395.29" y="-1876.56" font-family="Arial" font-size="24.00">SERVICE DISCOVERY</text>
<text text-anchor="middle" x="395.29" y="-1850.56" font-family="Arial" font-size="24.00">unknown</text>
</a>
</g>
</g>
<!-- DATA MANIPULATION
http | ID: 13&#45;&gt;SERVICE DISCOVERY
unknown -->
<g id="edge23" class="edge">
<title>DATA MANIPULATION
http | ID: 13&#45;&gt;SERVICE DISCOVERY
unknown</title>
<path fill="none" stroke="maroon" stroke-width="5" d="M526.73,-1066.59C533.31,-1071.82 539.26,-1077.76 544.29,-1084.52 575.02,-1125.76 552.29,-1148.52 552.29,-1199.94 552.29,-1199.94 552.29,-1199.94 552.29,-1697.34 552.29,-1751.67 577.52,-1776.34 544.29,-1819.33 540.5,-1824.23 536.21,-1828.66 531.54,-1832.65"/>
<polygon fill="maroon" stroke="maroon" stroke-width="5" points="528.59,-1829.39 523.33,-1838.96 533.92,-1836.33 528.59,-1829.39"/>
<text text-anchor="middle" x="704.79" y="-1443.37" font-family="Arial" font-size="20.00" fill="maroon">start_next: 03/11/18, 17:42:35</text>
<text text-anchor="middle" x="704.79" y="-1421.37" font-family="Arial" font-size="20.00" fill="maroon">gap: 266sec</text>
<text text-anchor="middle" x="704.79" y="-1399.37" font-family="Arial" font-size="20.00" fill="maroon">end_prev: 03/11/18, 17:38:08</text>
</g>
<!-- ACCOUNT MANIPULATION
http | ID: 98 -->
<g id="node11" class="node">
<title>ACCOUNT MANIPULATION
http | ID: 98</title>
<g id="a_node11"><a xlink:title="GPL EXPLOIT /iisadmpwd/aexp2.htr access&#10;ET WEB_SERVER SELECT USER SQL Injection Attempt in URI">
<polygon fill="none" stroke="black" stroke-width="3" points="396.79,-1385.37 73.79,-1385.37 73.79,-1325.37 396.79,-1325.37 396.79,-1385.37"/>
<text text-anchor="middle" x="235.29" y="-1362.17" font-family="Arial" font-size="24.00">ACCOUNT MANIPULATION</text>
<text text-anchor="middle" x="235.29" y="-1336.17" font-family="Arial" font-size="24.00">http | ID: 98</text>
</a>
</g>
</g>
<!-- SURFING
http&#45;&gt;ACCOUNT MANIPULATION
http | ID: 98 -->
<g id="edge9" class="edge">
<title>SURFING
http&#45;&gt;ACCOUNT MANIPULATION
http | ID: 98</title>
<path fill="none" stroke="maroon" stroke-width="5" d="M236.75,-1243.6C236.46,-1265.87 236.1,-1293.13 235.81,-1315.04"/>
<polygon fill="maroon" stroke="maroon" stroke-width="5" points="231.43,-1315.26 235.68,-1325.32 240.18,-1315.38 231.43,-1315.26"/>
<text text-anchor="middle" x="389.79" y="-1301.37" font-family="Arial" font-size="20.00" fill="maroon">start_next: 03/11/18, 14:53:04</text>
<text text-anchor="middle" x="389.79" y="-1279.37" font-family="Arial" font-size="20.00" fill="maroon">gap: &#45;29sec</text>
<text text-anchor="middle" x="389.79" y="-1257.37" font-family="Arial" font-size="20.00" fill="maroon">end_prev: 03/11/18, 14:53:33</text>
</g>
<!-- RESOURCE HIJACKING
http | ID: 52 -->
<g id="node12" class="node">
<title>RESOURCE HIJACKING
http | ID: 52</title>
<g id="a_node12"><a xlink:title="GPL WEB_SERVER Oracle Java Process Manager access">
<polygon fill="none" stroke="black" stroke-width="3" points="462.63,-1516.36 349.46,-1565.34 123.13,-1565.34 9.96,-1516.36 123.13,-1467.38 349.46,-1467.38 462.63,-1516.36"/>
<text text-anchor="middle" x="236.29" y="-1523.16" font-family="Arial" font-size="24.00">RESOURCE HIJACKING</text>
<text text-anchor="middle" x="236.29" y="-1497.16" font-family="Arial" font-size="24.00">http | ID: 52</text>
</a>
</g>
</g>
<!-- ACCOUNT MANIPULATION
http | ID: 98&#45;&gt;RESOURCE HIJACKING
http | ID: 52 -->
<g id="edge10" class="edge">
<title>ACCOUNT MANIPULATION
http | ID: 98&#45;&gt;RESOURCE HIJACKING
http | ID: 52</title>
<path fill="none" stroke="maroon" stroke-width="5" d="M235.48,-1385.53C235.6,-1405.53 235.78,-1432.76 235.93,-1457.11"/>
<polygon fill="maroon" stroke="maroon" stroke-width="5" points="231.56,-1457.37 235.99,-1467.34 240.3,-1457.32 231.56,-1457.37"/>
<text text-anchor="middle" x="388.79" y="-1443.37" font-family="Arial" font-size="20.00" fill="maroon">start_next: 03/11/18, 14:53:13</text>
<text text-anchor="middle" x="388.79" y="-1421.37" font-family="Arial" font-size="20.00" fill="maroon">gap: 0sec</text>
<text text-anchor="middle" x="388.79" y="-1399.37" font-family="Arial" font-size="20.00" fill="maroon">end_prev: 03/11/18, 14:53:13</text>
</g>
<!-- DATA DELIVERY
http | ID: 14 -->
<g id="node13" class="node">
<title>DATA DELIVERY
http | ID: 14</title>
<g id="a_node13"><a xlink:title="ET WEB_SPECIFIC_APPS OpenX phpAdsNew phpAds_geoPlugin Parameter Remote File Inclusion Attempt&#10;ET WEB_SPECIFIC_APPS PHP phpMyAgenda rootagenda Remote File Include Attempt&#10;ET WEB_SPECIFIC_APPS p&#45;Table for WordPress wptable&#45;tinymce.php ABSPATH Parameter RFI Attempt&#10;ET WEB_SPECIFIC_APPS SERWeb load_lang.php configdir Parameter Remote File Inclusion&#10;ET WEB_SPECIFIC_APPS PointComma pctemplate.php pcConfig Parameter Remote File Inclusion Attempt&#10;ET WEB_SPECIFIC_APPS Possible Mambo/Joomla! com_koesubmit Component &#39;koesubmit.php&#39; Remote File Inclusion Attempt&#10;ET WEB_SPECIFIC_APPS Joomla Simple RSS Reader admin.rssreader.php mosConfig_live_site Parameter Remote File Inclusion&#10;ET WEB_SPECIFIC_APPS Ve&#45;EDIT edit_htmlarea.php highlighter Parameter Remote File Inclusion&#10;ET WEB_SPECIFIC_APPS OBOphiX fonctions_racine.php chemin_lib parameter Remote File Inclusion Attempt&#10;ET WEB_SPECIFIC_APPS SAPID get_infochannel.inc.php Remote File inclusion Attempt&#10;ET WEB_SPECIFIC_APPS PHPOF DB_AdoDB.Class.PHP PHPOF_INCLUDE_PATH parameter Remote File Inclusion&#10;ET WEB_SPECIFIC_APPS TECHNOTE shop_this_skin_path Parameter Remote File Inclusion&#10;ET WEB_SPECIFIC_APPS Possible OpenSiteAdmin pageHeader.php Remote File Inclusion Attempt&#10;ET WEB_SPECIFIC_APPS Joomla Onguma Time Sheet Component onguma.class.php mosConfig_absolute_path Parameter Remote File Inclusion&#10;ET WEB_SPECIFIC_APPS ProdLer prodler.class.php sPath Parameter Remote File Inclusion Attempt&#10;ET WEB_SPECIFIC_APPS MODx CMS snippet.reflect.php reflect_base Remote File Inclusion&#10;ET WEB_SPECIFIC_APPS phPortal gunaysoft.php icerikyolu Parameter Remote File Inclusion&#10;ET WEB_SPECIFIC_APPS Sisplet CMS komentar.php site_path Parameter Remote File Inclusion Attempt&#10;ET WEB_SPECIFIC_APPS phptraverse mp3_id.php GLOBALS Parameter Remote File Inclusion Attempt&#10;ET WEB_SPECIFIC_APPS PHP Classifieds class.phpmailer.php lang_path Parameter Remote File Inclusion Attempt&#10;ET WEB_SPECIFIC_APPS YapBB class_yapbbcooker.php cfgIncludeDirectory Parameter Remote File Inclusion&#10;ET WEB_SPECIFIC_APPS Enthusiast path parameter Remote File Inclusion&#10;ET WEB_SPECIFIC_APPS ProjectButler RFI attempt &#10;ET WEB_SPECIFIC_APPS SERWeb main_prepend.php functionsdir Parameter Remote File Inclusion&#10;ET WEB_SPECIFIC_APPS Mambo Component com_smf smf.php Remote File Inclusion Attempt&#10;ET WEB_SPECIFIC_APPS MAXcms fm_includes_special Parameter Remote File Inclusion Attempt&#10;ET WEB_SPECIFIC_APPS PHP&#45;Paid4Mail RFI attempt &#10;ET WEB_SPECIFIC_APPS phpSkelSite theme parameter remote file inclusion&#10;ET WEB_SPECIFIC_APPS PHP Aardvark Topsites PHP CONFIG PATH Remote File Include Attempt&#10;ET WEB_SPECIFIC_APPS Possible eFront database.php Remote File Inclusion Attempt&#10;ET WEB_SPECIFIC_APPS phPortal gunaysoft.php sayfaid Parameter Remote File Inclusion">
<polygon fill="none" stroke="black" stroke-width="3" points="402.53,-1696.34 320.41,-1745.32 156.18,-1745.32 74.06,-1696.34 156.18,-1647.36 320.41,-1647.36 402.53,-1696.34"/>
<text text-anchor="middle" x="238.29" y="-1703.14" font-family="Arial" font-size="24.00">DATA DELIVERY</text>
<text text-anchor="middle" x="238.29" y="-1677.14" font-family="Arial" font-size="24.00">http | ID: 14</text>
</a>
</g>
</g>
<!-- RESOURCE HIJACKING
http | ID: 52&#45;&gt;DATA DELIVERY
http | ID: 14 -->
<g id="edge11" class="edge">
<title>RESOURCE HIJACKING
http | ID: 52&#45;&gt;DATA DELIVERY
http | ID: 14</title>
<path fill="none" stroke="maroon" stroke-width="5" d="M236.84,-1565.52C237.08,-1587.58 237.38,-1613.92 237.64,-1637.09"/>
<polygon fill="maroon" stroke="maroon" stroke-width="5" points="233.27,-1637.19 237.75,-1647.14 242.02,-1637.09 233.27,-1637.19"/>
<text text-anchor="middle" x="390.79" y="-1623.35" font-family="Arial" font-size="20.00" fill="maroon">start_next: 03/11/18, 14:53:19</text>
<text text-anchor="middle" x="390.79" y="-1601.35" font-family="Arial" font-size="20.00" fill="maroon">gap: 6sec</text>
<text text-anchor="middle" x="390.79" y="-1579.35" font-family="Arial" font-size="20.00" fill="maroon">end_prev: 03/11/18, 14:53:13</text>
</g>
<!-- DATA DELIVERY
http | ID: 14&#45;&gt;SERVICE DISCOVERY
unknown -->
<g id="edge12" class="edge">
<title>DATA DELIVERY
http | ID: 14&#45;&gt;SERVICE DISCOVERY
unknown</title>
<path fill="none" stroke="maroon" stroke-width="5" d="M227.68,-1745.35C225.09,-1769.77 226.68,-1798.6 242.29,-1819.33 246.26,-1824.6 250.8,-1829.31 255.77,-1833.54"/>
<polygon fill="maroon" stroke="maroon" stroke-width="5" points="253.32,-1837.17 263.92,-1839.77 258.64,-1830.22 253.32,-1837.17"/>
<text text-anchor="middle" x="394.79" y="-1803.33" font-family="Arial" font-size="20.00" fill="maroon">start_next: 03/11/18, 14:53:39</text>
<text text-anchor="middle" x="394.79" y="-1781.33" font-family="Arial" font-size="20.00" fill="maroon">gap: 9sec</text>
<text text-anchor="middle" x="394.79" y="-1759.33" font-family="Arial" font-size="20.00" fill="maroon">end_prev: 03/11/18, 14:53:30</text>
</g>
<!-- HOST DISCOVERY
etlservicemgr -->
<g id="node15" class="node">
<title>HOST DISCOVERY
etlservicemgr</title>
<g id="a_node15"><a xlink:title="ET SCAN Possible Nmap User&#45;Agent Observed&#10;ET SCAN Nmap Scripting Engine User&#45;Agent Detected (Nmap Scripting Engine)">
<ellipse fill="none" stroke="black" stroke-width="3" cx="395.29" cy="-2036.61" rx="161.44" ry="42.35"/>
<text text-anchor="middle" x="395.29" y="-2043.41" font-family="Arial" font-size="24.00">HOST DISCOVERY</text>
<text text-anchor="middle" x="395.29" y="-2017.41" font-family="Arial" font-size="24.00">etlservicemgr</text>
</a>
</g>
</g>
<!-- SERVICE DISCOVERY
unknown&#45;&gt;HOST DISCOVERY
etlservicemgr -->
<g id="edge13" class="edge">
<title>SERVICE DISCOVERY
unknown&#45;&gt;HOST DISCOVERY
etlservicemgr</title>
<path fill="none" stroke="maroon" stroke-width="5" d="M262.77,-1899.43C254.58,-1905.17 247.25,-1912.02 241.29,-1920.18 224.01,-1943.88 224.01,-1962.48 241.29,-1986.18 246.47,-1993.28 252.67,-1999.37 259.58,-2004.61"/>
<polygon fill="maroon" stroke="maroon" stroke-width="5" points="257.28,-2008.34 268,-2010.38 262.22,-2001.12 257.28,-2008.34"/>
<text text-anchor="middle" x="393.79" y="-1970.18" font-family="Arial" font-size="20.00" fill="maroon">start_next: 03/11/18, 15:01:05</text>
<text text-anchor="middle" x="393.79" y="-1948.18" font-family="Arial" font-size="20.00" fill="maroon">gap: 194sec</text>
<text text-anchor="middle" x="393.79" y="-1926.18" font-family="Arial" font-size="20.00" fill="maroon">end_prev: 03/11/18, 14:57:51</text>
</g>
<!-- SERVICE DISCOVERY
unknown&#45;&gt;HOST DISCOVERY
etlservicemgr -->
<g id="edge24" class="edge">
<title>SERVICE DISCOVERY
unknown&#45;&gt;HOST DISCOVERY
etlservicemgr</title>
<path fill="none" stroke="maroon" stroke-width="5" d="M523.36,-1900.46C530.96,-1905.98 537.75,-1912.49 543.29,-1920.18 560.44,-1943.98 560.44,-1962.38 543.29,-1986.18 538.62,-1992.67 533.05,-1998.32 526.86,-2003.24"/>
<polygon fill="maroon" stroke="maroon" stroke-width="5" points="524.29,-1999.71 518.71,-2009.09 529.39,-2006.82 524.29,-1999.71"/>
<text text-anchor="middle" x="707.79" y="-1970.18" font-family="Arial" font-size="20.00" fill="maroon">start_next: 03/11/18, 17:59:39</text>
<text text-anchor="middle" x="707.79" y="-1948.18" font-family="Arial" font-size="20.00" fill="maroon">gap: 938sec</text>
<text text-anchor="middle" x="707.79" y="-1926.18" font-family="Arial" font-size="20.00" fill="maroon">end_prev: 03/11/18, 17:44:01</text>
</g>
<!-- VULNERABILTY DISCOVERY
etlservicemgr -->
<g id="node16" class="node">
<title>VULNERABILTY DISCOVERY
etlservicemgr</title>
<g id="a_node16"><a xlink:title="ET SCAN Nikto Web App Scan in Progress">
<ellipse fill="none" stroke="black" stroke-width="3" cx="238.29" cy="-2203.46" rx="238.09" ry="42.35"/>
<text text-anchor="middle" x="238.29" y="-2210.26" font-family="Arial" font-size="24.00">VULNERABILTY DISCOVERY</text>
<text text-anchor="middle" x="238.29" y="-2184.26" font-family="Arial" font-size="24.00">etlservicemgr</text>
</a>
</g>
</g>
<!-- HOST DISCOVERY
etlservicemgr&#45;&gt;VULNERABILTY DISCOVERY
etlservicemgr -->
<g id="edge14" class="edge">
<title>HOST DISCOVERY
etlservicemgr&#45;&gt;VULNERABILTY DISCOVERY
etlservicemgr</title>
<path fill="none" stroke="maroon" stroke-width="5" d="M269.17,-2063.2C258.86,-2069.52 249.61,-2077.34 242.29,-2087.04 228.79,-2104.93 226.32,-2129.21 227.82,-2150.88"/>
<polygon fill="maroon" stroke="maroon" stroke-width="5" points="223.48,-2151.42 228.8,-2160.95 232.18,-2150.57 223.48,-2151.42"/>
<text text-anchor="middle" x="394.79" y="-2137.04" font-family="Arial" font-size="20.00" fill="maroon">start_next: 03/11/18, 15:05:19</text>
<text text-anchor="middle" x="394.79" y="-2115.04" font-family="Arial" font-size="20.00" fill="maroon">gap: 253sec</text>
<text text-anchor="middle" x="394.79" y="-2093.04" font-family="Arial" font-size="20.00" fill="maroon">end_prev: 03/11/18, 15:01:06</text>
</g>
<!-- INFO DISCOVERY
etlservicemgr -->
<g id="node17" class="node">
<title>INFO DISCOVERY
etlservicemgr</title>
<g id="a_node17"><a xlink:title="GPL WEB_SERVER iisadmin access&#10;GPL WEB_SERVER printenv access&#10;GPL WEB_SERVER author.exe access&#10;ET WEB_SERVER PHP Easteregg Information&#45;Disclosure (phpinfo)&#10;GPL WEB_SERVER globals.pl access&#10;GPL WEB_SERVER viewcode access&#10;GPL EXPLOIT ISAPI .idq attempt&#10;ET POLICY Proxy TRACE Request &#45; inbound&#10;GPL WEB_SERVER /~root access&#10;GPL WEB_SERVER service.pwd&#10;ET WEB_SERVER PHP REQUEST SuperGlobal in URI&#10;GPL WEB_SERVER services.cnf access&#10;GPL EXPLOIT unicode directory traversal attempt&#10;GPL EXPLOIT .htr access&#10;GPL EXPLOIT .cnf access&#10;GPL WEB_SERVER .htaccess access&#10;GPL WEB_SERVER authors.pwd access&#10;GPL EXPLOIT iisadmpwd attempt&#10;GPL WEB_SERVER global.asa access&#10;GPL EXPLOIT fpcount access&#10;GPL WEB_SERVER .htpasswd access&#10;ET WEB_SERVER PHP SESSION SuperGlobal in URI&#10;GPL WEB_SERVER writeto.cnf access&#10;GPL EXPLOIT iissamples access&#10;GPL WEB_SERVER service.cnf access">
<ellipse fill="none" stroke="black" stroke-width="3" cx="395.29" cy="-2370.31" rx="154.3" ry="42.35"/>
<text text-anchor="middle" x="395.29" y="-2377.11" font-family="Arial" font-size="24.00">INFO DISCOVERY</text>
<text text-anchor="middle" x="395.29" y="-2351.11" font-family="Arial" font-size="24.00">etlservicemgr</text>
</a>
</g>
</g>
<!-- HOST DISCOVERY
etlservicemgr&#45;&gt;INFO DISCOVERY
etlservicemgr -->
<g id="edge25" class="edge">
<title>HOST DISCOVERY
etlservicemgr&#45;&gt;INFO DISCOVERY
etlservicemgr</title>
<path fill="none" stroke="maroon" stroke-width="5" d="M519.19,-2063.8C528.88,-2070.01 537.52,-2077.64 544.29,-2087.04 604.87,-2170.95 604.87,-2235.98 544.29,-2319.89 539.14,-2327.04 532.9,-2333.17 525.95,-2338.42"/>
<polygon fill="maroon" stroke="maroon" stroke-width="5" points="523.27,-2334.95 517.47,-2344.2 528.2,-2342.18 523.27,-2334.95"/>
<text text-anchor="middle" x="741.79" y="-2220.46" font-family="Arial" font-size="20.00" fill="maroon">start_next: 03/11/18, 18:00:09</text>
<text text-anchor="middle" x="741.79" y="-2198.46" font-family="Arial" font-size="20.00" fill="maroon">gap: 29sec</text>
<text text-anchor="middle" x="741.79" y="-2176.46" font-family="Arial" font-size="20.00" fill="maroon">end_prev: 03/11/18, 17:59:39</text>
</g>
<!-- VULNERABILTY DISCOVERY
etlservicemgr&#45;&gt;INFO DISCOVERY
etlservicemgr -->
<g id="edge15" class="edge">
<title>VULNERABILTY DISCOVERY
etlservicemgr&#45;&gt;INFO DISCOVERY
etlservicemgr</title>
<path fill="none" stroke="maroon" stroke-width="5" d="M228.8,-2245.98C225.81,-2269.87 226.65,-2299.16 242.29,-2319.89 248.04,-2327.5 254.97,-2333.96 262.67,-2339.43"/>
<polygon fill="maroon" stroke="maroon" stroke-width="5" points="260.54,-2343.26 271.31,-2345 265.28,-2335.91 260.54,-2343.26"/>
<text text-anchor="middle" x="394.79" y="-2303.89" font-family="Arial" font-size="20.00" fill="maroon">start_next: 03/11/18, 15:05:19</text>
<text text-anchor="middle" x="394.79" y="-2281.89" font-family="Arial" font-size="20.00" fill="maroon">gap: 0sec</text>
<text text-anchor="middle" x="394.79" y="-2259.89" font-family="Arial" font-size="20.00" fill="maroon">end_prev: 03/11/18, 15:05:19</text>
</g>
<!-- INFO DISCOVERY
etlservicemgr&#45;&gt;DATA EXFILTRATION
etlservicemgr | ID: 27 -->
<g id="edge16" class="edge">
<title>INFO DISCOVERY
etlservicemgr&#45;&gt;DATA EXFILTRATION
etlservicemgr | ID: 27</title>
<path fill="none" stroke="maroon" stroke-width="5" d="M270.15,-2395.25C258.97,-2401.84 248.99,-2410.19 241.29,-2420.74 224.01,-2444.44 224.47,-2462.72 241.29,-2486.74 244.03,-2490.65 247.07,-2494.28 250.36,-2497.66"/>
<polygon fill="maroon" stroke="maroon" stroke-width="5" points="247.63,-2501.1 257.94,-2504.67 253.57,-2494.67 247.63,-2501.1"/>
<text text-anchor="middle" x="393.79" y="-2470.74" font-family="Arial" font-size="20.00" fill="maroon">start_next: 03/11/18, 15:05:20</text>
<text text-anchor="middle" x="393.79" y="-2448.74" font-family="Arial" font-size="20.00" fill="maroon">gap: &#45;36sec</text>
<text text-anchor="middle" x="393.79" y="-2426.74" font-family="Arial" font-size="20.00" fill="maroon">end_prev: 03/11/18, 15:05:55</text>
</g>
<!-- INFO DISCOVERY
etlservicemgr&#45;&gt;DATA EXFILTRATION
etlservicemgr | ID: 27 -->
<g id="edge26" class="edge">
<title>INFO DISCOVERY
etlservicemgr&#45;&gt;DATA EXFILTRATION
etlservicemgr | ID: 27</title>
<path fill="none" stroke="maroon" stroke-width="5" d="M516.66,-2396.54C526.98,-2402.91 536.17,-2410.85 543.29,-2420.74 560.44,-2444.54 559.97,-2462.61 543.29,-2486.74 541.06,-2489.98 538.6,-2493.04 535.97,-2495.92"/>
<polygon fill="maroon" stroke="maroon" stroke-width="5" points="532.68,-2493.01 528.58,-2503.13 538.79,-2499.27 532.68,-2493.01"/>
<text text-anchor="middle" x="707.79" y="-2470.74" font-family="Arial" font-size="20.00" fill="maroon">start_next: 03/11/18, 18:00:10</text>
<text text-anchor="middle" x="707.79" y="-2448.74" font-family="Arial" font-size="20.00" fill="maroon">gap: &#45;59sec</text>
<text text-anchor="middle" x="707.79" y="-2426.74" font-family="Arial" font-size="20.00" fill="maroon">end_prev: 03/11/18, 18:01:10</text>
</g>
</g>
</svg>
