<?xml version="1.0" encoding="UTF-8" standalone="no"?>
<!DOCTYPE svg PUBLIC "-//W3C//DTD SVG 1.1//EN"
 "http://www.w3.org/Graphics/SVG/1.1/DTD/svg11.dtd">
<!-- Generated by graphviz version 2.43.0 (0)
 -->
<!-- Title: RESOURCEHIJACKINGhttp Pages: 1 -->
<svg width="978pt" height="2091pt"
 viewBox="0.00 0.00 978.35 2090.83" xmlns="http://www.w3.org/2000/svg" xmlns:xlink="http://www.w3.org/1999/xlink">
<g id="graph0" class="graph" transform="scale(1 1) rotate(0) translate(4 2086.83)">
<title>RESOURCEHIJACKINGhttp</title>
<polygon fill="white" stroke="transparent" points="-4,4 -4,-2086.83 974.35,-2086.83 974.35,4 -4,4"/>
<!-- Victim: 10.0.1.46
RESOURCE HIJACKING
http -->
<g id="node1" class="node">
<title>Victim: 10.0.1.46
RESOURCE HIJACKING
http</title>
<polygon fill="salmon" stroke="black" stroke-width="3" points="548.37,-1985.81 548.37,-2040.2 424.17,-2078.66 248.53,-2078.66 124.34,-2040.2 124.34,-1985.81 248.53,-1947.35 424.17,-1947.35 548.37,-1985.81"/>
<polygon fill="none" stroke="black" stroke-width="3" points="552.37,-1982.87 552.37,-2043.14 424.78,-2082.65 247.93,-2082.65 120.34,-2043.14 120.34,-1982.87 247.93,-1943.36 424.78,-1943.36 552.37,-1982.87"/>
<text text-anchor="middle" x="336.35" y="-2032.8" font-family="Arial" font-size="24.00">Victim: 10.0.1.46</text>
<text text-anchor="middle" x="336.35" y="-2006.8" font-family="Arial" font-size="24.00">RESOURCE HIJACKING</text>
<text text-anchor="middle" x="336.35" y="-1980.8" font-family="Arial" font-size="24.00">http</text>
</g>
<!-- RESOURCE HIJACKING
http | ID: 52 -->
<g id="node2" class="node">
<title>RESOURCE HIJACKING
http | ID: 52</title>
<g id="a_node2"><a xlink:title="GPL WEB_SERVER Oracle Java Process Manager access">
<polygon fill="salmon" stroke="black" stroke-width="3" points="562.69,-1877.19 449.52,-1926.17 223.18,-1926.17 110.01,-1877.19 223.18,-1828.21 449.52,-1828.21 562.69,-1877.19"/>
<text text-anchor="middle" x="336.35" y="-1883.99" font-family="Arial" font-size="24.00">RESOURCE HIJACKING</text>
<text text-anchor="middle" x="336.35" y="-1857.99" font-family="Arial" font-size="24.00">http | ID: 52</text>
</a>
</g>
</g>
<!-- RESOURCE HIJACKING
http | ID: 52&#45;&gt;Victim: 10.0.1.46
RESOURCE HIJACKING
http -->
<g id="edge1" class="edge">
<title>RESOURCE HIJACKING
http | ID: 52&#45;&gt;Victim: 10.0.1.46
RESOURCE HIJACKING
http</title>
<path fill="none" stroke="black" stroke-width="5" d="M336.35,-1926.5C336.35,-1928.61 336.35,-1930.74 336.35,-1932.89"/>
<polygon fill="black" stroke="black" stroke-width="5" points="331.98,-1933.04 336.35,-1943.04 340.73,-1933.04 331.98,-1933.04"/>
</g>
<!-- HOST DISCOVERY
http -->
<g id="node3" class="node">
<title>HOST DISCOVERY
http</title>
<g id="a_node3"><a xlink:title="ET SCAN Possible Nmap User&#45;Agent Observed&#10;ET SCAN Nmap Scripting Engine User&#45;Agent Detected (Nmap Scripting Engine)">
<ellipse fill="yellow" stroke="black" stroke-width="3" cx="336.35" cy="-403.26" rx="161.44" ry="42.35"/>
<text text-anchor="middle" x="336.35" y="-410.06" font-family="Arial" font-size="24.00">HOST DISCOVERY</text>
<text text-anchor="middle" x="336.35" y="-384.06" font-family="Arial" font-size="24.00">http</text>
</a>
</g>
</g>
<!-- VULNERABILTY DISCOVERY
ms&#45;sql&#45;s -->
<g id="node4" class="node">
<title>VULNERABILTY DISCOVERY
ms&#45;sql&#45;s</title>
<g id="a_node4"><a xlink:title="ET SCAN Suspicious inbound to Oracle SQL port 1521&#10;ET SCAN Suspicious inbound to MSSQL port 1433&#10;ET SCAN Suspicious inbound to mySQL port 3306&#10;ET SCAN Nikto Web App Scan in Progress&#10;ET SCAN Suspicious inbound to PostgreSQL port 5432&#10;ET SCAN Suspicious inbound to mSQL port 4333">
<ellipse fill="none" stroke="black" stroke-width="3" cx="336.35" cy="-584.11" rx="238.09" ry="42.35"/>
<text text-anchor="middle" x="336.35" y="-590.91" font-family="Arial" font-size="24.00">VULNERABILTY DISCOVERY</text>
<text text-anchor="middle" x="336.35" y="-564.91" font-family="Arial" font-size="24.00">ms&#45;sql&#45;s</text>
</a>
</g>
</g>
<!-- HOST DISCOVERY
http&#45;&gt;VULNERABILTY DISCOVERY
ms&#45;sql&#45;s -->
<g id="edge2" class="edge">
<title>HOST DISCOVERY
http&#45;&gt;VULNERABILTY DISCOVERY
ms&#45;sql&#45;s</title>
<path fill="none" stroke="maroon" stroke-width="5" d="M176.96,-409.97C108.33,-416.12 38.87,-428.58 17.35,-453.69 -5.78,-480.68 -5.78,-506.69 17.35,-533.69 30.84,-549.43 63.18,-560.2 102.34,-567.56"/>
<polygon fill="maroon" stroke="maroon" stroke-width="5" points="101.82,-571.91 112.43,-569.35 103.35,-563.29 101.82,-571.91"/>
<text text-anchor="start" x="17.35" y="-518.69" font-family="Arial" font-size="20.00" fill="maroon"> start_next: 03/11/18, 14:42:24</text>
<text text-anchor="start" x="124.35" y="-498.69" font-family="Arial" font-size="20.00" fill="maroon">gap: 2sec</text>
<text text-anchor="start" x="25.35" y="-478.69" font-family="Arial" font-size="20.00" fill="maroon">end_prev: 03/11/18, 14:42:22</text>
<text text-anchor="start" x="41.35" y="-458.69" font-family="Arial" font-weight="bold" font-size="20.00" fill="maroon">Attacker: 10.0.254.201</text>
</g>
<!-- HOST DISCOVERY
http&#45;&gt;VULNERABILTY DISCOVERY
ms&#45;sql&#45;s -->
<g id="edge11" class="edge">
<title>HOST DISCOVERY
http&#45;&gt;VULNERABILTY DISCOVERY
ms&#45;sql&#45;s</title>
<path fill="none" stroke="maroon" stroke-width="5" d="M336.35,-445.74C336.35,-471.27 336.35,-504.2 336.35,-531.42"/>
<polygon fill="maroon" stroke="maroon" stroke-width="5" points="331.98,-531.55 336.35,-541.55 340.73,-531.55 331.98,-531.55"/>
<text text-anchor="start" x="336.35" y="-518.69" font-family="Arial" font-size="20.00" fill="maroon"> start_next: 03/11/18, 17:37:52</text>
<text text-anchor="start" x="443.35" y="-498.69" font-family="Arial" font-size="20.00" fill="maroon">gap: 4sec</text>
<text text-anchor="start" x="344.35" y="-478.69" font-family="Arial" font-size="20.00" fill="maroon">end_prev: 03/11/18, 17:37:48</text>
<text text-anchor="start" x="360.35" y="-458.69" font-family="Arial" font-weight="bold" font-size="20.00" fill="maroon">Attacker: 10.0.254.204</text>
</g>
<!-- HOST DISCOVERY
http&#45;&gt;VULNERABILTY DISCOVERY
ms&#45;sql&#45;s -->
<g id="edge22" class="edge">
<title>HOST DISCOVERY
http&#45;&gt;VULNERABILTY DISCOVERY
ms&#45;sql&#45;s</title>
<path fill="none" stroke="maroon" stroke-width="5" d="M495.26,-410.69C561.41,-417.03 627.65,-429.45 648.35,-453.69 671.44,-480.72 671.44,-506.65 648.35,-533.69 635.52,-548.71 605.19,-559.19 568.23,-566.5"/>
<polygon fill="maroon" stroke="maroon" stroke-width="5" points="567.2,-562.24 558.17,-568.38 568.81,-570.84 567.2,-562.24"/>
<text text-anchor="middle" x="817.85" y="-510.69" font-family="Arial" font-size="20.00" fill="maroon">start_next: 03/11/18, 22:31:05</text>
<text text-anchor="middle" x="817.85" y="-488.69" font-family="Arial" font-size="20.00" fill="maroon">gap: 2sec</text>
<text text-anchor="middle" x="817.85" y="-466.69" font-family="Arial" font-size="20.00" fill="maroon">end_prev: 03/11/18, 22:31:03</text>
</g>
<!-- INFO DISCOVERY
http -->
<g id="node5" class="node">
<title>INFO DISCOVERY
http</title>
<g id="a_node5"><a xlink:title="GPL WEB_SERVER iisadmin access&#10;GPL WEB_SERVER printenv access&#10;GPL WEB_SERVER author.exe access&#10;ET WEB_SERVER PHP Easteregg Information&#45;Disclosure (phpinfo)&#10;ET WEB_SERVER PHP Easteregg Information&#45;Disclosure (funny&#45;logo)&#10;GPL WEB_SERVER globals.pl access&#10;GPL WEB_SERVER viewcode access&#10;ET WEB_SPECIFIC_APPS Request to Wordpress W3TC Plug&#45;in dbcache Directory&#10;GPL EXPLOIT ISAPI .idq attempt&#10;ET POLICY Proxy TRACE Request &#45; inbound&#10;GPL WEB_SERVER /~root access&#10;GPL WEB_SERVER service.pwd&#10;ET WEB_SERVER PHP REQUEST SuperGlobal in URI&#10;ET WEB_SERVER PHP Easteregg Information&#45;Disclosure (php&#45;logo)&#10;GPL WEB_SERVER services.cnf access&#10;GPL EXPLOIT unicode directory traversal attempt&#10;GPL EXPLOIT .htr access&#10;GPL EXPLOIT .cnf access&#10;ET WEB_SERVER PHP SERVER SuperGlobal in URI&#10;GPL WEB_SERVER .htaccess access&#10;GPL EXPLOIT iisadmpwd attempt&#10;GPL WEB_SERVER service.cnf access&#10;GPL WEB_SERVER global.asa access&#10;GPL EXPLOIT fpcount access&#10;GPL WEB_SERVER .htpasswd access&#10;GPL WEB_SERVER 403 Forbidden&#10;ET WEB_SERVER PHP SESSION SuperGlobal in URI&#10;GPL WEB_SERVER writeto.cnf access&#10;GPL EXPLOIT iissamples access&#10;ET WEB_SERVER PHP Easteregg Information&#45;Disclosure (zend&#45;logo)&#10;ET WEB_SERVER PHP ENV SuperGlobal in URI&#10;GPL WEB_SERVER authors.pwd access">
<ellipse fill="none" stroke="black" stroke-width="3" cx="336.35" cy="-750.96" rx="154.3" ry="42.35"/>
<text text-anchor="middle" x="336.35" y="-757.76" font-family="Arial" font-size="24.00">INFO DISCOVERY</text>
<text text-anchor="middle" x="336.35" y="-731.76" font-family="Arial" font-size="24.00">http</text>
</a>
</g>
</g>
<!-- VULNERABILTY DISCOVERY
ms&#45;sql&#45;s&#45;&gt;INFO DISCOVERY
http -->
<g id="edge3" class="edge">
<title>VULNERABILTY DISCOVERY
ms&#45;sql&#45;s&#45;&gt;INFO DISCOVERY
http</title>
<path fill="none" stroke="maroon" stroke-width="5" d="M114.22,-599.7C72.46,-607.06 37.42,-618.07 23.35,-634.54 4.3,-656.84 4.3,-678.24 23.35,-700.54 43.79,-724.46 108.45,-736.87 173.73,-743.28"/>
<polygon fill="maroon" stroke="maroon" stroke-width="5" points="173.42,-747.65 183.78,-744.22 174.23,-738.93 173.42,-747.65"/>
<text text-anchor="middle" x="175.85" y="-684.54" font-family="Arial" font-size="20.00" fill="maroon">start_next: 03/11/18, 14:42:24</text>
<text text-anchor="middle" x="175.85" y="-662.54" font-family="Arial" font-size="20.00" fill="maroon">gap: &#45;27sec</text>
<text text-anchor="middle" x="175.85" y="-640.54" font-family="Arial" font-size="20.00" fill="maroon">end_prev: 03/11/18, 14:42:50</text>
</g>
<!-- VULNERABILTY DISCOVERY
ms&#45;sql&#45;s&#45;&gt;INFO DISCOVERY
http -->
<g id="edge12" class="edge">
<title>VULNERABILTY DISCOVERY
ms&#45;sql&#45;s&#45;&gt;INFO DISCOVERY
http</title>
<path fill="none" stroke="maroon" stroke-width="5" d="M336.35,-626.71C336.35,-648.38 336.35,-675.09 336.35,-698.1"/>
<polygon fill="maroon" stroke="maroon" stroke-width="5" points="331.98,-698.38 336.35,-708.38 340.73,-698.38 331.98,-698.38"/>
<text text-anchor="middle" x="488.85" y="-684.54" font-family="Arial" font-size="20.00" fill="maroon">start_next: 03/11/18, 17:37:52</text>
<text text-anchor="middle" x="488.85" y="-662.54" font-family="Arial" font-size="20.00" fill="maroon">gap: &#45;292sec</text>
<text text-anchor="middle" x="488.85" y="-640.54" font-family="Arial" font-size="20.00" fill="maroon">end_prev: 03/11/18, 17:42:45</text>
</g>
<!-- VULNERABILTY DISCOVERY
ms&#45;sql&#45;s&#45;&gt;INFO DISCOVERY
http -->
<g id="edge23" class="edge">
<title>VULNERABILTY DISCOVERY
ms&#45;sql&#45;s&#45;&gt;INFO DISCOVERY
http</title>
<path fill="none" stroke="maroon" stroke-width="5" d="M556.26,-600.68C595.89,-608.01 628.92,-618.76 642.35,-634.54 661.37,-656.87 661.37,-678.2 642.35,-700.54 622.73,-723.58 561.28,-735.92 498.54,-742.51"/>
<polygon fill="maroon" stroke="maroon" stroke-width="5" points="497.98,-738.17 488.47,-743.52 498.85,-746.87 497.98,-738.17"/>
<text text-anchor="middle" x="808.85" y="-684.54" font-family="Arial" font-size="20.00" fill="maroon">start_next: 03/11/18, 22:31:05</text>
<text text-anchor="middle" x="808.85" y="-662.54" font-family="Arial" font-size="20.00" fill="maroon">gap: &#45;47sec</text>
<text text-anchor="middle" x="808.85" y="-640.54" font-family="Arial" font-size="20.00" fill="maroon">end_prev: 03/11/18, 22:31:52</text>
</g>
<!-- DATA EXFILTRATION
http | ID: 12 -->
<g id="node6" class="node">
<title>DATA EXFILTRATION
http | ID: 12</title>
<g id="a_node6"><a xlink:title="ET WEB_SERVER Possible XXE SYSTEM ENTITY in POST BODY.&#10;GPL EXPLOIT ISAPI .ida access&#10;ET WEB_SERVER /system32/ in Uri &#45; Possible Protected Directory Access Attempt&#10;GPL WEB_SERVER Tomcat server snoop access&#10;ET WEB_SERVER ColdFusion componentutils access&#10;GPL EXPLOIT /msadc/samples/ access&#10;ET WEB_SPECIFIC_APPS PHP&#45;CGI query string parameter vulnerability&#10;GPL EXPLOIT ISAPI .idq access&#10;ET WEB_SERVER /etc/shadow Detected in URI">
<polygon fill="none" stroke="black" stroke-width="3" points="541.23,-924.38 438.79,-973.36 233.91,-973.36 131.47,-924.38 233.91,-875.4 438.79,-875.4 541.23,-924.38"/>
<text text-anchor="middle" x="336.35" y="-931.18" font-family="Arial" font-size="24.00">DATA EXFILTRATION</text>
<text text-anchor="middle" x="336.35" y="-905.18" font-family="Arial" font-size="24.00">http | ID: 12</text>
</a>
</g>
</g>
<!-- INFO DISCOVERY
http&#45;&gt;DATA EXFILTRATION
http | ID: 12 -->
<g id="edge4" class="edge">
<title>INFO DISCOVERY
http&#45;&gt;DATA EXFILTRATION
http | ID: 12</title>
<path fill="none" stroke="maroon" stroke-width="5" d="M183.78,-757.71C115.2,-763.82 44.84,-776.24 23.35,-801.39 4.3,-823.69 4.53,-844.9 23.35,-867.39 41.03,-888.51 92.46,-901.67 148.65,-909.87"/>
<polygon fill="maroon" stroke="maroon" stroke-width="5" points="148.31,-914.24 158.82,-911.29 149.52,-905.57 148.31,-914.24"/>
<text text-anchor="middle" x="175.85" y="-851.39" font-family="Arial" font-size="20.00" fill="maroon">start_next: 03/11/18, 14:42:24</text>
<text text-anchor="middle" x="175.85" y="-829.39" font-family="Arial" font-size="20.00" fill="maroon">gap: &#45;13sec</text>
<text text-anchor="middle" x="175.85" y="-807.39" font-family="Arial" font-size="20.00" fill="maroon">end_prev: 03/11/18, 14:42:37</text>
</g>
<!-- INFO DISCOVERY
http&#45;&gt;DATA EXFILTRATION
http | ID: 12 -->
<g id="edge13" class="edge">
<title>INFO DISCOVERY
http&#45;&gt;DATA EXFILTRATION
http | ID: 12</title>
<path fill="none" stroke="maroon" stroke-width="5" d="M336.35,-793.46C336.35,-814.95 336.35,-841.55 336.35,-865.07"/>
<polygon fill="maroon" stroke="maroon" stroke-width="5" points="331.98,-865.29 336.35,-875.29 340.73,-865.29 331.98,-865.29"/>
<text text-anchor="middle" x="488.85" y="-851.39" font-family="Arial" font-size="20.00" fill="maroon">start_next: 03/11/18, 17:37:53</text>
<text text-anchor="middle" x="488.85" y="-829.39" font-family="Arial" font-size="20.00" fill="maroon">gap: &#45;48sec</text>
<text text-anchor="middle" x="488.85" y="-807.39" font-family="Arial" font-size="20.00" fill="maroon">end_prev: 03/11/18, 17:38:40</text>
</g>
<!-- INFO DISCOVERY
http&#45;&gt;DATA EXFILTRATION
http | ID: 12 -->
<g id="edge24" class="edge">
<title>INFO DISCOVERY
http&#45;&gt;DATA EXFILTRATION
http | ID: 12</title>
<path fill="none" stroke="maroon" stroke-width="5" d="M488.47,-758.41C554.58,-764.72 621.68,-777.11 642.35,-801.39 661.37,-823.73 661.14,-844.86 642.35,-867.39 625.38,-887.75 576.45,-900.72 522.56,-908.99"/>
<polygon fill="maroon" stroke="maroon" stroke-width="5" points="521.7,-904.69 512.45,-910.48 522.98,-913.35 521.7,-904.69"/>
<text text-anchor="middle" x="808.85" y="-851.39" font-family="Arial" font-size="20.00" fill="maroon">start_next: 03/11/18, 22:31:05</text>
<text text-anchor="middle" x="808.85" y="-829.39" font-family="Arial" font-size="20.00" fill="maroon">gap: &#45;25sec</text>
<text text-anchor="middle" x="808.85" y="-807.39" font-family="Arial" font-size="20.00" fill="maroon">end_prev: 03/11/18, 22:31:30</text>
</g>
<!-- ARBITRARY CODE EXECUTION
http | ID: 97 -->
<g id="node7" class="node">
<title>ARBITRARY CODE EXECUTION
http | ID: 97</title>
<g id="a_node7"><a xlink:title="ET WEB_SERVER Possible CVE&#45;2014&#45;6271 Attempt&#10;ET WEB_SPECIFIC_APPS WEB&#45;PHP RCE PHPBB 2004&#45;1315&#10;ET WEB_SPECIFIC_APPS Golem Gaming Portal root_path Parameter Remote File inclusion Attempt&#10;ET WEB_SPECIFIC_APPS Joomla swMenuPro ImageManager.php Remote File Inclusion Attempt&#10;ETPRO WEB_SPECIFIC_APPS PHPMoAdmin RCE Attempt&#10;ET WEB_SERVER cmd.exe In URI &#45; Possible Command Execution Attempt&#10;ET WEB_SERVER Exploit Suspected PHP Injection Attack (cmd=)&#10;ET WEB_SPECIFIC_APPS FormMailer formmailer.admin.inc.php BASE_DIR Parameter Remote File Inclusion Attempt&#10;ET WEB_SPECIFIC_APPS DesktopOnNet don3_requiem.php app_path Parameter Remote File Inclusion&#10;ET WEB_SPECIFIC_APPS Joomla Dada Mail Manager Component config.dadamail.php GLOBALS Parameter Remote File Inclusion&#10;ET WEB_SERVER Possible CVE&#45;2014&#45;6271 Attempt in Headers&#10;ET WEB_SPECIFIC_APPS Achievo debugger.php config_atkroot parameter Remote File Inclusion Attempt&#10;ET CURRENT_EVENTS QNAP Shellshock CVE&#45;2014&#45;6271&#10;ET WEB_SPECIFIC_APPS KingCMS menu.php CONFIG Parameter Remote File Inclusion&#10;ET WEB_SPECIFIC_APPS AjaxPortal di.php pathtoserverdata Parameter Remote File Inclusion Attempt&#10;ET WEB_SPECIFIC_APPS BASE base_stat_common.php remote file include&#10;ET WEB_SPECIFIC_APPS DesktopOnNet frontpage.php app_path Parameter Remote File Inclusion&#10;ET WEB_SPECIFIC_APPS KR&#45;Web krgourl.php DOCUMENT_ROOT Parameter Remote File Inclusion Attempt&#10;ET WEB_SPECIFIC_APPS Joomla AjaxChat Component ajcuser.php GLOBALS Parameter Remote File Inclusion Attempt&#10;ET WEB_SPECIFIC_APPS Horde type Parameter Local File Inclusion Attempt">
<polygon fill="none" stroke="black" stroke-width="3" points="522.85,-1115.37 149.85,-1115.37 149.85,-1055.37 522.85,-1055.37 522.85,-1115.37"/>
<text text-anchor="middle" x="336.35" y="-1092.17" font-family="Arial" font-size="24.00">ARBITRARY CODE EXECUTION</text>
<text text-anchor="middle" x="336.35" y="-1066.17" font-family="Arial" font-size="24.00">http | ID: 97</text>
</a>
</g>
</g>
<!-- DATA EXFILTRATION
http | ID: 12&#45;&gt;ARBITRARY CODE EXECUTION
http | ID: 97 -->
<g id="edge5" class="edge">
<title>DATA EXFILTRATION
http | ID: 12&#45;&gt;ARBITRARY CODE EXECUTION
http | ID: 97</title>
<path fill="none" stroke="maroon" stroke-width="5" d="M158.82,-937.47C98.75,-945.54 42.09,-958.99 23.35,-981.37 4.53,-1003.86 3.87,-1025.44 23.35,-1047.37 32.46,-1057.62 82.39,-1065.51 139.79,-1071.32"/>
<polygon fill="maroon" stroke="maroon" stroke-width="5" points="139.44,-1075.68 149.82,-1072.31 140.3,-1066.98 139.44,-1075.68"/>
<text text-anchor="middle" x="175.85" y="-1031.37" font-family="Arial" font-size="20.00" fill="maroon">start_next: 03/11/18, 14:42:25</text>
<text text-anchor="middle" x="175.85" y="-1009.37" font-family="Arial" font-size="20.00" fill="maroon">gap: &#45;12sec</text>
<text text-anchor="middle" x="175.85" y="-987.37" font-family="Arial" font-size="20.00" fill="maroon">end_prev: 03/11/18, 14:42:37</text>
</g>
<!-- DATA EXFILTRATION
http | ID: 12&#45;&gt;ARBITRARY CODE EXECUTION
http | ID: 97 -->
<g id="edge14" class="edge">
<title>DATA EXFILTRATION
http | ID: 12&#45;&gt;ARBITRARY CODE EXECUTION
http | ID: 97</title>
<path fill="none" stroke="maroon" stroke-width="5" d="M336.35,-973.51C336.35,-996.45 336.35,-1023.53 336.35,-1045.19"/>
<polygon fill="maroon" stroke="maroon" stroke-width="5" points="331.98,-1045.34 336.35,-1055.34 340.73,-1045.34 331.98,-1045.34"/>
<text text-anchor="middle" x="488.85" y="-1031.37" font-family="Arial" font-size="20.00" fill="maroon">start_next: 03/11/18, 17:37:56</text>
<text text-anchor="middle" x="488.85" y="-1009.37" font-family="Arial" font-size="20.00" fill="maroon">gap: &#45;44sec</text>
<text text-anchor="middle" x="488.85" y="-987.37" font-family="Arial" font-size="20.00" fill="maroon">end_prev: 03/11/18, 17:38:40</text>
</g>
<!-- DATA EXFILTRATION
http | ID: 12&#45;&gt;ARBITRARY CODE EXECUTION
http | ID: 97 -->
<g id="edge25" class="edge">
<title>DATA EXFILTRATION
http | ID: 12&#45;&gt;ARBITRARY CODE EXECUTION
http | ID: 97</title>
<path fill="none" stroke="maroon" stroke-width="5" d="M512.45,-938.28C570.24,-946.45 624.33,-959.75 642.35,-981.37 661.14,-1003.9 661.81,-1025.42 642.35,-1047.37 633.71,-1057.13 587.31,-1064.81 533.16,-1070.6"/>
<polygon fill="maroon" stroke="maroon" stroke-width="5" points="532.46,-1066.27 522.97,-1071.65 533.36,-1074.97 532.46,-1066.27"/>
<text text-anchor="middle" x="808.85" y="-1031.37" font-family="Arial" font-size="20.00" fill="maroon">start_next: 03/11/18, 22:31:07</text>
<text text-anchor="middle" x="808.85" y="-1009.37" font-family="Arial" font-size="20.00" fill="maroon">gap: &#45;23sec</text>
<text text-anchor="middle" x="808.85" y="-987.37" font-family="Arial" font-size="20.00" fill="maroon">end_prev: 03/11/18, 22:31:30</text>
</g>
<!-- ROOT PRIVILEGE ESCALATION
http | ID: 51 -->
<g id="node8" class="node">
<title>ROOT PRIVILEGE ESCALATION
http | ID: 51</title>
<g id="a_node8"><a xlink:title="GPL EXPLOIT CodeRed v2 root.exe access&#10;ET WEB_SERVER ColdFusion administrator access&#10;ETPRO WEB_SPECIFIC_APPS ipTIME firmware &lt; 9.58 RCE&#10;GPL EXPLOIT administrators.pwd access">
<polygon fill="none" stroke="black" stroke-width="3" points="523.35,-1257.37 149.35,-1257.37 149.35,-1197.37 523.35,-1197.37 523.35,-1257.37"/>
<text text-anchor="middle" x="336.35" y="-1234.17" font-family="Arial" font-size="24.00">ROOT PRIVILEGE ESCALATION</text>
<text text-anchor="middle" x="336.35" y="-1208.17" font-family="Arial" font-size="24.00">http | ID: 51</text>
</a>
</g>
</g>
<!-- ARBITRARY CODE EXECUTION
http | ID: 97&#45;&gt;ROOT PRIVILEGE ESCALATION
http | ID: 51 -->
<g id="edge6" class="edge">
<title>ARBITRARY CODE EXECUTION
http | ID: 97&#45;&gt;ROOT PRIVILEGE ESCALATION
http | ID: 51</title>
<path fill="none" stroke="maroon" stroke-width="5" d="M149.82,-1098.43C88.3,-1104.33 32.99,-1112.53 23.35,-1123.37 3.87,-1145.3 3.87,-1167.44 23.35,-1189.37 32.42,-1199.57 81.92,-1207.44 138.98,-1213.24"/>
<polygon fill="maroon" stroke="maroon" stroke-width="5" points="138.57,-1217.6 148.95,-1214.23 139.43,-1208.89 138.57,-1217.6"/>
<text text-anchor="middle" x="175.85" y="-1173.37" font-family="Arial" font-size="20.00" fill="maroon">start_next: 03/11/18, 14:42:25</text>
<text text-anchor="middle" x="175.85" y="-1151.37" font-family="Arial" font-size="20.00" fill="maroon">gap: &#45;12sec</text>
<text text-anchor="middle" x="175.85" y="-1129.37" font-family="Arial" font-size="20.00" fill="maroon">end_prev: 03/11/18, 14:42:37</text>
</g>
<!-- ARBITRARY CODE EXECUTION
http | ID: 97&#45;&gt;ROOT PRIVILEGE ESCALATION
http | ID: 51 -->
<g id="edge15" class="edge">
<title>ARBITRARY CODE EXECUTION
http | ID: 97&#45;&gt;ROOT PRIVILEGE ESCALATION
http | ID: 51</title>
<path fill="none" stroke="maroon" stroke-width="5" d="M336.35,-1115.38C336.35,-1136.08 336.35,-1164.16 336.35,-1186.89"/>
<polygon fill="maroon" stroke="maroon" stroke-width="5" points="331.98,-1186.92 336.35,-1196.92 340.73,-1186.92 331.98,-1186.92"/>
<text text-anchor="middle" x="488.85" y="-1173.37" font-family="Arial" font-size="20.00" fill="maroon">start_next: 03/11/18, 17:37:58</text>
<text text-anchor="middle" x="488.85" y="-1151.37" font-family="Arial" font-size="20.00" fill="maroon">gap: &#45;43sec</text>
<text text-anchor="middle" x="488.85" y="-1129.37" font-family="Arial" font-size="20.00" fill="maroon">end_prev: 03/11/18, 17:38:41</text>
</g>
<!-- ARBITRARY CODE EXECUTION
http | ID: 97&#45;&gt;ROOT PRIVILEGE ESCALATION
http | ID: 51 -->
<g id="edge26" class="edge">
<title>ARBITRARY CODE EXECUTION
http | ID: 97&#45;&gt;ROOT PRIVILEGE ESCALATION
http | ID: 51</title>
<path fill="none" stroke="maroon" stroke-width="5" d="M522.97,-1099.09C581.39,-1104.98 633.17,-1113.01 642.35,-1123.37 661.81,-1145.32 661.81,-1167.42 642.35,-1189.37 633.73,-1199.1 587.54,-1206.78 533.55,-1212.56"/>
<polygon fill="maroon" stroke="maroon" stroke-width="5" points="532.88,-1208.23 523.39,-1213.61 533.79,-1216.93 532.88,-1208.23"/>
<text text-anchor="middle" x="808.85" y="-1173.37" font-family="Arial" font-size="20.00" fill="maroon">start_next: 03/11/18, 22:31:07</text>
<text text-anchor="middle" x="808.85" y="-1151.37" font-family="Arial" font-size="20.00" fill="maroon">gap: &#45;24sec</text>
<text text-anchor="middle" x="808.85" y="-1129.37" font-family="Arial" font-size="20.00" fill="maroon">end_prev: 03/11/18, 22:31:31</text>
</g>
<!-- DATA MANIPULATION
http | ID: 13 -->
<g id="node9" class="node">
<title>DATA MANIPULATION
http | ID: 13</title>
<g id="a_node9"><a xlink:title="ET WEB_SERVER Possible SQL Injection Attempt UNION SELECT&#10;ET WEB_SERVER Possible SQL Injection Attempt SELECT FROM&#10;ET WEB_SERVER MYSQL SELECT CONCAT SQL Injection Attempt">
<polygon fill="none" stroke="black" stroke-width="3" points="553.73,-1388.36 445.04,-1437.34 227.66,-1437.34 118.98,-1388.36 227.66,-1339.38 445.04,-1339.38 553.73,-1388.36"/>
<text text-anchor="middle" x="336.35" y="-1395.16" font-family="Arial" font-size="24.00">DATA MANIPULATION</text>
<text text-anchor="middle" x="336.35" y="-1369.16" font-family="Arial" font-size="24.00">http | ID: 13</text>
</a>
</g>
</g>
<!-- ROOT PRIVILEGE ESCALATION
http | ID: 51&#45;&gt;DATA MANIPULATION
http | ID: 13 -->
<g id="edge7" class="edge">
<title>ROOT PRIVILEGE ESCALATION
http | ID: 51&#45;&gt;DATA MANIPULATION
http | ID: 13</title>
<path fill="none" stroke="maroon" stroke-width="5" d="M148.95,-1240.51C87.78,-1246.4 32.94,-1254.58 23.35,-1265.37 3.87,-1287.3 4.53,-1308.88 23.35,-1331.37 40.16,-1351.45 87.47,-1364.33 140.39,-1372.6"/>
<polygon fill="maroon" stroke="maroon" stroke-width="5" points="139.79,-1376.93 150.32,-1374.09 141.08,-1368.28 139.79,-1376.93"/>
<text text-anchor="middle" x="175.85" y="-1315.37" font-family="Arial" font-size="20.00" fill="maroon">start_next: 03/11/18, 14:42:26</text>
<text text-anchor="middle" x="175.85" y="-1293.37" font-family="Arial" font-size="20.00" fill="maroon">gap: &#45;4sec</text>
<text text-anchor="middle" x="175.85" y="-1271.37" font-family="Arial" font-size="20.00" fill="maroon">end_prev: 03/11/18, 14:42:30</text>
</g>
<!-- ROOT PRIVILEGE ESCALATION
http | ID: 51&#45;&gt;DATA MANIPULATION
http | ID: 13 -->
<g id="edge16" class="edge">
<title>ROOT PRIVILEGE ESCALATION
http | ID: 51&#45;&gt;DATA MANIPULATION
http | ID: 13</title>
<path fill="none" stroke="maroon" stroke-width="5" d="M336.35,-1257.53C336.35,-1277.53 336.35,-1304.76 336.35,-1329.11"/>
<polygon fill="maroon" stroke="maroon" stroke-width="5" points="331.98,-1329.34 336.35,-1339.34 340.73,-1329.34 331.98,-1329.34"/>
<text text-anchor="middle" x="488.85" y="-1315.37" font-family="Arial" font-size="20.00" fill="maroon">start_next: 03/11/18, 17:38:01</text>
<text text-anchor="middle" x="488.85" y="-1293.37" font-family="Arial" font-size="20.00" fill="maroon">gap: &#45;14sec</text>
<text text-anchor="middle" x="488.85" y="-1271.37" font-family="Arial" font-size="20.00" fill="maroon">end_prev: 03/11/18, 17:38:15</text>
</g>
<!-- ROOT PRIVILEGE ESCALATION
http | ID: 51&#45;&gt;DATA MANIPULATION
http | ID: 13 -->
<g id="edge27" class="edge">
<title>ROOT PRIVILEGE ESCALATION
http | ID: 51&#45;&gt;DATA MANIPULATION
http | ID: 13</title>
<path fill="none" stroke="maroon" stroke-width="5" d="M523.39,-1241.13C581.64,-1247.02 633.19,-1255.03 642.35,-1265.37 661.81,-1287.32 661.14,-1308.84 642.35,-1331.37 626.26,-1350.67 581.45,-1363.34 530.91,-1371.64"/>
<polygon fill="maroon" stroke="maroon" stroke-width="5" points="529.93,-1367.37 520.73,-1373.25 531.29,-1376.01 529.93,-1367.37"/>
<text text-anchor="middle" x="808.85" y="-1315.37" font-family="Arial" font-size="20.00" fill="maroon">start_next: 03/11/18, 22:31:09</text>
<text text-anchor="middle" x="808.85" y="-1293.37" font-family="Arial" font-size="20.00" fill="maroon">gap: &#45;8sec</text>
<text text-anchor="middle" x="808.85" y="-1271.37" font-family="Arial" font-size="20.00" fill="maroon">end_prev: 03/11/18, 22:31:17</text>
</g>
<!-- SURFING
http -->
<g id="node10" class="node">
<title>SURFING
http</title>
<g id="a_node10"><a xlink:title="ET WEB_SERVER WEB&#45;PHP phpinfo access">
<ellipse fill="none" stroke="black" stroke-width="3" cx="336.35" cy="-1561.78" rx="86.03" ry="42.35"/>
<text text-anchor="middle" x="336.35" y="-1568.58" font-family="Arial" font-size="24.00">SURFING</text>
<text text-anchor="middle" x="336.35" y="-1542.58" font-family="Arial" font-size="24.00">http</text>
</a>
</g>
</g>
<!-- DATA MANIPULATION
http | ID: 13&#45;&gt;SURFING
http -->
<g id="edge8" class="edge">
<title>DATA MANIPULATION
http | ID: 13&#45;&gt;SURFING
http</title>
<path fill="none" stroke="maroon" stroke-width="5" d="M150.32,-1402.63C93.48,-1410.81 41.2,-1424.03 23.35,-1445.35 4.53,-1467.84 4.3,-1489.05 23.35,-1511.35 50.86,-1543.54 158.43,-1554.89 239.85,-1558.82"/>
<polygon fill="maroon" stroke="maroon" stroke-width="5" points="239.96,-1563.21 250.15,-1559.29 240.36,-1554.46 239.96,-1563.21"/>
<text text-anchor="middle" x="175.85" y="-1495.35" font-family="Arial" font-size="20.00" fill="maroon">start_next: 03/11/18, 14:42:26</text>
<text text-anchor="middle" x="175.85" y="-1473.35" font-family="Arial" font-size="20.00" fill="maroon">gap: &#45;3sec</text>
<text text-anchor="middle" x="175.85" y="-1451.35" font-family="Arial" font-size="20.00" fill="maroon">end_prev: 03/11/18, 14:42:29</text>
</g>
<!-- DATA MANIPULATION
http | ID: 13&#45;&gt;SURFING
http -->
<g id="edge17" class="edge">
<title>DATA MANIPULATION
http | ID: 13&#45;&gt;SURFING
http</title>
<path fill="none" stroke="maroon" stroke-width="5" d="M336.35,-1437.57C336.35,-1459.89 336.35,-1486.45 336.35,-1509.18"/>
<polygon fill="maroon" stroke="maroon" stroke-width="5" points="331.98,-1509.33 336.35,-1519.33 340.73,-1509.33 331.98,-1509.33"/>
<text text-anchor="middle" x="488.85" y="-1495.35" font-family="Arial" font-size="20.00" fill="maroon">start_next: 03/11/18, 17:38:01</text>
<text text-anchor="middle" x="488.85" y="-1473.35" font-family="Arial" font-size="20.00" fill="maroon">gap: &#45;10sec</text>
<text text-anchor="middle" x="488.85" y="-1451.35" font-family="Arial" font-size="20.00" fill="maroon">end_prev: 03/11/18, 17:38:11</text>
</g>
<!-- DATA MANIPULATION
http | ID: 13&#45;&gt;SURFING
http -->
<g id="edge28" class="edge">
<title>DATA MANIPULATION
http | ID: 13&#45;&gt;SURFING
http</title>
<path fill="none" stroke="maroon" stroke-width="5" d="M520.73,-1403.47C575.34,-1411.72 625.19,-1424.76 642.35,-1445.35 661.14,-1467.88 661.37,-1489.02 642.35,-1511.35 615.71,-1542.64 511.96,-1554.19 432.58,-1558.41"/>
<polygon fill="maroon" stroke="maroon" stroke-width="5" points="432.3,-1554.04 422.53,-1558.91 432.74,-1562.78 432.3,-1554.04"/>
<text text-anchor="middle" x="808.85" y="-1495.35" font-family="Arial" font-size="20.00" fill="maroon">start_next: 03/11/18, 22:31:09</text>
<text text-anchor="middle" x="808.85" y="-1473.35" font-family="Arial" font-size="20.00" fill="maroon">gap: &#45;6sec</text>
<text text-anchor="middle" x="808.85" y="-1451.35" font-family="Arial" font-size="20.00" fill="maroon">end_prev: 03/11/18, 22:31:15</text>
</g>
<!-- ACCOUNT MANIPULATION
http | ID: 98 -->
<g id="node11" class="node">
<title>ACCOUNT MANIPULATION
http | ID: 98</title>
<g id="a_node11"><a xlink:title="GPL EXPLOIT /iisadmpwd/aexp2.htr access&#10;ET WEB_SERVER SELECT USER SQL Injection Attempt in URI">
<polygon fill="none" stroke="black" stroke-width="3" points="497.85,-1746.2 174.85,-1746.2 174.85,-1686.2 497.85,-1686.2 497.85,-1746.2"/>
<text text-anchor="middle" x="336.35" y="-1723" font-family="Arial" font-size="24.00">ACCOUNT MANIPULATION</text>
<text text-anchor="middle" x="336.35" y="-1697" font-family="Arial" font-size="24.00">http | ID: 98</text>
</a>
</g>
</g>
<!-- SURFING
http&#45;&gt;ACCOUNT MANIPULATION
http | ID: 98 -->
<g id="edge9" class="edge">
<title>SURFING
http&#45;&gt;ACCOUNT MANIPULATION
http | ID: 98</title>
<path fill="none" stroke="maroon" stroke-width="5" d="M250.15,-1564.27C167.78,-1567.73 52.03,-1578.64 23.35,-1612.2 4.3,-1634.5 3.87,-1656.28 23.35,-1678.2 33.73,-1689.87 97.07,-1698.49 164.09,-1704.46"/>
<polygon fill="maroon" stroke="maroon" stroke-width="5" points="164.09,-1708.85 174.43,-1705.36 164.85,-1700.14 164.09,-1708.85"/>
<text text-anchor="middle" x="175.85" y="-1662.2" font-family="Arial" font-size="20.00" fill="maroon">start_next: 03/11/18, 14:42:27</text>
<text text-anchor="middle" x="175.85" y="-1640.2" font-family="Arial" font-size="20.00" fill="maroon">gap: &#45;9sec</text>
<text text-anchor="middle" x="175.85" y="-1618.2" font-family="Arial" font-size="20.00" fill="maroon">end_prev: 03/11/18, 14:42:36</text>
</g>
<!-- SURFING
http&#45;&gt;ACCOUNT MANIPULATION
http | ID: 98 -->
<g id="edge18" class="edge">
<title>SURFING
http&#45;&gt;ACCOUNT MANIPULATION
http | ID: 98</title>
<path fill="none" stroke="maroon" stroke-width="5" d="M336.35,-1604.43C336.35,-1626.7 336.35,-1653.96 336.35,-1675.87"/>
<polygon fill="maroon" stroke="maroon" stroke-width="5" points="331.98,-1676.15 336.35,-1686.15 340.73,-1676.15 331.98,-1676.15"/>
<text text-anchor="middle" x="488.85" y="-1662.2" font-family="Arial" font-size="20.00" fill="maroon">start_next: 03/11/18, 17:38:05</text>
<text text-anchor="middle" x="488.85" y="-1640.2" font-family="Arial" font-size="20.00" fill="maroon">gap: &#45;33sec</text>
<text text-anchor="middle" x="488.85" y="-1618.2" font-family="Arial" font-size="20.00" fill="maroon">end_prev: 03/11/18, 17:38:38</text>
</g>
<!-- SURFING
http&#45;&gt;ACCOUNT MANIPULATION
http | ID: 98 -->
<g id="edge29" class="edge">
<title>SURFING
http&#45;&gt;ACCOUNT MANIPULATION
http | ID: 98</title>
<path fill="none" stroke="maroon" stroke-width="5" d="M422.53,-1564.64C502.94,-1568.42 614.57,-1579.58 642.35,-1612.2 661.37,-1634.54 661.81,-1656.25 642.35,-1678.2 632.41,-1689.42 572.59,-1697.9 508.44,-1703.9"/>
<polygon fill="maroon" stroke="maroon" stroke-width="5" points="507.68,-1699.57 498.12,-1704.84 508.47,-1708.29 507.68,-1699.57"/>
<text text-anchor="middle" x="808.85" y="-1662.2" font-family="Arial" font-size="20.00" fill="maroon">start_next: 03/11/18, 22:31:11</text>
<text text-anchor="middle" x="808.85" y="-1640.2" font-family="Arial" font-size="20.00" fill="maroon">gap: &#45;18sec</text>
<text text-anchor="middle" x="808.85" y="-1618.2" font-family="Arial" font-size="20.00" fill="maroon">end_prev: 03/11/18, 22:31:30</text>
</g>
<!-- ACCOUNT MANIPULATION
http | ID: 98&#45;&gt;RESOURCE HIJACKING
http | ID: 52 -->
<g id="edge10" class="edge">
<title>ACCOUNT MANIPULATION
http | ID: 98&#45;&gt;RESOURCE HIJACKING
http | ID: 52</title>
<path fill="none" stroke="maroon" stroke-width="5" d="M174.43,-1727.05C103.71,-1733.04 34.26,-1741.93 23.35,-1754.2 3.87,-1776.13 4.53,-1797.71 23.35,-1820.2 39.55,-1839.55 84.08,-1852.22 134.65,-1860.51"/>
<polygon fill="maroon" stroke="maroon" stroke-width="5" points="134.28,-1864.88 144.84,-1862.11 135.64,-1856.24 134.28,-1864.88"/>
<text text-anchor="middle" x="175.85" y="-1804.2" font-family="Arial" font-size="20.00" fill="maroon">start_next: 03/11/18, 14:42:29</text>
<text text-anchor="middle" x="175.85" y="-1782.2" font-family="Arial" font-size="20.00" fill="maroon">gap: 0sec</text>
<text text-anchor="middle" x="175.85" y="-1760.2" font-family="Arial" font-size="20.00" fill="maroon">end_prev: 03/11/18, 14:42:29</text>
</g>
<!-- ACCOUNT MANIPULATION
http | ID: 98&#45;&gt;RESOURCE HIJACKING
http | ID: 52 -->
<g id="edge19" class="edge">
<title>ACCOUNT MANIPULATION
http | ID: 98&#45;&gt;RESOURCE HIJACKING
http | ID: 52</title>
<path fill="none" stroke="maroon" stroke-width="5" d="M336.35,-1746.36C336.35,-1766.37 336.35,-1793.59 336.35,-1817.94"/>
<polygon fill="maroon" stroke="maroon" stroke-width="5" points="331.98,-1818.18 336.35,-1828.18 340.73,-1818.18 331.98,-1818.18"/>
<text text-anchor="middle" x="488.85" y="-1804.2" font-family="Arial" font-size="20.00" fill="maroon">start_next: 03/11/18, 17:38:11</text>
<text text-anchor="middle" x="488.85" y="-1782.2" font-family="Arial" font-size="20.00" fill="maroon">gap: 0sec</text>
<text text-anchor="middle" x="488.85" y="-1760.2" font-family="Arial" font-size="20.00" fill="maroon">end_prev: 03/11/18, 17:38:11</text>
</g>
<!-- ACCOUNT MANIPULATION
http | ID: 98&#45;&gt;RESOURCE HIJACKING
http | ID: 52 -->
<g id="edge30" class="edge">
<title>ACCOUNT MANIPULATION
http | ID: 98&#45;&gt;RESOURCE HIJACKING
http | ID: 52</title>
<path fill="none" stroke="maroon" stroke-width="5" d="M498.12,-1727.57C566.05,-1733.61 631.88,-1742.39 642.35,-1754.2 661.81,-1776.15 661.14,-1797.67 642.35,-1820.2 626.82,-1838.83 584.53,-1851.28 536.16,-1859.59"/>
<polygon fill="maroon" stroke="maroon" stroke-width="5" points="535.24,-1855.31 526.08,-1861.25 536.66,-1863.94 535.24,-1855.31"/>
<text text-anchor="middle" x="808.85" y="-1804.2" font-family="Arial" font-size="20.00" fill="maroon">start_next: 03/11/18, 22:31:15</text>
<text text-anchor="middle" x="808.85" y="-1782.2" font-family="Arial" font-size="20.00" fill="maroon">gap: 0sec</text>
<text text-anchor="middle" x="808.85" y="-1760.2" font-family="Arial" font-size="20.00" fill="maroon">end_prev: 03/11/18, 22:31:15</text>
</g>
<!-- DATA DELIVERY
http | ID: 14 -->
<g id="node12" class="node">
<title>DATA DELIVERY
http | ID: 14</title>
<g id="a_node12"><a xlink:title="ET WEB_SPECIFIC_APPS OpenX phpAdsNew phpAds_geoPlugin Parameter Remote File Inclusion Attempt&#10;ET WEB_SPECIFIC_APPS PHP phpMyAgenda rootagenda Remote File Include Attempt&#10;ET WEB_SPECIFIC_APPS p&#45;Table for WordPress wptable&#45;tinymce.php ABSPATH Parameter RFI Attempt&#10;ET WEB_SPECIFIC_APPS SERWeb load_lang.php configdir Parameter Remote File Inclusion&#10;ET WEB_SPECIFIC_APPS PointComma pctemplate.php pcConfig Parameter Remote File Inclusion Attempt&#10;ET WEB_SPECIFIC_APPS Possible Mambo/Joomla! com_koesubmit Component &#39;koesubmit.php&#39; Remote File Inclusion Attempt&#10;ET WEB_SPECIFIC_APPS Joomla Simple RSS Reader admin.rssreader.php mosConfig_live_site Parameter Remote File Inclusion&#10;ET WEB_SPECIFIC_APPS Ve&#45;EDIT edit_htmlarea.php highlighter Parameter Remote File Inclusion&#10;ET WEB_SPECIFIC_APPS OBOphiX fonctions_racine.php chemin_lib parameter Remote File Inclusion Attempt&#10;ET WEB_SPECIFIC_APPS SAPID get_infochannel.inc.php Remote File inclusion Attempt&#10;ET WEB_SPECIFIC_APPS PHPOF DB_AdoDB.Class.PHP PHPOF_INCLUDE_PATH parameter Remote File Inclusion&#10;ET WEB_SPECIFIC_APPS TECHNOTE shop_this_skin_path Parameter Remote File Inclusion&#10;ET WEB_SPECIFIC_APPS Possible OpenSiteAdmin pageHeader.php Remote File Inclusion Attempt&#10;ET WEB_SPECIFIC_APPS Joomla Onguma Time Sheet Component onguma.class.php mosConfig_absolute_path Parameter Remote File Inclusion&#10;ET WEB_SPECIFIC_APPS ProdLer prodler.class.php sPath Parameter Remote File Inclusion Attempt&#10;ET WEB_SPECIFIC_APPS MODx CMS snippet.reflect.php reflect_base Remote File Inclusion&#10;ET WEB_SPECIFIC_APPS phPortal gunaysoft.php icerikyolu Parameter Remote File Inclusion&#10;ET WEB_SPECIFIC_APPS Sisplet CMS komentar.php site_path Parameter Remote File Inclusion Attempt&#10;ET WEB_SPECIFIC_APPS phptraverse mp3_id.php GLOBALS Parameter Remote File Inclusion Attempt&#10;ET WEB_SPECIFIC_APPS PHP Classifieds class.phpmailer.php lang_path Parameter Remote File Inclusion Attempt&#10;ET WEB_SPECIFIC_APPS YapBB class_yapbbcooker.php cfgIncludeDirectory Parameter Remote File Inclusion&#10;ET WEB_SPECIFIC_APPS Enthusiast path parameter Remote File Inclusion&#10;ET WEB_SPECIFIC_APPS ProjectButler RFI attempt &#10;ET WEB_SPECIFIC_APPS SERWeb main_prepend.php functionsdir Parameter Remote File Inclusion&#10;ET WEB_SPECIFIC_APPS Mambo Component com_smf smf.php Remote File Inclusion Attempt&#10;ET WEB_SPECIFIC_APPS MAXcms fm_includes_special Parameter Remote File Inclusion Attempt&#10;ET WEB_SPECIFIC_APPS PHP&#45;Paid4Mail RFI attempt &#10;ET WEB_SPECIFIC_APPS phpSkelSite theme parameter remote file inclusion&#10;ET WEB_SPECIFIC_APPS PHP Aardvark Topsites PHP CONFIG PATH Remote File Include Attempt&#10;ET WEB_SPECIFIC_APPS Possible eFront database.php Remote File Inclusion Attempt&#10;ET WEB_SPECIFIC_APPS phPortal gunaysoft.php sayfaid Parameter Remote File Inclusion">
<polygon fill="yellow" stroke="black" stroke-width="3" points="500.58,-48.99 418.47,-97.97 254.24,-97.97 172.12,-48.99 254.24,-0.01 418.47,-0.01 500.58,-48.99"/>
<text text-anchor="middle" x="336.35" y="-55.79" font-family="Arial" font-size="24.00">DATA DELIVERY</text>
<text text-anchor="middle" x="336.35" y="-29.79" font-family="Arial" font-size="24.00">http | ID: 14</text>
</a>
</g>
</g>
<!-- SERVICE DISCOVERY
unknown -->
<g id="node13" class="node">
<title>SERVICE DISCOVERY
unknown</title>
<g id="a_node13"><a xlink:title="ET SCAN Potential VNC Scan 5800&#45;5820&#10;ET SCAN Potential VNC Scan 5900&#45;5920&#10;ET SCAN NMAP SIP Version Detection Script Activity">
<ellipse fill="none" stroke="black" stroke-width="3" cx="336.35" cy="-236.41" rx="184.61" ry="42.35"/>
<text text-anchor="middle" x="336.35" y="-243.21" font-family="Arial" font-size="24.00">SERVICE DISCOVERY</text>
<text text-anchor="middle" x="336.35" y="-217.21" font-family="Arial" font-size="24.00">unknown</text>
</a>
</g>
</g>
<!-- DATA DELIVERY
http | ID: 14&#45;&gt;SERVICE DISCOVERY
unknown -->
<g id="edge20" class="edge">
<title>DATA DELIVERY
http | ID: 14&#45;&gt;SERVICE DISCOVERY
unknown</title>
<path fill="none" stroke="maroon" stroke-width="5" d="M336.35,-98.22C336.35,-124.37 336.35,-156.7 336.35,-183.4"/>
<polygon fill="maroon" stroke="maroon" stroke-width="5" points="331.98,-183.71 336.35,-193.71 340.73,-183.71 331.98,-183.71"/>
<text text-anchor="start" x="336.35" y="-170.98" font-family="Arial" font-size="20.00" fill="maroon"> start_next: 03/11/18, 17:42:35</text>
<text text-anchor="start" x="430.35" y="-150.98" font-family="Arial" font-size="20.00" fill="maroon">gap: 239sec</text>
<text text-anchor="start" x="344.35" y="-130.98" font-family="Arial" font-size="20.00" fill="maroon">end_prev: 03/11/18, 17:38:35</text>
<text text-anchor="start" x="360.35" y="-110.98" font-family="Arial" font-weight="bold" font-size="20.00" fill="maroon">Attacker: 10.0.254.204</text>
</g>
<!-- SERVICE DISCOVERY
unknown&#45;&gt;HOST DISCOVERY
http -->
<g id="edge21" class="edge">
<title>SERVICE DISCOVERY
unknown&#45;&gt;HOST DISCOVERY
http</title>
<path fill="none" stroke="maroon" stroke-width="5" d="M336.35,-279.01C336.35,-300.68 336.35,-327.39 336.35,-350.39"/>
<polygon fill="maroon" stroke="maroon" stroke-width="5" points="331.98,-350.67 336.35,-360.67 340.73,-350.67 331.98,-350.67"/>
<text text-anchor="middle" x="488.85" y="-336.83" font-family="Arial" font-size="20.00" fill="maroon">start_next: 03/11/18, 22:31:03</text>
<text text-anchor="middle" x="488.85" y="-314.83" font-family="Arial" font-size="20.00" fill="maroon">gap: 16951sec</text>
<text text-anchor="middle" x="488.85" y="-292.83" font-family="Arial" font-size="20.00" fill="maroon">end_prev: 03/11/18, 17:48:31</text>
</g>
</g>
</svg>
