<?xml version="1.0" encoding="UTF-8" standalone="no"?>
<!DOCTYPE svg PUBLIC "-//W3C//DTD SVG 1.1//EN"
 "http://www.w3.org/Graphics/SVG/1.1/DTD/svg11.dtd">
<!-- Generated by graphviz version 2.43.0 (0)
 -->
<!-- Title: RESOURCEHIJACKINGhttp Pages: 1 -->
<svg width="1003pt" height="1730pt"
 viewBox="0.00 0.00 1003.17 1729.99" xmlns="http://www.w3.org/2000/svg" xmlns:xlink="http://www.w3.org/1999/xlink">
<g id="graph0" class="graph" transform="scale(1 1) rotate(0) translate(4 1725.99)">
<title>RESOURCEHIJACKINGhttp</title>
<polygon fill="white" stroke="transparent" points="-4,4 -4,-1725.99 999.17,-1725.99 999.17,4 -4,4"/>
<!-- Victim: 10.0.0.22
RESOURCE HIJACKING
http -->
<g id="node1" class="node">
<title>Victim: 10.0.0.22
RESOURCE HIJACKING
http</title>
<polygon fill="salmon" stroke="black" stroke-width="3" points="667.18,-1624.98 667.18,-1679.37 542.99,-1717.83 367.35,-1717.83 243.16,-1679.37 243.16,-1624.98 367.35,-1586.52 542.99,-1586.52 667.18,-1624.98"/>
<polygon fill="none" stroke="black" stroke-width="3" points="671.18,-1622.04 671.18,-1682.31 543.59,-1721.82 366.74,-1721.82 239.16,-1682.31 239.16,-1622.04 366.74,-1582.53 543.59,-1582.53 671.18,-1622.04"/>
<text text-anchor="middle" x="455.17" y="-1671.97" font-family="Arial" font-size="24.00">Victim: 10.0.0.22</text>
<text text-anchor="middle" x="455.17" y="-1645.97" font-family="Arial" font-size="24.00">RESOURCE HIJACKING</text>
<text text-anchor="middle" x="455.17" y="-1619.97" font-family="Arial" font-size="24.00">http</text>
</g>
<!-- RESOURCE HIJACKING
http | ID: 52 -->
<g id="node2" class="node">
<title>RESOURCE HIJACKING
http | ID: 52</title>
<g id="a_node2"><a xlink:title="GPL WEB_SERVER Oracle Java Process Manager access">
<polygon fill="salmon" stroke="black" stroke-width="3" points="452.51,-1516.36 339.34,-1565.34 113,-1565.34 -0.17,-1516.36 113,-1467.38 339.34,-1467.38 452.51,-1516.36"/>
<text text-anchor="middle" x="226.17" y="-1523.16" font-family="Arial" font-size="24.00">RESOURCE HIJACKING</text>
<text text-anchor="middle" x="226.17" y="-1497.16" font-family="Arial" font-size="24.00">http | ID: 52</text>
</a>
</g>
</g>
<!-- RESOURCE HIJACKING
http | ID: 52&#45;&gt;Victim: 10.0.0.22
RESOURCE HIJACKING
http -->
<g id="edge1" class="edge">
<title>RESOURCE HIJACKING
http | ID: 52&#45;&gt;Victim: 10.0.0.22
RESOURCE HIJACKING
http</title>
<path fill="none" stroke="black" stroke-width="5" d="M308.52,-1565.48C318.44,-1571.28 328.71,-1577.27 338.99,-1583.29"/>
<polygon fill="black" stroke="black" stroke-width="5" points="336.79,-1587.06 347.63,-1588.33 341.2,-1579.51 336.79,-1587.06"/>
</g>
<!-- RESOURCE HIJACKING
http | ID: 15 -->
<g id="node3" class="node">
<title>RESOURCE HIJACKING
http | ID: 15</title>
<g id="a_node3"><a xlink:title="GPL WEB_SERVER Oracle Java Process Manager access">
<polygon fill="salmon" stroke="black" stroke-width="3" points="911.51,-1516.36 798.34,-1565.34 572,-1565.34 458.83,-1516.36 572,-1467.38 798.34,-1467.38 911.51,-1516.36"/>
<text text-anchor="middle" x="685.17" y="-1523.16" font-family="Arial" font-size="24.00">RESOURCE HIJACKING</text>
<text text-anchor="middle" x="685.17" y="-1497.16" font-family="Arial" font-size="24.00">http | ID: 15</text>
</a>
</g>
</g>
<!-- RESOURCE HIJACKING
http | ID: 15&#45;&gt;Victim: 10.0.0.22
RESOURCE HIJACKING
http -->
<g id="edge2" class="edge">
<title>RESOURCE HIJACKING
http | ID: 15&#45;&gt;Victim: 10.0.0.22
RESOURCE HIJACKING
http</title>
<path fill="none" stroke="black" stroke-width="5" d="M602.46,-1565.48C592.5,-1571.28 582.19,-1577.27 571.86,-1583.29"/>
<polygon fill="black" stroke="black" stroke-width="5" points="569.62,-1579.52 563.18,-1588.33 574.02,-1587.08 569.62,-1579.52"/>
</g>
<!-- HOST DISCOVERY
http -->
<g id="node4" class="node">
<title>HOST DISCOVERY
http</title>
<g id="a_node4"><a xlink:title="ET SCAN Possible Nmap User&#45;Agent Observed&#10;ET SCAN Nmap Scripting Engine User&#45;Agent Detected (Nmap Scripting Engine)">
<ellipse fill="yellow" stroke="black" stroke-width="3" cx="484.17" cy="-42.43" rx="161.44" ry="42.35"/>
<text text-anchor="middle" x="484.17" y="-49.23" font-family="Arial" font-size="24.00">HOST DISCOVERY</text>
<text text-anchor="middle" x="484.17" y="-23.23" font-family="Arial" font-size="24.00">http</text>
</a>
</g>
</g>
<!-- VULNERABILTY DISCOVERY
ms&#45;sql&#45;s -->
<g id="node5" class="node">
<title>VULNERABILTY DISCOVERY
ms&#45;sql&#45;s</title>
<g id="a_node5"><a xlink:title="ET SCAN Suspicious inbound to Oracle SQL port 1521&#10;ET SCAN Suspicious inbound to MSSQL port 1433&#10;ET SCAN Suspicious inbound to mySQL port 3306&#10;ET SCAN Nikto Web App Scan in Progress&#10;ET SCAN Suspicious inbound to PostgreSQL port 5432&#10;ET SCAN Suspicious inbound to mSQL port 4333">
<ellipse fill="none" stroke="black" stroke-width="3" cx="327.17" cy="-223.28" rx="238.09" ry="42.35"/>
<text text-anchor="middle" x="327.17" y="-230.08" font-family="Arial" font-size="24.00">VULNERABILTY DISCOVERY</text>
<text text-anchor="middle" x="327.17" y="-204.08" font-family="Arial" font-size="24.00">ms&#45;sql&#45;s</text>
</a>
</g>
</g>
<!-- HOST DISCOVERY
http&#45;&gt;VULNERABILTY DISCOVERY
ms&#45;sql&#45;s -->
<g id="edge3" class="edge">
<title>HOST DISCOVERY
http&#45;&gt;VULNERABILTY DISCOVERY
ms&#45;sql&#45;s</title>
<path fill="none" stroke="maroon" stroke-width="5" d="M355.68,-68.28C345.07,-74.73 335.59,-82.8 328.17,-92.85 311.97,-114.8 310.91,-145.03 314.27,-170.76"/>
<polygon fill="maroon" stroke="maroon" stroke-width="5" points="309.96,-171.53 315.82,-180.74 318.61,-170.18 309.96,-171.53"/>
<text text-anchor="start" x="328.17" y="-157.85" font-family="Arial" font-size="20.00" fill="maroon"> start_next: 03/11/18, 14:52:49</text>
<text text-anchor="start" x="435.17" y="-137.85" font-family="Arial" font-size="20.00" fill="maroon">gap: 3sec</text>
<text text-anchor="start" x="336.17" y="-117.85" font-family="Arial" font-size="20.00" fill="maroon">end_prev: 03/11/18, 14:52:45</text>
<text text-anchor="start" x="352.17" y="-97.85" font-family="Arial" font-weight="bold" font-size="20.00" fill="maroon">Attacker: 10.0.254.201</text>
</g>
<!-- INFO DISCOVERY
http -->
<g id="node6" class="node">
<title>INFO DISCOVERY
http</title>
<g id="a_node6"><a xlink:title="GPL WEB_SERVER iisadmin access&#10;GPL WEB_SERVER printenv access&#10;GPL WEB_SERVER author.exe access&#10;ET WEB_SERVER PHP Easteregg Information&#45;Disclosure (phpinfo)&#10;ET WEB_SERVER PHP Easteregg Information&#45;Disclosure (funny&#45;logo)&#10;GPL WEB_SERVER globals.pl access&#10;GPL WEB_SERVER viewcode access&#10;ET WEB_SPECIFIC_APPS Request to Wordpress W3TC Plug&#45;in dbcache Directory&#10;GPL EXPLOIT ISAPI .idq attempt&#10;ET POLICY Proxy TRACE Request &#45; inbound&#10;GPL WEB_SERVER /~root access&#10;GPL WEB_SERVER service.pwd&#10;ET WEB_SERVER PHP REQUEST SuperGlobal in URI&#10;ET WEB_SERVER PHP Easteregg Information&#45;Disclosure (php&#45;logo)&#10;GPL WEB_SERVER services.cnf access&#10;GPL EXPLOIT unicode directory traversal attempt&#10;GPL EXPLOIT .htr access&#10;GPL EXPLOIT .cnf access&#10;ET WEB_SERVER PHP SERVER SuperGlobal in URI&#10;GPL WEB_SERVER .htaccess access&#10;GPL EXPLOIT iisadmpwd attempt&#10;GPL WEB_SERVER service.cnf access&#10;GPL WEB_SERVER global.asa access&#10;GPL EXPLOIT fpcount access&#10;GPL WEB_SERVER .htpasswd access&#10;ET WEB_SERVER PHP SESSION SuperGlobal in URI&#10;GPL WEB_SERVER writeto.cnf access&#10;GPL EXPLOIT iissamples access&#10;ET WEB_SERVER PHP Easteregg Information&#45;Disclosure (zend&#45;logo)&#10;ET WEB_SERVER PHP ENV SuperGlobal in URI&#10;GPL WEB_SERVER authors.pwd access">
<ellipse fill="none" stroke="black" stroke-width="3" cx="486.17" cy="-390.13" rx="154.3" ry="42.35"/>
<text text-anchor="middle" x="486.17" y="-396.93" font-family="Arial" font-size="24.00">INFO DISCOVERY</text>
<text text-anchor="middle" x="486.17" y="-370.93" font-family="Arial" font-size="24.00">http</text>
</a>
</g>
</g>
<!-- HOST DISCOVERY
http&#45;&gt;INFO DISCOVERY
http -->
<g id="edge12" class="edge">
<title>HOST DISCOVERY
http&#45;&gt;INFO DISCOVERY
http</title>
<path fill="none" stroke="maroon" stroke-width="5" d="M610.18,-69.09C620.21,-75.39 629.16,-83.2 636.17,-92.85 700.65,-181.62 700.47,-250.81 636.17,-339.71 630.91,-346.97 624.55,-353.19 617.46,-358.5"/>
<polygon fill="maroon" stroke="maroon" stroke-width="5" points="614.65,-355.12 608.81,-364.34 619.54,-362.37 614.65,-355.12"/>
<text text-anchor="start" x="684.17" y="-248.28" font-family="Arial" font-size="20.00" fill="maroon"> start_next: 03/11/18, 17:37:53</text>
<text text-anchor="start" x="791.17" y="-228.28" font-family="Arial" font-size="20.00" fill="maroon">gap: 5sec</text>
<text text-anchor="start" x="692.17" y="-208.28" font-family="Arial" font-size="20.00" fill="maroon">end_prev: 03/11/18, 17:37:48</text>
<text text-anchor="start" x="708.17" y="-188.28" font-family="Arial" font-weight="bold" font-size="20.00" fill="maroon">Attacker: 10.0.254.204</text>
</g>
<!-- VULNERABILTY DISCOVERY
ms&#45;sql&#45;s&#45;&gt;INFO DISCOVERY
http -->
<g id="edge4" class="edge">
<title>VULNERABILTY DISCOVERY
ms&#45;sql&#45;s&#45;&gt;INFO DISCOVERY
http</title>
<path fill="none" stroke="maroon" stroke-width="5" d="M318.95,-265.92C316.66,-289.85 318.26,-319.14 334.17,-339.71 339.97,-347.2 346.92,-353.57 354.63,-358.99"/>
<polygon fill="maroon" stroke="maroon" stroke-width="5" points="352.47,-362.81 363.26,-364.51 357.19,-355.44 352.47,-362.81"/>
<text text-anchor="middle" x="486.67" y="-323.71" font-family="Arial" font-size="20.00" fill="maroon">start_next: 03/11/18, 14:52:49</text>
<text text-anchor="middle" x="486.67" y="-301.71" font-family="Arial" font-size="20.00" fill="maroon">gap: &#45;336sec</text>
<text text-anchor="middle" x="486.67" y="-279.71" font-family="Arial" font-size="20.00" fill="maroon">end_prev: 03/11/18, 14:58:24</text>
</g>
<!-- DATA EXFILTRATION
http | ID: 12 -->
<g id="node7" class="node">
<title>DATA EXFILTRATION
http | ID: 12</title>
<g id="a_node7"><a xlink:title="ET WEB_SERVER Possible XXE SYSTEM ENTITY in POST BODY.&#10;GPL EXPLOIT ISAPI .ida access&#10;ET WEB_SERVER /system32/ in Uri &#45; Possible Protected Directory Access Attempt&#10;GPL WEB_SERVER Tomcat server snoop access&#10;ET WEB_SERVER ColdFusion componentutils access&#10;GPL EXPLOIT /msadc/samples/ access&#10;ET WEB_SPECIFIC_APPS PHP&#45;CGI query string parameter vulnerability&#10;GPL EXPLOIT ISAPI .idq access&#10;ET WEB_SERVER /etc/shadow Detected in URI">
<polygon fill="none" stroke="black" stroke-width="3" points="691.05,-563.55 588.61,-612.53 383.73,-612.53 281.29,-563.55 383.73,-514.57 588.61,-514.57 691.05,-563.55"/>
<text text-anchor="middle" x="486.17" y="-570.35" font-family="Arial" font-size="24.00">DATA EXFILTRATION</text>
<text text-anchor="middle" x="486.17" y="-544.35" font-family="Arial" font-size="24.00">http | ID: 12</text>
</a>
</g>
</g>
<!-- INFO DISCOVERY
http&#45;&gt;DATA EXFILTRATION
http | ID: 12 -->
<g id="edge5" class="edge">
<title>INFO DISCOVERY
http&#45;&gt;DATA EXFILTRATION
http | ID: 12</title>
<path fill="none" stroke="maroon" stroke-width="5" d="M361.02,-415.06C349.84,-421.66 339.86,-430.01 332.17,-440.56 314.89,-464.26 315.34,-482.53 332.17,-506.56 336.23,-512.35 340.95,-517.55 346.17,-522.21"/>
<polygon fill="maroon" stroke="maroon" stroke-width="5" points="343.62,-525.77 354.15,-528.66 349.12,-518.97 343.62,-525.77"/>
<text text-anchor="middle" x="484.67" y="-490.56" font-family="Arial" font-size="20.00" fill="maroon">start_next: 03/11/18, 14:52:49</text>
<text text-anchor="middle" x="484.67" y="-468.56" font-family="Arial" font-size="20.00" fill="maroon">gap: &#45;23sec</text>
<text text-anchor="middle" x="484.67" y="-446.56" font-family="Arial" font-size="20.00" fill="maroon">end_prev: 03/11/18, 14:53:12</text>
</g>
<!-- INFO DISCOVERY
http&#45;&gt;DATA EXFILTRATION
http | ID: 12 -->
<g id="edge13" class="edge">
<title>INFO DISCOVERY
http&#45;&gt;DATA EXFILTRATION
http | ID: 12</title>
<path fill="none" stroke="maroon" stroke-width="5" d="M607.54,-416.36C617.85,-422.73 627.04,-430.67 634.17,-440.56 651.31,-464.36 650.84,-482.42 634.17,-506.56 630.72,-511.55 626.76,-516.1 622.41,-520.25"/>
<polygon fill="maroon" stroke="maroon" stroke-width="5" points="619.46,-517.01 614.73,-526.85 625.17,-523.65 619.46,-517.01"/>
<text text-anchor="middle" x="798.67" y="-490.56" font-family="Arial" font-size="20.00" fill="maroon">start_next: 03/11/18, 17:37:54</text>
<text text-anchor="middle" x="798.67" y="-468.56" font-family="Arial" font-size="20.00" fill="maroon">gap: &#45;48sec</text>
<text text-anchor="middle" x="798.67" y="-446.56" font-family="Arial" font-size="20.00" fill="maroon">end_prev: 03/11/18, 17:38:43</text>
</g>
<!-- ARBITRARY CODE EXECUTION
http | ID: 97 -->
<g id="node8" class="node">
<title>ARBITRARY CODE EXECUTION
http | ID: 97</title>
<g id="a_node8"><a xlink:title="ET WEB_SERVER Possible CVE&#45;2014&#45;6271 Attempt&#10;ET WEB_SPECIFIC_APPS WEB&#45;PHP RCE PHPBB 2004&#45;1315&#10;ET WEB_SPECIFIC_APPS Golem Gaming Portal root_path Parameter Remote File inclusion Attempt&#10;ET WEB_SPECIFIC_APPS Joomla swMenuPro ImageManager.php Remote File Inclusion Attempt&#10;ETPRO WEB_SPECIFIC_APPS PHPMoAdmin RCE Attempt&#10;ET WEB_SERVER cmd.exe In URI &#45; Possible Command Execution Attempt&#10;ET WEB_SERVER Exploit Suspected PHP Injection Attack (cmd=)&#10;ET WEB_SPECIFIC_APPS FormMailer formmailer.admin.inc.php BASE_DIR Parameter Remote File Inclusion Attempt&#10;ET WEB_SPECIFIC_APPS DesktopOnNet don3_requiem.php app_path Parameter Remote File Inclusion&#10;ET WEB_SPECIFIC_APPS Joomla Dada Mail Manager Component config.dadamail.php GLOBALS Parameter Remote File Inclusion&#10;ET WEB_SERVER Possible CVE&#45;2014&#45;6271 Attempt in Headers&#10;ET WEB_SPECIFIC_APPS Achievo debugger.php config_atkroot parameter Remote File Inclusion Attempt&#10;ET CURRENT_EVENTS QNAP Shellshock CVE&#45;2014&#45;6271&#10;ET WEB_SPECIFIC_APPS KingCMS menu.php CONFIG Parameter Remote File Inclusion&#10;ET WEB_SPECIFIC_APPS AjaxPortal di.php pathtoserverdata Parameter Remote File Inclusion Attempt&#10;ET WEB_SPECIFIC_APPS BASE base_stat_common.php remote file include&#10;ET WEB_SPECIFIC_APPS DesktopOnNet frontpage.php app_path Parameter Remote File Inclusion&#10;ET WEB_SPECIFIC_APPS KR&#45;Web krgourl.php DOCUMENT_ROOT Parameter Remote File Inclusion Attempt&#10;ET WEB_SPECIFIC_APPS Joomla AjaxChat Component ajcuser.php GLOBALS Parameter Remote File Inclusion Attempt&#10;ET WEB_SPECIFIC_APPS Horde type Parameter Local File Inclusion Attempt">
<polygon fill="none" stroke="black" stroke-width="3" points="672.67,-754.54 299.67,-754.54 299.67,-694.54 672.67,-694.54 672.67,-754.54"/>
<text text-anchor="middle" x="486.17" y="-731.34" font-family="Arial" font-size="24.00">ARBITRARY CODE EXECUTION</text>
<text text-anchor="middle" x="486.17" y="-705.34" font-family="Arial" font-size="24.00">http | ID: 97</text>
</a>
</g>
</g>
<!-- DATA EXFILTRATION
http | ID: 12&#45;&gt;ARBITRARY CODE EXECUTION
http | ID: 97 -->
<g id="edge6" class="edge">
<title>DATA EXFILTRATION
http | ID: 12&#45;&gt;ARBITRARY CODE EXECUTION
http | ID: 97</title>
<path fill="none" stroke="maroon" stroke-width="5" d="M354.15,-598.44C345.72,-604.62 338.21,-611.92 332.17,-620.54 315.34,-644.56 314.01,-663.5 332.17,-686.54 332.65,-687.15 333.19,-687.76 333.78,-688.35"/>
<polygon fill="maroon" stroke="maroon" stroke-width="5" points="331.33,-691.98 341.97,-694.4 336.53,-684.94 331.33,-691.98"/>
<text text-anchor="middle" x="484.67" y="-670.54" font-family="Arial" font-size="20.00" fill="maroon">start_next: 03/11/18, 14:52:51</text>
<text text-anchor="middle" x="484.67" y="-648.54" font-family="Arial" font-size="20.00" fill="maroon">gap: &#45;22sec</text>
<text text-anchor="middle" x="484.67" y="-626.54" font-family="Arial" font-size="20.00" fill="maroon">end_prev: 03/11/18, 14:53:12</text>
</g>
<!-- DATA EXFILTRATION
http | ID: 12&#45;&gt;ARBITRARY CODE EXECUTION
http | ID: 97 -->
<g id="edge14" class="edge">
<title>DATA EXFILTRATION
http | ID: 12&#45;&gt;ARBITRARY CODE EXECUTION
http | ID: 97</title>
<path fill="none" stroke="maroon" stroke-width="5" d="M614.73,-600.25C622.16,-606.03 628.78,-612.74 634.17,-620.54 650.84,-644.67 652.22,-663.42 634.17,-686.54 633.69,-687.15 633.15,-687.76 632.56,-688.36"/>
<polygon fill="maroon" stroke="maroon" stroke-width="5" points="629.75,-685 624.3,-694.45 634.94,-692.04 629.75,-685"/>
<text text-anchor="middle" x="799.67" y="-670.54" font-family="Arial" font-size="20.00" fill="maroon">start_next: 03/11/18, 17:37:57</text>
<text text-anchor="middle" x="799.67" y="-648.54" font-family="Arial" font-size="20.00" fill="maroon">gap: &#45;46sec</text>
<text text-anchor="middle" x="799.67" y="-626.54" font-family="Arial" font-size="20.00" fill="maroon">end_prev: 03/11/18, 17:38:43</text>
</g>
<!-- ROOT PRIVILEGE ESCALATION
http | ID: 51 -->
<g id="node9" class="node">
<title>ROOT PRIVILEGE ESCALATION
http | ID: 51</title>
<g id="a_node9"><a xlink:title="ETPRO WEB_SPECIFIC_APPS ipTIME firmware &lt; 9.58 RCE&#10;GPL EXPLOIT administrators.pwd access&#10;GPL SMTP vrfy root&#10;ET WEB_SERVER ColdFusion administrator access&#10;GPL EXPLOIT CodeRed v2 root.exe access">
<polygon fill="none" stroke="black" stroke-width="3" points="673.17,-896.54 299.17,-896.54 299.17,-836.54 673.17,-836.54 673.17,-896.54"/>
<text text-anchor="middle" x="486.17" y="-873.34" font-family="Arial" font-size="24.00">ROOT PRIVILEGE ESCALATION</text>
<text text-anchor="middle" x="486.17" y="-847.34" font-family="Arial" font-size="24.00">http | ID: 51</text>
</a>
</g>
</g>
<!-- ARBITRARY CODE EXECUTION
http | ID: 97&#45;&gt;ROOT PRIVILEGE ESCALATION
http | ID: 51 -->
<g id="edge7" class="edge">
<title>ARBITRARY CODE EXECUTION
http | ID: 97&#45;&gt;ROOT PRIVILEGE ESCALATION
http | ID: 51</title>
<path fill="none" stroke="maroon" stroke-width="5" d="M341.97,-754.67C337.73,-757.11 334.38,-759.73 332.17,-762.54 314.01,-785.58 314.01,-805.5 332.17,-828.54 332.65,-829.15 333.19,-829.76 333.78,-830.35"/>
<polygon fill="maroon" stroke="maroon" stroke-width="5" points="331.33,-833.98 341.97,-836.4 336.53,-826.94 331.33,-833.98"/>
<text text-anchor="middle" x="484.67" y="-812.54" font-family="Arial" font-size="20.00" fill="maroon">start_next: 03/11/18, 14:52:51</text>
<text text-anchor="middle" x="484.67" y="-790.54" font-family="Arial" font-size="20.00" fill="maroon">gap: &#45;21sec</text>
<text text-anchor="middle" x="484.67" y="-768.54" font-family="Arial" font-size="20.00" fill="maroon">end_prev: 03/11/18, 14:53:12</text>
</g>
<!-- ARBITRARY CODE EXECUTION
http | ID: 97&#45;&gt;ROOT PRIVILEGE ESCALATION
http | ID: 51 -->
<g id="edge15" class="edge">
<title>ARBITRARY CODE EXECUTION
http | ID: 97&#45;&gt;ROOT PRIVILEGE ESCALATION
http | ID: 51</title>
<path fill="none" stroke="maroon" stroke-width="5" d="M624.3,-754.62C628.59,-757.08 631.97,-759.72 634.17,-762.54 652.22,-785.66 652.22,-805.42 634.17,-828.54 633.69,-829.15 633.15,-829.76 632.56,-830.36"/>
<polygon fill="maroon" stroke="maroon" stroke-width="5" points="629.75,-827 624.3,-836.45 634.94,-834.04 629.75,-827"/>
<text text-anchor="middle" x="799.67" y="-812.54" font-family="Arial" font-size="20.00" fill="maroon">start_next: 03/11/18, 17:37:58</text>
<text text-anchor="middle" x="799.67" y="-790.54" font-family="Arial" font-size="20.00" fill="maroon">gap: &#45;45sec</text>
<text text-anchor="middle" x="799.67" y="-768.54" font-family="Arial" font-size="20.00" fill="maroon">end_prev: 03/11/18, 17:38:43</text>
</g>
<!-- DATA MANIPULATION
http | ID: 13 -->
<g id="node10" class="node">
<title>DATA MANIPULATION
http | ID: 13</title>
<g id="a_node10"><a xlink:title="ET WEB_SERVER Possible SQL Injection Attempt UNION SELECT&#10;ET WEB_SERVER Possible SQL Injection Attempt SELECT FROM&#10;ET WEB_SERVER MYSQL SELECT CONCAT SQL Injection Attempt">
<polygon fill="none" stroke="black" stroke-width="3" points="703.55,-1027.53 594.86,-1076.51 377.48,-1076.51 268.79,-1027.53 377.48,-978.55 594.86,-978.55 703.55,-1027.53"/>
<text text-anchor="middle" x="486.17" y="-1034.33" font-family="Arial" font-size="24.00">DATA MANIPULATION</text>
<text text-anchor="middle" x="486.17" y="-1008.33" font-family="Arial" font-size="24.00">http | ID: 13</text>
</a>
</g>
</g>
<!-- ROOT PRIVILEGE ESCALATION
http | ID: 51&#45;&gt;DATA MANIPULATION
http | ID: 13 -->
<g id="edge8" class="edge">
<title>ROOT PRIVILEGE ESCALATION
http | ID: 51&#45;&gt;DATA MANIPULATION
http | ID: 13</title>
<path fill="none" stroke="maroon" stroke-width="5" d="M341.97,-896.67C337.73,-899.11 334.38,-901.73 332.17,-904.54 314.01,-927.58 315.34,-946.51 332.17,-970.54 335.48,-975.27 339.24,-979.61 343.35,-983.57"/>
<polygon fill="maroon" stroke="maroon" stroke-width="5" points="340.7,-987.06 351.11,-990.33 346.45,-980.47 340.7,-987.06"/>
<text text-anchor="middle" x="484.67" y="-954.54" font-family="Arial" font-size="20.00" fill="maroon">start_next: 03/11/18, 14:52:53</text>
<text text-anchor="middle" x="484.67" y="-932.54" font-family="Arial" font-size="20.00" fill="maroon">gap: &#45;264sec</text>
<text text-anchor="middle" x="484.67" y="-910.54" font-family="Arial" font-size="20.00" fill="maroon">end_prev: 03/11/18, 14:57:17</text>
</g>
<!-- ROOT PRIVILEGE ESCALATION
http | ID: 51&#45;&gt;DATA MANIPULATION
http | ID: 13 -->
<g id="edge16" class="edge">
<title>ROOT PRIVILEGE ESCALATION
http | ID: 51&#45;&gt;DATA MANIPULATION
http | ID: 13</title>
<path fill="none" stroke="maroon" stroke-width="5" d="M624.3,-896.62C628.59,-899.08 631.97,-901.72 634.17,-904.54 652.22,-927.66 650.84,-946.4 634.17,-970.54 631.46,-974.46 628.44,-978.1 625.16,-981.49"/>
<polygon fill="maroon" stroke="maroon" stroke-width="5" points="621.95,-978.51 617.6,-988.52 627.9,-984.92 621.95,-978.51"/>
<text text-anchor="middle" x="799.67" y="-954.54" font-family="Arial" font-size="20.00" fill="maroon">start_next: 03/11/18, 17:38:02</text>
<text text-anchor="middle" x="799.67" y="-932.54" font-family="Arial" font-size="20.00" fill="maroon">gap: &#45;13sec</text>
<text text-anchor="middle" x="799.67" y="-910.54" font-family="Arial" font-size="20.00" fill="maroon">end_prev: 03/11/18, 17:38:15</text>
</g>
<!-- SURFING
http -->
<g id="node11" class="node">
<title>SURFING
http</title>
<g id="a_node11"><a xlink:title="ET WEB_SERVER WEB&#45;PHP phpinfo access">
<ellipse fill="none" stroke="black" stroke-width="3" cx="486.17" cy="-1200.94" rx="86.03" ry="42.35"/>
<text text-anchor="middle" x="486.17" y="-1207.74" font-family="Arial" font-size="24.00">SURFING</text>
<text text-anchor="middle" x="486.17" y="-1181.74" font-family="Arial" font-size="24.00">http</text>
</a>
</g>
</g>
<!-- DATA MANIPULATION
http | ID: 13&#45;&gt;SURFING
http -->
<g id="edge9" class="edge">
<title>DATA MANIPULATION
http | ID: 13&#45;&gt;SURFING
http</title>
<path fill="none" stroke="maroon" stroke-width="5" d="M351.11,-1064.72C343.91,-1070.39 337.47,-1076.94 332.17,-1084.52 315.34,-1108.54 314.89,-1126.82 332.17,-1150.52 346.43,-1170.07 368.54,-1182.06 391.61,-1189.36"/>
<polygon fill="maroon" stroke="maroon" stroke-width="5" points="390.71,-1193.66 401.53,-1192.21 393.13,-1185.25 390.71,-1193.66"/>
<text text-anchor="middle" x="484.67" y="-1134.52" font-family="Arial" font-size="20.00" fill="maroon">start_next: 03/11/18, 14:52:53</text>
<text text-anchor="middle" x="484.67" y="-1112.52" font-family="Arial" font-size="20.00" fill="maroon">gap: &#45;5sec</text>
<text text-anchor="middle" x="484.67" y="-1090.52" font-family="Arial" font-size="20.00" fill="maroon">end_prev: 03/11/18, 14:52:58</text>
</g>
<!-- DATA MANIPULATION
http | ID: 13&#45;&gt;SURFING
http -->
<g id="edge17" class="edge">
<title>DATA MANIPULATION
http | ID: 13&#45;&gt;SURFING
http</title>
<path fill="none" stroke="maroon" stroke-width="5" d="M617.6,-1066.54C623.87,-1071.78 629.49,-1077.74 634.17,-1084.52 650.84,-1108.65 651.31,-1126.72 634.17,-1150.52 621.13,-1168.63 601.15,-1180.2 580.06,-1187.57"/>
<polygon fill="maroon" stroke="maroon" stroke-width="5" points="578.51,-1183.47 570.3,-1190.66 581.16,-1191.8 578.51,-1183.47"/>
<text text-anchor="middle" x="798.67" y="-1134.52" font-family="Arial" font-size="20.00" fill="maroon">start_next: 03/11/18, 17:38:02</text>
<text text-anchor="middle" x="798.67" y="-1112.52" font-family="Arial" font-size="20.00" fill="maroon">gap: &#45;11sec</text>
<text text-anchor="middle" x="798.67" y="-1090.52" font-family="Arial" font-size="20.00" fill="maroon">end_prev: 03/11/18, 17:38:13</text>
</g>
<!-- ACCOUNT MANIPULATION
http | ID: 98 -->
<g id="node12" class="node">
<title>ACCOUNT MANIPULATION
http | ID: 98</title>
<g id="a_node12"><a xlink:title="GPL EXPLOIT /iisadmpwd/aexp2.htr access&#10;GPL SNMP public access udp&#10;ET WEB_SERVER SELECT USER SQL Injection Attempt in URI">
<polygon fill="none" stroke="black" stroke-width="3" points="483.67,-1385.37 160.67,-1385.37 160.67,-1325.37 483.67,-1325.37 483.67,-1385.37"/>
<text text-anchor="middle" x="322.17" y="-1362.17" font-family="Arial" font-size="24.00">ACCOUNT MANIPULATION</text>
<text text-anchor="middle" x="322.17" y="-1336.17" font-family="Arial" font-size="24.00">http | ID: 98</text>
</a>
</g>
</g>
<!-- SURFING
http&#45;&gt;ACCOUNT MANIPULATION
http | ID: 98 -->
<g id="edge10" class="edge">
<title>SURFING
http&#45;&gt;ACCOUNT MANIPULATION
http | ID: 98</title>
<path fill="none" stroke="maroon" stroke-width="5" d="M403.39,-1213.23C379.49,-1220.44 355.48,-1232.2 339.17,-1251.37 324.33,-1268.81 320,-1294.12 319.42,-1315.28"/>
<polygon fill="maroon" stroke="maroon" stroke-width="5" points="315.04,-1315.28 319.4,-1325.29 323.79,-1315.3 315.04,-1315.28"/>
<text text-anchor="middle" x="491.67" y="-1301.37" font-family="Arial" font-size="20.00" fill="maroon">start_next: 03/11/18, 14:52:55</text>
<text text-anchor="middle" x="491.67" y="-1279.37" font-family="Arial" font-size="20.00" fill="maroon">gap: &#45;16sec</text>
<text text-anchor="middle" x="491.67" y="-1257.37" font-family="Arial" font-size="20.00" fill="maroon">end_prev: 03/11/18, 14:53:11</text>
</g>
<!-- ACCOUNT MANIPULATION
http | ID: 53 -->
<g id="node13" class="node">
<title>ACCOUNT MANIPULATION
http | ID: 53</title>
<g id="a_node13"><a xlink:title="GPL EXPLOIT /iisadmpwd/aexp2.htr access&#10;GPL SNMP public access udp&#10;ET WEB_SERVER SELECT USER SQL Injection Attempt in URI">
<polygon fill="none" stroke="black" stroke-width="3" stroke-dasharray="1,5" points="821.67,-1385.37 498.67,-1385.37 498.67,-1325.37 821.67,-1325.37 821.67,-1385.37"/>
<text text-anchor="middle" x="660.17" y="-1362.17" font-family="Arial" font-size="24.00">ACCOUNT MANIPULATION</text>
<text text-anchor="middle" x="660.17" y="-1336.17" font-family="Arial" font-size="24.00">http | ID: 53</text>
</a>
</g>
</g>
<!-- SURFING
http&#45;&gt;ACCOUNT MANIPULATION
http | ID: 53 -->
<g id="edge18" class="edge">
<title>SURFING
http&#45;&gt;ACCOUNT MANIPULATION
http | ID: 53</title>
<path fill="none" stroke="maroon" stroke-width="5" d="M569.91,-1211.56C596.14,-1218.61 622.96,-1230.71 641.17,-1251.37 656.36,-1268.61 661.18,-1293.91 662.17,-1315.13"/>
<polygon fill="maroon" stroke="maroon" stroke-width="5" points="657.8,-1315.25 662.38,-1325.16 666.55,-1315.07 657.8,-1315.25"/>
<text text-anchor="middle" x="814.67" y="-1301.37" font-family="Arial" font-size="20.00" fill="maroon">start_next: 03/11/18, 17:38:03</text>
<text text-anchor="middle" x="814.67" y="-1279.37" font-family="Arial" font-size="20.00" fill="maroon">gap: &#45;37sec</text>
<text text-anchor="middle" x="814.67" y="-1257.37" font-family="Arial" font-size="20.00" fill="maroon">end_prev: 03/11/18, 17:38:40</text>
</g>
<!-- ACCOUNT MANIPULATION
http | ID: 98&#45;&gt;RESOURCE HIJACKING
http | ID: 52 -->
<g id="edge11" class="edge">
<title>ACCOUNT MANIPULATION
http | ID: 98&#45;&gt;RESOURCE HIJACKING
http | ID: 52</title>
<path fill="none" stroke="maroon" stroke-width="5" d="M304.56,-1385.53C292.21,-1405.98 275.31,-1433.98 260.36,-1458.74"/>
<polygon fill="maroon" stroke="maroon" stroke-width="5" points="256.59,-1456.52 255.16,-1467.34 264.08,-1461.05 256.59,-1456.52"/>
<text text-anchor="middle" x="451.67" y="-1443.37" font-family="Arial" font-size="20.00" fill="maroon">start_next: 03/11/18, 14:52:58</text>
<text text-anchor="middle" x="451.67" y="-1421.37" font-family="Arial" font-size="20.00" fill="maroon">gap: 0sec</text>
<text text-anchor="middle" x="451.67" y="-1399.37" font-family="Arial" font-size="20.00" fill="maroon">end_prev: 03/11/18, 14:52:58</text>
</g>
<!-- ACCOUNT MANIPULATION
http | ID: 53&#45;&gt;RESOURCE HIJACKING
http | ID: 15 -->
<g id="edge19" class="edge">
<title>ACCOUNT MANIPULATION
http | ID: 53&#45;&gt;RESOURCE HIJACKING
http | ID: 15</title>
<path fill="none" stroke="maroon" stroke-width="5" d="M664.75,-1385.53C667.91,-1405.62 672.22,-1433 676.06,-1457.44"/>
<polygon fill="maroon" stroke="maroon" stroke-width="5" points="671.74,-1458.15 677.62,-1467.34 680.39,-1456.79 671.74,-1458.15"/>
<text text-anchor="middle" x="827.67" y="-1443.37" font-family="Arial" font-size="20.00" fill="maroon">start_next: 03/11/18, 17:38:13</text>
<text text-anchor="middle" x="827.67" y="-1421.37" font-family="Arial" font-size="20.00" fill="maroon">gap: 0sec</text>
<text text-anchor="middle" x="827.67" y="-1399.37" font-family="Arial" font-size="20.00" fill="maroon">end_prev: 03/11/18, 17:38:13</text>
</g>
</g>
</svg>
