<?xml version="1.0" encoding="UTF-8" standalone="no"?>
<!DOCTYPE svg PUBLIC "-//W3C//DTD SVG 1.1//EN"
 "http://www.w3.org/Graphics/SVG/1.1/DTD/svg11.dtd">
<!-- Generated by graphviz version 2.43.0 (0)
 -->
<!-- Title: DATAEXFILTRATIONremotewarecl Pages: 1 -->
<svg width="873pt" height="1111pt"
 viewBox="0.00 0.00 873.29 1110.89" xmlns="http://www.w3.org/2000/svg" xmlns:xlink="http://www.w3.org/1999/xlink">
<g id="graph0" class="graph" transform="scale(1 1) rotate(0) translate(4 1106.89)">
<title>DATAEXFILTRATIONremotewarecl</title>
<polygon fill="white" stroke="transparent" points="-4,4 -4,-1106.89 869.29,-1106.89 869.29,4 -4,4"/>
<!-- Victim: 10.0.0.20
DATA EXFILTRATION
remoteware&#45;cl -->
<g id="node1" class="node">
<title>Victim: 10.0.0.20
DATA EXFILTRATION
remoteware&#45;cl</title>
<polygon fill="salmon" stroke="black" stroke-width="3" points="430.51,-1005.87 430.51,-1060.26 317.91,-1098.72 158.68,-1098.72 46.08,-1060.26 46.08,-1005.87 158.68,-967.41 317.91,-967.41 430.51,-1005.87"/>
<polygon fill="none" stroke="black" stroke-width="3" points="434.51,-1003.02 434.51,-1063.11 318.58,-1102.71 158.01,-1102.71 42.08,-1063.11 42.08,-1003.02 158.01,-963.42 318.58,-963.42 434.51,-1003.02"/>
<text text-anchor="middle" x="238.29" y="-1052.87" font-family="Arial" font-size="24.00">Victim: 10.0.0.20</text>
<text text-anchor="middle" x="238.29" y="-1026.87" font-family="Arial" font-size="24.00">DATA EXFILTRATION</text>
<text text-anchor="middle" x="238.29" y="-1000.87" font-family="Arial" font-size="24.00">remoteware&#45;cl</text>
</g>
<!-- DATA EXFILTRATION
remoteware&#45;cl | ID: 31 -->
<g id="node2" class="node">
<title>DATA EXFILTRATION
remoteware&#45;cl | ID: 31</title>
<g id="a_node2"><a xlink:title="ET WEB_SERVER Possible XXE SYSTEM ENTITY in POST BODY.&#10;GPL EXPLOIT ISAPI .ida access&#10;ET WEB_SERVER /system32/ in Uri &#45; Possible Protected Directory Access Attempt&#10;GPL WEB_SERVER Tomcat server snoop access&#10;ET WEB_SERVER ColdFusion componentutils access&#10;GPL EXPLOIT /msadc/samples/ access&#10;ET WEB_SPECIFIC_APPS PHP&#45;CGI query string parameter vulnerability&#10;GPL EXPLOIT ISAPI .idq access&#10;ET WEB_SERVER /etc/shadow Detected in URI">
<polygon fill="salmon" stroke="black" stroke-width="3" points="471.83,-897.25 355.06,-946.23 121.53,-946.23 4.76,-897.25 121.53,-848.27 355.06,-848.27 471.83,-897.25"/>
<text text-anchor="middle" x="238.29" y="-904.05" font-family="Arial" font-size="24.00">DATA EXFILTRATION</text>
<text text-anchor="middle" x="238.29" y="-878.05" font-family="Arial" font-size="24.00">remoteware&#45;cl | ID: 31</text>
</a>
</g>
</g>
<!-- DATA EXFILTRATION
remoteware&#45;cl | ID: 31&#45;&gt;Victim: 10.0.0.20
DATA EXFILTRATION
remoteware&#45;cl -->
<g id="edge1" class="edge">
<title>DATA EXFILTRATION
remoteware&#45;cl | ID: 31&#45;&gt;Victim: 10.0.0.20
DATA EXFILTRATION
remoteware&#45;cl</title>
<path fill="none" stroke="black" stroke-width="5" d="M238.29,-946.56C238.29,-948.67 238.29,-950.8 238.29,-952.95"/>
<polygon fill="black" stroke="black" stroke-width="5" points="233.92,-953.1 238.29,-963.1 242.67,-953.1 233.92,-953.1"/>
</g>
<!-- VULNERABILTY DISCOVERY
ms&#45;sql&#45;s -->
<g id="node3" class="node">
<title>VULNERABILTY DISCOVERY
ms&#45;sql&#45;s</title>
<g id="a_node3"><a xlink:title="ET SCAN Suspicious inbound to Oracle SQL port 1521&#10;ET SCAN Suspicious inbound to MSSQL port 1433&#10;ET SCAN Suspicious inbound to mySQL port 3306&#10;ET SCAN Suspicious inbound to PostgreSQL port 5432&#10;ET SCAN Suspicious inbound to mSQL port 4333">
<ellipse fill="yellow" stroke="black" stroke-width="3" cx="238.29" cy="-42.43" rx="238.09" ry="42.35"/>
<text text-anchor="middle" x="238.29" y="-49.23" font-family="Arial" font-size="24.00">VULNERABILTY DISCOVERY</text>
<text text-anchor="middle" x="238.29" y="-23.23" font-family="Arial" font-size="24.00">ms&#45;sql&#45;s</text>
</a>
</g>
</g>
<!-- SERVICE DISCOVERY
unknown -->
<g id="node4" class="node">
<title>SERVICE DISCOVERY
unknown</title>
<g id="a_node4"><a xlink:title="ET SCAN Potential VNC Scan 5800&#45;5820&#10;ET SCAN Potential VNC Scan 5900&#45;5920&#10;ET SCAN Potential SSH Scan&#10;ET SCAN NMAP OS Detection Probe">
<ellipse fill="none" stroke="black" stroke-width="3" cx="238.29" cy="-223.28" rx="184.61" ry="42.35"/>
<text text-anchor="middle" x="238.29" y="-230.08" font-family="Arial" font-size="24.00">SERVICE DISCOVERY</text>
<text text-anchor="middle" x="238.29" y="-204.08" font-family="Arial" font-size="24.00">unknown</text>
</a>
</g>
</g>
<!-- VULNERABILTY DISCOVERY
ms&#45;sql&#45;s&#45;&gt;SERVICE DISCOVERY
unknown -->
<g id="edge2" class="edge">
<title>VULNERABILTY DISCOVERY
ms&#45;sql&#45;s&#45;&gt;SERVICE DISCOVERY
unknown</title>
<path fill="none" stroke="maroon" stroke-width="5" d="M96.79,-76.65C91.01,-81.38 85.77,-86.75 81.29,-92.85 60.26,-121.52 60.26,-144.18 81.29,-172.85 85.44,-178.5 90.23,-183.52 95.51,-187.99"/>
<polygon fill="maroon" stroke="maroon" stroke-width="5" points="92.96,-191.55 103.57,-194.13 98.27,-184.59 92.96,-191.55"/>
<text text-anchor="start" x="81.29" y="-157.85" font-family="Arial" font-size="20.00" fill="maroon"> start_next: 03/11/18, 14:53:39</text>
<text text-anchor="start" x="171.79" y="-137.85" font-family="Arial" font-size="20.00" fill="maroon">gap: &#45;263sec</text>
<text text-anchor="start" x="89.29" y="-117.85" font-family="Arial" font-size="20.00" fill="maroon">end_prev: 03/11/18, 14:58:02</text>
<text text-anchor="start" x="105.29" y="-97.85" font-family="Arial" font-weight="bold" font-size="20.00" fill="maroon">Attacker: 10.0.254.201</text>
</g>
<!-- VULNERABILTY DISCOVERY
ms&#45;sql&#45;s&#45;&gt;SERVICE DISCOVERY
unknown -->
<g id="edge6" class="edge">
<title>VULNERABILTY DISCOVERY
ms&#45;sql&#45;s&#45;&gt;SERVICE DISCOVERY
unknown</title>
<path fill="none" stroke="maroon" stroke-width="5" d="M374.75,-77.37C380.17,-81.91 385.09,-87.05 389.29,-92.85 410.16,-121.64 410.16,-144.07 389.29,-172.85 385.61,-177.93 381.39,-182.5 376.76,-186.6"/>
<polygon fill="maroon" stroke="maroon" stroke-width="5" points="373.71,-183.44 368.6,-193.09 379.15,-190.29 373.71,-183.44"/>
<text text-anchor="start" x="404.29" y="-157.85" font-family="Arial" font-size="20.00" fill="maroon"> start_next: 03/11/18, 17:42:35</text>
<text text-anchor="start" x="500.79" y="-137.85" font-family="Arial" font-size="20.00" fill="maroon">gap: &#45;10sec</text>
<text text-anchor="start" x="412.29" y="-117.85" font-family="Arial" font-size="20.00" fill="maroon">end_prev: 03/11/18, 17:42:45</text>
<text text-anchor="start" x="428.29" y="-97.85" font-family="Arial" font-weight="bold" font-size="20.00" fill="maroon">Attacker: 10.0.254.204</text>
</g>
<!-- HOST DISCOVERY
remoteware&#45;cl -->
<g id="node5" class="node">
<title>HOST DISCOVERY
remoteware&#45;cl</title>
<g id="a_node5"><a xlink:title="ET SCAN Possible Nmap User&#45;Agent Observed&#10;ET SCAN Nmap Scripting Engine User&#45;Agent Detected (Nmap Scripting Engine)">
<ellipse fill="none" stroke="black" stroke-width="3" cx="238.29" cy="-390.13" rx="161.44" ry="42.35"/>
<text text-anchor="middle" x="238.29" y="-396.93" font-family="Arial" font-size="24.00">HOST DISCOVERY</text>
<text text-anchor="middle" x="238.29" y="-370.93" font-family="Arial" font-size="24.00">remoteware&#45;cl</text>
</a>
</g>
</g>
<!-- SERVICE DISCOVERY
unknown&#45;&gt;HOST DISCOVERY
remoteware&#45;cl -->
<g id="edge3" class="edge">
<title>SERVICE DISCOVERY
unknown&#45;&gt;HOST DISCOVERY
remoteware&#45;cl</title>
<path fill="none" stroke="maroon" stroke-width="5" d="M105.77,-252.95C97.58,-258.69 90.25,-265.54 84.29,-273.71 67.01,-297.41 67.01,-316.01 84.29,-339.71 89.47,-346.8 95.67,-352.9 102.58,-358.14"/>
<polygon fill="maroon" stroke="maroon" stroke-width="5" points="100.28,-361.86 111,-363.9 105.22,-354.64 100.28,-361.86"/>
<text text-anchor="middle" x="236.79" y="-323.71" font-family="Arial" font-size="20.00" fill="maroon">start_next: 03/11/18, 15:01:05</text>
<text text-anchor="middle" x="236.79" y="-301.71" font-family="Arial" font-size="20.00" fill="maroon">gap: 194sec</text>
<text text-anchor="middle" x="236.79" y="-279.71" font-family="Arial" font-size="20.00" fill="maroon">end_prev: 03/11/18, 14:57:51</text>
</g>
<!-- SERVICE DISCOVERY
unknown&#45;&gt;HOST DISCOVERY
remoteware&#45;cl -->
<g id="edge7" class="edge">
<title>SERVICE DISCOVERY
unknown&#45;&gt;HOST DISCOVERY
remoteware&#45;cl</title>
<path fill="none" stroke="maroon" stroke-width="5" d="M366.36,-253.99C373.96,-259.5 380.75,-266.01 386.29,-273.71 403.44,-297.51 403.44,-315.9 386.29,-339.71 381.62,-346.2 376.05,-351.85 369.86,-356.77"/>
<polygon fill="maroon" stroke="maroon" stroke-width="5" points="367.29,-353.23 361.71,-362.61 372.39,-360.34 367.29,-353.23"/>
<text text-anchor="middle" x="550.79" y="-323.71" font-family="Arial" font-size="20.00" fill="maroon">start_next: 03/11/18, 17:59:39</text>
<text text-anchor="middle" x="550.79" y="-301.71" font-family="Arial" font-size="20.00" fill="maroon">gap: 938sec</text>
<text text-anchor="middle" x="550.79" y="-279.71" font-family="Arial" font-size="20.00" fill="maroon">end_prev: 03/11/18, 17:44:01</text>
</g>
<!-- VULNERABILTY DISCOVERY
remoteware&#45;cl -->
<g id="node6" class="node">
<title>VULNERABILTY DISCOVERY
remoteware&#45;cl</title>
<g id="a_node6"><a xlink:title="ET SCAN Nikto Web App Scan in Progress">
<ellipse fill="none" stroke="black" stroke-width="3" cx="238.29" cy="-556.98" rx="238.09" ry="42.35"/>
<text text-anchor="middle" x="238.29" y="-563.78" font-family="Arial" font-size="24.00">VULNERABILTY DISCOVERY</text>
<text text-anchor="middle" x="238.29" y="-537.78" font-family="Arial" font-size="24.00">remoteware&#45;cl</text>
</a>
</g>
</g>
<!-- HOST DISCOVERY
remoteware&#45;cl&#45;&gt;VULNERABILTY DISCOVERY
remoteware&#45;cl -->
<g id="edge4" class="edge">
<title>HOST DISCOVERY
remoteware&#45;cl&#45;&gt;VULNERABILTY DISCOVERY
remoteware&#45;cl</title>
<path fill="none" stroke="maroon" stroke-width="5" d="M111,-416.36C100.69,-422.75 91.49,-430.69 84.29,-440.56 67.01,-464.26 67.01,-482.86 84.29,-506.56 86.58,-509.69 89.07,-512.63 91.73,-515.39"/>
<polygon fill="maroon" stroke="maroon" stroke-width="5" points="88.85,-518.68 99.15,-522.27 94.79,-512.26 88.85,-518.68"/>
<text text-anchor="middle" x="236.79" y="-490.56" font-family="Arial" font-size="20.00" fill="maroon">start_next: 03/11/18, 15:05:40</text>
<text text-anchor="middle" x="236.79" y="-468.56" font-family="Arial" font-size="20.00" fill="maroon">gap: 275sec</text>
<text text-anchor="middle" x="236.79" y="-446.56" font-family="Arial" font-size="20.00" fill="maroon">end_prev: 03/11/18, 15:01:05</text>
</g>
<!-- HOST DISCOVERY
remoteware&#45;cl&#45;&gt;VULNERABILTY DISCOVERY
remoteware&#45;cl -->
<g id="edge8" class="edge">
<title>HOST DISCOVERY
remoteware&#45;cl&#45;&gt;VULNERABILTY DISCOVERY
remoteware&#45;cl</title>
<path fill="none" stroke="maroon" stroke-width="5" d="M361.71,-417.65C371.19,-423.79 379.65,-431.33 386.29,-440.56 403.44,-464.36 403.44,-482.76 386.29,-506.56 384.24,-509.42 382.01,-512.11 379.63,-514.65"/>
<polygon fill="maroon" stroke="maroon" stroke-width="5" points="376.31,-511.77 372.06,-521.82 382.32,-518.12 376.31,-511.77"/>
<text text-anchor="middle" x="550.79" y="-490.56" font-family="Arial" font-size="20.00" fill="maroon">start_next: 03/11/18, 18:07:26</text>
<text text-anchor="middle" x="550.79" y="-468.56" font-family="Arial" font-size="20.00" fill="maroon">gap: 467sec</text>
<text text-anchor="middle" x="550.79" y="-446.56" font-family="Arial" font-size="20.00" fill="maroon">end_prev: 03/11/18, 17:59:40</text>
</g>
<!-- VULNERABILTY DISCOVERY
remoteware&#45;cl&#45;&gt;DATA EXFILTRATION
remoteware&#45;cl | ID: 31 -->
<g id="edge5" class="edge">
<title>VULNERABILTY DISCOVERY
remoteware&#45;cl&#45;&gt;DATA EXFILTRATION
remoteware&#45;cl | ID: 31</title>
<path fill="none" stroke="maroon" stroke-width="5" d="M236.19,-599.68C235.08,-623.59 233.85,-654.18 233.29,-681.41 232.53,-719.12 232.57,-728.56 233.29,-766.26 233.75,-789.76 234.66,-815.64 235.58,-838.07"/>
<polygon fill="maroon" stroke="maroon" stroke-width="5" points="231.21,-838.31 236,-848.12 239.95,-837.94 231.21,-838.31"/>
<text text-anchor="middle" x="385.79" y="-740.84" font-family="Arial" font-size="20.00" fill="maroon">start_next: 03/11/18, 15:05:41</text>
<text text-anchor="middle" x="385.79" y="-718.84" font-family="Arial" font-size="20.00" fill="maroon">gap: &#45;571sec</text>
<text text-anchor="middle" x="385.79" y="-696.84" font-family="Arial" font-size="20.00" fill="maroon">end_prev: 03/11/18, 15:15:13</text>
</g>
<!-- INFO DISCOVERY
remoteware&#45;cl -->
<g id="node7" class="node">
<title>INFO DISCOVERY
remoteware&#45;cl</title>
<g id="a_node7"><a xlink:title="GPL WEB_SERVER iisadmin access&#10;GPL WEB_SERVER printenv access&#10;GPL WEB_SERVER author.exe access&#10;ET WEB_SERVER PHP Easteregg Information&#45;Disclosure (phpinfo)&#10;GPL WEB_SERVER globals.pl access&#10;GPL WEB_SERVER viewcode access&#10;ET WEB_SPECIFIC_APPS Request to Wordpress W3TC Plug&#45;in dbcache Directory&#10;GPL EXPLOIT ISAPI .idq attempt&#10;ET POLICY Proxy TRACE Request &#45; inbound&#10;GPL WEB_SERVER /~root access&#10;GPL WEB_SERVER service.pwd&#10;ET WEB_SERVER PHP REQUEST SuperGlobal in URI&#10;GPL WEB_SERVER services.cnf access&#10;GPL EXPLOIT unicode directory traversal attempt&#10;GPL EXPLOIT .htr access&#10;GPL EXPLOIT .cnf access&#10;ET WEB_SERVER PHP SERVER SuperGlobal in URI&#10;GPL WEB_SERVER .htaccess access&#10;GPL WEB_SERVER authors.pwd access&#10;GPL EXPLOIT iisadmpwd attempt&#10;GPL WEB_SERVER global.asa access&#10;GPL EXPLOIT fpcount access&#10;GPL WEB_SERVER .htpasswd access&#10;ET WEB_SERVER PHP SESSION SuperGlobal in URI&#10;GPL WEB_SERVER writeto.cnf access&#10;GPL EXPLOIT iissamples access&#10;GPL WEB_SERVER service.cnf access">
<ellipse fill="none" stroke="black" stroke-width="3" cx="696.29" cy="-723.84" rx="154.3" ry="42.35"/>
<text text-anchor="middle" x="696.29" y="-730.64" font-family="Arial" font-size="24.00">INFO DISCOVERY</text>
<text text-anchor="middle" x="696.29" y="-704.64" font-family="Arial" font-size="24.00">remoteware&#45;cl</text>
</a>
</g>
</g>
<!-- VULNERABILTY DISCOVERY
remoteware&#45;cl&#45;&gt;INFO DISCOVERY
remoteware&#45;cl -->
<g id="edge9" class="edge">
<title>VULNERABILTY DISCOVERY
remoteware&#45;cl&#45;&gt;INFO DISCOVERY
remoteware&#45;cl</title>
<path fill="none" stroke="maroon" stroke-width="5" d="M341.94,-595.29C417.6,-622.52 519.65,-659.26 594.81,-686.31"/>
<polygon fill="maroon" stroke="maroon" stroke-width="5" points="593.41,-690.46 604.3,-689.73 596.37,-682.22 593.41,-690.46"/>
<text text-anchor="middle" x="699.79" y="-657.41" font-family="Arial" font-size="20.00" fill="maroon">start_next: 03/11/18, 18:07:27</text>
<text text-anchor="middle" x="699.79" y="-635.41" font-family="Arial" font-size="20.00" fill="maroon">gap: &#45;563sec</text>
<text text-anchor="middle" x="699.79" y="-613.41" font-family="Arial" font-size="20.00" fill="maroon">end_prev: 03/11/18, 18:16:50</text>
</g>
<!-- INFO DISCOVERY
remoteware&#45;cl&#45;&gt;DATA EXFILTRATION
remoteware&#45;cl | ID: 31 -->
<g id="edge10" class="edge">
<title>INFO DISCOVERY
remoteware&#45;cl&#45;&gt;DATA EXFILTRATION
remoteware&#45;cl | ID: 31</title>
<path fill="none" stroke="maroon" stroke-width="5" d="M606.63,-758.4C539.32,-783.59 446.12,-818.47 370.3,-846.85"/>
<polygon fill="maroon" stroke="maroon" stroke-width="5" points="368.51,-842.85 360.68,-850.45 371.57,-851.04 368.51,-842.85"/>
<text text-anchor="middle" x="712.79" y="-824.26" font-family="Arial" font-size="20.00" fill="maroon">start_next: 03/11/18, 18:07:28</text>
<text text-anchor="middle" x="712.79" y="-802.26" font-family="Arial" font-size="20.00" fill="maroon">gap: &#45;564sec</text>
<text text-anchor="middle" x="712.79" y="-780.26" font-family="Arial" font-size="20.00" fill="maroon">end_prev: 03/11/18, 18:16:52</text>
</g>
</g>
</svg>
