<?xml version="1.0" encoding="UTF-8" standalone="no"?>
<!DOCTYPE svg PUBLIC "-//W3C//DTD SVG 1.1//EN"
 "http://www.w3.org/Graphics/SVG/1.1/DTD/svg11.dtd">
<!-- Generated by graphviz version 2.43.0 (0)
 -->
<!-- Title: DATADELIVERYhttp Pages: 1 -->
<svg width="978pt" height="2091pt"
 viewBox="0.00 0.00 978.35 2090.83" xmlns="http://www.w3.org/2000/svg" xmlns:xlink="http://www.w3.org/1999/xlink">
<g id="graph0" class="graph" transform="scale(1 1) rotate(0) translate(4 2086.83)">
<title>DATADELIVERYhttp</title>
<polygon fill="white" stroke="transparent" points="-4,4 -4,-2086.83 974.35,-2086.83 974.35,4 -4,4"/>
<!-- Victim: 10.0.1.46
DATA DELIVERY
http -->
<g id="node1" class="node">
<title>Victim: 10.0.1.46
DATA DELIVERY
http</title>
<polygon fill="salmon" stroke="black" stroke-width="3" points="505.64,-1985.81 505.64,-2040.2 406.47,-2078.66 266.23,-2078.66 167.06,-2040.2 167.06,-1985.81 266.23,-1947.35 406.47,-1947.35 505.64,-1985.81"/>
<polygon fill="none" stroke="black" stroke-width="3" points="509.64,-1983.08 509.64,-2042.93 407.23,-2082.65 265.48,-2082.65 163.06,-2042.93 163.06,-1983.08 265.48,-1943.36 407.23,-1943.36 509.64,-1983.08"/>
<text text-anchor="middle" x="336.35" y="-2032.8" font-family="Arial" font-size="24.00">Victim: 10.0.1.46</text>
<text text-anchor="middle" x="336.35" y="-2006.8" font-family="Arial" font-size="24.00">DATA DELIVERY</text>
<text text-anchor="middle" x="336.35" y="-1980.8" font-family="Arial" font-size="24.00">http</text>
</g>
<!-- DATA DELIVERY
http | ID: 14 -->
<g id="node2" class="node">
<title>DATA DELIVERY
http | ID: 14</title>
<g id="a_node2"><a xlink:title="ET WEB_SPECIFIC_APPS OpenX phpAdsNew phpAds_geoPlugin Parameter Remote File Inclusion Attempt&#10;ET WEB_SPECIFIC_APPS PHP phpMyAgenda rootagenda Remote File Include Attempt&#10;ET WEB_SPECIFIC_APPS p&#45;Table for WordPress wptable&#45;tinymce.php ABSPATH Parameter RFI Attempt&#10;ET WEB_SPECIFIC_APPS SERWeb load_lang.php configdir Parameter Remote File Inclusion&#10;ET WEB_SPECIFIC_APPS PointComma pctemplate.php pcConfig Parameter Remote File Inclusion Attempt&#10;ET WEB_SPECIFIC_APPS Possible Mambo/Joomla! com_koesubmit Component &#39;koesubmit.php&#39; Remote File Inclusion Attempt&#10;ET WEB_SPECIFIC_APPS Joomla Simple RSS Reader admin.rssreader.php mosConfig_live_site Parameter Remote File Inclusion&#10;ET WEB_SPECIFIC_APPS Ve&#45;EDIT edit_htmlarea.php highlighter Parameter Remote File Inclusion&#10;ET WEB_SPECIFIC_APPS OBOphiX fonctions_racine.php chemin_lib parameter Remote File Inclusion Attempt&#10;ET WEB_SPECIFIC_APPS SAPID get_infochannel.inc.php Remote File inclusion Attempt&#10;ET WEB_SPECIFIC_APPS PHPOF DB_AdoDB.Class.PHP PHPOF_INCLUDE_PATH parameter Remote File Inclusion&#10;ET WEB_SPECIFIC_APPS TECHNOTE shop_this_skin_path Parameter Remote File Inclusion&#10;ET WEB_SPECIFIC_APPS Possible OpenSiteAdmin pageHeader.php Remote File Inclusion Attempt&#10;ET WEB_SPECIFIC_APPS Joomla Onguma Time Sheet Component onguma.class.php mosConfig_absolute_path Parameter Remote File Inclusion&#10;ET WEB_SPECIFIC_APPS ProdLer prodler.class.php sPath Parameter Remote File Inclusion Attempt&#10;ET WEB_SPECIFIC_APPS MODx CMS snippet.reflect.php reflect_base Remote File Inclusion&#10;ET WEB_SPECIFIC_APPS phPortal gunaysoft.php icerikyolu Parameter Remote File Inclusion&#10;ET WEB_SPECIFIC_APPS Sisplet CMS komentar.php site_path Parameter Remote File Inclusion Attempt&#10;ET WEB_SPECIFIC_APPS phptraverse mp3_id.php GLOBALS Parameter Remote File Inclusion Attempt&#10;ET WEB_SPECIFIC_APPS PHP Classifieds class.phpmailer.php lang_path Parameter Remote File Inclusion Attempt&#10;ET WEB_SPECIFIC_APPS YapBB class_yapbbcooker.php cfgIncludeDirectory Parameter Remote File Inclusion&#10;ET WEB_SPECIFIC_APPS Enthusiast path parameter Remote File Inclusion&#10;ET WEB_SPECIFIC_APPS ProjectButler RFI attempt &#10;ET WEB_SPECIFIC_APPS SERWeb main_prepend.php functionsdir Parameter Remote File Inclusion&#10;ET WEB_SPECIFIC_APPS Mambo Component com_smf smf.php Remote File Inclusion Attempt&#10;ET WEB_SPECIFIC_APPS MAXcms fm_includes_special Parameter Remote File Inclusion Attempt&#10;ET WEB_SPECIFIC_APPS PHP&#45;Paid4Mail RFI attempt &#10;ET WEB_SPECIFIC_APPS phpSkelSite theme parameter remote file inclusion&#10;ET WEB_SPECIFIC_APPS PHP Aardvark Topsites PHP CONFIG PATH Remote File Include Attempt&#10;ET WEB_SPECIFIC_APPS Possible eFront database.php Remote File Inclusion Attempt&#10;ET WEB_SPECIFIC_APPS phPortal gunaysoft.php sayfaid Parameter Remote File Inclusion">
<polygon fill="salmon" stroke="black" stroke-width="3" points="500.58,-1877.19 418.47,-1926.17 254.24,-1926.17 172.12,-1877.19 254.24,-1828.21 418.47,-1828.21 500.58,-1877.19"/>
<text text-anchor="middle" x="336.35" y="-1883.99" font-family="Arial" font-size="24.00">DATA DELIVERY</text>
<text text-anchor="middle" x="336.35" y="-1857.99" font-family="Arial" font-size="24.00">http | ID: 14</text>
</a>
</g>
</g>
<!-- DATA DELIVERY
http | ID: 14&#45;&gt;Victim: 10.0.1.46
DATA DELIVERY
http -->
<g id="edge1" class="edge">
<title>DATA DELIVERY
http | ID: 14&#45;&gt;Victim: 10.0.1.46
DATA DELIVERY
http</title>
<path fill="none" stroke="black" stroke-width="5" d="M336.35,-1926.5C336.35,-1928.61 336.35,-1930.74 336.35,-1932.89"/>
<polygon fill="black" stroke="black" stroke-width="5" points="331.98,-1933.04 336.35,-1943.04 340.73,-1933.04 331.98,-1933.04"/>
</g>
<!-- HOST DISCOVERY
http -->
<g id="node3" class="node">
<title>HOST DISCOVERY
http</title>
<g id="a_node3"><a xlink:title="ET SCAN Possible Nmap User&#45;Agent Observed&#10;ET SCAN Nmap Scripting Engine User&#45;Agent Detected (Nmap Scripting Engine)">
<ellipse fill="yellow" stroke="black" stroke-width="3" cx="336.35" cy="-223.28" rx="161.44" ry="42.35"/>
<text text-anchor="middle" x="336.35" y="-230.08" font-family="Arial" font-size="24.00">HOST DISCOVERY</text>
<text text-anchor="middle" x="336.35" y="-204.08" font-family="Arial" font-size="24.00">http</text>
</a>
</g>
</g>
<!-- VULNERABILTY DISCOVERY
ms&#45;sql&#45;s -->
<g id="node4" class="node">
<title>VULNERABILTY DISCOVERY
ms&#45;sql&#45;s</title>
<g id="a_node4"><a xlink:title="ET SCAN Suspicious inbound to Oracle SQL port 1521&#10;ET SCAN Suspicious inbound to MSSQL port 1433&#10;ET SCAN Suspicious inbound to mySQL port 3306&#10;ET SCAN Nikto Web App Scan in Progress&#10;ET SCAN Suspicious inbound to PostgreSQL port 5432&#10;ET SCAN Suspicious inbound to mSQL port 4333">
<ellipse fill="none" stroke="black" stroke-width="3" cx="336.35" cy="-404.13" rx="238.09" ry="42.35"/>
<text text-anchor="middle" x="336.35" y="-410.93" font-family="Arial" font-size="24.00">VULNERABILTY DISCOVERY</text>
<text text-anchor="middle" x="336.35" y="-384.93" font-family="Arial" font-size="24.00">ms&#45;sql&#45;s</text>
</a>
</g>
</g>
<!-- HOST DISCOVERY
http&#45;&gt;VULNERABILTY DISCOVERY
ms&#45;sql&#45;s -->
<g id="edge2" class="edge">
<title>HOST DISCOVERY
http&#45;&gt;VULNERABILTY DISCOVERY
ms&#45;sql&#45;s</title>
<path fill="none" stroke="maroon" stroke-width="5" d="M176.96,-230C108.33,-236.14 38.87,-248.6 17.35,-273.71 -5.78,-300.7 -5.78,-326.71 17.35,-353.71 30.84,-369.45 63.18,-380.22 102.34,-387.58"/>
<polygon fill="maroon" stroke="maroon" stroke-width="5" points="101.82,-391.93 112.43,-389.37 103.35,-383.31 101.82,-391.93"/>
<text text-anchor="start" x="17.35" y="-338.71" font-family="Arial" font-size="20.00" fill="maroon"> start_next: 03/11/18, 14:42:24</text>
<text text-anchor="start" x="124.35" y="-318.71" font-family="Arial" font-size="20.00" fill="maroon">gap: 2sec</text>
<text text-anchor="start" x="25.35" y="-298.71" font-family="Arial" font-size="20.00" fill="maroon">end_prev: 03/11/18, 14:42:22</text>
<text text-anchor="start" x="41.35" y="-278.71" font-family="Arial" font-weight="bold" font-size="20.00" fill="maroon">Attacker: 10.0.254.201</text>
</g>
<!-- HOST DISCOVERY
http&#45;&gt;VULNERABILTY DISCOVERY
ms&#45;sql&#45;s -->
<g id="edge12" class="edge">
<title>HOST DISCOVERY
http&#45;&gt;VULNERABILTY DISCOVERY
ms&#45;sql&#45;s</title>
<path fill="none" stroke="maroon" stroke-width="5" d="M336.35,-265.76C336.35,-291.29 336.35,-324.22 336.35,-351.44"/>
<polygon fill="maroon" stroke="maroon" stroke-width="5" points="331.98,-351.57 336.35,-361.57 340.73,-351.57 331.98,-351.57"/>
<text text-anchor="start" x="336.35" y="-338.71" font-family="Arial" font-size="20.00" fill="maroon"> start_next: 03/11/18, 17:37:52</text>
<text text-anchor="start" x="443.35" y="-318.71" font-family="Arial" font-size="20.00" fill="maroon">gap: 4sec</text>
<text text-anchor="start" x="344.35" y="-298.71" font-family="Arial" font-size="20.00" fill="maroon">end_prev: 03/11/18, 17:37:48</text>
<text text-anchor="start" x="360.35" y="-278.71" font-family="Arial" font-weight="bold" font-size="20.00" fill="maroon">Attacker: 10.0.254.204</text>
</g>
<!-- HOST DISCOVERY
http&#45;&gt;VULNERABILTY DISCOVERY
ms&#45;sql&#45;s -->
<g id="edge23" class="edge">
<title>HOST DISCOVERY
http&#45;&gt;VULNERABILTY DISCOVERY
ms&#45;sql&#45;s</title>
<path fill="none" stroke="maroon" stroke-width="5" d="M495.26,-230.72C561.41,-237.05 627.65,-249.47 648.35,-273.71 671.44,-300.74 671.44,-326.67 648.35,-353.71 635.52,-368.73 605.19,-379.21 568.23,-386.52"/>
<polygon fill="maroon" stroke="maroon" stroke-width="5" points="567.2,-382.26 558.17,-388.41 568.81,-390.86 567.2,-382.26"/>
<text text-anchor="middle" x="817.85" y="-330.71" font-family="Arial" font-size="20.00" fill="maroon">start_next: 03/11/18, 22:31:05</text>
<text text-anchor="middle" x="817.85" y="-308.71" font-family="Arial" font-size="20.00" fill="maroon">gap: 2sec</text>
<text text-anchor="middle" x="817.85" y="-286.71" font-family="Arial" font-size="20.00" fill="maroon">end_prev: 03/11/18, 22:31:03</text>
</g>
<!-- INFO DISCOVERY
http -->
<g id="node5" class="node">
<title>INFO DISCOVERY
http</title>
<g id="a_node5"><a xlink:title="GPL WEB_SERVER iisadmin access&#10;GPL WEB_SERVER printenv access&#10;GPL WEB_SERVER author.exe access&#10;ET WEB_SERVER PHP Easteregg Information&#45;Disclosure (phpinfo)&#10;ET WEB_SERVER PHP Easteregg Information&#45;Disclosure (funny&#45;logo)&#10;GPL WEB_SERVER globals.pl access&#10;GPL WEB_SERVER viewcode access&#10;ET WEB_SPECIFIC_APPS Request to Wordpress W3TC Plug&#45;in dbcache Directory&#10;GPL EXPLOIT ISAPI .idq attempt&#10;ET POLICY Proxy TRACE Request &#45; inbound&#10;GPL WEB_SERVER /~root access&#10;GPL WEB_SERVER service.pwd&#10;ET WEB_SERVER PHP REQUEST SuperGlobal in URI&#10;ET WEB_SERVER PHP Easteregg Information&#45;Disclosure (php&#45;logo)&#10;GPL WEB_SERVER services.cnf access&#10;GPL EXPLOIT unicode directory traversal attempt&#10;GPL EXPLOIT .htr access&#10;GPL EXPLOIT .cnf access&#10;ET WEB_SERVER PHP SERVER SuperGlobal in URI&#10;GPL WEB_SERVER .htaccess access&#10;GPL EXPLOIT iisadmpwd attempt&#10;GPL WEB_SERVER service.cnf access&#10;GPL WEB_SERVER global.asa access&#10;GPL EXPLOIT fpcount access&#10;GPL WEB_SERVER .htpasswd access&#10;GPL WEB_SERVER 403 Forbidden&#10;ET WEB_SERVER PHP SESSION SuperGlobal in URI&#10;GPL WEB_SERVER writeto.cnf access&#10;GPL EXPLOIT iissamples access&#10;ET WEB_SERVER PHP Easteregg Information&#45;Disclosure (zend&#45;logo)&#10;ET WEB_SERVER PHP ENV SuperGlobal in URI&#10;GPL WEB_SERVER authors.pwd access">
<ellipse fill="none" stroke="black" stroke-width="3" cx="336.35" cy="-570.98" rx="154.3" ry="42.35"/>
<text text-anchor="middle" x="336.35" y="-577.78" font-family="Arial" font-size="24.00">INFO DISCOVERY</text>
<text text-anchor="middle" x="336.35" y="-551.78" font-family="Arial" font-size="24.00">http</text>
</a>
</g>
</g>
<!-- VULNERABILTY DISCOVERY
ms&#45;sql&#45;s&#45;&gt;INFO DISCOVERY
http -->
<g id="edge3" class="edge">
<title>VULNERABILTY DISCOVERY
ms&#45;sql&#45;s&#45;&gt;INFO DISCOVERY
http</title>
<path fill="none" stroke="maroon" stroke-width="5" d="M114.22,-419.72C72.46,-427.08 37.42,-438.09 23.35,-454.56 4.3,-476.86 4.3,-498.26 23.35,-520.56 43.79,-544.48 108.45,-556.89 173.73,-563.3"/>
<polygon fill="maroon" stroke="maroon" stroke-width="5" points="173.42,-567.67 183.78,-564.24 174.23,-558.96 173.42,-567.67"/>
<text text-anchor="middle" x="175.85" y="-504.56" font-family="Arial" font-size="20.00" fill="maroon">start_next: 03/11/18, 14:42:24</text>
<text text-anchor="middle" x="175.85" y="-482.56" font-family="Arial" font-size="20.00" fill="maroon">gap: &#45;27sec</text>
<text text-anchor="middle" x="175.85" y="-460.56" font-family="Arial" font-size="20.00" fill="maroon">end_prev: 03/11/18, 14:42:50</text>
</g>
<!-- VULNERABILTY DISCOVERY
ms&#45;sql&#45;s&#45;&gt;INFO DISCOVERY
http -->
<g id="edge13" class="edge">
<title>VULNERABILTY DISCOVERY
ms&#45;sql&#45;s&#45;&gt;INFO DISCOVERY
http</title>
<path fill="none" stroke="maroon" stroke-width="5" d="M336.35,-446.73C336.35,-468.4 336.35,-495.11 336.35,-518.12"/>
<polygon fill="maroon" stroke="maroon" stroke-width="5" points="331.98,-518.4 336.35,-528.4 340.73,-518.4 331.98,-518.4"/>
<text text-anchor="middle" x="488.85" y="-504.56" font-family="Arial" font-size="20.00" fill="maroon">start_next: 03/11/18, 17:37:52</text>
<text text-anchor="middle" x="488.85" y="-482.56" font-family="Arial" font-size="20.00" fill="maroon">gap: &#45;292sec</text>
<text text-anchor="middle" x="488.85" y="-460.56" font-family="Arial" font-size="20.00" fill="maroon">end_prev: 03/11/18, 17:42:45</text>
</g>
<!-- VULNERABILTY DISCOVERY
ms&#45;sql&#45;s&#45;&gt;INFO DISCOVERY
http -->
<g id="edge24" class="edge">
<title>VULNERABILTY DISCOVERY
ms&#45;sql&#45;s&#45;&gt;INFO DISCOVERY
http</title>
<path fill="none" stroke="maroon" stroke-width="5" d="M556.26,-420.7C595.89,-428.03 628.92,-438.78 642.35,-454.56 661.37,-476.89 661.37,-498.22 642.35,-520.56 622.73,-543.6 561.28,-555.94 498.54,-562.53"/>
<polygon fill="maroon" stroke="maroon" stroke-width="5" points="497.98,-558.19 488.47,-563.54 498.85,-566.89 497.98,-558.19"/>
<text text-anchor="middle" x="808.85" y="-504.56" font-family="Arial" font-size="20.00" fill="maroon">start_next: 03/11/18, 22:31:05</text>
<text text-anchor="middle" x="808.85" y="-482.56" font-family="Arial" font-size="20.00" fill="maroon">gap: &#45;47sec</text>
<text text-anchor="middle" x="808.85" y="-460.56" font-family="Arial" font-size="20.00" fill="maroon">end_prev: 03/11/18, 22:31:52</text>
</g>
<!-- DATA EXFILTRATION
http | ID: 12 -->
<g id="node6" class="node">
<title>DATA EXFILTRATION
http | ID: 12</title>
<g id="a_node6"><a xlink:title="ET WEB_SERVER Possible XXE SYSTEM ENTITY in POST BODY.&#10;GPL EXPLOIT ISAPI .ida access&#10;ET WEB_SERVER /system32/ in Uri &#45; Possible Protected Directory Access Attempt&#10;GPL WEB_SERVER Tomcat server snoop access&#10;ET WEB_SERVER ColdFusion componentutils access&#10;GPL EXPLOIT /msadc/samples/ access&#10;ET WEB_SPECIFIC_APPS PHP&#45;CGI query string parameter vulnerability&#10;GPL EXPLOIT ISAPI .idq access&#10;ET WEB_SERVER /etc/shadow Detected in URI">
<polygon fill="none" stroke="black" stroke-width="3" points="541.23,-744.4 438.79,-793.38 233.91,-793.38 131.47,-744.4 233.91,-695.42 438.79,-695.42 541.23,-744.4"/>
<text text-anchor="middle" x="336.35" y="-751.2" font-family="Arial" font-size="24.00">DATA EXFILTRATION</text>
<text text-anchor="middle" x="336.35" y="-725.2" font-family="Arial" font-size="24.00">http | ID: 12</text>
</a>
</g>
</g>
<!-- INFO DISCOVERY
http&#45;&gt;DATA EXFILTRATION
http | ID: 12 -->
<g id="edge4" class="edge">
<title>INFO DISCOVERY
http&#45;&gt;DATA EXFILTRATION
http | ID: 12</title>
<path fill="none" stroke="maroon" stroke-width="5" d="M183.78,-577.73C115.2,-583.84 44.84,-596.26 23.35,-621.41 4.3,-643.71 4.53,-664.92 23.35,-687.41 41.03,-708.53 92.46,-721.69 148.65,-729.89"/>
<polygon fill="maroon" stroke="maroon" stroke-width="5" points="148.31,-734.26 158.82,-731.31 149.52,-725.59 148.31,-734.26"/>
<text text-anchor="middle" x="175.85" y="-671.41" font-family="Arial" font-size="20.00" fill="maroon">start_next: 03/11/18, 14:42:24</text>
<text text-anchor="middle" x="175.85" y="-649.41" font-family="Arial" font-size="20.00" fill="maroon">gap: &#45;13sec</text>
<text text-anchor="middle" x="175.85" y="-627.41" font-family="Arial" font-size="20.00" fill="maroon">end_prev: 03/11/18, 14:42:37</text>
</g>
<!-- INFO DISCOVERY
http&#45;&gt;DATA EXFILTRATION
http | ID: 12 -->
<g id="edge14" class="edge">
<title>INFO DISCOVERY
http&#45;&gt;DATA EXFILTRATION
http | ID: 12</title>
<path fill="none" stroke="maroon" stroke-width="5" d="M336.35,-613.48C336.35,-634.97 336.35,-661.57 336.35,-685.09"/>
<polygon fill="maroon" stroke="maroon" stroke-width="5" points="331.98,-685.31 336.35,-695.31 340.73,-685.31 331.98,-685.31"/>
<text text-anchor="middle" x="488.85" y="-671.41" font-family="Arial" font-size="20.00" fill="maroon">start_next: 03/11/18, 17:37:53</text>
<text text-anchor="middle" x="488.85" y="-649.41" font-family="Arial" font-size="20.00" fill="maroon">gap: &#45;48sec</text>
<text text-anchor="middle" x="488.85" y="-627.41" font-family="Arial" font-size="20.00" fill="maroon">end_prev: 03/11/18, 17:38:40</text>
</g>
<!-- INFO DISCOVERY
http&#45;&gt;DATA EXFILTRATION
http | ID: 12 -->
<g id="edge25" class="edge">
<title>INFO DISCOVERY
http&#45;&gt;DATA EXFILTRATION
http | ID: 12</title>
<path fill="none" stroke="maroon" stroke-width="5" d="M488.47,-578.43C554.58,-584.74 621.68,-597.13 642.35,-621.41 661.37,-643.75 661.14,-664.88 642.35,-687.41 625.38,-707.77 576.45,-720.74 522.56,-729.01"/>
<polygon fill="maroon" stroke="maroon" stroke-width="5" points="521.7,-724.71 512.45,-730.5 522.98,-733.37 521.7,-724.71"/>
<text text-anchor="middle" x="808.85" y="-671.41" font-family="Arial" font-size="20.00" fill="maroon">start_next: 03/11/18, 22:31:05</text>
<text text-anchor="middle" x="808.85" y="-649.41" font-family="Arial" font-size="20.00" fill="maroon">gap: &#45;25sec</text>
<text text-anchor="middle" x="808.85" y="-627.41" font-family="Arial" font-size="20.00" fill="maroon">end_prev: 03/11/18, 22:31:30</text>
</g>
<!-- ARBITRARY CODE EXECUTION
http | ID: 97 -->
<g id="node7" class="node">
<title>ARBITRARY CODE EXECUTION
http | ID: 97</title>
<g id="a_node7"><a xlink:title="ET WEB_SERVER Possible CVE&#45;2014&#45;6271 Attempt&#10;ET WEB_SPECIFIC_APPS WEB&#45;PHP RCE PHPBB 2004&#45;1315&#10;ET WEB_SPECIFIC_APPS Golem Gaming Portal root_path Parameter Remote File inclusion Attempt&#10;ET WEB_SPECIFIC_APPS Joomla swMenuPro ImageManager.php Remote File Inclusion Attempt&#10;ETPRO WEB_SPECIFIC_APPS PHPMoAdmin RCE Attempt&#10;ET WEB_SERVER cmd.exe In URI &#45; Possible Command Execution Attempt&#10;ET WEB_SERVER Exploit Suspected PHP Injection Attack (cmd=)&#10;ET WEB_SPECIFIC_APPS FormMailer formmailer.admin.inc.php BASE_DIR Parameter Remote File Inclusion Attempt&#10;ET WEB_SPECIFIC_APPS DesktopOnNet don3_requiem.php app_path Parameter Remote File Inclusion&#10;ET WEB_SPECIFIC_APPS Joomla Dada Mail Manager Component config.dadamail.php GLOBALS Parameter Remote File Inclusion&#10;ET WEB_SERVER Possible CVE&#45;2014&#45;6271 Attempt in Headers&#10;ET WEB_SPECIFIC_APPS Achievo debugger.php config_atkroot parameter Remote File Inclusion Attempt&#10;ET CURRENT_EVENTS QNAP Shellshock CVE&#45;2014&#45;6271&#10;ET WEB_SPECIFIC_APPS KingCMS menu.php CONFIG Parameter Remote File Inclusion&#10;ET WEB_SPECIFIC_APPS AjaxPortal di.php pathtoserverdata Parameter Remote File Inclusion Attempt&#10;ET WEB_SPECIFIC_APPS BASE base_stat_common.php remote file include&#10;ET WEB_SPECIFIC_APPS DesktopOnNet frontpage.php app_path Parameter Remote File Inclusion&#10;ET WEB_SPECIFIC_APPS KR&#45;Web krgourl.php DOCUMENT_ROOT Parameter Remote File Inclusion Attempt&#10;ET WEB_SPECIFIC_APPS Joomla AjaxChat Component ajcuser.php GLOBALS Parameter Remote File Inclusion Attempt&#10;ET WEB_SPECIFIC_APPS Horde type Parameter Local File Inclusion Attempt">
<polygon fill="none" stroke="black" stroke-width="3" points="522.85,-935.39 149.85,-935.39 149.85,-875.39 522.85,-875.39 522.85,-935.39"/>
<text text-anchor="middle" x="336.35" y="-912.19" font-family="Arial" font-size="24.00">ARBITRARY CODE EXECUTION</text>
<text text-anchor="middle" x="336.35" y="-886.19" font-family="Arial" font-size="24.00">http | ID: 97</text>
</a>
</g>
</g>
<!-- DATA EXFILTRATION
http | ID: 12&#45;&gt;ARBITRARY CODE EXECUTION
http | ID: 97 -->
<g id="edge5" class="edge">
<title>DATA EXFILTRATION
http | ID: 12&#45;&gt;ARBITRARY CODE EXECUTION
http | ID: 97</title>
<path fill="none" stroke="maroon" stroke-width="5" d="M158.82,-757.49C98.75,-765.56 42.09,-779.01 23.35,-801.39 4.53,-823.88 3.87,-845.47 23.35,-867.39 32.46,-877.64 82.39,-885.53 139.79,-891.34"/>
<polygon fill="maroon" stroke="maroon" stroke-width="5" points="139.44,-895.71 149.82,-892.33 140.3,-887 139.44,-895.71"/>
<text text-anchor="middle" x="175.85" y="-851.39" font-family="Arial" font-size="20.00" fill="maroon">start_next: 03/11/18, 14:42:25</text>
<text text-anchor="middle" x="175.85" y="-829.39" font-family="Arial" font-size="20.00" fill="maroon">gap: &#45;12sec</text>
<text text-anchor="middle" x="175.85" y="-807.39" font-family="Arial" font-size="20.00" fill="maroon">end_prev: 03/11/18, 14:42:37</text>
</g>
<!-- DATA EXFILTRATION
http | ID: 12&#45;&gt;ARBITRARY CODE EXECUTION
http | ID: 97 -->
<g id="edge15" class="edge">
<title>DATA EXFILTRATION
http | ID: 12&#45;&gt;ARBITRARY CODE EXECUTION
http | ID: 97</title>
<path fill="none" stroke="maroon" stroke-width="5" d="M336.35,-793.53C336.35,-816.47 336.35,-843.55 336.35,-865.21"/>
<polygon fill="maroon" stroke="maroon" stroke-width="5" points="331.98,-865.36 336.35,-875.36 340.73,-865.36 331.98,-865.36"/>
<text text-anchor="middle" x="488.85" y="-851.39" font-family="Arial" font-size="20.00" fill="maroon">start_next: 03/11/18, 17:37:56</text>
<text text-anchor="middle" x="488.85" y="-829.39" font-family="Arial" font-size="20.00" fill="maroon">gap: &#45;44sec</text>
<text text-anchor="middle" x="488.85" y="-807.39" font-family="Arial" font-size="20.00" fill="maroon">end_prev: 03/11/18, 17:38:40</text>
</g>
<!-- DATA EXFILTRATION
http | ID: 12&#45;&gt;ARBITRARY CODE EXECUTION
http | ID: 97 -->
<g id="edge26" class="edge">
<title>DATA EXFILTRATION
http | ID: 12&#45;&gt;ARBITRARY CODE EXECUTION
http | ID: 97</title>
<path fill="none" stroke="maroon" stroke-width="5" d="M512.45,-758.3C570.24,-766.47 624.33,-779.77 642.35,-801.39 661.14,-823.92 661.81,-845.44 642.35,-867.39 633.71,-877.15 587.31,-884.83 533.16,-890.62"/>
<polygon fill="maroon" stroke="maroon" stroke-width="5" points="532.46,-886.29 522.97,-891.68 533.36,-894.99 532.46,-886.29"/>
<text text-anchor="middle" x="808.85" y="-851.39" font-family="Arial" font-size="20.00" fill="maroon">start_next: 03/11/18, 22:31:07</text>
<text text-anchor="middle" x="808.85" y="-829.39" font-family="Arial" font-size="20.00" fill="maroon">gap: &#45;23sec</text>
<text text-anchor="middle" x="808.85" y="-807.39" font-family="Arial" font-size="20.00" fill="maroon">end_prev: 03/11/18, 22:31:30</text>
</g>
<!-- ROOT PRIVILEGE ESCALATION
http | ID: 51 -->
<g id="node8" class="node">
<title>ROOT PRIVILEGE ESCALATION
http | ID: 51</title>
<g id="a_node8"><a xlink:title="GPL EXPLOIT CodeRed v2 root.exe access&#10;ET WEB_SERVER ColdFusion administrator access&#10;ETPRO WEB_SPECIFIC_APPS ipTIME firmware &lt; 9.58 RCE&#10;GPL EXPLOIT administrators.pwd access">
<polygon fill="none" stroke="black" stroke-width="3" points="523.35,-1077.39 149.35,-1077.39 149.35,-1017.39 523.35,-1017.39 523.35,-1077.39"/>
<text text-anchor="middle" x="336.35" y="-1054.19" font-family="Arial" font-size="24.00">ROOT PRIVILEGE ESCALATION</text>
<text text-anchor="middle" x="336.35" y="-1028.19" font-family="Arial" font-size="24.00">http | ID: 51</text>
</a>
</g>
</g>
<!-- ARBITRARY CODE EXECUTION
http | ID: 97&#45;&gt;ROOT PRIVILEGE ESCALATION
http | ID: 51 -->
<g id="edge6" class="edge">
<title>ARBITRARY CODE EXECUTION
http | ID: 97&#45;&gt;ROOT PRIVILEGE ESCALATION
http | ID: 51</title>
<path fill="none" stroke="maroon" stroke-width="5" d="M149.82,-918.45C88.3,-924.35 32.99,-932.55 23.35,-943.39 3.87,-965.32 3.87,-987.47 23.35,-1009.39 32.42,-1019.59 81.92,-1027.46 138.98,-1033.26"/>
<polygon fill="maroon" stroke="maroon" stroke-width="5" points="138.57,-1037.62 148.95,-1034.25 139.43,-1028.91 138.57,-1037.62"/>
<text text-anchor="middle" x="175.85" y="-993.39" font-family="Arial" font-size="20.00" fill="maroon">start_next: 03/11/18, 14:42:25</text>
<text text-anchor="middle" x="175.85" y="-971.39" font-family="Arial" font-size="20.00" fill="maroon">gap: &#45;12sec</text>
<text text-anchor="middle" x="175.85" y="-949.39" font-family="Arial" font-size="20.00" fill="maroon">end_prev: 03/11/18, 14:42:37</text>
</g>
<!-- ARBITRARY CODE EXECUTION
http | ID: 97&#45;&gt;ROOT PRIVILEGE ESCALATION
http | ID: 51 -->
<g id="edge16" class="edge">
<title>ARBITRARY CODE EXECUTION
http | ID: 97&#45;&gt;ROOT PRIVILEGE ESCALATION
http | ID: 51</title>
<path fill="none" stroke="maroon" stroke-width="5" d="M336.35,-935.4C336.35,-956.1 336.35,-984.18 336.35,-1006.91"/>
<polygon fill="maroon" stroke="maroon" stroke-width="5" points="331.98,-1006.94 336.35,-1016.94 340.73,-1006.94 331.98,-1006.94"/>
<text text-anchor="middle" x="488.85" y="-993.39" font-family="Arial" font-size="20.00" fill="maroon">start_next: 03/11/18, 17:37:58</text>
<text text-anchor="middle" x="488.85" y="-971.39" font-family="Arial" font-size="20.00" fill="maroon">gap: &#45;43sec</text>
<text text-anchor="middle" x="488.85" y="-949.39" font-family="Arial" font-size="20.00" fill="maroon">end_prev: 03/11/18, 17:38:41</text>
</g>
<!-- ARBITRARY CODE EXECUTION
http | ID: 97&#45;&gt;ROOT PRIVILEGE ESCALATION
http | ID: 51 -->
<g id="edge27" class="edge">
<title>ARBITRARY CODE EXECUTION
http | ID: 97&#45;&gt;ROOT PRIVILEGE ESCALATION
http | ID: 51</title>
<path fill="none" stroke="maroon" stroke-width="5" d="M522.97,-919.11C581.39,-925 633.17,-933.03 642.35,-943.39 661.81,-965.34 661.81,-987.44 642.35,-1009.39 633.73,-1019.12 587.54,-1026.8 533.55,-1032.58"/>
<polygon fill="maroon" stroke="maroon" stroke-width="5" points="532.88,-1028.25 523.39,-1033.63 533.79,-1036.95 532.88,-1028.25"/>
<text text-anchor="middle" x="808.85" y="-993.39" font-family="Arial" font-size="20.00" fill="maroon">start_next: 03/11/18, 22:31:07</text>
<text text-anchor="middle" x="808.85" y="-971.39" font-family="Arial" font-size="20.00" fill="maroon">gap: &#45;24sec</text>
<text text-anchor="middle" x="808.85" y="-949.39" font-family="Arial" font-size="20.00" fill="maroon">end_prev: 03/11/18, 22:31:31</text>
</g>
<!-- DATA MANIPULATION
http | ID: 13 -->
<g id="node9" class="node">
<title>DATA MANIPULATION
http | ID: 13</title>
<g id="a_node9"><a xlink:title="ET WEB_SERVER Possible SQL Injection Attempt UNION SELECT&#10;ET WEB_SERVER Possible SQL Injection Attempt SELECT FROM&#10;ET WEB_SERVER MYSQL SELECT CONCAT SQL Injection Attempt">
<polygon fill="none" stroke="black" stroke-width="3" points="553.73,-1208.38 445.04,-1257.36 227.66,-1257.36 118.98,-1208.38 227.66,-1159.4 445.04,-1159.4 553.73,-1208.38"/>
<text text-anchor="middle" x="336.35" y="-1215.18" font-family="Arial" font-size="24.00">DATA MANIPULATION</text>
<text text-anchor="middle" x="336.35" y="-1189.18" font-family="Arial" font-size="24.00">http | ID: 13</text>
</a>
</g>
</g>
<!-- ROOT PRIVILEGE ESCALATION
http | ID: 51&#45;&gt;DATA MANIPULATION
http | ID: 13 -->
<g id="edge7" class="edge">
<title>ROOT PRIVILEGE ESCALATION
http | ID: 51&#45;&gt;DATA MANIPULATION
http | ID: 13</title>
<path fill="none" stroke="maroon" stroke-width="5" d="M148.95,-1060.53C87.78,-1066.42 32.94,-1074.6 23.35,-1085.39 3.87,-1107.32 4.53,-1128.9 23.35,-1151.39 40.16,-1171.47 87.47,-1184.35 140.39,-1192.62"/>
<polygon fill="maroon" stroke="maroon" stroke-width="5" points="139.79,-1196.95 150.32,-1194.11 141.08,-1188.3 139.79,-1196.95"/>
<text text-anchor="middle" x="175.85" y="-1135.39" font-family="Arial" font-size="20.00" fill="maroon">start_next: 03/11/18, 14:42:26</text>
<text text-anchor="middle" x="175.85" y="-1113.39" font-family="Arial" font-size="20.00" fill="maroon">gap: &#45;4sec</text>
<text text-anchor="middle" x="175.85" y="-1091.39" font-family="Arial" font-size="20.00" fill="maroon">end_prev: 03/11/18, 14:42:30</text>
</g>
<!-- ROOT PRIVILEGE ESCALATION
http | ID: 51&#45;&gt;DATA MANIPULATION
http | ID: 13 -->
<g id="edge17" class="edge">
<title>ROOT PRIVILEGE ESCALATION
http | ID: 51&#45;&gt;DATA MANIPULATION
http | ID: 13</title>
<path fill="none" stroke="maroon" stroke-width="5" d="M336.35,-1077.55C336.35,-1097.55 336.35,-1124.78 336.35,-1149.13"/>
<polygon fill="maroon" stroke="maroon" stroke-width="5" points="331.98,-1149.37 336.35,-1159.37 340.73,-1149.37 331.98,-1149.37"/>
<text text-anchor="middle" x="488.85" y="-1135.39" font-family="Arial" font-size="20.00" fill="maroon">start_next: 03/11/18, 17:38:01</text>
<text text-anchor="middle" x="488.85" y="-1113.39" font-family="Arial" font-size="20.00" fill="maroon">gap: &#45;14sec</text>
<text text-anchor="middle" x="488.85" y="-1091.39" font-family="Arial" font-size="20.00" fill="maroon">end_prev: 03/11/18, 17:38:15</text>
</g>
<!-- ROOT PRIVILEGE ESCALATION
http | ID: 51&#45;&gt;DATA MANIPULATION
http | ID: 13 -->
<g id="edge28" class="edge">
<title>ROOT PRIVILEGE ESCALATION
http | ID: 51&#45;&gt;DATA MANIPULATION
http | ID: 13</title>
<path fill="none" stroke="maroon" stroke-width="5" d="M523.39,-1061.15C581.64,-1067.04 633.19,-1075.05 642.35,-1085.39 661.81,-1107.34 661.14,-1128.86 642.35,-1151.39 626.26,-1170.69 581.45,-1183.36 530.91,-1191.66"/>
<polygon fill="maroon" stroke="maroon" stroke-width="5" points="529.93,-1187.39 520.73,-1193.27 531.29,-1196.03 529.93,-1187.39"/>
<text text-anchor="middle" x="808.85" y="-1135.39" font-family="Arial" font-size="20.00" fill="maroon">start_next: 03/11/18, 22:31:09</text>
<text text-anchor="middle" x="808.85" y="-1113.39" font-family="Arial" font-size="20.00" fill="maroon">gap: &#45;8sec</text>
<text text-anchor="middle" x="808.85" y="-1091.39" font-family="Arial" font-size="20.00" fill="maroon">end_prev: 03/11/18, 22:31:17</text>
</g>
<!-- SURFING
http -->
<g id="node10" class="node">
<title>SURFING
http</title>
<g id="a_node10"><a xlink:title="ET WEB_SERVER WEB&#45;PHP phpinfo access">
<ellipse fill="none" stroke="black" stroke-width="3" cx="336.35" cy="-1381.8" rx="86.03" ry="42.35"/>
<text text-anchor="middle" x="336.35" y="-1388.6" font-family="Arial" font-size="24.00">SURFING</text>
<text text-anchor="middle" x="336.35" y="-1362.6" font-family="Arial" font-size="24.00">http</text>
</a>
</g>
</g>
<!-- DATA MANIPULATION
http | ID: 13&#45;&gt;SURFING
http -->
<g id="edge8" class="edge">
<title>DATA MANIPULATION
http | ID: 13&#45;&gt;SURFING
http</title>
<path fill="none" stroke="maroon" stroke-width="5" d="M150.32,-1222.65C93.48,-1230.83 41.2,-1244.05 23.35,-1265.37 4.53,-1287.86 4.3,-1309.07 23.35,-1331.37 50.86,-1363.56 158.43,-1374.91 239.85,-1378.84"/>
<polygon fill="maroon" stroke="maroon" stroke-width="5" points="239.96,-1383.23 250.15,-1379.31 240.36,-1374.48 239.96,-1383.23"/>
<text text-anchor="middle" x="175.85" y="-1315.37" font-family="Arial" font-size="20.00" fill="maroon">start_next: 03/11/18, 14:42:26</text>
<text text-anchor="middle" x="175.85" y="-1293.37" font-family="Arial" font-size="20.00" fill="maroon">gap: &#45;3sec</text>
<text text-anchor="middle" x="175.85" y="-1271.37" font-family="Arial" font-size="20.00" fill="maroon">end_prev: 03/11/18, 14:42:29</text>
</g>
<!-- DATA MANIPULATION
http | ID: 13&#45;&gt;SURFING
http -->
<g id="edge18" class="edge">
<title>DATA MANIPULATION
http | ID: 13&#45;&gt;SURFING
http</title>
<path fill="none" stroke="maroon" stroke-width="5" d="M336.35,-1257.59C336.35,-1279.91 336.35,-1306.47 336.35,-1329.2"/>
<polygon fill="maroon" stroke="maroon" stroke-width="5" points="331.98,-1329.35 336.35,-1339.35 340.73,-1329.35 331.98,-1329.35"/>
<text text-anchor="middle" x="488.85" y="-1315.37" font-family="Arial" font-size="20.00" fill="maroon">start_next: 03/11/18, 17:38:01</text>
<text text-anchor="middle" x="488.85" y="-1293.37" font-family="Arial" font-size="20.00" fill="maroon">gap: &#45;10sec</text>
<text text-anchor="middle" x="488.85" y="-1271.37" font-family="Arial" font-size="20.00" fill="maroon">end_prev: 03/11/18, 17:38:11</text>
</g>
<!-- DATA MANIPULATION
http | ID: 13&#45;&gt;SURFING
http -->
<g id="edge29" class="edge">
<title>DATA MANIPULATION
http | ID: 13&#45;&gt;SURFING
http</title>
<path fill="none" stroke="maroon" stroke-width="5" d="M520.73,-1223.49C575.34,-1231.74 625.19,-1244.78 642.35,-1265.37 661.14,-1287.9 661.37,-1309.04 642.35,-1331.37 615.71,-1362.66 511.96,-1374.21 432.58,-1378.43"/>
<polygon fill="maroon" stroke="maroon" stroke-width="5" points="432.3,-1374.06 422.53,-1378.93 432.74,-1382.8 432.3,-1374.06"/>
<text text-anchor="middle" x="808.85" y="-1315.37" font-family="Arial" font-size="20.00" fill="maroon">start_next: 03/11/18, 22:31:09</text>
<text text-anchor="middle" x="808.85" y="-1293.37" font-family="Arial" font-size="20.00" fill="maroon">gap: &#45;6sec</text>
<text text-anchor="middle" x="808.85" y="-1271.37" font-family="Arial" font-size="20.00" fill="maroon">end_prev: 03/11/18, 22:31:15</text>
</g>
<!-- ACCOUNT MANIPULATION
http | ID: 98 -->
<g id="node11" class="node">
<title>ACCOUNT MANIPULATION
http | ID: 98</title>
<g id="a_node11"><a xlink:title="GPL EXPLOIT /iisadmpwd/aexp2.htr access&#10;ET WEB_SERVER SELECT USER SQL Injection Attempt in URI">
<polygon fill="none" stroke="black" stroke-width="3" points="497.85,-1566.22 174.85,-1566.22 174.85,-1506.22 497.85,-1506.22 497.85,-1566.22"/>
<text text-anchor="middle" x="336.35" y="-1543.02" font-family="Arial" font-size="24.00">ACCOUNT MANIPULATION</text>
<text text-anchor="middle" x="336.35" y="-1517.02" font-family="Arial" font-size="24.00">http | ID: 98</text>
</a>
</g>
</g>
<!-- SURFING
http&#45;&gt;ACCOUNT MANIPULATION
http | ID: 98 -->
<g id="edge9" class="edge">
<title>SURFING
http&#45;&gt;ACCOUNT MANIPULATION
http | ID: 98</title>
<path fill="none" stroke="maroon" stroke-width="5" d="M250.15,-1384.29C167.78,-1387.75 52.03,-1398.66 23.35,-1432.22 4.3,-1454.52 3.87,-1476.3 23.35,-1498.22 33.73,-1509.89 97.07,-1518.51 164.09,-1524.48"/>
<polygon fill="maroon" stroke="maroon" stroke-width="5" points="164.09,-1528.87 174.43,-1525.38 164.85,-1520.16 164.09,-1528.87"/>
<text text-anchor="middle" x="175.85" y="-1482.22" font-family="Arial" font-size="20.00" fill="maroon">start_next: 03/11/18, 14:42:27</text>
<text text-anchor="middle" x="175.85" y="-1460.22" font-family="Arial" font-size="20.00" fill="maroon">gap: &#45;9sec</text>
<text text-anchor="middle" x="175.85" y="-1438.22" font-family="Arial" font-size="20.00" fill="maroon">end_prev: 03/11/18, 14:42:36</text>
</g>
<!-- SURFING
http&#45;&gt;ACCOUNT MANIPULATION
http | ID: 98 -->
<g id="edge19" class="edge">
<title>SURFING
http&#45;&gt;ACCOUNT MANIPULATION
http | ID: 98</title>
<path fill="none" stroke="maroon" stroke-width="5" d="M336.35,-1424.45C336.35,-1446.72 336.35,-1473.98 336.35,-1495.89"/>
<polygon fill="maroon" stroke="maroon" stroke-width="5" points="331.98,-1496.17 336.35,-1506.17 340.73,-1496.17 331.98,-1496.17"/>
<text text-anchor="middle" x="488.85" y="-1482.22" font-family="Arial" font-size="20.00" fill="maroon">start_next: 03/11/18, 17:38:05</text>
<text text-anchor="middle" x="488.85" y="-1460.22" font-family="Arial" font-size="20.00" fill="maroon">gap: &#45;33sec</text>
<text text-anchor="middle" x="488.85" y="-1438.22" font-family="Arial" font-size="20.00" fill="maroon">end_prev: 03/11/18, 17:38:38</text>
</g>
<!-- SURFING
http&#45;&gt;ACCOUNT MANIPULATION
http | ID: 98 -->
<g id="edge30" class="edge">
<title>SURFING
http&#45;&gt;ACCOUNT MANIPULATION
http | ID: 98</title>
<path fill="none" stroke="maroon" stroke-width="5" d="M422.53,-1384.66C502.94,-1388.44 614.57,-1399.6 642.35,-1432.22 661.37,-1454.56 661.81,-1476.27 642.35,-1498.22 632.41,-1509.44 572.59,-1517.92 508.44,-1523.92"/>
<polygon fill="maroon" stroke="maroon" stroke-width="5" points="507.68,-1519.59 498.12,-1524.86 508.47,-1528.31 507.68,-1519.59"/>
<text text-anchor="middle" x="808.85" y="-1482.22" font-family="Arial" font-size="20.00" fill="maroon">start_next: 03/11/18, 22:31:11</text>
<text text-anchor="middle" x="808.85" y="-1460.22" font-family="Arial" font-size="20.00" fill="maroon">gap: &#45;18sec</text>
<text text-anchor="middle" x="808.85" y="-1438.22" font-family="Arial" font-size="20.00" fill="maroon">end_prev: 03/11/18, 22:31:30</text>
</g>
<!-- RESOURCE HIJACKING
http | ID: 52 -->
<g id="node12" class="node">
<title>RESOURCE HIJACKING
http | ID: 52</title>
<g id="a_node12"><a xlink:title="GPL WEB_SERVER Oracle Java Process Manager access">
<polygon fill="none" stroke="black" stroke-width="3" points="562.69,-1697.21 449.52,-1746.19 223.18,-1746.19 110.01,-1697.21 223.18,-1648.23 449.52,-1648.23 562.69,-1697.21"/>
<text text-anchor="middle" x="336.35" y="-1704.01" font-family="Arial" font-size="24.00">RESOURCE HIJACKING</text>
<text text-anchor="middle" x="336.35" y="-1678.01" font-family="Arial" font-size="24.00">http | ID: 52</text>
</a>
</g>
</g>
<!-- ACCOUNT MANIPULATION
http | ID: 98&#45;&gt;RESOURCE HIJACKING
http | ID: 52 -->
<g id="edge10" class="edge">
<title>ACCOUNT MANIPULATION
http | ID: 98&#45;&gt;RESOURCE HIJACKING
http | ID: 52</title>
<path fill="none" stroke="maroon" stroke-width="5" d="M174.43,-1547.07C103.71,-1553.06 34.26,-1561.95 23.35,-1574.22 3.87,-1596.15 4.53,-1617.73 23.35,-1640.22 39.55,-1659.57 84.08,-1672.24 134.65,-1680.53"/>
<polygon fill="maroon" stroke="maroon" stroke-width="5" points="134.28,-1684.9 144.84,-1682.13 135.64,-1676.26 134.28,-1684.9"/>
<text text-anchor="middle" x="175.85" y="-1624.22" font-family="Arial" font-size="20.00" fill="maroon">start_next: 03/11/18, 14:42:29</text>
<text text-anchor="middle" x="175.85" y="-1602.22" font-family="Arial" font-size="20.00" fill="maroon">gap: 0sec</text>
<text text-anchor="middle" x="175.85" y="-1580.22" font-family="Arial" font-size="20.00" fill="maroon">end_prev: 03/11/18, 14:42:29</text>
</g>
<!-- ACCOUNT MANIPULATION
http | ID: 98&#45;&gt;RESOURCE HIJACKING
http | ID: 52 -->
<g id="edge20" class="edge">
<title>ACCOUNT MANIPULATION
http | ID: 98&#45;&gt;RESOURCE HIJACKING
http | ID: 52</title>
<path fill="none" stroke="maroon" stroke-width="5" d="M336.35,-1566.38C336.35,-1586.39 336.35,-1613.61 336.35,-1637.97"/>
<polygon fill="maroon" stroke="maroon" stroke-width="5" points="331.98,-1638.2 336.35,-1648.2 340.73,-1638.2 331.98,-1638.2"/>
<text text-anchor="middle" x="488.85" y="-1624.22" font-family="Arial" font-size="20.00" fill="maroon">start_next: 03/11/18, 17:38:11</text>
<text text-anchor="middle" x="488.85" y="-1602.22" font-family="Arial" font-size="20.00" fill="maroon">gap: 0sec</text>
<text text-anchor="middle" x="488.85" y="-1580.22" font-family="Arial" font-size="20.00" fill="maroon">end_prev: 03/11/18, 17:38:11</text>
</g>
<!-- ACCOUNT MANIPULATION
http | ID: 98&#45;&gt;RESOURCE HIJACKING
http | ID: 52 -->
<g id="edge31" class="edge">
<title>ACCOUNT MANIPULATION
http | ID: 98&#45;&gt;RESOURCE HIJACKING
http | ID: 52</title>
<path fill="none" stroke="maroon" stroke-width="5" d="M498.12,-1547.59C566.05,-1553.63 631.88,-1562.41 642.35,-1574.22 661.81,-1596.17 661.14,-1617.69 642.35,-1640.22 626.82,-1658.85 584.53,-1671.3 536.16,-1679.61"/>
<polygon fill="maroon" stroke="maroon" stroke-width="5" points="535.24,-1675.33 526.08,-1681.27 536.66,-1683.96 535.24,-1675.33"/>
<text text-anchor="middle" x="808.85" y="-1624.22" font-family="Arial" font-size="20.00" fill="maroon">start_next: 03/11/18, 22:31:15</text>
<text text-anchor="middle" x="808.85" y="-1602.22" font-family="Arial" font-size="20.00" fill="maroon">gap: 0sec</text>
<text text-anchor="middle" x="808.85" y="-1580.22" font-family="Arial" font-size="20.00" fill="maroon">end_prev: 03/11/18, 22:31:15</text>
</g>
<!-- RESOURCE HIJACKING
http | ID: 52&#45;&gt;DATA DELIVERY
http | ID: 14 -->
<g id="edge11" class="edge">
<title>RESOURCE HIJACKING
http | ID: 52&#45;&gt;DATA DELIVERY
http | ID: 14</title>
<path fill="none" stroke="maroon" stroke-width="5" d="M144.84,-1712.29C90.14,-1720.53 40.63,-1733.57 23.35,-1754.2 4.53,-1776.7 4.53,-1797.71 23.35,-1820.2 44.04,-1844.92 110.96,-1858.73 177.64,-1866.45"/>
<polygon fill="maroon" stroke="maroon" stroke-width="5" points="177.48,-1870.84 187.9,-1867.59 178.45,-1862.14 177.48,-1870.84"/>
<text text-anchor="middle" x="175.85" y="-1804.2" font-family="Arial" font-size="20.00" fill="maroon">start_next: 03/11/18, 14:42:31</text>
<text text-anchor="middle" x="175.85" y="-1782.2" font-family="Arial" font-size="20.00" fill="maroon">gap: 2sec</text>
<text text-anchor="middle" x="175.85" y="-1760.2" font-family="Arial" font-size="20.00" fill="maroon">end_prev: 03/11/18, 14:42:29</text>
</g>
<!-- RESOURCE HIJACKING
http | ID: 52&#45;&gt;DATA DELIVERY
http | ID: 14 -->
<g id="edge21" class="edge">
<title>RESOURCE HIJACKING
http | ID: 52&#45;&gt;DATA DELIVERY
http | ID: 14</title>
<path fill="none" stroke="maroon" stroke-width="5" d="M336.35,-1746.38C336.35,-1768.44 336.35,-1794.77 336.35,-1817.94"/>
<polygon fill="maroon" stroke="maroon" stroke-width="5" points="331.98,-1817.99 336.35,-1827.99 340.73,-1817.99 331.98,-1817.99"/>
<text text-anchor="middle" x="488.85" y="-1804.2" font-family="Arial" font-size="20.00" fill="maroon">start_next: 03/11/18, 17:38:18</text>
<text text-anchor="middle" x="488.85" y="-1782.2" font-family="Arial" font-size="20.00" fill="maroon">gap: 7sec</text>
<text text-anchor="middle" x="488.85" y="-1760.2" font-family="Arial" font-size="20.00" fill="maroon">end_prev: 03/11/18, 17:38:11</text>
</g>
<!-- RESOURCE HIJACKING
http | ID: 52&#45;&gt;DATA DELIVERY
http | ID: 14 -->
<g id="edge32" class="edge">
<title>RESOURCE HIJACKING
http | ID: 52&#45;&gt;DATA DELIVERY
http | ID: 14</title>
<path fill="none" stroke="maroon" stroke-width="5" d="M526.08,-1713.15C578.57,-1721.44 625.75,-1734.29 642.35,-1754.2 661.14,-1776.73 661.14,-1797.67 642.35,-1820.2 622.37,-1844.17 558.07,-1857.91 493.53,-1865.77"/>
<polygon fill="maroon" stroke="maroon" stroke-width="5" points="493.02,-1861.43 483.6,-1866.94 494.04,-1870.12 493.02,-1861.43"/>
<text text-anchor="middle" x="808.85" y="-1804.2" font-family="Arial" font-size="20.00" fill="maroon">start_next: 03/11/18, 22:31:19</text>
<text text-anchor="middle" x="808.85" y="-1782.2" font-family="Arial" font-size="20.00" fill="maroon">gap: 4sec</text>
<text text-anchor="middle" x="808.85" y="-1760.2" font-family="Arial" font-size="20.00" fill="maroon">end_prev: 03/11/18, 22:31:15</text>
</g>
<!-- SERVICE DISCOVERY
unknown -->
<g id="node13" class="node">
<title>SERVICE DISCOVERY
unknown</title>
<g id="a_node13"><a xlink:title="ET SCAN Potential VNC Scan 5800&#45;5820&#10;ET SCAN Potential VNC Scan 5900&#45;5920&#10;ET SCAN NMAP SIP Version Detection Script Activity">
<ellipse fill="yellow" stroke="black" stroke-width="3" cx="336.35" cy="-42.43" rx="184.61" ry="42.35"/>
<text text-anchor="middle" x="336.35" y="-49.23" font-family="Arial" font-size="24.00">SERVICE DISCOVERY</text>
<text text-anchor="middle" x="336.35" y="-23.23" font-family="Arial" font-size="24.00">unknown</text>
</a>
</g>
</g>
<!-- SERVICE DISCOVERY
unknown&#45;&gt;HOST DISCOVERY
http -->
<g id="edge22" class="edge">
<title>SERVICE DISCOVERY
unknown&#45;&gt;HOST DISCOVERY
http</title>
<path fill="none" stroke="maroon" stroke-width="5" d="M336.35,-84.91C336.35,-110.44 336.35,-143.37 336.35,-170.59"/>
<polygon fill="maroon" stroke="maroon" stroke-width="5" points="331.98,-170.71 336.35,-180.71 340.73,-170.71 331.98,-170.71"/>
<text text-anchor="start" x="336.35" y="-157.85" font-family="Arial" font-size="20.00" fill="maroon"> start_next: 03/11/18, 22:31:03</text>
<text text-anchor="start" x="417.85" y="-137.85" font-family="Arial" font-size="20.00" fill="maroon">gap: 16951sec</text>
<text text-anchor="start" x="344.35" y="-117.85" font-family="Arial" font-size="20.00" fill="maroon">end_prev: 03/11/18, 17:48:31</text>
<text text-anchor="start" x="360.35" y="-97.85" font-family="Arial" font-weight="bold" font-size="20.00" fill="maroon">Attacker: 10.0.254.204</text>
</g>
</g>
</svg>
