<?xml version="1.0" encoding="UTF-8" standalone="no"?>
<!DOCTYPE svg PUBLIC "-//W3C//DTD SVG 1.1//EN"
 "http://www.w3.org/Graphics/SVG/1.1/DTD/svg11.dtd">
<!-- Generated by graphviz version 2.43.0 (0)
 -->
<!-- Title: DATAEXFILTRATIONwapwsp Pages: 1 -->
<svg width="873pt" height="1625pt"
 viewBox="0.00 0.00 873.29 1624.57" xmlns="http://www.w3.org/2000/svg" xmlns:xlink="http://www.w3.org/1999/xlink">
<g id="graph0" class="graph" transform="scale(1 1) rotate(0) translate(4 1620.57)">
<title>DATAEXFILTRATIONwapwsp</title>
<polygon fill="white" stroke="transparent" points="-4,4 -4,-1620.57 869.29,-1620.57 869.29,4 -4,4"/>
<!-- Victim: 10.0.0.24
DATA EXFILTRATION
wap&#45;wsp -->
<g id="node1" class="node">
<title>Victim: 10.0.0.24
DATA EXFILTRATION
wap&#45;wsp</title>
<polygon fill="salmon" stroke="black" stroke-width="3" points="430.51,-1519.56 430.51,-1573.95 317.91,-1612.4 158.68,-1612.4 46.08,-1573.95 46.08,-1519.56 158.68,-1481.1 317.91,-1481.1 430.51,-1519.56"/>
<polygon fill="none" stroke="black" stroke-width="3" points="434.51,-1516.71 434.51,-1576.8 318.58,-1616.39 158.01,-1616.39 42.08,-1576.8 42.08,-1516.71 158.01,-1477.11 318.58,-1477.11 434.51,-1516.71"/>
<text text-anchor="middle" x="238.29" y="-1566.55" font-family="Arial" font-size="24.00">Victim: 10.0.0.24</text>
<text text-anchor="middle" x="238.29" y="-1540.55" font-family="Arial" font-size="24.00">DATA EXFILTRATION</text>
<text text-anchor="middle" x="238.29" y="-1514.55" font-family="Arial" font-size="24.00">wap&#45;wsp</text>
</g>
<!-- DATA EXFILTRATION
wap&#45;wsp | ID: 21 -->
<g id="node2" class="node">
<title>DATA EXFILTRATION
wap&#45;wsp | ID: 21</title>
<g id="a_node2"><a xlink:title="GPL EXPLOIT ISAPI .ida access&#10;ET WEB_SERVER /system32/ in Uri &#45; Possible Protected Directory Access Attempt&#10;GPL WEB_SERVER Tomcat server snoop access&#10;GPL EXPLOIT /msadc/samples/ access&#10;ET WEB_SPECIFIC_APPS PHP&#45;CGI query string parameter vulnerability&#10;GPL EXPLOIT ISAPI .idq access&#10;ET WEB_SERVER /etc/shadow Detected in URI">
<polygon fill="salmon" stroke="black" stroke-width="3" points="443.18,-1410.94 340.74,-1459.92 135.85,-1459.92 33.41,-1410.94 135.85,-1361.96 340.74,-1361.96 443.18,-1410.94"/>
<text text-anchor="middle" x="238.29" y="-1417.74" font-family="Arial" font-size="24.00">DATA EXFILTRATION</text>
<text text-anchor="middle" x="238.29" y="-1391.74" font-family="Arial" font-size="24.00">wap&#45;wsp | ID: 21</text>
</a>
</g>
</g>
<!-- DATA EXFILTRATION
wap&#45;wsp | ID: 21&#45;&gt;Victim: 10.0.0.24
DATA EXFILTRATION
wap&#45;wsp -->
<g id="edge1" class="edge">
<title>DATA EXFILTRATION
wap&#45;wsp | ID: 21&#45;&gt;Victim: 10.0.0.24
DATA EXFILTRATION
wap&#45;wsp</title>
<path fill="none" stroke="black" stroke-width="5" d="M238.29,-1460.25C238.29,-1462.35 238.29,-1464.49 238.29,-1466.64"/>
<polygon fill="black" stroke="black" stroke-width="5" points="233.92,-1466.79 238.29,-1476.79 242.67,-1466.79 233.92,-1466.79"/>
</g>
<!-- HOST DISCOVERY
http -->
<g id="node3" class="node">
<title>HOST DISCOVERY
http</title>
<g id="a_node3"><a xlink:title="ET SCAN Possible Nmap User&#45;Agent Observed&#10;ET SCAN Nmap Scripting Engine User&#45;Agent Detected (Nmap Scripting Engine)">
<ellipse fill="yellow" stroke="black" stroke-width="3" cx="238.29" cy="-42.43" rx="161.44" ry="42.35"/>
<text text-anchor="middle" x="238.29" y="-49.23" font-family="Arial" font-size="24.00">HOST DISCOVERY</text>
<text text-anchor="middle" x="238.29" y="-23.23" font-family="Arial" font-size="24.00">http</text>
</a>
</g>
</g>
<!-- VULNERABILTY DISCOVERY
ms&#45;sql&#45;s -->
<g id="node4" class="node">
<title>VULNERABILTY DISCOVERY
ms&#45;sql&#45;s</title>
<g id="a_node4"><a xlink:title="ET SCAN Suspicious inbound to Oracle SQL port 1521&#10;ET SCAN Suspicious inbound to MSSQL port 1433&#10;ET SCAN Suspicious inbound to mySQL port 3306&#10;ET SCAN Nikto Web App Scan in Progress&#10;ET SCAN Suspicious inbound to PostgreSQL port 5432&#10;ET SCAN Suspicious inbound to mSQL port 4333">
<ellipse fill="none" stroke="black" stroke-width="3" cx="238.29" cy="-223.28" rx="238.09" ry="42.35"/>
<text text-anchor="middle" x="238.29" y="-230.08" font-family="Arial" font-size="24.00">VULNERABILTY DISCOVERY</text>
<text text-anchor="middle" x="238.29" y="-204.08" font-family="Arial" font-size="24.00">ms&#45;sql&#45;s</text>
</a>
</g>
</g>
<!-- HOST DISCOVERY
http&#45;&gt;VULNERABILTY DISCOVERY
ms&#45;sql&#45;s -->
<g id="edge2" class="edge">
<title>HOST DISCOVERY
http&#45;&gt;VULNERABILTY DISCOVERY
ms&#45;sql&#45;s</title>
<path fill="none" stroke="maroon" stroke-width="5" d="M109.28,-67.9C98.47,-74.42 88.82,-82.6 81.29,-92.85 60.26,-121.52 60.26,-144.18 81.29,-172.85 83.67,-176.1 86.27,-179.13 89.04,-181.98"/>
<polygon fill="maroon" stroke="maroon" stroke-width="5" points="86.46,-185.54 96.79,-189.05 92.36,-179.08 86.46,-185.54"/>
<text text-anchor="start" x="81.29" y="-157.85" font-family="Arial" font-size="20.00" fill="maroon"> start_next: 03/11/18, 14:52:49</text>
<text text-anchor="start" x="188.29" y="-137.85" font-family="Arial" font-size="20.00" fill="maroon">gap: 3sec</text>
<text text-anchor="start" x="89.29" y="-117.85" font-family="Arial" font-size="20.00" fill="maroon">end_prev: 03/11/18, 14:52:45</text>
<text text-anchor="start" x="105.29" y="-97.85" font-family="Arial" font-weight="bold" font-size="20.00" fill="maroon">Attacker: 10.0.254.201</text>
</g>
<!-- HOST DISCOVERY
http&#45;&gt;VULNERABILTY DISCOVERY
ms&#45;sql&#45;s -->
<g id="edge10" class="edge">
<title>HOST DISCOVERY
http&#45;&gt;VULNERABILTY DISCOVERY
ms&#45;sql&#45;s</title>
<path fill="none" stroke="maroon" stroke-width="5" d="M363.49,-69.19C373.45,-75.48 382.33,-83.25 389.29,-92.85 410.16,-121.64 410.16,-144.07 389.29,-172.85 387.19,-175.76 384.91,-178.49 382.48,-181.07"/>
<polygon fill="maroon" stroke="maroon" stroke-width="5" points="379.03,-178.3 374.75,-188.34 385.03,-184.68 379.03,-178.3"/>
<text text-anchor="start" x="404.29" y="-157.85" font-family="Arial" font-size="20.00" fill="maroon"> start_next: 03/11/18, 17:37:53</text>
<text text-anchor="start" x="511.29" y="-137.85" font-family="Arial" font-size="20.00" fill="maroon">gap: 5sec</text>
<text text-anchor="start" x="412.29" y="-117.85" font-family="Arial" font-size="20.00" fill="maroon">end_prev: 03/11/18, 17:37:48</text>
<text text-anchor="start" x="428.29" y="-97.85" font-family="Arial" font-weight="bold" font-size="20.00" fill="maroon">Attacker: 10.0.254.204</text>
</g>
<!-- INFO DISCOVERY
http -->
<g id="node5" class="node">
<title>INFO DISCOVERY
http</title>
<g id="a_node5"><a xlink:title="GPL EXPLOIT .cnf access&#10;GPL WEB_SERVER iisadmin access&#10;GPL WEB_SERVER .htpasswd access&#10;GPL WEB_SERVER printenv access&#10;GPL WEB_SERVER .htaccess access&#10;ET POLICY Proxy TRACE Request &#45; inbound&#10;GPL WEB_SERVER /~root access&#10;GPL EXPLOIT .htr access">
<ellipse fill="none" stroke="black" stroke-width="3" cx="238.29" cy="-390.13" rx="154.3" ry="42.35"/>
<text text-anchor="middle" x="238.29" y="-396.93" font-family="Arial" font-size="24.00">INFO DISCOVERY</text>
<text text-anchor="middle" x="238.29" y="-370.93" font-family="Arial" font-size="24.00">http</text>
</a>
</g>
</g>
<!-- VULNERABILTY DISCOVERY
ms&#45;sql&#45;s&#45;&gt;INFO DISCOVERY
http -->
<g id="edge3" class="edge">
<title>VULNERABILTY DISCOVERY
ms&#45;sql&#45;s&#45;&gt;INFO DISCOVERY
http</title>
<path fill="none" stroke="maroon" stroke-width="5" d="M99.15,-258C93.61,-262.6 88.6,-267.81 84.29,-273.71 67.01,-297.41 67.01,-316.01 84.29,-339.71 89.94,-347.45 96.83,-354.01 104.51,-359.56"/>
<polygon fill="maroon" stroke="maroon" stroke-width="5" points="102.38,-363.4 113.15,-365.2 107.17,-356.07 102.38,-363.4"/>
<text text-anchor="middle" x="236.79" y="-323.71" font-family="Arial" font-size="20.00" fill="maroon">start_next: 03/11/18, 14:52:49</text>
<text text-anchor="middle" x="236.79" y="-301.71" font-family="Arial" font-size="20.00" fill="maroon">gap: &#45;313sec</text>
<text text-anchor="middle" x="236.79" y="-279.71" font-family="Arial" font-size="20.00" fill="maroon">end_prev: 03/11/18, 14:58:02</text>
</g>
<!-- VULNERABILTY DISCOVERY
ms&#45;sql&#45;s&#45;&gt;INFO DISCOVERY
http -->
<g id="edge11" class="edge">
<title>VULNERABILTY DISCOVERY
ms&#45;sql&#45;s&#45;&gt;INFO DISCOVERY
http</title>
<path fill="none" stroke="maroon" stroke-width="5" d="M372.06,-258.44C377.37,-262.93 382.18,-267.99 386.29,-273.71 403.44,-297.51 403.44,-315.9 386.29,-339.71 381.17,-346.81 374.98,-352.92 368.08,-358.15"/>
<polygon fill="maroon" stroke="maroon" stroke-width="5" points="365.45,-354.65 359.66,-363.91 370.39,-361.87 365.45,-354.65"/>
<text text-anchor="middle" x="550.79" y="-323.71" font-family="Arial" font-size="20.00" fill="maroon">start_next: 03/11/18, 17:37:53</text>
<text text-anchor="middle" x="550.79" y="-301.71" font-family="Arial" font-size="20.00" fill="maroon">gap: &#45;292sec</text>
<text text-anchor="middle" x="550.79" y="-279.71" font-family="Arial" font-size="20.00" fill="maroon">end_prev: 03/11/18, 17:42:44</text>
</g>
<!-- DATA EXFILTRATION
http | ID: 12 -->
<g id="node6" class="node">
<title>DATA EXFILTRATION
http | ID: 12</title>
<g id="a_node6"><a xlink:title="GPL EXPLOIT ISAPI .ida access&#10;GPL EXPLOIT ISAPI .idq access">
<polygon fill="none" stroke="black" stroke-width="3" points="443.18,-563.55 340.74,-612.53 135.85,-612.53 33.41,-563.55 135.85,-514.57 340.74,-514.57 443.18,-563.55"/>
<text text-anchor="middle" x="238.29" y="-570.35" font-family="Arial" font-size="24.00">DATA EXFILTRATION</text>
<text text-anchor="middle" x="238.29" y="-544.35" font-family="Arial" font-size="24.00">http | ID: 12</text>
</a>
</g>
</g>
<!-- INFO DISCOVERY
http&#45;&gt;DATA EXFILTRATION
http | ID: 12 -->
<g id="edge4" class="edge">
<title>INFO DISCOVERY
http&#45;&gt;DATA EXFILTRATION
http | ID: 12</title>
<path fill="none" stroke="maroon" stroke-width="5" d="M113.15,-415.06C101.97,-421.66 91.99,-430.01 84.29,-440.56 67.01,-464.26 67.47,-482.53 84.29,-506.56 88.35,-512.35 93.07,-517.55 98.29,-522.21"/>
<polygon fill="maroon" stroke="maroon" stroke-width="5" points="95.75,-525.77 106.27,-528.66 101.25,-518.97 95.75,-525.77"/>
<text text-anchor="middle" x="236.79" y="-490.56" font-family="Arial" font-size="20.00" fill="maroon">start_next: 03/11/18, 14:52:49</text>
<text text-anchor="middle" x="236.79" y="-468.56" font-family="Arial" font-size="20.00" fill="maroon">gap: &#45;3sec</text>
<text text-anchor="middle" x="236.79" y="-446.56" font-family="Arial" font-size="20.00" fill="maroon">end_prev: 03/11/18, 14:52:51</text>
</g>
<!-- INFO DISCOVERY
http&#45;&gt;DATA EXFILTRATION
http | ID: 12 -->
<g id="edge12" class="edge">
<title>INFO DISCOVERY
http&#45;&gt;DATA EXFILTRATION
http | ID: 12</title>
<path fill="none" stroke="maroon" stroke-width="5" d="M359.66,-416.36C369.98,-422.73 379.17,-430.67 386.29,-440.56 403.44,-464.36 402.97,-482.42 386.29,-506.56 382.84,-511.55 378.89,-516.1 374.53,-520.25"/>
<polygon fill="maroon" stroke="maroon" stroke-width="5" points="371.59,-517.01 366.86,-526.85 377.29,-523.65 371.59,-517.01"/>
<text text-anchor="middle" x="550.79" y="-490.56" font-family="Arial" font-size="20.00" fill="maroon">start_next: 03/11/18, 17:37:54</text>
<text text-anchor="middle" x="550.79" y="-468.56" font-family="Arial" font-size="20.00" fill="maroon">gap: &#45;3sec</text>
<text text-anchor="middle" x="550.79" y="-446.56" font-family="Arial" font-size="20.00" fill="maroon">end_prev: 03/11/18, 17:37:57</text>
</g>
<!-- SERVICE DISCOVERY
unknown -->
<g id="node7" class="node">
<title>SERVICE DISCOVERY
unknown</title>
<g id="a_node7"><a xlink:title="ET SCAN Potential VNC Scan 5800&#45;5820&#10;ET SCAN Potential VNC Scan 5900&#45;5920&#10;ET SCAN Potential SSH Scan&#10;ET SCAN NMAP OS Detection Probe">
<ellipse fill="none" stroke="black" stroke-width="3" cx="238.29" cy="-736.96" rx="184.61" ry="42.35"/>
<text text-anchor="middle" x="238.29" y="-743.76" font-family="Arial" font-size="24.00">SERVICE DISCOVERY</text>
<text text-anchor="middle" x="238.29" y="-717.76" font-family="Arial" font-size="24.00">unknown</text>
</a>
</g>
</g>
<!-- DATA EXFILTRATION
http | ID: 12&#45;&gt;SERVICE DISCOVERY
unknown -->
<g id="edge5" class="edge">
<title>DATA EXFILTRATION
http | ID: 12&#45;&gt;SERVICE DISCOVERY
unknown</title>
<path fill="none" stroke="maroon" stroke-width="5" d="M106.27,-598.44C97.84,-604.62 90.33,-611.92 84.29,-620.54 67.47,-644.56 67.01,-662.84 84.29,-686.54 88.2,-691.9 92.7,-696.69 97.65,-700.97"/>
<polygon fill="maroon" stroke="maroon" stroke-width="5" points="95.19,-704.6 105.77,-707.29 100.57,-697.7 95.19,-704.6"/>
<text text-anchor="middle" x="236.79" y="-670.54" font-family="Arial" font-size="20.00" fill="maroon">start_next: 03/11/18, 14:53:39</text>
<text text-anchor="middle" x="236.79" y="-648.54" font-family="Arial" font-size="20.00" fill="maroon">gap: 50sec</text>
<text text-anchor="middle" x="236.79" y="-626.54" font-family="Arial" font-size="20.00" fill="maroon">end_prev: 03/11/18, 14:52:49</text>
</g>
<!-- DATA EXFILTRATION
http | ID: 12&#45;&gt;SERVICE DISCOVERY
unknown -->
<g id="edge13" class="edge">
<title>DATA EXFILTRATION
http | ID: 12&#45;&gt;SERVICE DISCOVERY
unknown</title>
<path fill="none" stroke="maroon" stroke-width="5" d="M366.86,-600.25C374.28,-606.03 380.91,-612.74 386.29,-620.54 402.97,-644.67 403.44,-662.74 386.29,-686.54 382.74,-691.47 378.68,-695.91 374.22,-699.92"/>
<polygon fill="maroon" stroke="maroon" stroke-width="5" points="371.4,-696.57 366.36,-706.26 376.89,-703.38 371.4,-696.57"/>
<text text-anchor="middle" x="550.79" y="-670.54" font-family="Arial" font-size="20.00" fill="maroon">start_next: 03/11/18, 17:42:35</text>
<text text-anchor="middle" x="550.79" y="-648.54" font-family="Arial" font-size="20.00" fill="maroon">gap: 281sec</text>
<text text-anchor="middle" x="550.79" y="-626.54" font-family="Arial" font-size="20.00" fill="maroon">end_prev: 03/11/18, 17:37:54</text>
</g>
<!-- HOST DISCOVERY
wap&#45;wsp -->
<g id="node8" class="node">
<title>HOST DISCOVERY
wap&#45;wsp</title>
<g id="a_node8"><a xlink:title="ET SCAN Possible Nmap User&#45;Agent Observed&#10;ET SCAN Nmap Scripting Engine User&#45;Agent Detected (Nmap Scripting Engine)">
<ellipse fill="none" stroke="black" stroke-width="3" cx="238.29" cy="-903.82" rx="161.44" ry="42.35"/>
<text text-anchor="middle" x="238.29" y="-910.62" font-family="Arial" font-size="24.00">HOST DISCOVERY</text>
<text text-anchor="middle" x="238.29" y="-884.62" font-family="Arial" font-size="24.00">wap&#45;wsp</text>
</a>
</g>
</g>
<!-- SERVICE DISCOVERY
unknown&#45;&gt;HOST DISCOVERY
wap&#45;wsp -->
<g id="edge6" class="edge">
<title>SERVICE DISCOVERY
unknown&#45;&gt;HOST DISCOVERY
wap&#45;wsp</title>
<path fill="none" stroke="maroon" stroke-width="5" d="M105.77,-766.64C97.58,-772.38 90.25,-779.22 84.29,-787.39 67.01,-811.09 67.01,-829.69 84.29,-853.39 89.47,-860.48 95.67,-866.58 102.58,-871.82"/>
<polygon fill="maroon" stroke="maroon" stroke-width="5" points="100.28,-875.54 111,-877.59 105.22,-868.33 100.28,-875.54"/>
<text text-anchor="middle" x="236.79" y="-837.39" font-family="Arial" font-size="20.00" fill="maroon">start_next: 03/11/18, 15:01:05</text>
<text text-anchor="middle" x="236.79" y="-815.39" font-family="Arial" font-size="20.00" fill="maroon">gap: 194sec</text>
<text text-anchor="middle" x="236.79" y="-793.39" font-family="Arial" font-size="20.00" fill="maroon">end_prev: 03/11/18, 14:57:51</text>
</g>
<!-- SERVICE DISCOVERY
unknown&#45;&gt;HOST DISCOVERY
wap&#45;wsp -->
<g id="edge14" class="edge">
<title>SERVICE DISCOVERY
unknown&#45;&gt;HOST DISCOVERY
wap&#45;wsp</title>
<path fill="none" stroke="maroon" stroke-width="5" d="M366.36,-767.67C373.96,-773.18 380.75,-779.7 386.29,-787.39 403.44,-811.19 403.44,-829.59 386.29,-853.39 381.62,-859.88 376.05,-865.53 369.86,-870.45"/>
<polygon fill="maroon" stroke="maroon" stroke-width="5" points="367.29,-866.92 361.71,-876.3 372.39,-874.03 367.29,-866.92"/>
<text text-anchor="middle" x="550.79" y="-837.39" font-family="Arial" font-size="20.00" fill="maroon">start_next: 03/11/18, 17:59:39</text>
<text text-anchor="middle" x="550.79" y="-815.39" font-family="Arial" font-size="20.00" fill="maroon">gap: 938sec</text>
<text text-anchor="middle" x="550.79" y="-793.39" font-family="Arial" font-size="20.00" fill="maroon">end_prev: 03/11/18, 17:44:01</text>
</g>
<!-- VULNERABILTY DISCOVERY
wap&#45;wsp -->
<g id="node9" class="node">
<title>VULNERABILTY DISCOVERY
wap&#45;wsp</title>
<g id="a_node9"><a xlink:title="ET SCAN Nikto Web App Scan in Progress">
<ellipse fill="none" stroke="black" stroke-width="3" cx="238.29" cy="-1070.67" rx="238.09" ry="42.35"/>
<text text-anchor="middle" x="238.29" y="-1077.47" font-family="Arial" font-size="24.00">VULNERABILTY DISCOVERY</text>
<text text-anchor="middle" x="238.29" y="-1051.47" font-family="Arial" font-size="24.00">wap&#45;wsp</text>
</a>
</g>
</g>
<!-- HOST DISCOVERY
wap&#45;wsp&#45;&gt;VULNERABILTY DISCOVERY
wap&#45;wsp -->
<g id="edge7" class="edge">
<title>HOST DISCOVERY
wap&#45;wsp&#45;&gt;VULNERABILTY DISCOVERY
wap&#45;wsp</title>
<path fill="none" stroke="maroon" stroke-width="5" d="M111,-930.05C100.69,-936.43 91.49,-944.37 84.29,-954.24 67.01,-977.94 67.01,-996.54 84.29,-1020.24 86.58,-1023.38 89.07,-1026.32 91.73,-1029.07"/>
<polygon fill="maroon" stroke="maroon" stroke-width="5" points="88.85,-1032.37 99.15,-1035.95 94.79,-1025.95 88.85,-1032.37"/>
<text text-anchor="middle" x="236.79" y="-1004.24" font-family="Arial" font-size="20.00" fill="maroon">start_next: 03/11/18, 15:05:26</text>
<text text-anchor="middle" x="236.79" y="-982.24" font-family="Arial" font-size="20.00" fill="maroon">gap: 260sec</text>
<text text-anchor="middle" x="236.79" y="-960.24" font-family="Arial" font-size="20.00" fill="maroon">end_prev: 03/11/18, 15:01:06</text>
</g>
<!-- HOST DISCOVERY
wap&#45;wsp&#45;&gt;VULNERABILTY DISCOVERY
wap&#45;wsp -->
<g id="edge15" class="edge">
<title>HOST DISCOVERY
wap&#45;wsp&#45;&gt;VULNERABILTY DISCOVERY
wap&#45;wsp</title>
<path fill="none" stroke="maroon" stroke-width="5" d="M361.71,-931.34C371.19,-937.48 379.65,-945.01 386.29,-954.24 403.44,-978.04 403.44,-996.44 386.29,-1020.24 384.24,-1023.1 382.01,-1025.8 379.63,-1028.34"/>
<polygon fill="maroon" stroke="maroon" stroke-width="5" points="376.31,-1025.45 372.06,-1035.51 382.32,-1031.81 376.31,-1025.45"/>
<text text-anchor="middle" x="550.79" y="-1004.24" font-family="Arial" font-size="20.00" fill="maroon">start_next: 03/11/18, 18:07:13</text>
<text text-anchor="middle" x="550.79" y="-982.24" font-family="Arial" font-size="20.00" fill="maroon">gap: 454sec</text>
<text text-anchor="middle" x="550.79" y="-960.24" font-family="Arial" font-size="20.00" fill="maroon">end_prev: 03/11/18, 17:59:40</text>
</g>
<!-- VULNERABILTY DISCOVERY
wap&#45;wsp&#45;&gt;DATA EXFILTRATION
wap&#45;wsp | ID: 21 -->
<g id="edge16" class="edge">
<title>VULNERABILTY DISCOVERY
wap&#45;wsp&#45;&gt;DATA EXFILTRATION
wap&#45;wsp | ID: 21</title>
<path fill="none" stroke="maroon" stroke-width="5" d="M236.19,-1113.36C235.08,-1137.28 233.85,-1167.87 233.29,-1195.1 232.53,-1232.8 232.57,-1242.24 233.29,-1279.95 233.75,-1303.45 234.66,-1329.32 235.58,-1351.76"/>
<polygon fill="maroon" stroke="maroon" stroke-width="5" points="231.21,-1351.99 236,-1361.8 239.95,-1351.63 231.21,-1351.99"/>
<text text-anchor="middle" x="385.79" y="-1254.52" font-family="Arial" font-size="20.00" fill="maroon">start_next: 03/11/18, 18:07:13</text>
<text text-anchor="middle" x="385.79" y="-1232.52" font-family="Arial" font-size="20.00" fill="maroon">gap: 0sec</text>
<text text-anchor="middle" x="385.79" y="-1210.52" font-family="Arial" font-size="20.00" fill="maroon">end_prev: 03/11/18, 18:07:13</text>
</g>
<!-- INFO DISCOVERY
wap&#45;wsp -->
<g id="node10" class="node">
<title>INFO DISCOVERY
wap&#45;wsp</title>
<g id="a_node10"><a xlink:title="GPL WEB_SERVER iisadmin access&#10;GPL WEB_SERVER printenv access&#10;GPL WEB_SERVER author.exe access&#10;ET WEB_SERVER PHP Easteregg Information&#45;Disclosure (phpinfo)&#10;GPL WEB_SERVER globals.pl access&#10;GPL WEB_SERVER viewcode access&#10;GPL EXPLOIT ISAPI .idq attempt&#10;ET POLICY Proxy TRACE Request &#45; inbound&#10;GPL WEB_SERVER /~root access&#10;GPL WEB_SERVER service.pwd&#10;ET WEB_SERVER PHP REQUEST SuperGlobal in URI&#10;GPL WEB_SERVER services.cnf access&#10;GPL EXPLOIT unicode directory traversal attempt&#10;GPL EXPLOIT .htr access&#10;GPL EXPLOIT .cnf access&#10;ET WEB_SERVER PHP SERVER SuperGlobal in URI&#10;GPL WEB_SERVER .htaccess access&#10;GPL WEB_SERVER authors.pwd access&#10;GPL EXPLOIT iisadmpwd attempt&#10;GPL WEB_SERVER global.asa access&#10;GPL EXPLOIT fpcount access&#10;GPL WEB_SERVER .htpasswd access&#10;ET WEB_SERVER PHP SESSION SuperGlobal in URI&#10;GPL WEB_SERVER writeto.cnf access&#10;GPL EXPLOIT iissamples access&#10;ET WEB_SERVER PHP ENV SuperGlobal in URI&#10;GPL WEB_SERVER service.cnf access">
<ellipse fill="none" stroke="black" stroke-width="3" cx="696.29" cy="-1237.52" rx="154.3" ry="42.35"/>
<text text-anchor="middle" x="696.29" y="-1244.32" font-family="Arial" font-size="24.00">INFO DISCOVERY</text>
<text text-anchor="middle" x="696.29" y="-1218.32" font-family="Arial" font-size="24.00">wap&#45;wsp</text>
</a>
</g>
</g>
<!-- VULNERABILTY DISCOVERY
wap&#45;wsp&#45;&gt;INFO DISCOVERY
wap&#45;wsp -->
<g id="edge8" class="edge">
<title>VULNERABILTY DISCOVERY
wap&#45;wsp&#45;&gt;INFO DISCOVERY
wap&#45;wsp</title>
<path fill="none" stroke="maroon" stroke-width="5" d="M341.94,-1108.97C417.6,-1136.21 519.65,-1172.94 594.81,-1199.99"/>
<polygon fill="maroon" stroke="maroon" stroke-width="5" points="593.41,-1204.14 604.3,-1203.41 596.37,-1195.91 593.41,-1204.14"/>
<text text-anchor="middle" x="699.79" y="-1171.1" font-family="Arial" font-size="20.00" fill="maroon">start_next: 03/11/18, 15:05:26</text>
<text text-anchor="middle" x="699.79" y="-1149.1" font-family="Arial" font-size="20.00" fill="maroon">gap: 0sec</text>
<text text-anchor="middle" x="699.79" y="-1127.1" font-family="Arial" font-size="20.00" fill="maroon">end_prev: 03/11/18, 15:05:26</text>
</g>
<!-- INFO DISCOVERY
wap&#45;wsp&#45;&gt;DATA EXFILTRATION
wap&#45;wsp | ID: 21 -->
<g id="edge9" class="edge">
<title>INFO DISCOVERY
wap&#45;wsp&#45;&gt;DATA EXFILTRATION
wap&#45;wsp | ID: 21</title>
<path fill="none" stroke="maroon" stroke-width="5" d="M606.63,-1272.08C536.83,-1298.21 439.16,-1334.76 361.94,-1363.66"/>
<polygon fill="maroon" stroke="maroon" stroke-width="5" points="359.98,-1359.73 352.15,-1367.33 363.05,-1367.92 359.98,-1359.73"/>
<text text-anchor="middle" x="712.79" y="-1337.95" font-family="Arial" font-size="20.00" fill="maroon">start_next: 03/11/18, 15:05:26</text>
<text text-anchor="middle" x="712.79" y="-1315.95" font-family="Arial" font-size="20.00" fill="maroon">gap: &#45;10sec</text>
<text text-anchor="middle" x="712.79" y="-1293.95" font-family="Arial" font-size="20.00" fill="maroon">end_prev: 03/11/18, 15:05:37</text>
</g>
</g>
</svg>
