<?xml version="1.0" encoding="UTF-8" standalone="no"?>
<!DOCTYPE svg PUBLIC "-//W3C//DTD SVG 1.1//EN"
 "http://www.w3.org/Graphics/SVG/1.1/DTD/svg11.dtd">
<!-- Generated by graphviz version 2.43.0 (0)
 -->
<!-- Title: DATAMANIPULATIONwapwsp Pages: 1 -->
<svg width="1301pt" height="2089pt"
 viewBox="0.00 0.00 1301.19 2088.55" xmlns="http://www.w3.org/2000/svg" xmlns:xlink="http://www.w3.org/1999/xlink">
<g id="graph0" class="graph" transform="scale(1 1) rotate(0) translate(4 2084.55)">
<title>DATAMANIPULATIONwapwsp</title>
<polygon fill="white" stroke="transparent" points="-4,4 -4,-2084.55 1297.19,-2084.55 1297.19,4 -4,4"/>
<!-- Victim: 10.0.0.24
DATA MANIPULATION
wap&#45;wsp -->
<g id="node1" class="node">
<title>Victim: 10.0.0.24
DATA MANIPULATION
wap&#45;wsp</title>
<polygon fill="salmon" stroke="black" stroke-width="3" points="420.86,-1983.54 420.86,-2037.92 301.55,-2076.38 132.82,-2076.38 13.51,-2037.92 13.51,-1983.54 132.82,-1945.08 301.55,-1945.08 420.86,-1983.54"/>
<polygon fill="none" stroke="black" stroke-width="3" points="424.86,-1980.63 424.86,-2040.83 302.18,-2080.37 132.19,-2080.37 9.51,-2040.83 9.51,-1980.63 132.19,-1941.09 302.18,-1941.09 424.86,-1980.63"/>
<text text-anchor="middle" x="217.19" y="-2030.53" font-family="Arial" font-size="24.00">Victim: 10.0.0.24</text>
<text text-anchor="middle" x="217.19" y="-2004.53" font-family="Arial" font-size="24.00">DATA MANIPULATION</text>
<text text-anchor="middle" x="217.19" y="-1978.53" font-family="Arial" font-size="24.00">wap&#45;wsp</text>
</g>
<!-- DATA MANIPULATION
wap&#45;wsp | ID: 22 -->
<g id="node2" class="node">
<title>DATA MANIPULATION
wap&#45;wsp | ID: 22</title>
<g id="a_node2"><a xlink:title="ET WEB_SERVER Possible SQL Injection Attempt UNION SELECT&#10;ET WEB_SERVER Possible SQL Injection Attempt SELECT FROM">
<polygon fill="salmon" stroke="black" stroke-width="3" points="434.56,-1874.92 325.88,-1923.9 108.5,-1923.9 -0.19,-1874.92 108.5,-1825.94 325.88,-1825.94 434.56,-1874.92"/>
<text text-anchor="middle" x="217.19" y="-1881.72" font-family="Arial" font-size="24.00">DATA MANIPULATION</text>
<text text-anchor="middle" x="217.19" y="-1855.72" font-family="Arial" font-size="24.00">wap&#45;wsp | ID: 22</text>
</a>
</g>
</g>
<!-- DATA MANIPULATION
wap&#45;wsp | ID: 22&#45;&gt;Victim: 10.0.0.24
DATA MANIPULATION
wap&#45;wsp -->
<g id="edge1" class="edge">
<title>DATA MANIPULATION
wap&#45;wsp | ID: 22&#45;&gt;Victim: 10.0.0.24
DATA MANIPULATION
wap&#45;wsp</title>
<path fill="none" stroke="black" stroke-width="5" d="M217.19,-1924.23C217.19,-1926.33 217.19,-1928.47 217.19,-1930.61"/>
<polygon fill="black" stroke="black" stroke-width="5" points="212.81,-1930.77 217.19,-1940.77 221.56,-1930.77 212.81,-1930.77"/>
</g>
<!-- HOST DISCOVERY
http -->
<g id="node3" class="node">
<title>HOST DISCOVERY
http</title>
<g id="a_node3"><a xlink:title="ET SCAN Possible Nmap User&#45;Agent Observed&#10;ET SCAN Nmap Scripting Engine User&#45;Agent Detected (Nmap Scripting Engine)">
<ellipse fill="yellow" stroke="black" stroke-width="3" cx="712.19" cy="-42.43" rx="161.44" ry="42.35"/>
<text text-anchor="middle" x="712.19" y="-49.23" font-family="Arial" font-size="24.00">HOST DISCOVERY</text>
<text text-anchor="middle" x="712.19" y="-23.23" font-family="Arial" font-size="24.00">http</text>
</a>
</g>
</g>
<!-- VULNERABILTY DISCOVERY
ms&#45;sql&#45;s -->
<g id="node4" class="node">
<title>VULNERABILTY DISCOVERY
ms&#45;sql&#45;s</title>
<g id="a_node4"><a xlink:title="ET SCAN Suspicious inbound to Oracle SQL port 1521&#10;ET SCAN Suspicious inbound to MSSQL port 1433&#10;ET SCAN Suspicious inbound to mySQL port 3306&#10;ET SCAN Nikto Web App Scan in Progress&#10;ET SCAN Suspicious inbound to PostgreSQL port 5432&#10;ET SCAN Suspicious inbound to mSQL port 4333">
<ellipse fill="none" stroke="black" stroke-width="3" cx="712.19" cy="-223.28" rx="238.09" ry="42.35"/>
<text text-anchor="middle" x="712.19" y="-230.08" font-family="Arial" font-size="24.00">VULNERABILTY DISCOVERY</text>
<text text-anchor="middle" x="712.19" y="-204.08" font-family="Arial" font-size="24.00">ms&#45;sql&#45;s</text>
</a>
</g>
</g>
<!-- HOST DISCOVERY
http&#45;&gt;VULNERABILTY DISCOVERY
ms&#45;sql&#45;s -->
<g id="edge2" class="edge">
<title>HOST DISCOVERY
http&#45;&gt;VULNERABILTY DISCOVERY
ms&#45;sql&#45;s</title>
<path fill="none" stroke="maroon" stroke-width="5" d="M583.17,-67.9C572.36,-74.42 562.71,-82.6 555.19,-92.85 534.16,-121.52 534.16,-144.18 555.19,-172.85 557.57,-176.1 560.16,-179.13 562.94,-181.98"/>
<polygon fill="maroon" stroke="maroon" stroke-width="5" points="560.35,-185.54 570.69,-189.05 566.25,-179.08 560.35,-185.54"/>
<text text-anchor="start" x="555.19" y="-157.85" font-family="Arial" font-size="20.00" fill="maroon"> start_next: 03/11/18, 14:52:49</text>
<text text-anchor="start" x="662.19" y="-137.85" font-family="Arial" font-size="20.00" fill="maroon">gap: 3sec</text>
<text text-anchor="start" x="563.19" y="-117.85" font-family="Arial" font-size="20.00" fill="maroon">end_prev: 03/11/18, 14:52:45</text>
<text text-anchor="start" x="579.19" y="-97.85" font-family="Arial" font-weight="bold" font-size="20.00" fill="maroon">Attacker: 10.0.254.201</text>
</g>
<!-- HOST DISCOVERY
http&#45;&gt;VULNERABILTY DISCOVERY
ms&#45;sql&#45;s -->
<g id="edge13" class="edge">
<title>HOST DISCOVERY
http&#45;&gt;VULNERABILTY DISCOVERY
ms&#45;sql&#45;s</title>
<path fill="none" stroke="maroon" stroke-width="5" d="M837.38,-69.19C847.34,-75.48 856.23,-83.25 863.19,-92.85 884.06,-121.64 884.06,-144.07 863.19,-172.85 861.08,-175.76 858.8,-178.49 856.37,-181.07"/>
<polygon fill="maroon" stroke="maroon" stroke-width="5" points="852.93,-178.3 848.64,-188.34 858.92,-184.68 852.93,-178.3"/>
<text text-anchor="start" x="878.19" y="-157.85" font-family="Arial" font-size="20.00" fill="maroon"> start_next: 03/11/18, 17:37:53</text>
<text text-anchor="start" x="985.19" y="-137.85" font-family="Arial" font-size="20.00" fill="maroon">gap: 5sec</text>
<text text-anchor="start" x="886.19" y="-117.85" font-family="Arial" font-size="20.00" fill="maroon">end_prev: 03/11/18, 17:37:48</text>
<text text-anchor="start" x="902.19" y="-97.85" font-family="Arial" font-weight="bold" font-size="20.00" fill="maroon">Attacker: 10.0.254.204</text>
</g>
<!-- INFO DISCOVERY
http -->
<g id="node5" class="node">
<title>INFO DISCOVERY
http</title>
<g id="a_node5"><a xlink:title="GPL EXPLOIT .cnf access&#10;GPL WEB_SERVER iisadmin access&#10;GPL WEB_SERVER .htpasswd access&#10;GPL WEB_SERVER printenv access&#10;GPL WEB_SERVER .htaccess access&#10;ET POLICY Proxy TRACE Request &#45; inbound&#10;GPL WEB_SERVER /~root access&#10;GPL EXPLOIT .htr access">
<ellipse fill="none" stroke="black" stroke-width="3" cx="712.19" cy="-390.13" rx="154.3" ry="42.35"/>
<text text-anchor="middle" x="712.19" y="-396.93" font-family="Arial" font-size="24.00">INFO DISCOVERY</text>
<text text-anchor="middle" x="712.19" y="-370.93" font-family="Arial" font-size="24.00">http</text>
</a>
</g>
</g>
<!-- VULNERABILTY DISCOVERY
ms&#45;sql&#45;s&#45;&gt;INFO DISCOVERY
http -->
<g id="edge3" class="edge">
<title>VULNERABILTY DISCOVERY
ms&#45;sql&#45;s&#45;&gt;INFO DISCOVERY
http</title>
<path fill="none" stroke="maroon" stroke-width="5" d="M573.05,-258C567.51,-262.6 562.49,-267.81 558.19,-273.71 540.9,-297.41 540.9,-316.01 558.19,-339.71 563.84,-347.45 570.72,-354.01 578.41,-359.56"/>
<polygon fill="maroon" stroke="maroon" stroke-width="5" points="576.28,-363.4 587.04,-365.2 581.06,-356.07 576.28,-363.4"/>
<text text-anchor="middle" x="710.69" y="-323.71" font-family="Arial" font-size="20.00" fill="maroon">start_next: 03/11/18, 14:52:49</text>
<text text-anchor="middle" x="710.69" y="-301.71" font-family="Arial" font-size="20.00" fill="maroon">gap: &#45;313sec</text>
<text text-anchor="middle" x="710.69" y="-279.71" font-family="Arial" font-size="20.00" fill="maroon">end_prev: 03/11/18, 14:58:02</text>
</g>
<!-- VULNERABILTY DISCOVERY
ms&#45;sql&#45;s&#45;&gt;INFO DISCOVERY
http -->
<g id="edge14" class="edge">
<title>VULNERABILTY DISCOVERY
ms&#45;sql&#45;s&#45;&gt;INFO DISCOVERY
http</title>
<path fill="none" stroke="maroon" stroke-width="5" d="M845.95,-258.44C851.26,-262.93 856.07,-267.99 860.19,-273.71 877.33,-297.51 877.33,-315.9 860.19,-339.71 855.07,-346.81 848.88,-352.92 841.97,-358.15"/>
<polygon fill="maroon" stroke="maroon" stroke-width="5" points="839.34,-354.65 833.56,-363.91 844.28,-361.87 839.34,-354.65"/>
<text text-anchor="middle" x="1024.69" y="-323.71" font-family="Arial" font-size="20.00" fill="maroon">start_next: 03/11/18, 17:37:53</text>
<text text-anchor="middle" x="1024.69" y="-301.71" font-family="Arial" font-size="20.00" fill="maroon">gap: &#45;292sec</text>
<text text-anchor="middle" x="1024.69" y="-279.71" font-family="Arial" font-size="20.00" fill="maroon">end_prev: 03/11/18, 17:42:44</text>
</g>
<!-- DATA EXFILTRATION
http | ID: 12 -->
<g id="node6" class="node">
<title>DATA EXFILTRATION
http | ID: 12</title>
<g id="a_node6"><a xlink:title="GPL EXPLOIT ISAPI .ida access&#10;GPL EXPLOIT ISAPI .idq access">
<polygon fill="none" stroke="black" stroke-width="3" points="917.07,-563.55 814.63,-612.53 609.75,-612.53 507.31,-563.55 609.75,-514.57 814.63,-514.57 917.07,-563.55"/>
<text text-anchor="middle" x="712.19" y="-570.35" font-family="Arial" font-size="24.00">DATA EXFILTRATION</text>
<text text-anchor="middle" x="712.19" y="-544.35" font-family="Arial" font-size="24.00">http | ID: 12</text>
</a>
</g>
</g>
<!-- INFO DISCOVERY
http&#45;&gt;DATA EXFILTRATION
http | ID: 12 -->
<g id="edge4" class="edge">
<title>INFO DISCOVERY
http&#45;&gt;DATA EXFILTRATION
http | ID: 12</title>
<path fill="none" stroke="maroon" stroke-width="5" d="M587.04,-415.06C575.86,-421.66 565.88,-430.01 558.19,-440.56 540.9,-464.26 541.36,-482.53 558.19,-506.56 562.25,-512.35 566.97,-517.55 572.19,-522.21"/>
<polygon fill="maroon" stroke="maroon" stroke-width="5" points="569.64,-525.77 580.17,-528.66 575.14,-518.97 569.64,-525.77"/>
<text text-anchor="middle" x="710.69" y="-490.56" font-family="Arial" font-size="20.00" fill="maroon">start_next: 03/11/18, 14:52:49</text>
<text text-anchor="middle" x="710.69" y="-468.56" font-family="Arial" font-size="20.00" fill="maroon">gap: &#45;3sec</text>
<text text-anchor="middle" x="710.69" y="-446.56" font-family="Arial" font-size="20.00" fill="maroon">end_prev: 03/11/18, 14:52:51</text>
</g>
<!-- INFO DISCOVERY
http&#45;&gt;DATA EXFILTRATION
http | ID: 12 -->
<g id="edge15" class="edge">
<title>INFO DISCOVERY
http&#45;&gt;DATA EXFILTRATION
http | ID: 12</title>
<path fill="none" stroke="maroon" stroke-width="5" d="M833.56,-416.36C843.87,-422.73 853.06,-430.67 860.19,-440.56 877.33,-464.36 876.86,-482.42 860.19,-506.56 856.74,-511.55 852.78,-516.1 848.43,-520.25"/>
<polygon fill="maroon" stroke="maroon" stroke-width="5" points="845.48,-517.01 840.75,-526.85 851.18,-523.65 845.48,-517.01"/>
<text text-anchor="middle" x="1024.69" y="-490.56" font-family="Arial" font-size="20.00" fill="maroon">start_next: 03/11/18, 17:37:54</text>
<text text-anchor="middle" x="1024.69" y="-468.56" font-family="Arial" font-size="20.00" fill="maroon">gap: &#45;3sec</text>
<text text-anchor="middle" x="1024.69" y="-446.56" font-family="Arial" font-size="20.00" fill="maroon">end_prev: 03/11/18, 17:37:57</text>
</g>
<!-- SERVICE DISCOVERY
unknown -->
<g id="node7" class="node">
<title>SERVICE DISCOVERY
unknown</title>
<g id="a_node7"><a xlink:title="ET SCAN Potential VNC Scan 5800&#45;5820&#10;ET SCAN Potential VNC Scan 5900&#45;5920&#10;ET SCAN Potential SSH Scan&#10;ET SCAN NMAP OS Detection Probe">
<ellipse fill="none" stroke="black" stroke-width="3" cx="712.19" cy="-736.96" rx="184.61" ry="42.35"/>
<text text-anchor="middle" x="712.19" y="-743.76" font-family="Arial" font-size="24.00">SERVICE DISCOVERY</text>
<text text-anchor="middle" x="712.19" y="-717.76" font-family="Arial" font-size="24.00">unknown</text>
</a>
</g>
</g>
<!-- DATA EXFILTRATION
http | ID: 12&#45;&gt;SERVICE DISCOVERY
unknown -->
<g id="edge5" class="edge">
<title>DATA EXFILTRATION
http | ID: 12&#45;&gt;SERVICE DISCOVERY
unknown</title>
<path fill="none" stroke="maroon" stroke-width="5" d="M580.17,-598.44C571.74,-604.62 564.23,-611.92 558.19,-620.54 541.36,-644.56 540.9,-662.84 558.19,-686.54 562.1,-691.9 566.6,-696.69 571.54,-700.97"/>
<polygon fill="maroon" stroke="maroon" stroke-width="5" points="569.09,-704.6 579.66,-707.29 574.46,-697.7 569.09,-704.6"/>
<text text-anchor="middle" x="710.69" y="-670.54" font-family="Arial" font-size="20.00" fill="maroon">start_next: 03/11/18, 14:53:39</text>
<text text-anchor="middle" x="710.69" y="-648.54" font-family="Arial" font-size="20.00" fill="maroon">gap: 50sec</text>
<text text-anchor="middle" x="710.69" y="-626.54" font-family="Arial" font-size="20.00" fill="maroon">end_prev: 03/11/18, 14:52:49</text>
</g>
<!-- DATA EXFILTRATION
http | ID: 12&#45;&gt;SERVICE DISCOVERY
unknown -->
<g id="edge16" class="edge">
<title>DATA EXFILTRATION
http | ID: 12&#45;&gt;SERVICE DISCOVERY
unknown</title>
<path fill="none" stroke="maroon" stroke-width="5" d="M840.75,-600.25C848.18,-606.03 854.8,-612.74 860.19,-620.54 876.86,-644.67 877.33,-662.74 860.19,-686.54 856.64,-691.47 852.57,-695.91 848.11,-699.92"/>
<polygon fill="maroon" stroke="maroon" stroke-width="5" points="845.29,-696.57 840.26,-706.26 850.79,-703.38 845.29,-696.57"/>
<text text-anchor="middle" x="1024.69" y="-670.54" font-family="Arial" font-size="20.00" fill="maroon">start_next: 03/11/18, 17:42:35</text>
<text text-anchor="middle" x="1024.69" y="-648.54" font-family="Arial" font-size="20.00" fill="maroon">gap: 281sec</text>
<text text-anchor="middle" x="1024.69" y="-626.54" font-family="Arial" font-size="20.00" fill="maroon">end_prev: 03/11/18, 17:37:54</text>
</g>
<!-- HOST DISCOVERY
wap&#45;wsp -->
<g id="node8" class="node">
<title>HOST DISCOVERY
wap&#45;wsp</title>
<g id="a_node8"><a xlink:title="ET SCAN Possible Nmap User&#45;Agent Observed&#10;ET SCAN Nmap Scripting Engine User&#45;Agent Detected (Nmap Scripting Engine)">
<ellipse fill="none" stroke="black" stroke-width="3" cx="712.19" cy="-903.82" rx="161.44" ry="42.35"/>
<text text-anchor="middle" x="712.19" y="-910.62" font-family="Arial" font-size="24.00">HOST DISCOVERY</text>
<text text-anchor="middle" x="712.19" y="-884.62" font-family="Arial" font-size="24.00">wap&#45;wsp</text>
</a>
</g>
</g>
<!-- SERVICE DISCOVERY
unknown&#45;&gt;HOST DISCOVERY
wap&#45;wsp -->
<g id="edge6" class="edge">
<title>SERVICE DISCOVERY
unknown&#45;&gt;HOST DISCOVERY
wap&#45;wsp</title>
<path fill="none" stroke="maroon" stroke-width="5" d="M579.66,-766.64C571.47,-772.38 564.14,-779.22 558.19,-787.39 540.9,-811.09 540.9,-829.69 558.19,-853.39 563.36,-860.48 569.57,-866.58 576.48,-871.82"/>
<polygon fill="maroon" stroke="maroon" stroke-width="5" points="574.17,-875.54 584.89,-877.59 579.12,-868.33 574.17,-875.54"/>
<text text-anchor="middle" x="710.69" y="-837.39" font-family="Arial" font-size="20.00" fill="maroon">start_next: 03/11/18, 15:01:05</text>
<text text-anchor="middle" x="710.69" y="-815.39" font-family="Arial" font-size="20.00" fill="maroon">gap: 194sec</text>
<text text-anchor="middle" x="710.69" y="-793.39" font-family="Arial" font-size="20.00" fill="maroon">end_prev: 03/11/18, 14:57:51</text>
</g>
<!-- SERVICE DISCOVERY
unknown&#45;&gt;HOST DISCOVERY
wap&#45;wsp -->
<g id="edge17" class="edge">
<title>SERVICE DISCOVERY
unknown&#45;&gt;HOST DISCOVERY
wap&#45;wsp</title>
<path fill="none" stroke="maroon" stroke-width="5" d="M840.26,-767.67C847.85,-773.18 854.65,-779.7 860.19,-787.39 877.33,-811.19 877.33,-829.59 860.19,-853.39 855.51,-859.88 849.95,-865.53 843.76,-870.45"/>
<polygon fill="maroon" stroke="maroon" stroke-width="5" points="841.18,-866.92 835.6,-876.3 846.28,-874.03 841.18,-866.92"/>
<text text-anchor="middle" x="1024.69" y="-837.39" font-family="Arial" font-size="20.00" fill="maroon">start_next: 03/11/18, 17:59:39</text>
<text text-anchor="middle" x="1024.69" y="-815.39" font-family="Arial" font-size="20.00" fill="maroon">gap: 938sec</text>
<text text-anchor="middle" x="1024.69" y="-793.39" font-family="Arial" font-size="20.00" fill="maroon">end_prev: 03/11/18, 17:44:01</text>
</g>
<!-- VULNERABILTY DISCOVERY
wap&#45;wsp -->
<g id="node9" class="node">
<title>VULNERABILTY DISCOVERY
wap&#45;wsp</title>
<g id="a_node9"><a xlink:title="ET SCAN Nikto Web App Scan in Progress">
<ellipse fill="none" stroke="black" stroke-width="3" cx="712.19" cy="-1070.67" rx="238.09" ry="42.35"/>
<text text-anchor="middle" x="712.19" y="-1077.47" font-family="Arial" font-size="24.00">VULNERABILTY DISCOVERY</text>
<text text-anchor="middle" x="712.19" y="-1051.47" font-family="Arial" font-size="24.00">wap&#45;wsp</text>
</a>
</g>
</g>
<!-- HOST DISCOVERY
wap&#45;wsp&#45;&gt;VULNERABILTY DISCOVERY
wap&#45;wsp -->
<g id="edge7" class="edge">
<title>HOST DISCOVERY
wap&#45;wsp&#45;&gt;VULNERABILTY DISCOVERY
wap&#45;wsp</title>
<path fill="none" stroke="maroon" stroke-width="5" d="M584.89,-930.05C574.58,-936.43 565.39,-944.37 558.19,-954.24 540.9,-977.94 540.9,-996.54 558.19,-1020.24 560.47,-1023.38 562.96,-1026.32 565.62,-1029.07"/>
<polygon fill="maroon" stroke="maroon" stroke-width="5" points="562.74,-1032.37 573.05,-1035.95 568.68,-1025.95 562.74,-1032.37"/>
<text text-anchor="middle" x="710.69" y="-1004.24" font-family="Arial" font-size="20.00" fill="maroon">start_next: 03/11/18, 15:05:26</text>
<text text-anchor="middle" x="710.69" y="-982.24" font-family="Arial" font-size="20.00" fill="maroon">gap: 260sec</text>
<text text-anchor="middle" x="710.69" y="-960.24" font-family="Arial" font-size="20.00" fill="maroon">end_prev: 03/11/18, 15:01:06</text>
</g>
<!-- HOST DISCOVERY
wap&#45;wsp&#45;&gt;VULNERABILTY DISCOVERY
wap&#45;wsp -->
<g id="edge18" class="edge">
<title>HOST DISCOVERY
wap&#45;wsp&#45;&gt;VULNERABILTY DISCOVERY
wap&#45;wsp</title>
<path fill="none" stroke="maroon" stroke-width="5" d="M835.6,-931.34C845.09,-937.48 853.54,-945.01 860.19,-954.24 877.33,-978.04 877.33,-996.44 860.19,-1020.24 858.13,-1023.1 855.9,-1025.8 853.52,-1028.34"/>
<polygon fill="maroon" stroke="maroon" stroke-width="5" points="850.2,-1025.45 845.95,-1035.51 856.22,-1031.81 850.2,-1025.45"/>
<text text-anchor="middle" x="1024.69" y="-1004.24" font-family="Arial" font-size="20.00" fill="maroon">start_next: 03/11/18, 18:07:13</text>
<text text-anchor="middle" x="1024.69" y="-982.24" font-family="Arial" font-size="20.00" fill="maroon">gap: 454sec</text>
<text text-anchor="middle" x="1024.69" y="-960.24" font-family="Arial" font-size="20.00" fill="maroon">end_prev: 03/11/18, 17:59:40</text>
</g>
<!-- INFO DISCOVERY
wap&#45;wsp -->
<g id="node10" class="node">
<title>INFO DISCOVERY
wap&#45;wsp</title>
<g id="a_node10"><a xlink:title="GPL WEB_SERVER iisadmin access&#10;GPL WEB_SERVER printenv access&#10;GPL WEB_SERVER author.exe access&#10;ET WEB_SERVER PHP Easteregg Information&#45;Disclosure (phpinfo)&#10;GPL WEB_SERVER globals.pl access&#10;GPL WEB_SERVER viewcode access&#10;GPL EXPLOIT ISAPI .idq attempt&#10;ET POLICY Proxy TRACE Request &#45; inbound&#10;GPL WEB_SERVER /~root access&#10;GPL WEB_SERVER service.pwd&#10;ET WEB_SERVER PHP REQUEST SuperGlobal in URI&#10;GPL WEB_SERVER services.cnf access&#10;GPL EXPLOIT unicode directory traversal attempt&#10;GPL EXPLOIT .htr access&#10;GPL EXPLOIT .cnf access&#10;ET WEB_SERVER PHP SERVER SuperGlobal in URI&#10;GPL WEB_SERVER .htaccess access&#10;GPL WEB_SERVER authors.pwd access&#10;GPL EXPLOIT iisadmpwd attempt&#10;GPL WEB_SERVER global.asa access&#10;GPL EXPLOIT fpcount access&#10;GPL WEB_SERVER .htpasswd access&#10;ET WEB_SERVER PHP SESSION SuperGlobal in URI&#10;GPL WEB_SERVER writeto.cnf access&#10;GPL EXPLOIT iissamples access&#10;ET WEB_SERVER PHP ENV SuperGlobal in URI&#10;GPL WEB_SERVER service.cnf access">
<ellipse fill="none" stroke="black" stroke-width="3" cx="475.19" cy="-1237.52" rx="154.3" ry="42.35"/>
<text text-anchor="middle" x="475.19" y="-1244.32" font-family="Arial" font-size="24.00">INFO DISCOVERY</text>
<text text-anchor="middle" x="475.19" y="-1218.32" font-family="Arial" font-size="24.00">wap&#45;wsp</text>
</a>
</g>
</g>
<!-- VULNERABILTY DISCOVERY
wap&#45;wsp&#45;&gt;INFO DISCOVERY
wap&#45;wsp -->
<g id="edge8" class="edge">
<title>VULNERABILTY DISCOVERY
wap&#45;wsp&#45;&gt;INFO DISCOVERY
wap&#45;wsp</title>
<path fill="none" stroke="maroon" stroke-width="5" d="M651.92,-1111.73C647.26,-1114.88 642.64,-1118.03 638.19,-1121.1 604.76,-1144.09 567.84,-1170.17 537.6,-1191.72"/>
<polygon fill="maroon" stroke="maroon" stroke-width="5" points="534.86,-1188.31 529.26,-1197.67 539.94,-1195.43 534.86,-1188.31"/>
<text text-anchor="middle" x="790.69" y="-1171.1" font-family="Arial" font-size="20.00" fill="maroon">start_next: 03/11/18, 15:05:26</text>
<text text-anchor="middle" x="790.69" y="-1149.1" font-family="Arial" font-size="20.00" fill="maroon">gap: 0sec</text>
<text text-anchor="middle" x="790.69" y="-1127.1" font-family="Arial" font-size="20.00" fill="maroon">end_prev: 03/11/18, 15:05:26</text>
</g>
<!-- DATA EXFILTRATION
wap&#45;wsp | ID: 21 -->
<g id="node11" class="node">
<title>DATA EXFILTRATION
wap&#45;wsp | ID: 21</title>
<g id="a_node11"><a xlink:title="GPL EXPLOIT ISAPI .ida access&#10;ET WEB_SERVER /system32/ in Uri &#45; Possible Protected Directory Access Attempt&#10;GPL WEB_SERVER Tomcat server snoop access&#10;GPL EXPLOIT /msadc/samples/ access&#10;ET WEB_SPECIFIC_APPS PHP&#45;CGI query string parameter vulnerability&#10;GPL EXPLOIT ISAPI .idq access&#10;ET WEB_SERVER /etc/shadow Detected in URI">
<polygon fill="none" stroke="black" stroke-width="3" points="931.07,-1410.94 828.63,-1459.92 623.75,-1459.92 521.31,-1410.94 623.75,-1361.96 828.63,-1361.96 931.07,-1410.94"/>
<text text-anchor="middle" x="726.19" y="-1417.74" font-family="Arial" font-size="24.00">DATA EXFILTRATION</text>
<text text-anchor="middle" x="726.19" y="-1391.74" font-family="Arial" font-size="24.00">wap&#45;wsp | ID: 21</text>
</a>
</g>
</g>
<!-- VULNERABILTY DISCOVERY
wap&#45;wsp&#45;&gt;DATA EXFILTRATION
wap&#45;wsp | ID: 21 -->
<g id="edge19" class="edge">
<title>VULNERABILTY DISCOVERY
wap&#45;wsp&#45;&gt;DATA EXFILTRATION
wap&#45;wsp | ID: 21</title>
<path fill="none" stroke="maroon" stroke-width="5" d="M895.85,-1097.83C916.4,-1104.09 932.66,-1111.76 940.19,-1121.1 1005.15,-1201.65 1003.43,-1272.03 940.19,-1353.95 931.76,-1364.87 911.22,-1374.06 886.02,-1381.65"/>
<polygon fill="maroon" stroke="maroon" stroke-width="5" points="884.56,-1377.52 876.15,-1384.48 886.97,-1385.93 884.56,-1377.52"/>
<text text-anchor="middle" x="1140.69" y="-1254.52" font-family="Arial" font-size="20.00" fill="maroon">start_next: 03/11/18, 18:07:13</text>
<text text-anchor="middle" x="1140.69" y="-1232.52" font-family="Arial" font-size="20.00" fill="maroon">gap: 0sec</text>
<text text-anchor="middle" x="1140.69" y="-1210.52" font-family="Arial" font-size="20.00" fill="maroon">end_prev: 03/11/18, 18:07:13</text>
</g>
<!-- INFO DISCOVERY
wap&#45;wsp&#45;&gt;DATA EXFILTRATION
wap&#45;wsp | ID: 21 -->
<g id="edge9" class="edge">
<title>INFO DISCOVERY
wap&#45;wsp&#45;&gt;DATA EXFILTRATION
wap&#45;wsp | ID: 21</title>
<path fill="none" stroke="maroon" stroke-width="5" d="M593.32,-1264.89C604.46,-1271.04 614.73,-1278.61 623.19,-1287.95 641.49,-1308.15 624.71,-1325.75 638.85,-1352.9"/>
<polygon fill="maroon" stroke="maroon" stroke-width="5" points="635.3,-1355.48 644.3,-1361.65 642.72,-1350.85 635.3,-1355.48"/>
<text text-anchor="middle" x="790.69" y="-1337.95" font-family="Arial" font-size="20.00" fill="maroon">start_next: 03/11/18, 15:05:26</text>
<text text-anchor="middle" x="790.69" y="-1315.95" font-family="Arial" font-size="20.00" fill="maroon">gap: &#45;10sec</text>
<text text-anchor="middle" x="790.69" y="-1293.95" font-family="Arial" font-size="20.00" fill="maroon">end_prev: 03/11/18, 15:05:37</text>
</g>
<!-- ARBITRARY CODE EXECUTION
wap&#45;wsp | ID: 108 -->
<g id="node12" class="node">
<title>ARBITRARY CODE EXECUTION
wap&#45;wsp | ID: 108</title>
<g id="a_node12"><a xlink:title="ET WEB_SPECIFIC_APPS WEB&#45;PHP RCE PHPBB 2004&#45;1315&#10;ET WEB_SPECIFIC_APPS Golem Gaming Portal root_path Parameter Remote File inclusion Attempt&#10;ET WEB_SERVER Exploit Suspected PHP Injection Attack (cmd=)&#10;ET WEB_SERVER Possible CVE&#45;2014&#45;6271 Attempt in Headers&#10;ET CURRENT_EVENTS QNAP Shellshock CVE&#45;2014&#45;6271&#10;ET WEB_SPECIFIC_APPS BASE base_stat_common.php remote file include">
<polygon fill="none" stroke="black" stroke-width="3" stroke-dasharray="1,5" points="403.69,-1601.93 30.69,-1601.93 30.69,-1541.93 403.69,-1541.93 403.69,-1601.93"/>
<text text-anchor="middle" x="217.19" y="-1578.73" font-family="Arial" font-size="24.00">ARBITRARY CODE EXECUTION</text>
<text text-anchor="middle" x="217.19" y="-1552.73" font-family="Arial" font-size="24.00">wap&#45;wsp | ID: 108</text>
</a>
</g>
</g>
<!-- INFO DISCOVERY
wap&#45;wsp&#45;&gt;ARBITRARY CODE EXECUTION
wap&#45;wsp | ID: 108 -->
<g id="edge21" class="edge">
<title>INFO DISCOVERY
wap&#45;wsp&#45;&gt;ARBITRARY CODE EXECUTION
wap&#45;wsp | ID: 108</title>
<path fill="none" stroke="maroon" stroke-width="5" d="M347.56,-1261.56C293.67,-1278.91 237.76,-1309.19 213.19,-1361.95 187.73,-1416.62 197.01,-1488.37 206.65,-1531.99"/>
<polygon fill="maroon" stroke="maroon" stroke-width="5" points="202.44,-1533.17 208.96,-1541.92 210.96,-1531.19 202.44,-1533.17"/>
<text text-anchor="middle" x="365.69" y="-1427.94" font-family="Arial" font-size="20.00" fill="maroon">start_next: 03/11/18, 18:07:14</text>
<text text-anchor="middle" x="365.69" y="-1405.94" font-family="Arial" font-size="20.00" fill="maroon">gap: &#45;10sec</text>
<text text-anchor="middle" x="365.69" y="-1383.94" font-family="Arial" font-size="20.00" fill="maroon">end_prev: 03/11/18, 18:07:24</text>
</g>
<!-- DATA EXFILTRATION
wap&#45;wsp | ID: 21&#45;&gt;INFO DISCOVERY
wap&#45;wsp -->
<g id="edge20" class="edge">
<title>DATA EXFILTRATION
wap&#45;wsp | ID: 21&#45;&gt;INFO DISCOVERY
wap&#45;wsp</title>
<path fill="none" stroke="maroon" stroke-width="5" d="M594.04,-1375.99C568.06,-1370.42 540.88,-1365.36 515.19,-1361.95 504.27,-1360.5 324.81,-1361.89 317.19,-1353.95 296.87,-1332.79 299.82,-1311.59 317.19,-1287.95 323.25,-1279.7 330.69,-1272.79 339,-1267"/>
<polygon fill="maroon" stroke="maroon" stroke-width="5" points="341.46,-1270.62 347.58,-1261.58 336.79,-1263.22 341.46,-1270.62"/>
<text text-anchor="middle" x="469.69" y="-1337.95" font-family="Arial" font-size="20.00" fill="maroon">start_next: 03/11/18, 18:07:13</text>
<text text-anchor="middle" x="469.69" y="-1315.95" font-family="Arial" font-size="20.00" fill="maroon">gap: &#45;6sec</text>
<text text-anchor="middle" x="469.69" y="-1293.95" font-family="Arial" font-size="20.00" fill="maroon">end_prev: 03/11/18, 18:07:19</text>
</g>
<!-- DATA EXFILTRATION
wap&#45;wsp | ID: 21&#45;&gt;ARBITRARY CODE EXECUTION
wap&#45;wsp | ID: 108 -->
<g id="edge10" class="edge">
<title>DATA EXFILTRATION
wap&#45;wsp | ID: 21&#45;&gt;ARBITRARY CODE EXECUTION
wap&#45;wsp | ID: 108</title>
<path fill="none" stroke="maroon" stroke-width="5" d="M603.3,-1450.32C516.65,-1477.39 401.92,-1513.23 320.09,-1538.79"/>
<polygon fill="maroon" stroke="maroon" stroke-width="5" points="318.52,-1534.69 310.28,-1541.85 321.13,-1543.04 318.52,-1534.69"/>
<text text-anchor="middle" x="684.69" y="-1517.93" font-family="Arial" font-size="20.00" fill="maroon">start_next: 03/11/18, 15:05:27</text>
<text text-anchor="middle" x="684.69" y="-1495.93" font-family="Arial" font-size="20.00" fill="maroon">gap: &#45;5sec</text>
<text text-anchor="middle" x="684.69" y="-1473.93" font-family="Arial" font-size="20.00" fill="maroon">end_prev: 03/11/18, 15:05:32</text>
</g>
<!-- ROOT PRIVILEGE ESCALATION
wap&#45;wsp | ID: 61 -->
<g id="node13" class="node">
<title>ROOT PRIVILEGE ESCALATION
wap&#45;wsp | ID: 61</title>
<g id="a_node13"><a xlink:title="GPL EXPLOIT CodeRed v2 root.exe access&#10;ET WEB_SERVER ColdFusion administrator access&#10;ETPRO WEB_SPECIFIC_APPS ipTIME firmware &lt; 9.58 RCE&#10;GPL EXPLOIT administrators.pwd access">
<polygon fill="none" stroke="black" stroke-width="3" stroke-dasharray="1,5" points="404.19,-1743.93 30.19,-1743.93 30.19,-1683.93 404.19,-1683.93 404.19,-1743.93"/>
<text text-anchor="middle" x="217.19" y="-1720.73" font-family="Arial" font-size="24.00">ROOT PRIVILEGE ESCALATION</text>
<text text-anchor="middle" x="217.19" y="-1694.73" font-family="Arial" font-size="24.00">wap&#45;wsp | ID: 61</text>
</a>
</g>
</g>
<!-- ARBITRARY CODE EXECUTION
wap&#45;wsp | ID: 108&#45;&gt;ROOT PRIVILEGE ESCALATION
wap&#45;wsp | ID: 61 -->
<g id="edge11" class="edge">
<title>ARBITRARY CODE EXECUTION
wap&#45;wsp | ID: 108&#45;&gt;ROOT PRIVILEGE ESCALATION
wap&#45;wsp | ID: 61</title>
<path fill="none" stroke="maroon" stroke-width="5" d="M72.99,-1602.06C68.75,-1604.5 65.4,-1607.12 63.19,-1609.93 45.03,-1632.97 45.03,-1652.89 63.19,-1675.93 63.67,-1676.54 64.21,-1677.15 64.8,-1677.74"/>
<polygon fill="maroon" stroke="maroon" stroke-width="5" points="62.35,-1681.37 72.99,-1683.79 67.55,-1674.33 62.35,-1681.37"/>
<text text-anchor="middle" x="215.69" y="-1659.93" font-family="Arial" font-size="20.00" fill="maroon">start_next: 03/11/18, 15:05:27</text>
<text text-anchor="middle" x="215.69" y="-1637.93" font-family="Arial" font-size="20.00" fill="maroon">gap: &#45;9sec</text>
<text text-anchor="middle" x="215.69" y="-1615.93" font-family="Arial" font-size="20.00" fill="maroon">end_prev: 03/11/18, 15:05:37</text>
</g>
<!-- ARBITRARY CODE EXECUTION
wap&#45;wsp | ID: 108&#45;&gt;ROOT PRIVILEGE ESCALATION
wap&#45;wsp | ID: 61 -->
<g id="edge22" class="edge">
<title>ARBITRARY CODE EXECUTION
wap&#45;wsp | ID: 108&#45;&gt;ROOT PRIVILEGE ESCALATION
wap&#45;wsp | ID: 61</title>
<path fill="none" stroke="maroon" stroke-width="5" d="M355.31,-1602.02C359.61,-1604.48 362.99,-1607.11 365.19,-1609.93 383.24,-1633.05 383.24,-1652.81 365.19,-1675.93 364.71,-1676.55 364.17,-1677.15 363.58,-1677.75"/>
<polygon fill="maroon" stroke="maroon" stroke-width="5" points="360.77,-1674.39 355.31,-1683.84 365.96,-1681.43 360.77,-1674.39"/>
<text text-anchor="middle" x="530.69" y="-1659.93" font-family="Arial" font-size="20.00" fill="maroon">start_next: 03/11/18, 18:07:14</text>
<text text-anchor="middle" x="530.69" y="-1637.93" font-family="Arial" font-size="20.00" fill="maroon">gap: &#45;9sec</text>
<text text-anchor="middle" x="530.69" y="-1615.93" font-family="Arial" font-size="20.00" fill="maroon">end_prev: 03/11/18, 18:07:24</text>
</g>
<!-- ROOT PRIVILEGE ESCALATION
wap&#45;wsp | ID: 61&#45;&gt;DATA MANIPULATION
wap&#45;wsp | ID: 22 -->
<g id="edge12" class="edge">
<title>ROOT PRIVILEGE ESCALATION
wap&#45;wsp | ID: 61&#45;&gt;DATA MANIPULATION
wap&#45;wsp | ID: 22</title>
<path fill="none" stroke="maroon" stroke-width="5" d="M72.99,-1744.06C68.75,-1746.5 65.4,-1749.12 63.19,-1751.93 45.03,-1774.97 46.36,-1793.9 63.19,-1817.93 66.5,-1822.66 70.26,-1827 74.37,-1830.97"/>
<polygon fill="maroon" stroke="maroon" stroke-width="5" points="71.72,-1834.46 82.13,-1837.72 77.46,-1827.86 71.72,-1834.46"/>
<text text-anchor="middle" x="215.69" y="-1801.93" font-family="Arial" font-size="20.00" fill="maroon">start_next: 03/11/18, 15:05:28</text>
<text text-anchor="middle" x="215.69" y="-1779.93" font-family="Arial" font-size="20.00" fill="maroon">gap: &#45;4sec</text>
<text text-anchor="middle" x="215.69" y="-1757.93" font-family="Arial" font-size="20.00" fill="maroon">end_prev: 03/11/18, 15:05:33</text>
</g>
<!-- ROOT PRIVILEGE ESCALATION
wap&#45;wsp | ID: 61&#45;&gt;DATA MANIPULATION
wap&#45;wsp | ID: 22 -->
<g id="edge23" class="edge">
<title>ROOT PRIVILEGE ESCALATION
wap&#45;wsp | ID: 61&#45;&gt;DATA MANIPULATION
wap&#45;wsp | ID: 22</title>
<path fill="none" stroke="maroon" stroke-width="5" d="M355.31,-1744.02C359.61,-1746.48 362.99,-1749.11 365.19,-1751.93 383.24,-1775.05 381.86,-1793.79 365.19,-1817.93 362.48,-1821.85 359.46,-1825.49 356.18,-1828.89"/>
<polygon fill="maroon" stroke="maroon" stroke-width="5" points="352.97,-1825.9 348.61,-1835.91 358.92,-1832.31 352.97,-1825.9"/>
<text text-anchor="middle" x="530.69" y="-1801.93" font-family="Arial" font-size="20.00" fill="maroon">start_next: 03/11/18, 18:07:15</text>
<text text-anchor="middle" x="530.69" y="-1779.93" font-family="Arial" font-size="20.00" fill="maroon">gap: &#45;4sec</text>
<text text-anchor="middle" x="530.69" y="-1757.93" font-family="Arial" font-size="20.00" fill="maroon">end_prev: 03/11/18, 18:07:19</text>
</g>
</g>
</svg>
