<?xml version="1.0" encoding="UTF-8" standalone="no"?>
<!DOCTYPE svg PUBLIC "-//W3C//DTD SVG 1.1//EN"
 "http://www.w3.org/Graphics/SVG/1.1/DTD/svg11.dtd">
<!-- Generated by graphviz version 2.43.0 (0)
 -->
<!-- Title: RESOURCEHIJACKINGhttp Pages: 1 -->
<svg width="1988pt" height="2077pt"
 viewBox="0.00 0.00 1988.02 2076.83" xmlns="http://www.w3.org/2000/svg" xmlns:xlink="http://www.w3.org/1999/xlink">
<g id="graph0" class="graph" transform="scale(1 1) rotate(0) translate(4 2072.83)">
<title>RESOURCEHIJACKINGhttp</title>
<polygon fill="white" stroke="transparent" points="-4,4 -4,-2072.83 1984.02,-2072.83 1984.02,4 -4,4"/>
<!-- Victim: 10.0.1.5
RESOURCE HIJACKING
http -->
<g id="node1" class="node">
<title>Victim: 10.0.1.5
RESOURCE HIJACKING
http</title>
<polygon fill="salmon" stroke="black" stroke-width="3" points="1504.03,-1971.81 1504.03,-2026.2 1379.83,-2064.66 1204.2,-2064.66 1080,-2026.2 1080,-1971.81 1204.2,-1933.35 1379.83,-1933.35 1504.03,-1971.81"/>
<polygon fill="none" stroke="black" stroke-width="3" points="1508.03,-1968.87 1508.03,-2029.14 1380.44,-2068.65 1203.59,-2068.65 1076,-2029.14 1076,-1968.87 1203.59,-1929.36 1380.44,-1929.36 1508.03,-1968.87"/>
<text text-anchor="middle" x="1292.02" y="-2018.8" font-family="Arial" font-size="24.00">Victim: 10.0.1.5</text>
<text text-anchor="middle" x="1292.02" y="-1992.8" font-family="Arial" font-size="24.00">RESOURCE HIJACKING</text>
<text text-anchor="middle" x="1292.02" y="-1966.8" font-family="Arial" font-size="24.00">http</text>
</g>
<!-- RESOURCE HIJACKING
http | ID: 52 -->
<g id="node2" class="node">
<title>RESOURCE HIJACKING
http | ID: 52</title>
<g id="a_node2"><a xlink:title="GPL WEB_SERVER Oracle Java Process Manager access">
<polygon fill="salmon" stroke="black" stroke-width="3" points="1518.35,-1863.19 1405.19,-1912.17 1178.85,-1912.17 1065.68,-1863.19 1178.85,-1814.21 1405.19,-1814.21 1518.35,-1863.19"/>
<text text-anchor="middle" x="1292.02" y="-1869.99" font-family="Arial" font-size="24.00">RESOURCE HIJACKING</text>
<text text-anchor="middle" x="1292.02" y="-1843.99" font-family="Arial" font-size="24.00">http | ID: 52</text>
</a>
</g>
</g>
<!-- RESOURCE HIJACKING
http | ID: 52&#45;&gt;Victim: 10.0.1.5
RESOURCE HIJACKING
http -->
<g id="edge1" class="edge">
<title>RESOURCE HIJACKING
http | ID: 52&#45;&gt;Victim: 10.0.1.5
RESOURCE HIJACKING
http</title>
<path fill="none" stroke="black" stroke-width="5" d="M1292.02,-1912.5C1292.02,-1914.61 1292.02,-1916.74 1292.02,-1918.89"/>
<polygon fill="black" stroke="black" stroke-width="5" points="1287.64,-1919.04 1292.02,-1929.04 1296.39,-1919.04 1287.64,-1919.04"/>
</g>
<!-- HOST DISCOVERY
http -->
<g id="node3" class="node">
<title>HOST DISCOVERY
http</title>
<g id="a_node3"><a xlink:title="ET SCAN Possible Nmap User&#45;Agent Observed&#10;ET SCAN Nmap Scripting Engine User&#45;Agent Detected (Nmap Scripting Engine)">
<ellipse fill="yellow" stroke="black" stroke-width="3" cx="328.02" cy="-403.26" rx="161.44" ry="42.35"/>
<text text-anchor="middle" x="328.02" y="-410.06" font-family="Arial" font-size="24.00">HOST DISCOVERY</text>
<text text-anchor="middle" x="328.02" y="-384.06" font-family="Arial" font-size="24.00">http</text>
</a>
</g>
</g>
<!-- VULNERABILTY DISCOVERY
ms&#45;sql&#45;s -->
<g id="node4" class="node">
<title>VULNERABILTY DISCOVERY
ms&#45;sql&#45;s</title>
<g id="a_node4"><a xlink:title="ET SCAN Suspicious inbound to Oracle SQL port 1521&#10;ET SCAN Suspicious inbound to MSSQL port 1433&#10;ET SCAN Suspicious inbound to mySQL port 3306&#10;ET SCAN Nikto Web App Scan in Progress&#10;ET SCAN Suspicious inbound to PostgreSQL port 5432&#10;ET SCAN Suspicious inbound to mSQL port 4333">
<ellipse fill="none" stroke="black" stroke-width="3" cx="344.02" cy="-736.96" rx="238.09" ry="42.35"/>
<text text-anchor="middle" x="344.02" y="-743.76" font-family="Arial" font-size="24.00">VULNERABILTY DISCOVERY</text>
<text text-anchor="middle" x="344.02" y="-717.76" font-family="Arial" font-size="24.00">ms&#45;sql&#45;s</text>
</a>
</g>
</g>
<!-- HOST DISCOVERY
http&#45;&gt;VULNERABILTY DISCOVERY
ms&#45;sql&#45;s -->
<g id="edge2" class="edge">
<title>HOST DISCOVERY
http&#45;&gt;VULNERABILTY DISCOVERY
ms&#45;sql&#45;s</title>
<path fill="none" stroke="maroon" stroke-width="5" d="M327.48,-445.97C327.18,-499.16 327.9,-594.18 335.96,-684.37"/>
<polygon fill="maroon" stroke="maroon" stroke-width="5" points="331.62,-684.93 336.89,-694.49 340.33,-684.12 331.62,-684.93"/>
<text text-anchor="start" x="331.02" y="-595.11" font-family="Arial" font-size="20.00" fill="maroon"> start_next: 03/11/18, 14:42:24</text>
<text text-anchor="start" x="438.02" y="-575.11" font-family="Arial" font-size="20.00" fill="maroon">gap: 2sec</text>
<text text-anchor="start" x="339.02" y="-555.11" font-family="Arial" font-size="20.00" fill="maroon">end_prev: 03/11/18, 14:42:22</text>
<text text-anchor="start" x="355.02" y="-535.11" font-family="Arial" font-weight="bold" font-size="20.00" fill="maroon">Attacker: 10.0.254.201</text>
</g>
<!-- HOST DISCOVERY
http&#45;&gt;VULNERABILTY DISCOVERY
ms&#45;sql&#45;s -->
<g id="edge11" class="edge">
<title>HOST DISCOVERY
http&#45;&gt;VULNERABILTY DISCOVERY
ms&#45;sql&#45;s</title>
<path fill="none" stroke="maroon" stroke-width="5" d="M186.65,-423.84C123.38,-440.44 54.5,-471.08 16.02,-527.69 -5.19,-558.87 -5.45,-581.53 16.02,-612.54 48.19,-659.02 100.22,-688.03 153.46,-706.11"/>
<polygon fill="maroon" stroke="maroon" stroke-width="5" points="152.19,-710.3 163.05,-709.25 154.91,-701.98 152.19,-710.3"/>
<text text-anchor="start" x="16.02" y="-595.11" font-family="Arial" font-size="20.00" fill="maroon"> start_next: 03/11/18, 17:37:52</text>
<text text-anchor="start" x="123.02" y="-575.11" font-family="Arial" font-size="20.00" fill="maroon">gap: 4sec</text>
<text text-anchor="start" x="24.02" y="-555.11" font-family="Arial" font-size="20.00" fill="maroon">end_prev: 03/11/18, 17:37:48</text>
<text text-anchor="start" x="40.02" y="-535.11" font-family="Arial" font-weight="bold" font-size="20.00" fill="maroon">Attacker: 10.0.254.204</text>
</g>
<!-- INFO DISCOVERY
http -->
<g id="node5" class="node">
<title>INFO DISCOVERY
http</title>
<g id="a_node5"><a xlink:title="GPL WEB_SERVER iisadmin access&#10;GPL WEB_SERVER printenv access&#10;GPL WEB_SERVER author.exe access&#10;ET WEB_SERVER PHP Easteregg Information&#45;Disclosure (phpinfo)&#10;ET WEB_SERVER PHP Easteregg Information&#45;Disclosure (funny&#45;logo)&#10;GPL WEB_SERVER globals.pl access&#10;GPL WEB_SERVER viewcode access&#10;ET WEB_SPECIFIC_APPS Request to Wordpress W3TC Plug&#45;in dbcache Directory&#10;GPL EXPLOIT ISAPI .idq attempt&#10;ET POLICY Proxy TRACE Request &#45; inbound&#10;GPL WEB_SERVER /~root access&#10;GPL WEB_SERVER service.pwd&#10;ET WEB_SERVER PHP REQUEST SuperGlobal in URI&#10;ET WEB_SERVER PHP Easteregg Information&#45;Disclosure (php&#45;logo)&#10;GPL WEB_SERVER services.cnf access&#10;GPL EXPLOIT unicode directory traversal attempt&#10;GPL EXPLOIT .htr access&#10;GPL EXPLOIT .cnf access&#10;ET WEB_SERVER PHP SERVER SuperGlobal in URI&#10;GPL WEB_SERVER .htaccess access&#10;GPL EXPLOIT iisadmpwd attempt&#10;GPL WEB_SERVER service.cnf access&#10;GPL WEB_SERVER global.asa access&#10;GPL EXPLOIT fpcount access&#10;GPL WEB_SERVER .htpasswd access&#10;ET WEB_SERVER PHP SESSION SuperGlobal in URI&#10;GPL WEB_SERVER 403 Forbidden&#10;GPL WEB_SERVER writeto.cnf access&#10;GPL EXPLOIT iissamples access&#10;ET WEB_SERVER PHP Easteregg Information&#45;Disclosure (zend&#45;logo)&#10;ET WEB_SERVER PHP ENV SuperGlobal in URI&#10;GPL WEB_SERVER authors.pwd access">
<ellipse fill="none" stroke="black" stroke-width="3" cx="888.02" cy="-570.11" rx="154.3" ry="42.35"/>
<text text-anchor="middle" x="888.02" y="-576.91" font-family="Arial" font-size="24.00">INFO DISCOVERY</text>
<text text-anchor="middle" x="888.02" y="-550.91" font-family="Arial" font-size="24.00">http</text>
</a>
</g>
</g>
<!-- HOST DISCOVERY
http&#45;&gt;INFO DISCOVERY
http -->
<g id="edge22" class="edge">
<title>HOST DISCOVERY
http&#45;&gt;INFO DISCOVERY
http</title>
<path fill="none" stroke="maroon" stroke-width="5" d="M433.68,-435.36C530.92,-463.99 674.75,-506.33 774.42,-535.67"/>
<polygon fill="maroon" stroke="maroon" stroke-width="5" points="773.4,-539.93 784.23,-538.56 775.87,-531.54 773.4,-539.93"/>
<text text-anchor="middle" x="858.52" y="-503.69" font-family="Arial" font-size="20.00" fill="maroon">start_next: 03/11/18, 22:31:05</text>
<text text-anchor="middle" x="858.52" y="-481.69" font-family="Arial" font-size="20.00" fill="maroon">gap: 2sec</text>
<text text-anchor="middle" x="858.52" y="-459.69" font-family="Arial" font-size="20.00" fill="maroon">end_prev: 03/11/18, 22:31:03</text>
</g>
<!-- VULNERABILTY DISCOVERY
ms&#45;sql&#45;s&#45;&gt;INFO DISCOVERY
http -->
<g id="edge3" class="edge">
<title>VULNERABILTY DISCOVERY
ms&#45;sql&#45;s&#45;&gt;INFO DISCOVERY
http</title>
<path fill="none" stroke="maroon" stroke-width="5" d="M558.74,-718.55C599.67,-711.3 634.57,-701.04 650.02,-686.54 671.95,-665.95 643.69,-641.75 665.02,-620.54 677.2,-608.42 706.71,-598.84 740.41,-591.47"/>
<polygon fill="maroon" stroke="maroon" stroke-width="5" points="741.61,-595.68 750.5,-589.35 739.81,-587.12 741.61,-595.68"/>
<text text-anchor="middle" x="817.52" y="-670.54" font-family="Arial" font-size="20.00" fill="maroon">start_next: 03/11/18, 14:42:24</text>
<text text-anchor="middle" x="817.52" y="-648.54" font-family="Arial" font-size="20.00" fill="maroon">gap: &#45;27sec</text>
<text text-anchor="middle" x="817.52" y="-626.54" font-family="Arial" font-size="20.00" fill="maroon">end_prev: 03/11/18, 14:42:50</text>
</g>
<!-- DATA EXFILTRATION
http | ID: 12 -->
<g id="node6" class="node">
<title>DATA EXFILTRATION
http | ID: 12</title>
<g id="a_node6"><a xlink:title="ET WEB_SERVER Possible XXE SYSTEM ENTITY in POST BODY.&#10;GPL EXPLOIT ISAPI .ida access&#10;ET WEB_SERVER /system32/ in Uri &#45; Possible Protected Directory Access Attempt&#10;GPL WEB_SERVER Tomcat server snoop access&#10;ET WEB_SERVER ColdFusion componentutils access&#10;GPL EXPLOIT /msadc/samples/ access&#10;ET WEB_SPECIFIC_APPS PHP&#45;CGI query string parameter vulnerability&#10;GPL EXPLOIT ISAPI .idq access&#10;ET WEB_SERVER /etc/shadow Detected in URI">
<polygon fill="none" stroke="black" stroke-width="3" points="1179.9,-910.38 1077.46,-959.36 872.58,-959.36 770.13,-910.38 872.58,-861.4 1077.46,-861.4 1179.9,-910.38"/>
<text text-anchor="middle" x="975.02" y="-917.18" font-family="Arial" font-size="24.00">DATA EXFILTRATION</text>
<text text-anchor="middle" x="975.02" y="-891.18" font-family="Arial" font-size="24.00">http | ID: 12</text>
</a>
</g>
</g>
<!-- VULNERABILTY DISCOVERY
ms&#45;sql&#45;s&#45;&gt;DATA EXFILTRATION
http | ID: 12 -->
<g id="edge12" class="edge">
<title>VULNERABILTY DISCOVERY
ms&#45;sql&#45;s&#45;&gt;DATA EXFILTRATION
http | ID: 12</title>
<path fill="none" stroke="maroon" stroke-width="5" d="M558.74,-755.38C599.67,-762.63 634.57,-772.89 650.02,-787.39 671.95,-807.98 643.27,-832.6 665.02,-853.39 684.83,-872.33 736.65,-885.02 792.37,-893.46"/>
<polygon fill="maroon" stroke="maroon" stroke-width="5" points="791.92,-897.81 802.45,-894.93 793.18,-889.15 791.92,-897.81"/>
<text text-anchor="middle" x="817.52" y="-837.39" font-family="Arial" font-size="20.00" fill="maroon">start_next: 03/11/18, 17:37:53</text>
<text text-anchor="middle" x="817.52" y="-815.39" font-family="Arial" font-size="20.00" fill="maroon">gap: &#45;292sec</text>
<text text-anchor="middle" x="817.52" y="-793.39" font-family="Arial" font-size="20.00" fill="maroon">end_prev: 03/11/18, 17:42:45</text>
</g>
<!-- VULNERABILTY DISCOVERY
ms&#45;sql&#45;s&#45;&gt;DATA EXFILTRATION
http | ID: 12 -->
<g id="edge24" class="edge">
<title>VULNERABILTY DISCOVERY
ms&#45;sql&#45;s&#45;&gt;DATA EXFILTRATION
http | ID: 12</title>
<path fill="none" stroke="maroon" stroke-width="5" d="M331.39,-779.52C326.71,-804.03 326.22,-833.95 344.02,-853.39 372.76,-884.8 597.66,-898.7 770.86,-904.78"/>
<polygon fill="maroon" stroke="maroon" stroke-width="5" points="770.74,-909.15 780.88,-905.12 771.04,-900.41 770.74,-909.15"/>
<text text-anchor="middle" x="496.52" y="-837.39" font-family="Arial" font-size="20.00" fill="maroon">start_next: 03/11/18, 22:31:05</text>
<text text-anchor="middle" x="496.52" y="-815.39" font-family="Arial" font-size="20.00" fill="maroon">gap: &#45;46sec</text>
<text text-anchor="middle" x="496.52" y="-793.39" font-family="Arial" font-size="20.00" fill="maroon">end_prev: 03/11/18, 22:31:51</text>
</g>
<!-- INFO DISCOVERY
http&#45;&gt;VULNERABILTY DISCOVERY
ms&#45;sql&#45;s -->
<g id="edge23" class="edge">
<title>INFO DISCOVERY
http&#45;&gt;VULNERABILTY DISCOVERY
ms&#45;sql&#45;s</title>
<path fill="none" stroke="maroon" stroke-width="5" d="M763.89,-595.31C724.44,-602.07 680.53,-608.63 640.02,-612.54 623.64,-614.12 355.49,-608.75 344.02,-620.54 335.19,-629.6 335.07,-657.8 337.22,-684.05"/>
<polygon fill="maroon" stroke="maroon" stroke-width="5" points="332.89,-684.8 338.17,-694.35 341.6,-683.99 332.89,-684.8"/>
<text text-anchor="middle" x="496.52" y="-670.54" font-family="Arial" font-size="20.00" fill="maroon">start_next: 03/11/18, 22:31:05</text>
<text text-anchor="middle" x="496.52" y="-648.54" font-family="Arial" font-size="20.00" fill="maroon">gap: &#45;28sec</text>
<text text-anchor="middle" x="496.52" y="-626.54" font-family="Arial" font-size="20.00" fill="maroon">end_prev: 03/11/18, 22:31:33</text>
</g>
<!-- INFO DISCOVERY
http&#45;&gt;DATA EXFILTRATION
http | ID: 12 -->
<g id="edge4" class="edge">
<title>INFO DISCOVERY
http&#45;&gt;DATA EXFILTRATION
http | ID: 12</title>
<path fill="none" stroke="maroon" stroke-width="5" d="M957.72,-608.09C961.28,-611.9 964.44,-616.04 967.02,-620.54 978.12,-639.94 977.64,-772.36 976.32,-851"/>
<polygon fill="maroon" stroke="maroon" stroke-width="5" points="971.94,-851.18 976.14,-861.25 980.69,-851.33 971.94,-851.18"/>
<text text-anchor="middle" x="1128.52" y="-753.96" font-family="Arial" font-size="20.00" fill="maroon">start_next: 03/11/18, 14:42:24</text>
<text text-anchor="middle" x="1128.52" y="-731.96" font-family="Arial" font-size="20.00" fill="maroon">gap: &#45;13sec</text>
<text text-anchor="middle" x="1128.52" y="-709.96" font-family="Arial" font-size="20.00" fill="maroon">end_prev: 03/11/18, 14:42:37</text>
</g>
<!-- ARBITRARY CODE EXECUTION
http | ID: 97 -->
<g id="node7" class="node">
<title>ARBITRARY CODE EXECUTION
http | ID: 97</title>
<g id="a_node7"><a xlink:title="ET WEB_SERVER Possible CVE&#45;2014&#45;6271 Attempt&#10;ET WEB_SPECIFIC_APPS WEB&#45;PHP RCE PHPBB 2004&#45;1315&#10;ET WEB_SPECIFIC_APPS Golem Gaming Portal root_path Parameter Remote File inclusion Attempt&#10;ET WEB_SPECIFIC_APPS Joomla swMenuPro ImageManager.php Remote File Inclusion Attempt&#10;ETPRO WEB_SPECIFIC_APPS PHPMoAdmin RCE Attempt&#10;ET WEB_SERVER cmd.exe In URI &#45; Possible Command Execution Attempt&#10;ET WEB_SERVER Exploit Suspected PHP Injection Attack (cmd=)&#10;ET WEB_SPECIFIC_APPS FormMailer formmailer.admin.inc.php BASE_DIR Parameter Remote File Inclusion Attempt&#10;ET WEB_SPECIFIC_APPS DesktopOnNet don3_requiem.php app_path Parameter Remote File Inclusion&#10;ET WEB_SPECIFIC_APPS Joomla Dada Mail Manager Component config.dadamail.php GLOBALS Parameter Remote File Inclusion&#10;ET WEB_SERVER Possible CVE&#45;2014&#45;6271 Attempt in Headers&#10;ET WEB_SPECIFIC_APPS Achievo debugger.php config_atkroot parameter Remote File Inclusion Attempt&#10;ET CURRENT_EVENTS QNAP Shellshock CVE&#45;2014&#45;6271&#10;ET WEB_SPECIFIC_APPS KingCMS menu.php CONFIG Parameter Remote File Inclusion&#10;ET WEB_SPECIFIC_APPS AjaxPortal di.php pathtoserverdata Parameter Remote File Inclusion Attempt&#10;ET WEB_SPECIFIC_APPS BASE base_stat_common.php remote file include&#10;ET WEB_SPECIFIC_APPS DesktopOnNet frontpage.php app_path Parameter Remote File Inclusion&#10;ET WEB_SPECIFIC_APPS KR&#45;Web krgourl.php DOCUMENT_ROOT Parameter Remote File Inclusion Attempt&#10;ET WEB_SPECIFIC_APPS Joomla AjaxChat Component ajcuser.php GLOBALS Parameter Remote File Inclusion Attempt&#10;ET WEB_SPECIFIC_APPS Horde type Parameter Local File Inclusion Attempt">
<polygon fill="none" stroke="black" stroke-width="3" points="1478.52,-1101.37 1105.52,-1101.37 1105.52,-1041.37 1478.52,-1041.37 1478.52,-1101.37"/>
<text text-anchor="middle" x="1292.02" y="-1078.17" font-family="Arial" font-size="24.00">ARBITRARY CODE EXECUTION</text>
<text text-anchor="middle" x="1292.02" y="-1052.17" font-family="Arial" font-size="24.00">http | ID: 97</text>
</a>
</g>
</g>
<!-- INFO DISCOVERY
http&#45;&gt;ARBITRARY CODE EXECUTION
http | ID: 97 -->
<g id="edge14" class="edge">
<title>INFO DISCOVERY
http&#45;&gt;ARBITRARY CODE EXECUTION
http | ID: 97</title>
<path fill="none" stroke="maroon" stroke-width="5" d="M1041.35,-575.18C1229.53,-583.79 1532.31,-610.68 1602.02,-694.54 1698.28,-810.35 1701.99,-920.75 1602.02,-1033.37 1593.13,-1043.38 1544.91,-1051.18 1489.05,-1056.98"/>
<polygon fill="maroon" stroke="maroon" stroke-width="5" points="1488.42,-1052.64 1478.91,-1058 1489.3,-1061.35 1488.42,-1052.64"/>
<text text-anchor="middle" x="1827.52" y="-837.39" font-family="Arial" font-size="20.00" fill="maroon">start_next: 03/11/18, 17:37:56</text>
<text text-anchor="middle" x="1827.52" y="-815.39" font-family="Arial" font-size="20.00" fill="maroon">gap: &#45;45sec</text>
<text text-anchor="middle" x="1827.52" y="-793.39" font-family="Arial" font-size="20.00" fill="maroon">end_prev: 03/11/18, 17:38:41</text>
</g>
<!-- DATA EXFILTRATION
http | ID: 12&#45;&gt;INFO DISCOVERY
http -->
<g id="edge13" class="edge">
<title>DATA EXFILTRATION
http | ID: 12&#45;&gt;INFO DISCOVERY
http</title>
<path fill="none" stroke="maroon" stroke-width="5" d="M1123.56,-883.44C1183.26,-864.93 1246.29,-833.31 1282.02,-779.39 1302.84,-747.95 1304.34,-724.93 1282.02,-694.54 1250.9,-652.19 1126.19,-617.86 1025.3,-596.26"/>
<polygon fill="maroon" stroke="maroon" stroke-width="5" points="1025.99,-591.94 1015.3,-594.15 1024.18,-600.5 1025.99,-591.94"/>
<text text-anchor="middle" x="1450.52" y="-753.96" font-family="Arial" font-size="20.00" fill="maroon">start_next: 03/11/18, 17:37:53</text>
<text text-anchor="middle" x="1450.52" y="-731.96" font-family="Arial" font-size="20.00" fill="maroon">gap: &#45;48sec</text>
<text text-anchor="middle" x="1450.52" y="-709.96" font-family="Arial" font-size="20.00" fill="maroon">end_prev: 03/11/18, 17:38:41</text>
</g>
<!-- DATA EXFILTRATION
http | ID: 12&#45;&gt;ARBITRARY CODE EXECUTION
http | ID: 97 -->
<g id="edge5" class="edge">
<title>DATA EXFILTRATION
http | ID: 12&#45;&gt;ARBITRARY CODE EXECUTION
http | ID: 97</title>
<path fill="none" stroke="maroon" stroke-width="5" d="M1149.09,-925.21C1207.05,-933.5 1261.77,-946.64 1281.02,-967.37 1296.58,-984.14 1299.39,-1009.67 1298.28,-1031.11"/>
<polygon fill="maroon" stroke="maroon" stroke-width="5" points="1293.91,-1030.94 1297.46,-1041.26 1302.63,-1031.64 1293.91,-1030.94"/>
<text text-anchor="middle" x="1450.52" y="-1017.37" font-family="Arial" font-size="20.00" fill="maroon">start_next: 03/11/18, 14:42:25</text>
<text text-anchor="middle" x="1450.52" y="-995.37" font-family="Arial" font-size="20.00" fill="maroon">gap: &#45;12sec</text>
<text text-anchor="middle" x="1450.52" y="-973.37" font-family="Arial" font-size="20.00" fill="maroon">end_prev: 03/11/18, 14:42:37</text>
</g>
<!-- DATA EXFILTRATION
http | ID: 12&#45;&gt;ARBITRARY CODE EXECUTION
http | ID: 97 -->
<g id="edge25" class="edge">
<title>DATA EXFILTRATION
http | ID: 12&#45;&gt;ARBITRARY CODE EXECUTION
http | ID: 97</title>
<path fill="none" stroke="maroon" stroke-width="5" d="M961.09,-959.59C957.01,-984.52 957.56,-1013.75 975.02,-1033.37 984.35,-1043.86 1036.01,-1051.85 1095.01,-1057.66"/>
<polygon fill="maroon" stroke="maroon" stroke-width="5" points="1094.94,-1062.05 1105.32,-1058.65 1095.78,-1053.34 1094.94,-1062.05"/>
<text text-anchor="middle" x="1127.52" y="-1017.37" font-family="Arial" font-size="20.00" fill="maroon">start_next: 03/11/18, 22:31:07</text>
<text text-anchor="middle" x="1127.52" y="-995.37" font-family="Arial" font-size="20.00" fill="maroon">gap: &#45;26sec</text>
<text text-anchor="middle" x="1127.52" y="-973.37" font-family="Arial" font-size="20.00" fill="maroon">end_prev: 03/11/18, 22:31:33</text>
</g>
<!-- ROOT PRIVILEGE ESCALATION
http | ID: 51 -->
<g id="node8" class="node">
<title>ROOT PRIVILEGE ESCALATION
http | ID: 51</title>
<g id="a_node8"><a xlink:title="GPL EXPLOIT CodeRed v2 root.exe access&#10;ET WEB_SERVER ColdFusion administrator access&#10;ETPRO WEB_SPECIFIC_APPS ipTIME firmware &lt; 9.58 RCE&#10;GPL EXPLOIT administrators.pwd access">
<polygon fill="none" stroke="black" stroke-width="3" points="1479.02,-1243.37 1105.02,-1243.37 1105.02,-1183.37 1479.02,-1183.37 1479.02,-1243.37"/>
<text text-anchor="middle" x="1292.02" y="-1220.17" font-family="Arial" font-size="24.00">ROOT PRIVILEGE ESCALATION</text>
<text text-anchor="middle" x="1292.02" y="-1194.17" font-family="Arial" font-size="24.00">http | ID: 51</text>
</a>
</g>
</g>
<!-- ARBITRARY CODE EXECUTION
http | ID: 97&#45;&gt;ROOT PRIVILEGE ESCALATION
http | ID: 51 -->
<g id="edge6" class="edge">
<title>ARBITRARY CODE EXECUTION
http | ID: 97&#45;&gt;ROOT PRIVILEGE ESCALATION
http | ID: 51</title>
<path fill="none" stroke="maroon" stroke-width="5" d="M1105.49,-1084.43C1043.97,-1090.33 988.65,-1098.53 979.02,-1109.37 959.53,-1131.3 959.53,-1153.44 979.02,-1175.37 988.08,-1185.57 1037.58,-1193.44 1094.64,-1199.24"/>
<polygon fill="maroon" stroke="maroon" stroke-width="5" points="1094.23,-1203.6 1104.62,-1200.23 1095.1,-1194.89 1094.23,-1203.6"/>
<text text-anchor="middle" x="1131.52" y="-1159.37" font-family="Arial" font-size="20.00" fill="maroon">start_next: 03/11/18, 14:42:25</text>
<text text-anchor="middle" x="1131.52" y="-1137.37" font-family="Arial" font-size="20.00" fill="maroon">gap: &#45;12sec</text>
<text text-anchor="middle" x="1131.52" y="-1115.37" font-family="Arial" font-size="20.00" fill="maroon">end_prev: 03/11/18, 14:42:37</text>
</g>
<!-- ARBITRARY CODE EXECUTION
http | ID: 97&#45;&gt;ROOT PRIVILEGE ESCALATION
http | ID: 51 -->
<g id="edge15" class="edge">
<title>ARBITRARY CODE EXECUTION
http | ID: 97&#45;&gt;ROOT PRIVILEGE ESCALATION
http | ID: 51</title>
<path fill="none" stroke="maroon" stroke-width="5" d="M1292.02,-1101.38C1292.02,-1122.08 1292.02,-1150.16 1292.02,-1172.89"/>
<polygon fill="maroon" stroke="maroon" stroke-width="5" points="1287.64,-1172.92 1292.02,-1182.92 1296.39,-1172.92 1287.64,-1172.92"/>
<text text-anchor="middle" x="1444.52" y="-1159.37" font-family="Arial" font-size="20.00" fill="maroon">start_next: 03/11/18, 17:37:58</text>
<text text-anchor="middle" x="1444.52" y="-1137.37" font-family="Arial" font-size="20.00" fill="maroon">gap: &#45;44sec</text>
<text text-anchor="middle" x="1444.52" y="-1115.37" font-family="Arial" font-size="20.00" fill="maroon">end_prev: 03/11/18, 17:38:42</text>
</g>
<!-- ARBITRARY CODE EXECUTION
http | ID: 97&#45;&gt;ROOT PRIVILEGE ESCALATION
http | ID: 51 -->
<g id="edge26" class="edge">
<title>ARBITRARY CODE EXECUTION
http | ID: 97&#45;&gt;ROOT PRIVILEGE ESCALATION
http | ID: 51</title>
<path fill="none" stroke="maroon" stroke-width="5" d="M1478.63,-1085.09C1537.06,-1090.98 1588.83,-1099.01 1598.02,-1109.37 1617.47,-1131.32 1617.47,-1153.42 1598.02,-1175.37 1589.39,-1185.1 1543.2,-1192.78 1489.22,-1198.56"/>
<polygon fill="maroon" stroke="maroon" stroke-width="5" points="1488.55,-1194.23 1479.05,-1199.61 1489.45,-1202.93 1488.55,-1194.23"/>
<text text-anchor="middle" x="1764.52" y="-1159.37" font-family="Arial" font-size="20.00" fill="maroon">start_next: 03/11/18, 22:31:07</text>
<text text-anchor="middle" x="1764.52" y="-1137.37" font-family="Arial" font-size="20.00" fill="maroon">gap: &#45;26sec</text>
<text text-anchor="middle" x="1764.52" y="-1115.37" font-family="Arial" font-size="20.00" fill="maroon">end_prev: 03/11/18, 22:31:33</text>
</g>
<!-- DATA MANIPULATION
http | ID: 13 -->
<g id="node9" class="node">
<title>DATA MANIPULATION
http | ID: 13</title>
<g id="a_node9"><a xlink:title="ET WEB_SERVER Possible SQL Injection Attempt UNION SELECT&#10;ET WEB_SERVER Possible SQL Injection Attempt SELECT FROM&#10;ET WEB_SERVER MYSQL SELECT CONCAT SQL Injection Attempt">
<polygon fill="none" stroke="black" stroke-width="3" points="1509.39,-1374.36 1400.7,-1423.34 1183.33,-1423.34 1074.64,-1374.36 1183.33,-1325.38 1400.7,-1325.38 1509.39,-1374.36"/>
<text text-anchor="middle" x="1292.02" y="-1381.16" font-family="Arial" font-size="24.00">DATA MANIPULATION</text>
<text text-anchor="middle" x="1292.02" y="-1355.16" font-family="Arial" font-size="24.00">http | ID: 13</text>
</a>
</g>
</g>
<!-- ROOT PRIVILEGE ESCALATION
http | ID: 51&#45;&gt;DATA MANIPULATION
http | ID: 13 -->
<g id="edge7" class="edge">
<title>ROOT PRIVILEGE ESCALATION
http | ID: 51&#45;&gt;DATA MANIPULATION
http | ID: 13</title>
<path fill="none" stroke="maroon" stroke-width="5" d="M1104.62,-1226.51C1043.45,-1232.4 988.6,-1240.58 979.02,-1251.37 959.53,-1273.3 960.19,-1294.88 979.02,-1317.37 995.82,-1337.45 1043.13,-1350.33 1096.05,-1358.6"/>
<polygon fill="maroon" stroke="maroon" stroke-width="5" points="1095.45,-1362.93 1105.99,-1360.09 1096.75,-1354.28 1095.45,-1362.93"/>
<text text-anchor="middle" x="1131.52" y="-1301.37" font-family="Arial" font-size="20.00" fill="maroon">start_next: 03/11/18, 14:42:26</text>
<text text-anchor="middle" x="1131.52" y="-1279.37" font-family="Arial" font-size="20.00" fill="maroon">gap: &#45;4sec</text>
<text text-anchor="middle" x="1131.52" y="-1257.37" font-family="Arial" font-size="20.00" fill="maroon">end_prev: 03/11/18, 14:42:30</text>
</g>
<!-- ROOT PRIVILEGE ESCALATION
http | ID: 51&#45;&gt;DATA MANIPULATION
http | ID: 13 -->
<g id="edge16" class="edge">
<title>ROOT PRIVILEGE ESCALATION
http | ID: 51&#45;&gt;DATA MANIPULATION
http | ID: 13</title>
<path fill="none" stroke="maroon" stroke-width="5" d="M1292.02,-1243.53C1292.02,-1263.53 1292.02,-1290.76 1292.02,-1315.11"/>
<polygon fill="maroon" stroke="maroon" stroke-width="5" points="1287.64,-1315.34 1292.02,-1325.34 1296.39,-1315.34 1287.64,-1315.34"/>
<text text-anchor="middle" x="1444.52" y="-1301.37" font-family="Arial" font-size="20.00" fill="maroon">start_next: 03/11/18, 17:38:01</text>
<text text-anchor="middle" x="1444.52" y="-1279.37" font-family="Arial" font-size="20.00" fill="maroon">gap: &#45;15sec</text>
<text text-anchor="middle" x="1444.52" y="-1257.37" font-family="Arial" font-size="20.00" fill="maroon">end_prev: 03/11/18, 17:38:16</text>
</g>
<!-- ROOT PRIVILEGE ESCALATION
http | ID: 51&#45;&gt;DATA MANIPULATION
http | ID: 13 -->
<g id="edge27" class="edge">
<title>ROOT PRIVILEGE ESCALATION
http | ID: 51&#45;&gt;DATA MANIPULATION
http | ID: 13</title>
<path fill="none" stroke="maroon" stroke-width="5" d="M1479.05,-1227.13C1537.31,-1233.02 1588.85,-1241.03 1598.02,-1251.37 1617.47,-1273.32 1616.8,-1294.84 1598.02,-1317.37 1581.93,-1336.67 1537.11,-1349.34 1486.57,-1357.64"/>
<polygon fill="maroon" stroke="maroon" stroke-width="5" points="1485.59,-1353.37 1476.39,-1359.25 1486.95,-1362.01 1485.59,-1353.37"/>
<text text-anchor="middle" x="1764.52" y="-1301.37" font-family="Arial" font-size="20.00" fill="maroon">start_next: 03/11/18, 22:31:09</text>
<text text-anchor="middle" x="1764.52" y="-1279.37" font-family="Arial" font-size="20.00" fill="maroon">gap: &#45;9sec</text>
<text text-anchor="middle" x="1764.52" y="-1257.37" font-family="Arial" font-size="20.00" fill="maroon">end_prev: 03/11/18, 22:31:18</text>
</g>
<!-- SURFING
http -->
<g id="node10" class="node">
<title>SURFING
http</title>
<g id="a_node10"><a xlink:title="ET WEB_SERVER WEB&#45;PHP phpinfo access">
<ellipse fill="none" stroke="black" stroke-width="3" cx="1292.02" cy="-1547.78" rx="86.03" ry="42.35"/>
<text text-anchor="middle" x="1292.02" y="-1554.58" font-family="Arial" font-size="24.00">SURFING</text>
<text text-anchor="middle" x="1292.02" y="-1528.58" font-family="Arial" font-size="24.00">http</text>
</a>
</g>
</g>
<!-- DATA MANIPULATION
http | ID: 13&#45;&gt;SURFING
http -->
<g id="edge8" class="edge">
<title>DATA MANIPULATION
http | ID: 13&#45;&gt;SURFING
http</title>
<path fill="none" stroke="maroon" stroke-width="5" d="M1105.99,-1388.63C1049.14,-1396.81 996.86,-1410.03 979.02,-1431.35 960.19,-1453.84 959.96,-1475.05 979.02,-1497.35 1006.52,-1529.54 1114.1,-1540.89 1195.52,-1544.82"/>
<polygon fill="maroon" stroke="maroon" stroke-width="5" points="1195.63,-1549.21 1205.81,-1545.29 1196.02,-1540.46 1195.63,-1549.21"/>
<text text-anchor="middle" x="1131.52" y="-1481.35" font-family="Arial" font-size="20.00" fill="maroon">start_next: 03/11/18, 14:42:26</text>
<text text-anchor="middle" x="1131.52" y="-1459.35" font-family="Arial" font-size="20.00" fill="maroon">gap: &#45;3sec</text>
<text text-anchor="middle" x="1131.52" y="-1437.35" font-family="Arial" font-size="20.00" fill="maroon">end_prev: 03/11/18, 14:42:29</text>
</g>
<!-- DATA MANIPULATION
http | ID: 13&#45;&gt;SURFING
http -->
<g id="edge17" class="edge">
<title>DATA MANIPULATION
http | ID: 13&#45;&gt;SURFING
http</title>
<path fill="none" stroke="maroon" stroke-width="5" d="M1292.02,-1423.57C1292.02,-1445.89 1292.02,-1472.45 1292.02,-1495.18"/>
<polygon fill="maroon" stroke="maroon" stroke-width="5" points="1287.64,-1495.33 1292.02,-1505.33 1296.39,-1495.33 1287.64,-1495.33"/>
<text text-anchor="middle" x="1444.52" y="-1481.35" font-family="Arial" font-size="20.00" fill="maroon">start_next: 03/11/18, 17:38:01</text>
<text text-anchor="middle" x="1444.52" y="-1459.35" font-family="Arial" font-size="20.00" fill="maroon">gap: &#45;10sec</text>
<text text-anchor="middle" x="1444.52" y="-1437.35" font-family="Arial" font-size="20.00" fill="maroon">end_prev: 03/11/18, 17:38:12</text>
</g>
<!-- DATA MANIPULATION
http | ID: 13&#45;&gt;SURFING
http -->
<g id="edge28" class="edge">
<title>DATA MANIPULATION
http | ID: 13&#45;&gt;SURFING
http</title>
<path fill="none" stroke="maroon" stroke-width="5" d="M1476.39,-1389.47C1531.01,-1397.72 1580.85,-1410.76 1598.02,-1431.35 1616.8,-1453.88 1617.03,-1475.02 1598.02,-1497.35 1571.38,-1528.64 1467.62,-1540.19 1388.24,-1544.41"/>
<polygon fill="maroon" stroke="maroon" stroke-width="5" points="1387.96,-1540.04 1378.2,-1544.91 1388.4,-1548.78 1387.96,-1540.04"/>
<text text-anchor="middle" x="1764.52" y="-1481.35" font-family="Arial" font-size="20.00" fill="maroon">start_next: 03/11/18, 22:31:09</text>
<text text-anchor="middle" x="1764.52" y="-1459.35" font-family="Arial" font-size="20.00" fill="maroon">gap: &#45;6sec</text>
<text text-anchor="middle" x="1764.52" y="-1437.35" font-family="Arial" font-size="20.00" fill="maroon">end_prev: 03/11/18, 22:31:15</text>
</g>
<!-- ACCOUNT MANIPULATION
http | ID: 98 -->
<g id="node11" class="node">
<title>ACCOUNT MANIPULATION
http | ID: 98</title>
<g id="a_node11"><a xlink:title="GPL EXPLOIT /iisadmpwd/aexp2.htr access&#10;ET WEB_SERVER SELECT USER SQL Injection Attempt in URI">
<polygon fill="none" stroke="black" stroke-width="3" points="1453.52,-1732.2 1130.52,-1732.2 1130.52,-1672.2 1453.52,-1672.2 1453.52,-1732.2"/>
<text text-anchor="middle" x="1292.02" y="-1709" font-family="Arial" font-size="24.00">ACCOUNT MANIPULATION</text>
<text text-anchor="middle" x="1292.02" y="-1683" font-family="Arial" font-size="24.00">http | ID: 98</text>
</a>
</g>
</g>
<!-- SURFING
http&#45;&gt;ACCOUNT MANIPULATION
http | ID: 98 -->
<g id="edge9" class="edge">
<title>SURFING
http&#45;&gt;ACCOUNT MANIPULATION
http | ID: 98</title>
<path fill="none" stroke="maroon" stroke-width="5" d="M1205.81,-1550.27C1123.44,-1553.73 1007.7,-1564.64 979.02,-1598.2 959.96,-1620.5 959.53,-1642.28 979.02,-1664.2 989.39,-1675.87 1052.73,-1684.49 1119.75,-1690.46"/>
<polygon fill="maroon" stroke="maroon" stroke-width="5" points="1119.75,-1694.85 1130.1,-1691.36 1120.51,-1686.14 1119.75,-1694.85"/>
<text text-anchor="middle" x="1131.52" y="-1648.2" font-family="Arial" font-size="20.00" fill="maroon">start_next: 03/11/18, 14:42:27</text>
<text text-anchor="middle" x="1131.52" y="-1626.2" font-family="Arial" font-size="20.00" fill="maroon">gap: &#45;8sec</text>
<text text-anchor="middle" x="1131.52" y="-1604.2" font-family="Arial" font-size="20.00" fill="maroon">end_prev: 03/11/18, 14:42:36</text>
</g>
<!-- SURFING
http&#45;&gt;ACCOUNT MANIPULATION
http | ID: 98 -->
<g id="edge18" class="edge">
<title>SURFING
http&#45;&gt;ACCOUNT MANIPULATION
http | ID: 98</title>
<path fill="none" stroke="maroon" stroke-width="5" d="M1292.02,-1590.43C1292.02,-1612.7 1292.02,-1639.96 1292.02,-1661.87"/>
<polygon fill="maroon" stroke="maroon" stroke-width="5" points="1287.64,-1662.15 1292.02,-1672.15 1296.39,-1662.15 1287.64,-1662.15"/>
<text text-anchor="middle" x="1444.52" y="-1648.2" font-family="Arial" font-size="20.00" fill="maroon">start_next: 03/11/18, 17:38:05</text>
<text text-anchor="middle" x="1444.52" y="-1626.2" font-family="Arial" font-size="20.00" fill="maroon">gap: &#45;33sec</text>
<text text-anchor="middle" x="1444.52" y="-1604.2" font-family="Arial" font-size="20.00" fill="maroon">end_prev: 03/11/18, 17:38:39</text>
</g>
<!-- SURFING
http&#45;&gt;ACCOUNT MANIPULATION
http | ID: 98 -->
<g id="edge29" class="edge">
<title>SURFING
http&#45;&gt;ACCOUNT MANIPULATION
http | ID: 98</title>
<path fill="none" stroke="maroon" stroke-width="5" d="M1378.2,-1550.64C1458.61,-1554.42 1570.24,-1565.58 1598.02,-1598.2 1617.03,-1620.54 1617.47,-1642.25 1598.02,-1664.2 1588.08,-1675.42 1528.26,-1683.9 1464.11,-1689.9"/>
<polygon fill="maroon" stroke="maroon" stroke-width="5" points="1463.34,-1685.57 1453.78,-1690.84 1464.14,-1694.29 1463.34,-1685.57"/>
<text text-anchor="middle" x="1764.52" y="-1648.2" font-family="Arial" font-size="20.00" fill="maroon">start_next: 03/11/18, 22:31:12</text>
<text text-anchor="middle" x="1764.52" y="-1626.2" font-family="Arial" font-size="20.00" fill="maroon">gap: &#45;19sec</text>
<text text-anchor="middle" x="1764.52" y="-1604.2" font-family="Arial" font-size="20.00" fill="maroon">end_prev: 03/11/18, 22:31:31</text>
</g>
<!-- ACCOUNT MANIPULATION
http | ID: 98&#45;&gt;RESOURCE HIJACKING
http | ID: 52 -->
<g id="edge10" class="edge">
<title>ACCOUNT MANIPULATION
http | ID: 98&#45;&gt;RESOURCE HIJACKING
http | ID: 52</title>
<path fill="none" stroke="maroon" stroke-width="5" d="M1130.1,-1713.05C1059.38,-1719.04 989.92,-1727.93 979.02,-1740.2 959.53,-1762.13 960.19,-1783.71 979.02,-1806.2 995.21,-1825.55 1039.74,-1838.22 1090.31,-1846.51"/>
<polygon fill="maroon" stroke="maroon" stroke-width="5" points="1089.94,-1850.88 1100.5,-1848.11 1091.3,-1842.24 1089.94,-1850.88"/>
<text text-anchor="middle" x="1131.52" y="-1790.2" font-family="Arial" font-size="20.00" fill="maroon">start_next: 03/11/18, 14:42:29</text>
<text text-anchor="middle" x="1131.52" y="-1768.2" font-family="Arial" font-size="20.00" fill="maroon">gap: 0sec</text>
<text text-anchor="middle" x="1131.52" y="-1746.2" font-family="Arial" font-size="20.00" fill="maroon">end_prev: 03/11/18, 14:42:29</text>
</g>
<!-- ACCOUNT MANIPULATION
http | ID: 98&#45;&gt;RESOURCE HIJACKING
http | ID: 52 -->
<g id="edge19" class="edge">
<title>ACCOUNT MANIPULATION
http | ID: 98&#45;&gt;RESOURCE HIJACKING
http | ID: 52</title>
<path fill="none" stroke="maroon" stroke-width="5" d="M1292.02,-1732.36C1292.02,-1752.37 1292.02,-1779.59 1292.02,-1803.94"/>
<polygon fill="maroon" stroke="maroon" stroke-width="5" points="1287.64,-1804.18 1292.02,-1814.18 1296.39,-1804.18 1287.64,-1804.18"/>
<text text-anchor="middle" x="1444.52" y="-1790.2" font-family="Arial" font-size="20.00" fill="maroon">start_next: 03/11/18, 17:38:12</text>
<text text-anchor="middle" x="1444.52" y="-1768.2" font-family="Arial" font-size="20.00" fill="maroon">gap: 0sec</text>
<text text-anchor="middle" x="1444.52" y="-1746.2" font-family="Arial" font-size="20.00" fill="maroon">end_prev: 03/11/18, 17:38:12</text>
</g>
<!-- ACCOUNT MANIPULATION
http | ID: 98&#45;&gt;RESOURCE HIJACKING
http | ID: 52 -->
<g id="edge30" class="edge">
<title>ACCOUNT MANIPULATION
http | ID: 98&#45;&gt;RESOURCE HIJACKING
http | ID: 52</title>
<path fill="none" stroke="maroon" stroke-width="5" d="M1453.78,-1713.57C1521.71,-1719.61 1587.54,-1728.39 1598.02,-1740.2 1617.47,-1762.15 1616.8,-1783.67 1598.02,-1806.2 1582.49,-1824.83 1540.19,-1837.28 1491.82,-1845.59"/>
<polygon fill="maroon" stroke="maroon" stroke-width="5" points="1490.9,-1841.31 1481.74,-1847.25 1492.32,-1849.94 1490.9,-1841.31"/>
<text text-anchor="middle" x="1764.52" y="-1790.2" font-family="Arial" font-size="20.00" fill="maroon">start_next: 03/11/18, 22:31:15</text>
<text text-anchor="middle" x="1764.52" y="-1768.2" font-family="Arial" font-size="20.00" fill="maroon">gap: 0sec</text>
<text text-anchor="middle" x="1764.52" y="-1746.2" font-family="Arial" font-size="20.00" fill="maroon">end_prev: 03/11/18, 22:31:15</text>
</g>
<!-- DATA DELIVERY
http | ID: 14 -->
<g id="node12" class="node">
<title>DATA DELIVERY
http | ID: 14</title>
<g id="a_node12"><a xlink:title="ET WEB_SPECIFIC_APPS OpenX phpAdsNew phpAds_geoPlugin Parameter Remote File Inclusion Attempt&#10;ET WEB_SPECIFIC_APPS PHP phpMyAgenda rootagenda Remote File Include Attempt&#10;ET WEB_SPECIFIC_APPS p&#45;Table for WordPress wptable&#45;tinymce.php ABSPATH Parameter RFI Attempt&#10;ET WEB_SPECIFIC_APPS SERWeb load_lang.php configdir Parameter Remote File Inclusion&#10;ET WEB_SPECIFIC_APPS PointComma pctemplate.php pcConfig Parameter Remote File Inclusion Attempt&#10;ET WEB_SPECIFIC_APPS Possible Mambo/Joomla! com_koesubmit Component &#39;koesubmit.php&#39; Remote File Inclusion Attempt&#10;ET WEB_SPECIFIC_APPS Joomla Simple RSS Reader admin.rssreader.php mosConfig_live_site Parameter Remote File Inclusion&#10;ET WEB_SPECIFIC_APPS Ve&#45;EDIT edit_htmlarea.php highlighter Parameter Remote File Inclusion&#10;ET WEB_SPECIFIC_APPS OBOphiX fonctions_racine.php chemin_lib parameter Remote File Inclusion Attempt&#10;ET WEB_SPECIFIC_APPS SAPID get_infochannel.inc.php Remote File inclusion Attempt&#10;ET WEB_SPECIFIC_APPS PHPOF DB_AdoDB.Class.PHP PHPOF_INCLUDE_PATH parameter Remote File Inclusion&#10;ET WEB_SPECIFIC_APPS TECHNOTE shop_this_skin_path Parameter Remote File Inclusion&#10;ET WEB_SPECIFIC_APPS Possible OpenSiteAdmin pageHeader.php Remote File Inclusion Attempt&#10;ET WEB_SPECIFIC_APPS Joomla Onguma Time Sheet Component onguma.class.php mosConfig_absolute_path Parameter Remote File Inclusion&#10;ET WEB_SPECIFIC_APPS ProdLer prodler.class.php sPath Parameter Remote File Inclusion Attempt&#10;ET WEB_SPECIFIC_APPS MODx CMS snippet.reflect.php reflect_base Remote File Inclusion&#10;ET WEB_SPECIFIC_APPS phPortal gunaysoft.php icerikyolu Parameter Remote File Inclusion&#10;ET WEB_SPECIFIC_APPS Sisplet CMS komentar.php site_path Parameter Remote File Inclusion Attempt&#10;ET WEB_SPECIFIC_APPS phptraverse mp3_id.php GLOBALS Parameter Remote File Inclusion Attempt&#10;ET WEB_SPECIFIC_APPS PHP Classifieds class.phpmailer.php lang_path Parameter Remote File Inclusion Attempt&#10;ET WEB_SPECIFIC_APPS YapBB class_yapbbcooker.php cfgIncludeDirectory Parameter Remote File Inclusion&#10;ET WEB_SPECIFIC_APPS Enthusiast path parameter Remote File Inclusion&#10;ET WEB_SPECIFIC_APPS ProjectButler RFI attempt &#10;ET WEB_SPECIFIC_APPS SERWeb main_prepend.php functionsdir Parameter Remote File Inclusion&#10;ET WEB_SPECIFIC_APPS Mambo Component com_smf smf.php Remote File Inclusion Attempt&#10;ET WEB_SPECIFIC_APPS MAXcms fm_includes_special Parameter Remote File Inclusion Attempt&#10;ET WEB_SPECIFIC_APPS PHP&#45;Paid4Mail RFI attempt &#10;ET WEB_SPECIFIC_APPS phpSkelSite theme parameter remote file inclusion&#10;ET WEB_SPECIFIC_APPS PHP Aardvark Topsites PHP CONFIG PATH Remote File Include Attempt&#10;ET WEB_SPECIFIC_APPS Possible eFront database.php Remote File Inclusion Attempt&#10;ET WEB_SPECIFIC_APPS phPortal gunaysoft.php sayfaid Parameter Remote File Inclusion">
<polygon fill="yellow" stroke="black" stroke-width="3" points="492.25,-48.99 410.13,-97.97 245.9,-97.97 163.78,-48.99 245.9,-0.01 410.13,-0.01 492.25,-48.99"/>
<text text-anchor="middle" x="328.02" y="-55.79" font-family="Arial" font-size="24.00">DATA DELIVERY</text>
<text text-anchor="middle" x="328.02" y="-29.79" font-family="Arial" font-size="24.00">http | ID: 14</text>
</a>
</g>
</g>
<!-- SERVICE DISCOVERY
unknown -->
<g id="node13" class="node">
<title>SERVICE DISCOVERY
unknown</title>
<g id="a_node13"><a xlink:title="ET SCAN Potential VNC Scan 5800&#45;5820&#10;ET SCAN Potential VNC Scan 5900&#45;5920">
<ellipse fill="none" stroke="black" stroke-width="3" cx="328.02" cy="-236.41" rx="184.61" ry="42.35"/>
<text text-anchor="middle" x="328.02" y="-243.21" font-family="Arial" font-size="24.00">SERVICE DISCOVERY</text>
<text text-anchor="middle" x="328.02" y="-217.21" font-family="Arial" font-size="24.00">unknown</text>
</a>
</g>
</g>
<!-- DATA DELIVERY
http | ID: 14&#45;&gt;SERVICE DISCOVERY
unknown -->
<g id="edge20" class="edge">
<title>DATA DELIVERY
http | ID: 14&#45;&gt;SERVICE DISCOVERY
unknown</title>
<path fill="none" stroke="maroon" stroke-width="5" d="M328.02,-98.22C328.02,-124.37 328.02,-156.7 328.02,-183.4"/>
<polygon fill="maroon" stroke="maroon" stroke-width="5" points="323.64,-183.71 328.02,-193.71 332.39,-183.71 323.64,-183.71"/>
<text text-anchor="start" x="328.02" y="-170.98" font-family="Arial" font-size="20.00" fill="maroon"> start_next: 03/11/18, 17:42:35</text>
<text text-anchor="start" x="422.02" y="-150.98" font-family="Arial" font-size="20.00" fill="maroon">gap: 239sec</text>
<text text-anchor="start" x="336.02" y="-130.98" font-family="Arial" font-size="20.00" fill="maroon">end_prev: 03/11/18, 17:38:36</text>
<text text-anchor="start" x="352.02" y="-110.98" font-family="Arial" font-weight="bold" font-size="20.00" fill="maroon">Attacker: 10.0.254.204</text>
</g>
<!-- SERVICE DISCOVERY
unknown&#45;&gt;HOST DISCOVERY
http -->
<g id="edge21" class="edge">
<title>SERVICE DISCOVERY
unknown&#45;&gt;HOST DISCOVERY
http</title>
<path fill="none" stroke="maroon" stroke-width="5" d="M328.02,-279.01C328.02,-300.68 328.02,-327.39 328.02,-350.39"/>
<polygon fill="maroon" stroke="maroon" stroke-width="5" points="323.64,-350.67 328.02,-360.67 332.39,-350.67 323.64,-350.67"/>
<text text-anchor="middle" x="480.52" y="-336.83" font-family="Arial" font-size="20.00" fill="maroon">start_next: 03/11/18, 22:31:03</text>
<text text-anchor="middle" x="480.52" y="-314.83" font-family="Arial" font-size="20.00" fill="maroon">gap: 17222sec</text>
<text text-anchor="middle" x="480.52" y="-292.83" font-family="Arial" font-size="20.00" fill="maroon">end_prev: 03/11/18, 17:44:01</text>
</g>
</g>
</svg>
