<?xml version="1.0" encoding="UTF-8" standalone="no"?>
<!DOCTYPE svg PUBLIC "-//W3C//DTD SVG 1.1//EN"
 "http://www.w3.org/Graphics/SVG/1.1/DTD/svg11.dtd">
<!-- Generated by graphviz version 2.43.0 (0)
 -->
<!-- Title: DATAEXFILTRATIONhttp Pages: 1 -->
<svg width="914pt" height="777pt"
 viewBox="0.00 0.00 914.29 777.18" xmlns="http://www.w3.org/2000/svg" xmlns:xlink="http://www.w3.org/1999/xlink">
<g id="graph0" class="graph" transform="scale(1 1) rotate(0) translate(4 773.18)">
<title>DATAEXFILTRATIONhttp</title>
<polygon fill="white" stroke="transparent" points="-4,4 -4,-773.18 910.29,-773.18 910.29,4 -4,4"/>
<!-- Victim: 10.0.0.22
DATA EXFILTRATION
http -->
<g id="node1" class="node">
<title>Victim: 10.0.0.22
DATA EXFILTRATION
http</title>
<polygon fill="salmon" stroke="black" stroke-width="3" points="589.51,-672.16 589.51,-726.55 476.91,-765.01 317.68,-765.01 205.08,-726.55 205.08,-672.16 317.68,-633.71 476.91,-633.71 589.51,-672.16"/>
<polygon fill="none" stroke="black" stroke-width="3" points="593.51,-669.31 593.51,-729.4 477.58,-769 317.01,-769 201.08,-729.4 201.08,-669.31 317.01,-629.72 477.58,-629.72 593.51,-669.31"/>
<text text-anchor="middle" x="397.29" y="-719.16" font-family="Arial" font-size="24.00">Victim: 10.0.0.22</text>
<text text-anchor="middle" x="397.29" y="-693.16" font-family="Arial" font-size="24.00">DATA EXFILTRATION</text>
<text text-anchor="middle" x="397.29" y="-667.16" font-family="Arial" font-size="24.00">http</text>
</g>
<!-- DATA EXFILTRATION
http | ID: 12 -->
<g id="node2" class="node">
<title>DATA EXFILTRATION
http | ID: 12</title>
<g id="a_node2"><a xlink:title="ET WEB_SERVER Possible XXE SYSTEM ENTITY in POST BODY.&#10;GPL EXPLOIT ISAPI .ida access&#10;ET WEB_SERVER /system32/ in Uri &#45; Possible Protected Directory Access Attempt&#10;GPL WEB_SERVER Tomcat server snoop access&#10;ET WEB_SERVER ColdFusion componentutils access&#10;GPL EXPLOIT /msadc/samples/ access&#10;ET WEB_SPECIFIC_APPS PHP&#45;CGI query string parameter vulnerability&#10;GPL EXPLOIT ISAPI .idq access&#10;ET WEB_SERVER /etc/shadow Detected in URI">
<polygon fill="salmon" stroke="black" stroke-width="3" points="602.18,-563.55 499.74,-612.53 294.85,-612.53 192.41,-563.55 294.85,-514.57 499.74,-514.57 602.18,-563.55"/>
<text text-anchor="middle" x="397.29" y="-570.35" font-family="Arial" font-size="24.00">DATA EXFILTRATION</text>
<text text-anchor="middle" x="397.29" y="-544.35" font-family="Arial" font-size="24.00">http | ID: 12</text>
</a>
</g>
</g>
<!-- DATA EXFILTRATION
http | ID: 12&#45;&gt;Victim: 10.0.0.22
DATA EXFILTRATION
http -->
<g id="edge1" class="edge">
<title>DATA EXFILTRATION
http | ID: 12&#45;&gt;Victim: 10.0.0.22
DATA EXFILTRATION
http</title>
<path fill="none" stroke="black" stroke-width="5" d="M397.29,-612.86C397.29,-614.96 397.29,-617.09 397.29,-619.24"/>
<polygon fill="black" stroke="black" stroke-width="5" points="392.92,-619.4 397.29,-629.4 401.67,-619.4 392.92,-619.4"/>
</g>
<!-- HOST DISCOVERY
http -->
<g id="node3" class="node">
<title>HOST DISCOVERY
http</title>
<g id="a_node3"><a xlink:title="ET SCAN Possible Nmap User&#45;Agent Observed&#10;ET SCAN Nmap Scripting Engine User&#45;Agent Detected (Nmap Scripting Engine)">
<ellipse fill="yellow" stroke="black" stroke-width="3" cx="395.29" cy="-42.43" rx="161.44" ry="42.35"/>
<text text-anchor="middle" x="395.29" y="-49.23" font-family="Arial" font-size="24.00">HOST DISCOVERY</text>
<text text-anchor="middle" x="395.29" y="-23.23" font-family="Arial" font-size="24.00">http</text>
</a>
</g>
</g>
<!-- VULNERABILTY DISCOVERY
ms&#45;sql&#45;s -->
<g id="node4" class="node">
<title>VULNERABILTY DISCOVERY
ms&#45;sql&#45;s</title>
<g id="a_node4"><a xlink:title="ET SCAN Suspicious inbound to Oracle SQL port 1521&#10;ET SCAN Suspicious inbound to MSSQL port 1433&#10;ET SCAN Suspicious inbound to mySQL port 3306&#10;ET SCAN Nikto Web App Scan in Progress&#10;ET SCAN Suspicious inbound to PostgreSQL port 5432&#10;ET SCAN Suspicious inbound to mSQL port 4333">
<ellipse fill="none" stroke="black" stroke-width="3" cx="238.29" cy="-223.28" rx="238.09" ry="42.35"/>
<text text-anchor="middle" x="238.29" y="-230.08" font-family="Arial" font-size="24.00">VULNERABILTY DISCOVERY</text>
<text text-anchor="middle" x="238.29" y="-204.08" font-family="Arial" font-size="24.00">ms&#45;sql&#45;s</text>
</a>
</g>
</g>
<!-- HOST DISCOVERY
http&#45;&gt;VULNERABILTY DISCOVERY
ms&#45;sql&#45;s -->
<g id="edge2" class="edge">
<title>HOST DISCOVERY
http&#45;&gt;VULNERABILTY DISCOVERY
ms&#45;sql&#45;s</title>
<path fill="none" stroke="maroon" stroke-width="5" d="M266.81,-68.28C256.2,-74.73 246.72,-82.8 239.29,-92.85 223.1,-114.8 222.04,-145.03 225.4,-170.76"/>
<polygon fill="maroon" stroke="maroon" stroke-width="5" points="221.09,-171.53 226.94,-180.74 229.74,-170.18 221.09,-171.53"/>
<text text-anchor="start" x="239.29" y="-157.85" font-family="Arial" font-size="20.00" fill="maroon"> start_next: 03/11/18, 14:52:49</text>
<text text-anchor="start" x="346.29" y="-137.85" font-family="Arial" font-size="20.00" fill="maroon">gap: 3sec</text>
<text text-anchor="start" x="247.29" y="-117.85" font-family="Arial" font-size="20.00" fill="maroon">end_prev: 03/11/18, 14:52:45</text>
<text text-anchor="start" x="263.29" y="-97.85" font-family="Arial" font-weight="bold" font-size="20.00" fill="maroon">Attacker: 10.0.254.201</text>
</g>
<!-- INFO DISCOVERY
http -->
<g id="node5" class="node">
<title>INFO DISCOVERY
http</title>
<g id="a_node5"><a xlink:title="GPL WEB_SERVER iisadmin access&#10;GPL WEB_SERVER printenv access&#10;GPL WEB_SERVER author.exe access&#10;ET WEB_SERVER PHP Easteregg Information&#45;Disclosure (phpinfo)&#10;ET WEB_SERVER PHP Easteregg Information&#45;Disclosure (funny&#45;logo)&#10;GPL WEB_SERVER globals.pl access&#10;GPL WEB_SERVER viewcode access&#10;ET WEB_SPECIFIC_APPS Request to Wordpress W3TC Plug&#45;in dbcache Directory&#10;GPL EXPLOIT ISAPI .idq attempt&#10;ET POLICY Proxy TRACE Request &#45; inbound&#10;GPL WEB_SERVER /~root access&#10;GPL WEB_SERVER service.pwd&#10;ET WEB_SERVER PHP REQUEST SuperGlobal in URI&#10;ET WEB_SERVER PHP Easteregg Information&#45;Disclosure (php&#45;logo)&#10;GPL WEB_SERVER services.cnf access&#10;GPL EXPLOIT unicode directory traversal attempt&#10;GPL EXPLOIT .htr access&#10;GPL EXPLOIT .cnf access&#10;ET WEB_SERVER PHP SERVER SuperGlobal in URI&#10;GPL WEB_SERVER .htaccess access&#10;GPL EXPLOIT iisadmpwd attempt&#10;GPL WEB_SERVER service.cnf access&#10;GPL WEB_SERVER global.asa access&#10;GPL EXPLOIT fpcount access&#10;GPL WEB_SERVER .htpasswd access&#10;ET WEB_SERVER PHP SESSION SuperGlobal in URI&#10;GPL WEB_SERVER writeto.cnf access&#10;GPL EXPLOIT iissamples access&#10;ET WEB_SERVER PHP Easteregg Information&#45;Disclosure (zend&#45;logo)&#10;ET WEB_SERVER PHP ENV SuperGlobal in URI&#10;GPL WEB_SERVER authors.pwd access">
<ellipse fill="none" stroke="black" stroke-width="3" cx="397.29" cy="-390.13" rx="154.3" ry="42.35"/>
<text text-anchor="middle" x="397.29" y="-396.93" font-family="Arial" font-size="24.00">INFO DISCOVERY</text>
<text text-anchor="middle" x="397.29" y="-370.93" font-family="Arial" font-size="24.00">http</text>
</a>
</g>
</g>
<!-- HOST DISCOVERY
http&#45;&gt;INFO DISCOVERY
http -->
<g id="edge5" class="edge">
<title>HOST DISCOVERY
http&#45;&gt;INFO DISCOVERY
http</title>
<path fill="none" stroke="maroon" stroke-width="5" d="M521.31,-69.09C531.34,-75.39 540.28,-83.2 547.29,-92.85 611.77,-181.62 611.6,-250.81 547.29,-339.71 542.04,-346.97 535.68,-353.19 528.58,-358.5"/>
<polygon fill="maroon" stroke="maroon" stroke-width="5" points="525.77,-355.12 519.93,-364.34 530.67,-362.37 525.77,-355.12"/>
<text text-anchor="start" x="595.29" y="-248.28" font-family="Arial" font-size="20.00" fill="maroon"> start_next: 03/11/18, 17:37:53</text>
<text text-anchor="start" x="702.29" y="-228.28" font-family="Arial" font-size="20.00" fill="maroon">gap: 5sec</text>
<text text-anchor="start" x="603.29" y="-208.28" font-family="Arial" font-size="20.00" fill="maroon">end_prev: 03/11/18, 17:37:48</text>
<text text-anchor="start" x="619.29" y="-188.28" font-family="Arial" font-weight="bold" font-size="20.00" fill="maroon">Attacker: 10.0.254.204</text>
</g>
<!-- VULNERABILTY DISCOVERY
ms&#45;sql&#45;s&#45;&gt;INFO DISCOVERY
http -->
<g id="edge3" class="edge">
<title>VULNERABILTY DISCOVERY
ms&#45;sql&#45;s&#45;&gt;INFO DISCOVERY
http</title>
<path fill="none" stroke="maroon" stroke-width="5" d="M230.08,-265.92C227.78,-289.85 229.39,-319.14 245.29,-339.71 251.09,-347.2 258.05,-353.57 265.75,-358.99"/>
<polygon fill="maroon" stroke="maroon" stroke-width="5" points="263.6,-362.81 274.38,-364.51 268.31,-355.44 263.6,-362.81"/>
<text text-anchor="middle" x="397.79" y="-323.71" font-family="Arial" font-size="20.00" fill="maroon">start_next: 03/11/18, 14:52:49</text>
<text text-anchor="middle" x="397.79" y="-301.71" font-family="Arial" font-size="20.00" fill="maroon">gap: &#45;336sec</text>
<text text-anchor="middle" x="397.79" y="-279.71" font-family="Arial" font-size="20.00" fill="maroon">end_prev: 03/11/18, 14:58:24</text>
</g>
<!-- INFO DISCOVERY
http&#45;&gt;DATA EXFILTRATION
http | ID: 12 -->
<g id="edge4" class="edge">
<title>INFO DISCOVERY
http&#45;&gt;DATA EXFILTRATION
http | ID: 12</title>
<path fill="none" stroke="maroon" stroke-width="5" d="M272.15,-415.06C260.97,-421.66 250.99,-430.01 243.29,-440.56 226.01,-464.26 226.47,-482.53 243.29,-506.56 247.35,-512.35 252.07,-517.55 257.29,-522.21"/>
<polygon fill="maroon" stroke="maroon" stroke-width="5" points="254.75,-525.77 265.27,-528.66 260.25,-518.97 254.75,-525.77"/>
<text text-anchor="middle" x="395.79" y="-490.56" font-family="Arial" font-size="20.00" fill="maroon">start_next: 03/11/18, 14:52:49</text>
<text text-anchor="middle" x="395.79" y="-468.56" font-family="Arial" font-size="20.00" fill="maroon">gap: &#45;23sec</text>
<text text-anchor="middle" x="395.79" y="-446.56" font-family="Arial" font-size="20.00" fill="maroon">end_prev: 03/11/18, 14:53:12</text>
</g>
<!-- INFO DISCOVERY
http&#45;&gt;DATA EXFILTRATION
http | ID: 12 -->
<g id="edge6" class="edge">
<title>INFO DISCOVERY
http&#45;&gt;DATA EXFILTRATION
http | ID: 12</title>
<path fill="none" stroke="maroon" stroke-width="5" d="M518.66,-416.36C528.98,-422.73 538.17,-430.67 545.29,-440.56 562.44,-464.36 561.97,-482.42 545.29,-506.56 541.84,-511.55 537.89,-516.1 533.53,-520.25"/>
<polygon fill="maroon" stroke="maroon" stroke-width="5" points="530.59,-517.01 525.86,-526.85 536.29,-523.65 530.59,-517.01"/>
<text text-anchor="middle" x="709.79" y="-490.56" font-family="Arial" font-size="20.00" fill="maroon">start_next: 03/11/18, 17:37:54</text>
<text text-anchor="middle" x="709.79" y="-468.56" font-family="Arial" font-size="20.00" fill="maroon">gap: &#45;48sec</text>
<text text-anchor="middle" x="709.79" y="-446.56" font-family="Arial" font-size="20.00" fill="maroon">end_prev: 03/11/18, 17:38:43</text>
</g>
</g>
</svg>
