<?xml version="1.0" encoding="UTF-8" standalone="no"?>
<!DOCTYPE svg PUBLIC "-//W3C//DTD SVG 1.1//EN"
 "http://www.w3.org/Graphics/SVG/1.1/DTD/svg11.dtd">
<!-- Generated by graphviz version 2.43.0 (0)
 -->
<!-- Title: DATAMANIPULATIONremotewarecl Pages: 1 -->
<svg width="1295pt" height="1575pt"
 viewBox="0.00 0.00 1294.52 1574.87" xmlns="http://www.w3.org/2000/svg" xmlns:xlink="http://www.w3.org/1999/xlink">
<g id="graph0" class="graph" transform="scale(1 1) rotate(0) translate(4 1570.87)">
<title>DATAMANIPULATIONremotewarecl</title>
<polygon fill="white" stroke="transparent" points="-4,4 -4,-1570.87 1290.52,-1570.87 1290.52,4 -4,4"/>
<!-- Victim: 10.0.0.20
DATA MANIPULATION
remoteware&#45;cl -->
<g id="node1" class="node">
<title>Victim: 10.0.0.20
DATA MANIPULATION
remoteware&#45;cl</title>
<polygon fill="salmon" stroke="black" stroke-width="3" points="437.19,-1469.85 437.19,-1524.24 317.88,-1562.7 149.15,-1562.7 29.84,-1524.24 29.84,-1469.85 149.15,-1431.39 317.88,-1431.39 437.19,-1469.85"/>
<polygon fill="none" stroke="black" stroke-width="3" points="441.19,-1466.95 441.19,-1527.14 318.51,-1566.69 148.52,-1566.69 25.84,-1527.14 25.84,-1466.95 148.52,-1427.4 318.51,-1427.4 441.19,-1466.95"/>
<text text-anchor="middle" x="233.52" y="-1516.84" font-family="Arial" font-size="24.00">Victim: 10.0.0.20</text>
<text text-anchor="middle" x="233.52" y="-1490.84" font-family="Arial" font-size="24.00">DATA MANIPULATION</text>
<text text-anchor="middle" x="233.52" y="-1464.84" font-family="Arial" font-size="24.00">remoteware&#45;cl</text>
</g>
<!-- DATA MANIPULATION
remoteware&#45;cl | ID: 32 -->
<g id="node2" class="node">
<title>DATA MANIPULATION
remoteware&#45;cl | ID: 32</title>
<g id="a_node2"><a xlink:title="ET WEB_SERVER Possible SQL Injection Attempt UNION SELECT&#10;ET WEB_SERVER Possible SQL Injection Attempt SELECT FROM">
<polygon fill="salmon" stroke="black" stroke-width="3" points="467.05,-1361.23 350.29,-1410.21 116.75,-1410.21 -0.02,-1361.23 116.75,-1312.25 350.29,-1312.25 467.05,-1361.23"/>
<text text-anchor="middle" x="233.52" y="-1368.03" font-family="Arial" font-size="24.00">DATA MANIPULATION</text>
<text text-anchor="middle" x="233.52" y="-1342.03" font-family="Arial" font-size="24.00">remoteware&#45;cl | ID: 32</text>
</a>
</g>
</g>
<!-- DATA MANIPULATION
remoteware&#45;cl | ID: 32&#45;&gt;Victim: 10.0.0.20
DATA MANIPULATION
remoteware&#45;cl -->
<g id="edge1" class="edge">
<title>DATA MANIPULATION
remoteware&#45;cl | ID: 32&#45;&gt;Victim: 10.0.0.20
DATA MANIPULATION
remoteware&#45;cl</title>
<path fill="none" stroke="black" stroke-width="5" d="M233.52,-1410.54C233.52,-1412.65 233.52,-1414.78 233.52,-1416.93"/>
<polygon fill="black" stroke="black" stroke-width="5" points="229.14,-1417.08 233.52,-1427.08 237.89,-1417.08 229.14,-1417.08"/>
</g>
<!-- VULNERABILTY DISCOVERY
ms&#45;sql&#45;s -->
<g id="node3" class="node">
<title>VULNERABILTY DISCOVERY
ms&#45;sql&#45;s</title>
<g id="a_node3"><a xlink:title="ET SCAN Suspicious inbound to Oracle SQL port 1521&#10;ET SCAN Suspicious inbound to MSSQL port 1433&#10;ET SCAN Suspicious inbound to mySQL port 3306&#10;ET SCAN Suspicious inbound to PostgreSQL port 5432&#10;ET SCAN Suspicious inbound to mSQL port 4333">
<ellipse fill="yellow" stroke="black" stroke-width="3" cx="702.52" cy="-42.43" rx="238.09" ry="42.35"/>
<text text-anchor="middle" x="702.52" y="-49.23" font-family="Arial" font-size="24.00">VULNERABILTY DISCOVERY</text>
<text text-anchor="middle" x="702.52" y="-23.23" font-family="Arial" font-size="24.00">ms&#45;sql&#45;s</text>
</a>
</g>
</g>
<!-- SERVICE DISCOVERY
unknown -->
<g id="node4" class="node">
<title>SERVICE DISCOVERY
unknown</title>
<g id="a_node4"><a xlink:title="ET SCAN Potential VNC Scan 5800&#45;5820&#10;ET SCAN Potential VNC Scan 5900&#45;5920&#10;ET SCAN Potential SSH Scan&#10;ET SCAN NMAP OS Detection Probe">
<ellipse fill="none" stroke="black" stroke-width="3" cx="702.52" cy="-223.28" rx="184.61" ry="42.35"/>
<text text-anchor="middle" x="702.52" y="-230.08" font-family="Arial" font-size="24.00">SERVICE DISCOVERY</text>
<text text-anchor="middle" x="702.52" y="-204.08" font-family="Arial" font-size="24.00">unknown</text>
</a>
</g>
</g>
<!-- VULNERABILTY DISCOVERY
ms&#45;sql&#45;s&#45;&gt;SERVICE DISCOVERY
unknown -->
<g id="edge2" class="edge">
<title>VULNERABILTY DISCOVERY
ms&#45;sql&#45;s&#45;&gt;SERVICE DISCOVERY
unknown</title>
<path fill="none" stroke="maroon" stroke-width="5" d="M561.02,-76.65C555.23,-81.38 550,-86.75 545.52,-92.85 524.49,-121.52 524.49,-144.18 545.52,-172.85 549.66,-178.5 554.45,-183.52 559.73,-187.99"/>
<polygon fill="maroon" stroke="maroon" stroke-width="5" points="557.18,-191.55 567.79,-194.13 562.49,-184.59 557.18,-191.55"/>
<text text-anchor="start" x="545.52" y="-157.85" font-family="Arial" font-size="20.00" fill="maroon"> start_next: 03/11/18, 14:53:39</text>
<text text-anchor="start" x="636.02" y="-137.85" font-family="Arial" font-size="20.00" fill="maroon">gap: &#45;263sec</text>
<text text-anchor="start" x="553.52" y="-117.85" font-family="Arial" font-size="20.00" fill="maroon">end_prev: 03/11/18, 14:58:02</text>
<text text-anchor="start" x="569.52" y="-97.85" font-family="Arial" font-weight="bold" font-size="20.00" fill="maroon">Attacker: 10.0.254.201</text>
</g>
<!-- VULNERABILTY DISCOVERY
ms&#45;sql&#45;s&#45;&gt;SERVICE DISCOVERY
unknown -->
<g id="edge10" class="edge">
<title>VULNERABILTY DISCOVERY
ms&#45;sql&#45;s&#45;&gt;SERVICE DISCOVERY
unknown</title>
<path fill="none" stroke="maroon" stroke-width="5" d="M838.97,-77.37C844.4,-81.91 849.31,-87.05 853.52,-92.85 874.39,-121.64 874.39,-144.07 853.52,-172.85 849.84,-177.93 845.62,-182.5 840.98,-186.6"/>
<polygon fill="maroon" stroke="maroon" stroke-width="5" points="837.93,-183.44 832.82,-193.09 843.37,-190.29 837.93,-183.44"/>
<text text-anchor="start" x="868.52" y="-157.85" font-family="Arial" font-size="20.00" fill="maroon"> start_next: 03/11/18, 17:42:35</text>
<text text-anchor="start" x="965.02" y="-137.85" font-family="Arial" font-size="20.00" fill="maroon">gap: &#45;10sec</text>
<text text-anchor="start" x="876.52" y="-117.85" font-family="Arial" font-size="20.00" fill="maroon">end_prev: 03/11/18, 17:42:45</text>
<text text-anchor="start" x="892.52" y="-97.85" font-family="Arial" font-weight="bold" font-size="20.00" fill="maroon">Attacker: 10.0.254.204</text>
</g>
<!-- HOST DISCOVERY
remoteware&#45;cl -->
<g id="node5" class="node">
<title>HOST DISCOVERY
remoteware&#45;cl</title>
<g id="a_node5"><a xlink:title="ET SCAN Possible Nmap User&#45;Agent Observed&#10;ET SCAN Nmap Scripting Engine User&#45;Agent Detected (Nmap Scripting Engine)">
<ellipse fill="none" stroke="black" stroke-width="3" cx="702.52" cy="-390.13" rx="161.44" ry="42.35"/>
<text text-anchor="middle" x="702.52" y="-396.93" font-family="Arial" font-size="24.00">HOST DISCOVERY</text>
<text text-anchor="middle" x="702.52" y="-370.93" font-family="Arial" font-size="24.00">remoteware&#45;cl</text>
</a>
</g>
</g>
<!-- SERVICE DISCOVERY
unknown&#45;&gt;HOST DISCOVERY
remoteware&#45;cl -->
<g id="edge3" class="edge">
<title>SERVICE DISCOVERY
unknown&#45;&gt;HOST DISCOVERY
remoteware&#45;cl</title>
<path fill="none" stroke="maroon" stroke-width="5" d="M569.99,-252.95C561.8,-258.69 554.47,-265.54 548.52,-273.71 531.23,-297.41 531.23,-316.01 548.52,-339.71 553.69,-346.8 559.9,-352.9 566.81,-358.14"/>
<polygon fill="maroon" stroke="maroon" stroke-width="5" points="564.5,-361.86 575.22,-363.9 569.45,-354.64 564.5,-361.86"/>
<text text-anchor="middle" x="701.02" y="-323.71" font-family="Arial" font-size="20.00" fill="maroon">start_next: 03/11/18, 15:01:05</text>
<text text-anchor="middle" x="701.02" y="-301.71" font-family="Arial" font-size="20.00" fill="maroon">gap: 194sec</text>
<text text-anchor="middle" x="701.02" y="-279.71" font-family="Arial" font-size="20.00" fill="maroon">end_prev: 03/11/18, 14:57:51</text>
</g>
<!-- SERVICE DISCOVERY
unknown&#45;&gt;HOST DISCOVERY
remoteware&#45;cl -->
<g id="edge11" class="edge">
<title>SERVICE DISCOVERY
unknown&#45;&gt;HOST DISCOVERY
remoteware&#45;cl</title>
<path fill="none" stroke="maroon" stroke-width="5" d="M830.59,-253.99C838.18,-259.5 844.98,-266.01 850.52,-273.71 867.66,-297.51 867.66,-315.9 850.52,-339.71 845.84,-346.2 840.28,-351.85 834.09,-356.77"/>
<polygon fill="maroon" stroke="maroon" stroke-width="5" points="831.51,-353.23 825.93,-362.61 836.61,-360.34 831.51,-353.23"/>
<text text-anchor="middle" x="1015.02" y="-323.71" font-family="Arial" font-size="20.00" fill="maroon">start_next: 03/11/18, 17:59:39</text>
<text text-anchor="middle" x="1015.02" y="-301.71" font-family="Arial" font-size="20.00" fill="maroon">gap: 938sec</text>
<text text-anchor="middle" x="1015.02" y="-279.71" font-family="Arial" font-size="20.00" fill="maroon">end_prev: 03/11/18, 17:44:01</text>
</g>
<!-- VULNERABILTY DISCOVERY
remoteware&#45;cl -->
<g id="node6" class="node">
<title>VULNERABILTY DISCOVERY
remoteware&#45;cl</title>
<g id="a_node6"><a xlink:title="ET SCAN Nikto Web App Scan in Progress">
<ellipse fill="none" stroke="black" stroke-width="3" cx="702.52" cy="-556.98" rx="238.09" ry="42.35"/>
<text text-anchor="middle" x="702.52" y="-563.78" font-family="Arial" font-size="24.00">VULNERABILTY DISCOVERY</text>
<text text-anchor="middle" x="702.52" y="-537.78" font-family="Arial" font-size="24.00">remoteware&#45;cl</text>
</a>
</g>
</g>
<!-- HOST DISCOVERY
remoteware&#45;cl&#45;&gt;VULNERABILTY DISCOVERY
remoteware&#45;cl -->
<g id="edge4" class="edge">
<title>HOST DISCOVERY
remoteware&#45;cl&#45;&gt;VULNERABILTY DISCOVERY
remoteware&#45;cl</title>
<path fill="none" stroke="maroon" stroke-width="5" d="M575.22,-416.36C564.91,-422.75 555.72,-430.69 548.52,-440.56 531.23,-464.26 531.23,-482.86 548.52,-506.56 550.8,-509.69 553.29,-512.63 555.95,-515.39"/>
<polygon fill="maroon" stroke="maroon" stroke-width="5" points="553.07,-518.68 563.38,-522.27 559.01,-512.26 553.07,-518.68"/>
<text text-anchor="middle" x="701.02" y="-490.56" font-family="Arial" font-size="20.00" fill="maroon">start_next: 03/11/18, 15:05:40</text>
<text text-anchor="middle" x="701.02" y="-468.56" font-family="Arial" font-size="20.00" fill="maroon">gap: 275sec</text>
<text text-anchor="middle" x="701.02" y="-446.56" font-family="Arial" font-size="20.00" fill="maroon">end_prev: 03/11/18, 15:01:05</text>
</g>
<!-- HOST DISCOVERY
remoteware&#45;cl&#45;&gt;VULNERABILTY DISCOVERY
remoteware&#45;cl -->
<g id="edge12" class="edge">
<title>HOST DISCOVERY
remoteware&#45;cl&#45;&gt;VULNERABILTY DISCOVERY
remoteware&#45;cl</title>
<path fill="none" stroke="maroon" stroke-width="5" d="M825.93,-417.65C835.42,-423.79 843.87,-431.33 850.52,-440.56 867.66,-464.36 867.66,-482.76 850.52,-506.56 848.46,-509.42 846.23,-512.11 843.85,-514.65"/>
<polygon fill="maroon" stroke="maroon" stroke-width="5" points="840.53,-511.77 836.28,-521.82 846.55,-518.12 840.53,-511.77"/>
<text text-anchor="middle" x="1015.02" y="-490.56" font-family="Arial" font-size="20.00" fill="maroon">start_next: 03/11/18, 18:07:26</text>
<text text-anchor="middle" x="1015.02" y="-468.56" font-family="Arial" font-size="20.00" fill="maroon">gap: 467sec</text>
<text text-anchor="middle" x="1015.02" y="-446.56" font-family="Arial" font-size="20.00" fill="maroon">end_prev: 03/11/18, 17:59:40</text>
</g>
<!-- DATA EXFILTRATION
remoteware&#45;cl | ID: 31 -->
<g id="node7" class="node">
<title>DATA EXFILTRATION
remoteware&#45;cl | ID: 31</title>
<g id="a_node7"><a xlink:title="ET WEB_SERVER Possible XXE SYSTEM ENTITY in POST BODY.&#10;GPL EXPLOIT ISAPI .ida access&#10;ET WEB_SERVER /system32/ in Uri &#45; Possible Protected Directory Access Attempt&#10;GPL WEB_SERVER Tomcat server snoop access&#10;ET WEB_SERVER ColdFusion componentutils access&#10;GPL EXPLOIT /msadc/samples/ access&#10;ET WEB_SPECIFIC_APPS PHP&#45;CGI query string parameter vulnerability&#10;GPL EXPLOIT ISAPI .idq access&#10;ET WEB_SERVER /etc/shadow Detected in URI">
<polygon fill="none" stroke="black" stroke-width="3" points="699.05,-730.4 582.29,-779.38 348.75,-779.38 231.98,-730.4 348.75,-681.42 582.29,-681.42 699.05,-730.4"/>
<text text-anchor="middle" x="465.52" y="-737.2" font-family="Arial" font-size="24.00">DATA EXFILTRATION</text>
<text text-anchor="middle" x="465.52" y="-711.2" font-family="Arial" font-size="24.00">remoteware&#45;cl | ID: 31</text>
</a>
</g>
</g>
<!-- VULNERABILTY DISCOVERY
remoteware&#45;cl&#45;&gt;DATA EXFILTRATION
remoteware&#45;cl | ID: 31 -->
<g id="edge5" class="edge">
<title>VULNERABILTY DISCOVERY
remoteware&#45;cl&#45;&gt;DATA EXFILTRATION
remoteware&#45;cl | ID: 31</title>
<path fill="none" stroke="maroon" stroke-width="5" d="M641.76,-598.18C637.26,-601.28 632.81,-604.38 628.52,-607.41 597.92,-629.06 564.71,-653.7 536.29,-675.14"/>
<polygon fill="maroon" stroke="maroon" stroke-width="5" points="533.36,-671.87 528.02,-681.39 538.64,-678.85 533.36,-671.87"/>
<text text-anchor="middle" x="781.02" y="-657.41" font-family="Arial" font-size="20.00" fill="maroon">start_next: 03/11/18, 15:05:41</text>
<text text-anchor="middle" x="781.02" y="-635.41" font-family="Arial" font-size="20.00" fill="maroon">gap: &#45;571sec</text>
<text text-anchor="middle" x="781.02" y="-613.41" font-family="Arial" font-size="20.00" fill="maroon">end_prev: 03/11/18, 15:15:13</text>
</g>
<!-- INFO DISCOVERY
remoteware&#45;cl -->
<g id="node8" class="node">
<title>INFO DISCOVERY
remoteware&#45;cl</title>
<g id="a_node8"><a xlink:title="GPL WEB_SERVER iisadmin access&#10;GPL WEB_SERVER printenv access&#10;GPL WEB_SERVER author.exe access&#10;ET WEB_SERVER PHP Easteregg Information&#45;Disclosure (phpinfo)&#10;GPL WEB_SERVER globals.pl access&#10;GPL WEB_SERVER viewcode access&#10;ET WEB_SPECIFIC_APPS Request to Wordpress W3TC Plug&#45;in dbcache Directory&#10;GPL EXPLOIT ISAPI .idq attempt&#10;ET POLICY Proxy TRACE Request &#45; inbound&#10;GPL WEB_SERVER /~root access&#10;GPL WEB_SERVER service.pwd&#10;ET WEB_SERVER PHP REQUEST SuperGlobal in URI&#10;GPL WEB_SERVER services.cnf access&#10;GPL EXPLOIT unicode directory traversal attempt&#10;GPL EXPLOIT .htr access&#10;GPL EXPLOIT .cnf access&#10;ET WEB_SERVER PHP SERVER SuperGlobal in URI&#10;GPL WEB_SERVER .htaccess access&#10;GPL WEB_SERVER authors.pwd access&#10;GPL EXPLOIT iisadmpwd attempt&#10;GPL WEB_SERVER global.asa access&#10;GPL EXPLOIT fpcount access&#10;GPL WEB_SERVER .htpasswd access&#10;ET WEB_SERVER PHP SESSION SuperGlobal in URI&#10;GPL WEB_SERVER writeto.cnf access&#10;GPL EXPLOIT iissamples access&#10;GPL WEB_SERVER service.cnf access">
<ellipse fill="none" stroke="black" stroke-width="3" cx="691.52" cy="-903.82" rx="154.3" ry="42.35"/>
<text text-anchor="middle" x="691.52" y="-910.62" font-family="Arial" font-size="24.00">INFO DISCOVERY</text>
<text text-anchor="middle" x="691.52" y="-884.62" font-family="Arial" font-size="24.00">remoteware&#45;cl</text>
</a>
</g>
</g>
<!-- VULNERABILTY DISCOVERY
remoteware&#45;cl&#45;&gt;INFO DISCOVERY
remoteware&#45;cl -->
<g id="edge13" class="edge">
<title>VULNERABILTY DISCOVERY
remoteware&#45;cl&#45;&gt;INFO DISCOVERY
remoteware&#45;cl</title>
<path fill="none" stroke="maroon" stroke-width="5" d="M886.18,-584.14C906.73,-590.41 922.99,-598.07 930.52,-607.41 999.15,-692.51 999.55,-768.62 930.52,-853.39 918.25,-868.46 884.09,-879.07 845.3,-886.49"/>
<polygon fill="maroon" stroke="maroon" stroke-width="5" points="844.4,-882.21 835.35,-888.31 845.97,-890.82 844.4,-882.21"/>
<text text-anchor="middle" x="1134.02" y="-747.4" font-family="Arial" font-size="20.00" fill="maroon">start_next: 03/11/18, 18:07:27</text>
<text text-anchor="middle" x="1134.02" y="-725.4" font-family="Arial" font-size="20.00" fill="maroon">gap: &#45;563sec</text>
<text text-anchor="middle" x="1134.02" y="-703.4" font-family="Arial" font-size="20.00" fill="maroon">end_prev: 03/11/18, 18:16:50</text>
</g>
<!-- DATA EXFILTRATION
remoteware&#45;cl | ID: 31&#45;&gt;INFO DISCOVERY
remoteware&#45;cl -->
<g id="edge6" class="edge">
<title>DATA EXFILTRATION
remoteware&#45;cl | ID: 31&#45;&gt;INFO DISCOVERY
remoteware&#45;cl</title>
<path fill="none" stroke="maroon" stroke-width="5" d="M598.22,-772.98C603.77,-777.32 608.92,-782.11 613.52,-787.39 633.27,-810.08 612.42,-827.98 628.52,-853.39 629.11,-854.33 629.73,-855.26 630.37,-856.18"/>
<polygon fill="maroon" stroke="maroon" stroke-width="5" points="627.05,-859.03 636.69,-864.15 633.91,-853.59 627.05,-859.03"/>
<text text-anchor="middle" x="781.02" y="-837.39" font-family="Arial" font-size="20.00" fill="maroon">start_next: 03/11/18, 15:05:48</text>
<text text-anchor="middle" x="781.02" y="-815.39" font-family="Arial" font-size="20.00" fill="maroon">gap: &#45;571sec</text>
<text text-anchor="middle" x="781.02" y="-793.39" font-family="Arial" font-size="20.00" fill="maroon">end_prev: 03/11/18, 15:15:19</text>
</g>
<!-- ARBITRARY CODE EXECUTION
remoteware&#45;cl | ID: 120 -->
<g id="node9" class="node">
<title>ARBITRARY CODE EXECUTION
remoteware&#45;cl | ID: 120</title>
<g id="a_node9"><a xlink:title="ET WEB_SPECIFIC_APPS WEB&#45;PHP RCE PHPBB 2004&#45;1315&#10;ET WEB_SERVER Possible CVE&#45;2014&#45;6271 Attempt in Headers&#10;ET CURRENT_EVENTS QNAP Shellshock CVE&#45;2014&#45;6271">
<polygon fill="none" stroke="black" stroke-width="3" stroke-dasharray="1,5" points="420.02,-1088.24 47.02,-1088.24 47.02,-1028.24 420.02,-1028.24 420.02,-1088.24"/>
<text text-anchor="middle" x="233.52" y="-1065.04" font-family="Arial" font-size="24.00">ARBITRARY CODE EXECUTION</text>
<text text-anchor="middle" x="233.52" y="-1039.04" font-family="Arial" font-size="24.00">remoteware&#45;cl | ID: 120</text>
</a>
</g>
</g>
<!-- DATA EXFILTRATION
remoteware&#45;cl | ID: 31&#45;&gt;ARBITRARY CODE EXECUTION
remoteware&#45;cl | ID: 120 -->
<g id="edge15" class="edge">
<title>DATA EXFILTRATION
remoteware&#45;cl | ID: 31&#45;&gt;ARBITRARY CODE EXECUTION
remoteware&#45;cl | ID: 120</title>
<path fill="none" stroke="maroon" stroke-width="5" d="M324.15,-769.29C312.72,-774.6 301.68,-780.61 291.52,-787.39 255.59,-811.37 243.44,-820.86 228.52,-861.39 209.55,-912.92 216.5,-977.35 224.21,-1017.92"/>
<polygon fill="maroon" stroke="maroon" stroke-width="5" points="219.97,-1019 226.23,-1027.94 228.55,-1017.28 219.97,-1019"/>
<text text-anchor="middle" x="381.02" y="-920.82" font-family="Arial" font-size="20.00" fill="maroon">start_next: 03/11/18, 18:07:44</text>
<text text-anchor="middle" x="381.02" y="-898.82" font-family="Arial" font-size="20.00" fill="maroon">gap: &#45;549sec</text>
<text text-anchor="middle" x="381.02" y="-876.82" font-family="Arial" font-size="20.00" fill="maroon">end_prev: 03/11/18, 18:16:53</text>
</g>
<!-- INFO DISCOVERY
remoteware&#45;cl&#45;&gt;DATA EXFILTRATION
remoteware&#45;cl | ID: 31 -->
<g id="edge14" class="edge">
<title>INFO DISCOVERY
remoteware&#45;cl&#45;&gt;DATA EXFILTRATION
remoteware&#45;cl | ID: 31</title>
<path fill="none" stroke="maroon" stroke-width="5" d="M587.62,-872.43C569.08,-868.01 549.83,-864.06 531.52,-861.39 519.2,-859.6 316.16,-862.35 307.52,-853.39 287.15,-832.28 290.59,-811.35 307.52,-787.39 310.29,-783.47 313.35,-779.83 316.66,-776.44"/>
<polygon fill="maroon" stroke="maroon" stroke-width="5" points="319.9,-779.41 324.3,-769.41 313.98,-772.97 319.9,-779.41"/>
<text text-anchor="middle" x="460.02" y="-837.39" font-family="Arial" font-size="20.00" fill="maroon">start_next: 03/11/18, 18:07:28</text>
<text text-anchor="middle" x="460.02" y="-815.39" font-family="Arial" font-size="20.00" fill="maroon">gap: &#45;564sec</text>
<text text-anchor="middle" x="460.02" y="-793.39" font-family="Arial" font-size="20.00" fill="maroon">end_prev: 03/11/18, 18:16:52</text>
</g>
<!-- INFO DISCOVERY
remoteware&#45;cl&#45;&gt;ARBITRARY CODE EXECUTION
remoteware&#45;cl | ID: 120 -->
<g id="edge7" class="edge">
<title>INFO DISCOVERY
remoteware&#45;cl&#45;&gt;ARBITRARY CODE EXECUTION
remoteware&#45;cl | ID: 120</title>
<path fill="none" stroke="maroon" stroke-width="5" d="M594.95,-936.96C517.18,-962.84 408.36,-999.05 330.49,-1024.97"/>
<polygon fill="maroon" stroke="maroon" stroke-width="5" points="328.78,-1020.93 320.67,-1028.24 331.54,-1029.23 328.78,-1020.93"/>
<text text-anchor="middle" x="682.02" y="-1004.24" font-family="Arial" font-size="20.00" fill="maroon">start_next: 03/11/18, 15:05:58</text>
<text text-anchor="middle" x="682.02" y="-982.24" font-family="Arial" font-size="20.00" fill="maroon">gap: &#45;561sec</text>
<text text-anchor="middle" x="682.02" y="-960.24" font-family="Arial" font-size="20.00" fill="maroon">end_prev: 03/11/18, 15:15:19</text>
</g>
<!-- ROOT PRIVILEGE ESCALATION
remoteware&#45;cl | ID: 72 -->
<g id="node10" class="node">
<title>ROOT PRIVILEGE ESCALATION
remoteware&#45;cl | ID: 72</title>
<g id="a_node10"><a xlink:title="GPL EXPLOIT CodeRed v2 root.exe access&#10;ET WEB_SERVER ColdFusion administrator access&#10;ETPRO WEB_SPECIFIC_APPS ipTIME firmware &lt; 9.58 RCE&#10;GPL EXPLOIT administrators.pwd access">
<polygon fill="none" stroke="black" stroke-width="3" stroke-dasharray="1,5" points="420.52,-1230.24 46.52,-1230.24 46.52,-1170.24 420.52,-1170.24 420.52,-1230.24"/>
<text text-anchor="middle" x="233.52" y="-1207.04" font-family="Arial" font-size="24.00">ROOT PRIVILEGE ESCALATION</text>
<text text-anchor="middle" x="233.52" y="-1181.04" font-family="Arial" font-size="24.00">remoteware&#45;cl | ID: 72</text>
</a>
</g>
</g>
<!-- ARBITRARY CODE EXECUTION
remoteware&#45;cl | ID: 120&#45;&gt;ROOT PRIVILEGE ESCALATION
remoteware&#45;cl | ID: 72 -->
<g id="edge8" class="edge">
<title>ARBITRARY CODE EXECUTION
remoteware&#45;cl | ID: 120&#45;&gt;ROOT PRIVILEGE ESCALATION
remoteware&#45;cl | ID: 72</title>
<path fill="none" stroke="maroon" stroke-width="5" d="M89.32,-1088.38C85.08,-1090.82 81.73,-1093.44 79.52,-1096.24 61.36,-1119.28 61.36,-1139.21 79.52,-1162.24 80,-1162.86 80.54,-1163.46 81.13,-1164.06"/>
<polygon fill="maroon" stroke="maroon" stroke-width="5" points="78.68,-1167.69 89.32,-1170.11 83.88,-1160.65 78.68,-1167.69"/>
<text text-anchor="middle" x="232.02" y="-1146.24" font-family="Arial" font-size="20.00" fill="maroon">start_next: 03/11/18, 15:06:04</text>
<text text-anchor="middle" x="232.02" y="-1124.24" font-family="Arial" font-size="20.00" fill="maroon">gap: &#45;81sec</text>
<text text-anchor="middle" x="232.02" y="-1102.24" font-family="Arial" font-size="20.00" fill="maroon">end_prev: 03/11/18, 15:07:25</text>
</g>
<!-- ARBITRARY CODE EXECUTION
remoteware&#45;cl | ID: 120&#45;&gt;ROOT PRIVILEGE ESCALATION
remoteware&#45;cl | ID: 72 -->
<g id="edge16" class="edge">
<title>ARBITRARY CODE EXECUTION
remoteware&#45;cl | ID: 120&#45;&gt;ROOT PRIVILEGE ESCALATION
remoteware&#45;cl | ID: 72</title>
<path fill="none" stroke="maroon" stroke-width="5" d="M371.64,-1088.33C375.94,-1090.79 379.32,-1093.43 381.52,-1096.24 399.57,-1119.36 399.57,-1139.12 381.52,-1162.24 381.04,-1162.86 380.5,-1163.47 379.91,-1164.07"/>
<polygon fill="maroon" stroke="maroon" stroke-width="5" points="377.1,-1160.7 371.64,-1170.16 382.29,-1167.75 377.1,-1160.7"/>
<text text-anchor="middle" x="547.02" y="-1146.24" font-family="Arial" font-size="20.00" fill="maroon">start_next: 03/11/18, 18:07:49</text>
<text text-anchor="middle" x="547.02" y="-1124.24" font-family="Arial" font-size="20.00" fill="maroon">gap: &#45;71sec</text>
<text text-anchor="middle" x="547.02" y="-1102.24" font-family="Arial" font-size="20.00" fill="maroon">end_prev: 03/11/18, 18:09:00</text>
</g>
<!-- ROOT PRIVILEGE ESCALATION
remoteware&#45;cl | ID: 72&#45;&gt;DATA MANIPULATION
remoteware&#45;cl | ID: 32 -->
<g id="edge9" class="edge">
<title>ROOT PRIVILEGE ESCALATION
remoteware&#45;cl | ID: 72&#45;&gt;DATA MANIPULATION
remoteware&#45;cl | ID: 32</title>
<path fill="none" stroke="maroon" stroke-width="5" d="M89.32,-1230.38C85.08,-1232.82 81.73,-1235.44 79.52,-1238.24 61.36,-1261.28 62.69,-1280.22 79.52,-1304.24 81.93,-1307.68 84.57,-1310.91 87.42,-1313.95"/>
<polygon fill="maroon" stroke="maroon" stroke-width="5" points="84.62,-1317.33 94.87,-1321.08 90.67,-1311.01 84.62,-1317.33"/>
<text text-anchor="middle" x="232.02" y="-1288.24" font-family="Arial" font-size="20.00" fill="maroon">start_next: 03/11/18, 15:07:00</text>
<text text-anchor="middle" x="232.02" y="-1266.24" font-family="Arial" font-size="20.00" fill="maroon">gap: &#45;148sec</text>
<text text-anchor="middle" x="232.02" y="-1244.24" font-family="Arial" font-size="20.00" fill="maroon">end_prev: 03/11/18, 15:09:29</text>
</g>
<!-- ROOT PRIVILEGE ESCALATION
remoteware&#45;cl | ID: 72&#45;&gt;DATA MANIPULATION
remoteware&#45;cl | ID: 32 -->
<g id="edge17" class="edge">
<title>ROOT PRIVILEGE ESCALATION
remoteware&#45;cl | ID: 72&#45;&gt;DATA MANIPULATION
remoteware&#45;cl | ID: 32</title>
<path fill="none" stroke="maroon" stroke-width="5" d="M371.64,-1230.33C375.94,-1232.79 379.32,-1235.43 381.52,-1238.24 399.57,-1261.36 398.19,-1280.11 381.52,-1304.24 379.57,-1307.07 377.45,-1309.75 375.2,-1312.3"/>
<polygon fill="maroon" stroke="maroon" stroke-width="5" points="371.95,-1309.36 368.02,-1319.54 378.17,-1315.52 371.95,-1309.36"/>
<text text-anchor="middle" x="547.02" y="-1288.24" font-family="Arial" font-size="20.00" fill="maroon">start_next: 03/11/18, 18:08:43</text>
<text text-anchor="middle" x="547.02" y="-1266.24" font-family="Arial" font-size="20.00" fill="maroon">gap: &#45;147sec</text>
<text text-anchor="middle" x="547.02" y="-1244.24" font-family="Arial" font-size="20.00" fill="maroon">end_prev: 03/11/18, 18:11:10</text>
</g>
</g>
</svg>
