<?xml version="1.0" encoding="UTF-8" standalone="no"?>
<!DOCTYPE svg PUBLIC "-//W3C//DTD SVG 1.1//EN"
 "http://www.w3.org/Graphics/SVG/1.1/DTD/svg11.dtd">
<!-- Generated by graphviz version 2.43.0 (0)
 -->
<!-- Title: RESOURCEHIJACKINGremotewarecl Pages: 1 -->
<svg width="1354pt" height="2064pt"
 viewBox="0.00 0.00 1354.06 2063.70" xmlns="http://www.w3.org/2000/svg" xmlns:xlink="http://www.w3.org/1999/xlink">
<g id="graph0" class="graph" transform="scale(1 1) rotate(0) translate(4 2059.7)">
<title>RESOURCEHIJACKINGremotewarecl</title>
<polygon fill="white" stroke="transparent" points="-4,4 -4,-2059.7 1350.06,-2059.7 1350.06,4 -4,4"/>
<!-- Victim: 10.0.0.20
RESOURCE HIJACKING
remoteware&#45;cl -->
<g id="node1" class="node">
<title>Victim: 10.0.0.20
RESOURCE HIJACKING
remoteware&#45;cl</title>
<polygon fill="salmon" stroke="black" stroke-width="3" points="505.07,-1958.68 505.07,-2013.07 380.88,-2051.53 205.24,-2051.53 81.04,-2013.07 81.04,-1958.68 205.24,-1920.22 380.88,-1920.22 505.07,-1958.68"/>
<polygon fill="none" stroke="black" stroke-width="3" points="509.07,-1955.74 509.07,-2016.01 381.48,-2055.52 204.63,-2055.52 77.04,-2016.01 77.04,-1955.74 204.63,-1916.23 381.48,-1916.23 509.07,-1955.74"/>
<text text-anchor="middle" x="293.06" y="-2005.68" font-family="Arial" font-size="24.00">Victim: 10.0.0.20</text>
<text text-anchor="middle" x="293.06" y="-1979.68" font-family="Arial" font-size="24.00">RESOURCE HIJACKING</text>
<text text-anchor="middle" x="293.06" y="-1953.68" font-family="Arial" font-size="24.00">remoteware&#45;cl</text>
</g>
<!-- RESOURCE HIJACKING
remoteware&#45;cl | ID: 33 -->
<g id="node2" class="node">
<title>RESOURCE HIJACKING
remoteware&#45;cl | ID: 33</title>
<g id="a_node2"><a xlink:title="GPL WEB_SERVER Oracle Java Process Manager access">
<polygon fill="salmon" stroke="black" stroke-width="3" points="526.59,-1850.07 409.83,-1899.05 176.29,-1899.05 59.52,-1850.07 176.29,-1801.09 409.83,-1801.09 526.59,-1850.07"/>
<text text-anchor="middle" x="293.06" y="-1856.87" font-family="Arial" font-size="24.00">RESOURCE HIJACKING</text>
<text text-anchor="middle" x="293.06" y="-1830.87" font-family="Arial" font-size="24.00">remoteware&#45;cl | ID: 33</text>
</a>
</g>
</g>
<!-- RESOURCE HIJACKING
remoteware&#45;cl | ID: 33&#45;&gt;Victim: 10.0.0.20
RESOURCE HIJACKING
remoteware&#45;cl -->
<g id="edge1" class="edge">
<title>RESOURCE HIJACKING
remoteware&#45;cl | ID: 33&#45;&gt;Victim: 10.0.0.20
RESOURCE HIJACKING
remoteware&#45;cl</title>
<path fill="none" stroke="black" stroke-width="5" d="M293.06,-1899.37C293.06,-1901.48 293.06,-1903.61 293.06,-1905.76"/>
<polygon fill="black" stroke="black" stroke-width="5" points="288.68,-1905.91 293.06,-1915.91 297.43,-1905.91 288.68,-1905.91"/>
</g>
<!-- VULNERABILTY DISCOVERY
ms&#45;sql&#45;s -->
<g id="node3" class="node">
<title>VULNERABILTY DISCOVERY
ms&#45;sql&#45;s</title>
<g id="a_node3"><a xlink:title="ET SCAN Suspicious inbound to Oracle SQL port 1521&#10;ET SCAN Suspicious inbound to MSSQL port 1433&#10;ET SCAN Suspicious inbound to mySQL port 3306&#10;ET SCAN Suspicious inbound to PostgreSQL port 5432&#10;ET SCAN Suspicious inbound to mSQL port 4333">
<ellipse fill="yellow" stroke="black" stroke-width="3" cx="762.06" cy="-42.43" rx="238.09" ry="42.35"/>
<text text-anchor="middle" x="762.06" y="-49.23" font-family="Arial" font-size="24.00">VULNERABILTY DISCOVERY</text>
<text text-anchor="middle" x="762.06" y="-23.23" font-family="Arial" font-size="24.00">ms&#45;sql&#45;s</text>
</a>
</g>
</g>
<!-- SERVICE DISCOVERY
unknown -->
<g id="node4" class="node">
<title>SERVICE DISCOVERY
unknown</title>
<g id="a_node4"><a xlink:title="ET SCAN Potential VNC Scan 5800&#45;5820&#10;ET SCAN Potential VNC Scan 5900&#45;5920&#10;ET SCAN Potential SSH Scan&#10;ET SCAN NMAP OS Detection Probe">
<ellipse fill="none" stroke="black" stroke-width="3" cx="762.06" cy="-223.28" rx="184.61" ry="42.35"/>
<text text-anchor="middle" x="762.06" y="-230.08" font-family="Arial" font-size="24.00">SERVICE DISCOVERY</text>
<text text-anchor="middle" x="762.06" y="-204.08" font-family="Arial" font-size="24.00">unknown</text>
</a>
</g>
</g>
<!-- VULNERABILTY DISCOVERY
ms&#45;sql&#45;s&#45;&gt;SERVICE DISCOVERY
unknown -->
<g id="edge2" class="edge">
<title>VULNERABILTY DISCOVERY
ms&#45;sql&#45;s&#45;&gt;SERVICE DISCOVERY
unknown</title>
<path fill="none" stroke="maroon" stroke-width="5" d="M620.56,-76.65C614.77,-81.38 609.54,-86.75 605.06,-92.85 584.03,-121.52 584.03,-144.18 605.06,-172.85 609.2,-178.5 613.99,-183.52 619.27,-187.99"/>
<polygon fill="maroon" stroke="maroon" stroke-width="5" points="616.72,-191.55 627.33,-194.13 622.03,-184.59 616.72,-191.55"/>
<text text-anchor="start" x="605.06" y="-157.85" font-family="Arial" font-size="20.00" fill="maroon"> start_next: 03/11/18, 14:53:39</text>
<text text-anchor="start" x="695.56" y="-137.85" font-family="Arial" font-size="20.00" fill="maroon">gap: &#45;263sec</text>
<text text-anchor="start" x="613.06" y="-117.85" font-family="Arial" font-size="20.00" fill="maroon">end_prev: 03/11/18, 14:58:02</text>
<text text-anchor="start" x="629.06" y="-97.85" font-family="Arial" font-weight="bold" font-size="20.00" fill="maroon">Attacker: 10.0.254.201</text>
</g>
<!-- VULNERABILTY DISCOVERY
ms&#45;sql&#45;s&#45;&gt;SERVICE DISCOVERY
unknown -->
<g id="edge13" class="edge">
<title>VULNERABILTY DISCOVERY
ms&#45;sql&#45;s&#45;&gt;SERVICE DISCOVERY
unknown</title>
<path fill="none" stroke="maroon" stroke-width="5" d="M898.51,-77.37C903.94,-81.91 908.85,-87.05 913.06,-92.85 933.93,-121.64 933.93,-144.07 913.06,-172.85 909.38,-177.93 905.16,-182.5 900.52,-186.6"/>
<polygon fill="maroon" stroke="maroon" stroke-width="5" points="897.47,-183.44 892.36,-193.09 902.91,-190.29 897.47,-183.44"/>
<text text-anchor="start" x="928.06" y="-157.85" font-family="Arial" font-size="20.00" fill="maroon"> start_next: 03/11/18, 17:42:35</text>
<text text-anchor="start" x="1024.56" y="-137.85" font-family="Arial" font-size="20.00" fill="maroon">gap: &#45;10sec</text>
<text text-anchor="start" x="936.06" y="-117.85" font-family="Arial" font-size="20.00" fill="maroon">end_prev: 03/11/18, 17:42:45</text>
<text text-anchor="start" x="952.06" y="-97.85" font-family="Arial" font-weight="bold" font-size="20.00" fill="maroon">Attacker: 10.0.254.204</text>
</g>
<!-- HOST DISCOVERY
remoteware&#45;cl -->
<g id="node5" class="node">
<title>HOST DISCOVERY
remoteware&#45;cl</title>
<g id="a_node5"><a xlink:title="ET SCAN Possible Nmap User&#45;Agent Observed&#10;ET SCAN Nmap Scripting Engine User&#45;Agent Detected (Nmap Scripting Engine)">
<ellipse fill="none" stroke="black" stroke-width="3" cx="762.06" cy="-390.13" rx="161.44" ry="42.35"/>
<text text-anchor="middle" x="762.06" y="-396.93" font-family="Arial" font-size="24.00">HOST DISCOVERY</text>
<text text-anchor="middle" x="762.06" y="-370.93" font-family="Arial" font-size="24.00">remoteware&#45;cl</text>
</a>
</g>
</g>
<!-- SERVICE DISCOVERY
unknown&#45;&gt;HOST DISCOVERY
remoteware&#45;cl -->
<g id="edge3" class="edge">
<title>SERVICE DISCOVERY
unknown&#45;&gt;HOST DISCOVERY
remoteware&#45;cl</title>
<path fill="none" stroke="maroon" stroke-width="5" d="M629.53,-252.95C621.34,-258.69 614.01,-265.54 608.06,-273.71 590.77,-297.41 590.77,-316.01 608.06,-339.71 613.23,-346.8 619.44,-352.9 626.35,-358.14"/>
<polygon fill="maroon" stroke="maroon" stroke-width="5" points="624.04,-361.86 634.76,-363.9 628.99,-354.64 624.04,-361.86"/>
<text text-anchor="middle" x="760.56" y="-323.71" font-family="Arial" font-size="20.00" fill="maroon">start_next: 03/11/18, 15:01:05</text>
<text text-anchor="middle" x="760.56" y="-301.71" font-family="Arial" font-size="20.00" fill="maroon">gap: 194sec</text>
<text text-anchor="middle" x="760.56" y="-279.71" font-family="Arial" font-size="20.00" fill="maroon">end_prev: 03/11/18, 14:57:51</text>
</g>
<!-- SERVICE DISCOVERY
unknown&#45;&gt;HOST DISCOVERY
remoteware&#45;cl -->
<g id="edge14" class="edge">
<title>SERVICE DISCOVERY
unknown&#45;&gt;HOST DISCOVERY
remoteware&#45;cl</title>
<path fill="none" stroke="maroon" stroke-width="5" d="M890.12,-253.99C897.72,-259.5 904.52,-266.01 910.06,-273.71 927.2,-297.51 927.2,-315.9 910.06,-339.71 905.38,-346.2 899.82,-351.85 893.63,-356.77"/>
<polygon fill="maroon" stroke="maroon" stroke-width="5" points="891.05,-353.23 885.47,-362.61 896.15,-360.34 891.05,-353.23"/>
<text text-anchor="middle" x="1074.56" y="-323.71" font-family="Arial" font-size="20.00" fill="maroon">start_next: 03/11/18, 17:59:39</text>
<text text-anchor="middle" x="1074.56" y="-301.71" font-family="Arial" font-size="20.00" fill="maroon">gap: 938sec</text>
<text text-anchor="middle" x="1074.56" y="-279.71" font-family="Arial" font-size="20.00" fill="maroon">end_prev: 03/11/18, 17:44:01</text>
</g>
<!-- VULNERABILTY DISCOVERY
remoteware&#45;cl -->
<g id="node6" class="node">
<title>VULNERABILTY DISCOVERY
remoteware&#45;cl</title>
<g id="a_node6"><a xlink:title="ET SCAN Nikto Web App Scan in Progress">
<ellipse fill="none" stroke="black" stroke-width="3" cx="762.06" cy="-556.98" rx="238.09" ry="42.35"/>
<text text-anchor="middle" x="762.06" y="-563.78" font-family="Arial" font-size="24.00">VULNERABILTY DISCOVERY</text>
<text text-anchor="middle" x="762.06" y="-537.78" font-family="Arial" font-size="24.00">remoteware&#45;cl</text>
</a>
</g>
</g>
<!-- HOST DISCOVERY
remoteware&#45;cl&#45;&gt;VULNERABILTY DISCOVERY
remoteware&#45;cl -->
<g id="edge4" class="edge">
<title>HOST DISCOVERY
remoteware&#45;cl&#45;&gt;VULNERABILTY DISCOVERY
remoteware&#45;cl</title>
<path fill="none" stroke="maroon" stroke-width="5" d="M634.76,-416.36C624.45,-422.75 615.25,-430.69 608.06,-440.56 590.77,-464.26 590.77,-482.86 608.06,-506.56 610.34,-509.69 612.83,-512.63 615.49,-515.39"/>
<polygon fill="maroon" stroke="maroon" stroke-width="5" points="612.61,-518.68 622.92,-522.27 618.55,-512.26 612.61,-518.68"/>
<text text-anchor="middle" x="760.56" y="-490.56" font-family="Arial" font-size="20.00" fill="maroon">start_next: 03/11/18, 15:05:40</text>
<text text-anchor="middle" x="760.56" y="-468.56" font-family="Arial" font-size="20.00" fill="maroon">gap: 275sec</text>
<text text-anchor="middle" x="760.56" y="-446.56" font-family="Arial" font-size="20.00" fill="maroon">end_prev: 03/11/18, 15:01:05</text>
</g>
<!-- HOST DISCOVERY
remoteware&#45;cl&#45;&gt;VULNERABILTY DISCOVERY
remoteware&#45;cl -->
<g id="edge15" class="edge">
<title>HOST DISCOVERY
remoteware&#45;cl&#45;&gt;VULNERABILTY DISCOVERY
remoteware&#45;cl</title>
<path fill="none" stroke="maroon" stroke-width="5" d="M885.47,-417.65C894.96,-423.79 903.41,-431.33 910.06,-440.56 927.2,-464.36 927.2,-482.76 910.06,-506.56 908,-509.42 905.77,-512.11 903.39,-514.65"/>
<polygon fill="maroon" stroke="maroon" stroke-width="5" points="900.07,-511.77 895.82,-521.82 906.09,-518.12 900.07,-511.77"/>
<text text-anchor="middle" x="1074.56" y="-490.56" font-family="Arial" font-size="20.00" fill="maroon">start_next: 03/11/18, 18:07:26</text>
<text text-anchor="middle" x="1074.56" y="-468.56" font-family="Arial" font-size="20.00" fill="maroon">gap: 467sec</text>
<text text-anchor="middle" x="1074.56" y="-446.56" font-family="Arial" font-size="20.00" fill="maroon">end_prev: 03/11/18, 17:59:40</text>
</g>
<!-- DATA EXFILTRATION
remoteware&#45;cl | ID: 31 -->
<g id="node7" class="node">
<title>DATA EXFILTRATION
remoteware&#45;cl | ID: 31</title>
<g id="a_node7"><a xlink:title="ET WEB_SERVER Possible XXE SYSTEM ENTITY in POST BODY.&#10;GPL EXPLOIT ISAPI .ida access&#10;ET WEB_SERVER /system32/ in Uri &#45; Possible Protected Directory Access Attempt&#10;GPL WEB_SERVER Tomcat server snoop access&#10;ET WEB_SERVER ColdFusion componentutils access&#10;GPL EXPLOIT /msadc/samples/ access&#10;ET WEB_SPECIFIC_APPS PHP&#45;CGI query string parameter vulnerability&#10;GPL EXPLOIT ISAPI .idq access&#10;ET WEB_SERVER /etc/shadow Detected in URI">
<polygon fill="none" stroke="black" stroke-width="3" points="758.59,-730.4 641.83,-779.38 408.29,-779.38 291.52,-730.4 408.29,-681.42 641.83,-681.42 758.59,-730.4"/>
<text text-anchor="middle" x="525.06" y="-737.2" font-family="Arial" font-size="24.00">DATA EXFILTRATION</text>
<text text-anchor="middle" x="525.06" y="-711.2" font-family="Arial" font-size="24.00">remoteware&#45;cl | ID: 31</text>
</a>
</g>
</g>
<!-- VULNERABILTY DISCOVERY
remoteware&#45;cl&#45;&gt;DATA EXFILTRATION
remoteware&#45;cl | ID: 31 -->
<g id="edge5" class="edge">
<title>VULNERABILTY DISCOVERY
remoteware&#45;cl&#45;&gt;DATA EXFILTRATION
remoteware&#45;cl | ID: 31</title>
<path fill="none" stroke="maroon" stroke-width="5" d="M701.3,-598.18C696.8,-601.28 692.35,-604.38 688.06,-607.41 657.46,-629.06 624.25,-653.7 595.83,-675.14"/>
<polygon fill="maroon" stroke="maroon" stroke-width="5" points="592.9,-671.87 587.56,-681.39 598.18,-678.85 592.9,-671.87"/>
<text text-anchor="middle" x="840.56" y="-657.41" font-family="Arial" font-size="20.00" fill="maroon">start_next: 03/11/18, 15:05:41</text>
<text text-anchor="middle" x="840.56" y="-635.41" font-family="Arial" font-size="20.00" fill="maroon">gap: &#45;571sec</text>
<text text-anchor="middle" x="840.56" y="-613.41" font-family="Arial" font-size="20.00" fill="maroon">end_prev: 03/11/18, 15:15:13</text>
</g>
<!-- INFO DISCOVERY
remoteware&#45;cl -->
<g id="node8" class="node">
<title>INFO DISCOVERY
remoteware&#45;cl</title>
<g id="a_node8"><a xlink:title="GPL WEB_SERVER iisadmin access&#10;GPL WEB_SERVER printenv access&#10;GPL WEB_SERVER author.exe access&#10;ET WEB_SERVER PHP Easteregg Information&#45;Disclosure (phpinfo)&#10;GPL WEB_SERVER globals.pl access&#10;GPL WEB_SERVER viewcode access&#10;ET WEB_SPECIFIC_APPS Request to Wordpress W3TC Plug&#45;in dbcache Directory&#10;GPL EXPLOIT ISAPI .idq attempt&#10;ET POLICY Proxy TRACE Request &#45; inbound&#10;GPL WEB_SERVER /~root access&#10;GPL WEB_SERVER service.pwd&#10;ET WEB_SERVER PHP REQUEST SuperGlobal in URI&#10;GPL WEB_SERVER services.cnf access&#10;GPL EXPLOIT unicode directory traversal attempt&#10;GPL EXPLOIT .htr access&#10;GPL EXPLOIT .cnf access&#10;ET WEB_SERVER PHP SERVER SuperGlobal in URI&#10;GPL WEB_SERVER .htaccess access&#10;GPL WEB_SERVER authors.pwd access&#10;GPL EXPLOIT iisadmpwd attempt&#10;GPL WEB_SERVER global.asa access&#10;GPL EXPLOIT fpcount access&#10;GPL WEB_SERVER .htpasswd access&#10;ET WEB_SERVER PHP SESSION SuperGlobal in URI&#10;GPL WEB_SERVER writeto.cnf access&#10;GPL EXPLOIT iissamples access&#10;GPL WEB_SERVER service.cnf access">
<ellipse fill="none" stroke="black" stroke-width="3" cx="751.06" cy="-903.82" rx="154.3" ry="42.35"/>
<text text-anchor="middle" x="751.06" y="-910.62" font-family="Arial" font-size="24.00">INFO DISCOVERY</text>
<text text-anchor="middle" x="751.06" y="-884.62" font-family="Arial" font-size="24.00">remoteware&#45;cl</text>
</a>
</g>
</g>
<!-- VULNERABILTY DISCOVERY
remoteware&#45;cl&#45;&gt;INFO DISCOVERY
remoteware&#45;cl -->
<g id="edge16" class="edge">
<title>VULNERABILTY DISCOVERY
remoteware&#45;cl&#45;&gt;INFO DISCOVERY
remoteware&#45;cl</title>
<path fill="none" stroke="maroon" stroke-width="5" d="M945.72,-584.14C966.27,-590.41 982.53,-598.07 990.06,-607.41 1058.69,-692.51 1059.09,-768.62 990.06,-853.39 977.79,-868.46 943.63,-879.07 904.84,-886.49"/>
<polygon fill="maroon" stroke="maroon" stroke-width="5" points="903.94,-882.21 894.89,-888.31 905.51,-890.82 903.94,-882.21"/>
<text text-anchor="middle" x="1193.56" y="-747.4" font-family="Arial" font-size="20.00" fill="maroon">start_next: 03/11/18, 18:07:27</text>
<text text-anchor="middle" x="1193.56" y="-725.4" font-family="Arial" font-size="20.00" fill="maroon">gap: &#45;563sec</text>
<text text-anchor="middle" x="1193.56" y="-703.4" font-family="Arial" font-size="20.00" fill="maroon">end_prev: 03/11/18, 18:16:50</text>
</g>
<!-- DATA EXFILTRATION
remoteware&#45;cl | ID: 31&#45;&gt;INFO DISCOVERY
remoteware&#45;cl -->
<g id="edge6" class="edge">
<title>DATA EXFILTRATION
remoteware&#45;cl | ID: 31&#45;&gt;INFO DISCOVERY
remoteware&#45;cl</title>
<path fill="none" stroke="maroon" stroke-width="5" d="M657.76,-772.98C663.31,-777.32 668.46,-782.11 673.06,-787.39 692.81,-810.08 671.96,-827.98 688.06,-853.39 688.65,-854.33 689.27,-855.26 689.91,-856.18"/>
<polygon fill="maroon" stroke="maroon" stroke-width="5" points="686.59,-859.03 696.23,-864.15 693.45,-853.59 686.59,-859.03"/>
<text text-anchor="middle" x="840.56" y="-837.39" font-family="Arial" font-size="20.00" fill="maroon">start_next: 03/11/18, 15:05:48</text>
<text text-anchor="middle" x="840.56" y="-815.39" font-family="Arial" font-size="20.00" fill="maroon">gap: &#45;571sec</text>
<text text-anchor="middle" x="840.56" y="-793.39" font-family="Arial" font-size="20.00" fill="maroon">end_prev: 03/11/18, 15:15:19</text>
</g>
<!-- ARBITRARY CODE EXECUTION
remoteware&#45;cl | ID: 120 -->
<g id="node9" class="node">
<title>ARBITRARY CODE EXECUTION
remoteware&#45;cl | ID: 120</title>
<g id="a_node9"><a xlink:title="ET WEB_SPECIFIC_APPS WEB&#45;PHP RCE PHPBB 2004&#45;1315&#10;ET WEB_SERVER Possible CVE&#45;2014&#45;6271 Attempt in Headers&#10;ET CURRENT_EVENTS QNAP Shellshock CVE&#45;2014&#45;6271">
<polygon fill="none" stroke="black" stroke-width="3" stroke-dasharray="1,5" points="479.56,-1088.24 106.56,-1088.24 106.56,-1028.24 479.56,-1028.24 479.56,-1088.24"/>
<text text-anchor="middle" x="293.06" y="-1065.04" font-family="Arial" font-size="24.00">ARBITRARY CODE EXECUTION</text>
<text text-anchor="middle" x="293.06" y="-1039.04" font-family="Arial" font-size="24.00">remoteware&#45;cl | ID: 120</text>
</a>
</g>
</g>
<!-- DATA EXFILTRATION
remoteware&#45;cl | ID: 31&#45;&gt;ARBITRARY CODE EXECUTION
remoteware&#45;cl | ID: 120 -->
<g id="edge18" class="edge">
<title>DATA EXFILTRATION
remoteware&#45;cl | ID: 31&#45;&gt;ARBITRARY CODE EXECUTION
remoteware&#45;cl | ID: 120</title>
<path fill="none" stroke="maroon" stroke-width="5" d="M383.69,-769.29C372.26,-774.6 361.22,-780.61 351.06,-787.39 315.13,-811.37 302.98,-820.86 288.06,-861.39 269.09,-912.92 276.04,-977.35 283.75,-1017.92"/>
<polygon fill="maroon" stroke="maroon" stroke-width="5" points="279.51,-1019 285.77,-1027.94 288.09,-1017.28 279.51,-1019"/>
<text text-anchor="middle" x="440.56" y="-920.82" font-family="Arial" font-size="20.00" fill="maroon">start_next: 03/11/18, 18:07:44</text>
<text text-anchor="middle" x="440.56" y="-898.82" font-family="Arial" font-size="20.00" fill="maroon">gap: &#45;549sec</text>
<text text-anchor="middle" x="440.56" y="-876.82" font-family="Arial" font-size="20.00" fill="maroon">end_prev: 03/11/18, 18:16:53</text>
</g>
<!-- INFO DISCOVERY
remoteware&#45;cl&#45;&gt;DATA EXFILTRATION
remoteware&#45;cl | ID: 31 -->
<g id="edge17" class="edge">
<title>INFO DISCOVERY
remoteware&#45;cl&#45;&gt;DATA EXFILTRATION
remoteware&#45;cl | ID: 31</title>
<path fill="none" stroke="maroon" stroke-width="5" d="M647.15,-872.43C628.61,-868.01 609.37,-864.06 591.06,-861.39 578.73,-859.6 375.7,-862.35 367.06,-853.39 346.69,-832.28 350.13,-811.35 367.06,-787.39 369.82,-783.47 372.89,-779.83 376.2,-776.44"/>
<polygon fill="maroon" stroke="maroon" stroke-width="5" points="379.44,-779.41 383.84,-769.41 373.51,-772.97 379.44,-779.41"/>
<text text-anchor="middle" x="519.56" y="-837.39" font-family="Arial" font-size="20.00" fill="maroon">start_next: 03/11/18, 18:07:28</text>
<text text-anchor="middle" x="519.56" y="-815.39" font-family="Arial" font-size="20.00" fill="maroon">gap: &#45;564sec</text>
<text text-anchor="middle" x="519.56" y="-793.39" font-family="Arial" font-size="20.00" fill="maroon">end_prev: 03/11/18, 18:16:52</text>
</g>
<!-- INFO DISCOVERY
remoteware&#45;cl&#45;&gt;ARBITRARY CODE EXECUTION
remoteware&#45;cl | ID: 120 -->
<g id="edge7" class="edge">
<title>INFO DISCOVERY
remoteware&#45;cl&#45;&gt;ARBITRARY CODE EXECUTION
remoteware&#45;cl | ID: 120</title>
<path fill="none" stroke="maroon" stroke-width="5" d="M654.49,-936.96C576.72,-962.84 467.9,-999.05 390.03,-1024.97"/>
<polygon fill="maroon" stroke="maroon" stroke-width="5" points="388.32,-1020.93 380.21,-1028.24 391.08,-1029.23 388.32,-1020.93"/>
<text text-anchor="middle" x="741.56" y="-1004.24" font-family="Arial" font-size="20.00" fill="maroon">start_next: 03/11/18, 15:05:58</text>
<text text-anchor="middle" x="741.56" y="-982.24" font-family="Arial" font-size="20.00" fill="maroon">gap: &#45;561sec</text>
<text text-anchor="middle" x="741.56" y="-960.24" font-family="Arial" font-size="20.00" fill="maroon">end_prev: 03/11/18, 15:15:19</text>
</g>
<!-- ROOT PRIVILEGE ESCALATION
remoteware&#45;cl | ID: 72 -->
<g id="node10" class="node">
<title>ROOT PRIVILEGE ESCALATION
remoteware&#45;cl | ID: 72</title>
<g id="a_node10"><a xlink:title="GPL EXPLOIT CodeRed v2 root.exe access&#10;ET WEB_SERVER ColdFusion administrator access&#10;ETPRO WEB_SPECIFIC_APPS ipTIME firmware &lt; 9.58 RCE&#10;GPL EXPLOIT administrators.pwd access">
<polygon fill="none" stroke="black" stroke-width="3" stroke-dasharray="1,5" points="480.06,-1230.24 106.06,-1230.24 106.06,-1170.24 480.06,-1170.24 480.06,-1230.24"/>
<text text-anchor="middle" x="293.06" y="-1207.04" font-family="Arial" font-size="24.00">ROOT PRIVILEGE ESCALATION</text>
<text text-anchor="middle" x="293.06" y="-1181.04" font-family="Arial" font-size="24.00">remoteware&#45;cl | ID: 72</text>
</a>
</g>
</g>
<!-- ARBITRARY CODE EXECUTION
remoteware&#45;cl | ID: 120&#45;&gt;ROOT PRIVILEGE ESCALATION
remoteware&#45;cl | ID: 72 -->
<g id="edge8" class="edge">
<title>ARBITRARY CODE EXECUTION
remoteware&#45;cl | ID: 120&#45;&gt;ROOT PRIVILEGE ESCALATION
remoteware&#45;cl | ID: 72</title>
<path fill="none" stroke="maroon" stroke-width="5" d="M148.86,-1088.38C144.62,-1090.82 141.27,-1093.44 139.06,-1096.24 120.9,-1119.28 120.9,-1139.21 139.06,-1162.24 139.54,-1162.86 140.08,-1163.46 140.67,-1164.06"/>
<polygon fill="maroon" stroke="maroon" stroke-width="5" points="138.22,-1167.69 148.86,-1170.11 143.42,-1160.65 138.22,-1167.69"/>
<text text-anchor="middle" x="291.56" y="-1146.24" font-family="Arial" font-size="20.00" fill="maroon">start_next: 03/11/18, 15:06:04</text>
<text text-anchor="middle" x="291.56" y="-1124.24" font-family="Arial" font-size="20.00" fill="maroon">gap: &#45;81sec</text>
<text text-anchor="middle" x="291.56" y="-1102.24" font-family="Arial" font-size="20.00" fill="maroon">end_prev: 03/11/18, 15:07:25</text>
</g>
<!-- ARBITRARY CODE EXECUTION
remoteware&#45;cl | ID: 120&#45;&gt;ROOT PRIVILEGE ESCALATION
remoteware&#45;cl | ID: 72 -->
<g id="edge19" class="edge">
<title>ARBITRARY CODE EXECUTION
remoteware&#45;cl | ID: 120&#45;&gt;ROOT PRIVILEGE ESCALATION
remoteware&#45;cl | ID: 72</title>
<path fill="none" stroke="maroon" stroke-width="5" d="M431.18,-1088.33C435.47,-1090.79 438.86,-1093.43 441.06,-1096.24 459.11,-1119.36 459.11,-1139.12 441.06,-1162.24 440.58,-1162.86 440.04,-1163.47 439.45,-1164.07"/>
<polygon fill="maroon" stroke="maroon" stroke-width="5" points="436.64,-1160.7 431.18,-1170.16 441.83,-1167.75 436.64,-1160.7"/>
<text text-anchor="middle" x="606.56" y="-1146.24" font-family="Arial" font-size="20.00" fill="maroon">start_next: 03/11/18, 18:07:49</text>
<text text-anchor="middle" x="606.56" y="-1124.24" font-family="Arial" font-size="20.00" fill="maroon">gap: &#45;71sec</text>
<text text-anchor="middle" x="606.56" y="-1102.24" font-family="Arial" font-size="20.00" fill="maroon">end_prev: 03/11/18, 18:09:00</text>
</g>
<!-- DATA MANIPULATION
remoteware&#45;cl | ID: 32 -->
<g id="node11" class="node">
<title>DATA MANIPULATION
remoteware&#45;cl | ID: 32</title>
<g id="a_node11"><a xlink:title="ET WEB_SERVER Possible SQL Injection Attempt UNION SELECT&#10;ET WEB_SERVER Possible SQL Injection Attempt SELECT FROM">
<polygon fill="none" stroke="black" stroke-width="3" points="526.59,-1361.23 409.83,-1410.21 176.29,-1410.21 59.52,-1361.23 176.29,-1312.25 409.83,-1312.25 526.59,-1361.23"/>
<text text-anchor="middle" x="293.06" y="-1368.03" font-family="Arial" font-size="24.00">DATA MANIPULATION</text>
<text text-anchor="middle" x="293.06" y="-1342.03" font-family="Arial" font-size="24.00">remoteware&#45;cl | ID: 32</text>
</a>
</g>
</g>
<!-- ROOT PRIVILEGE ESCALATION
remoteware&#45;cl | ID: 72&#45;&gt;DATA MANIPULATION
remoteware&#45;cl | ID: 32 -->
<g id="edge9" class="edge">
<title>ROOT PRIVILEGE ESCALATION
remoteware&#45;cl | ID: 72&#45;&gt;DATA MANIPULATION
remoteware&#45;cl | ID: 32</title>
<path fill="none" stroke="maroon" stroke-width="5" d="M148.86,-1230.38C144.62,-1232.82 141.27,-1235.44 139.06,-1238.24 120.9,-1261.28 122.23,-1280.22 139.06,-1304.24 141.47,-1307.68 144.11,-1310.91 146.96,-1313.95"/>
<polygon fill="maroon" stroke="maroon" stroke-width="5" points="144.16,-1317.33 154.41,-1321.08 150.21,-1311.01 144.16,-1317.33"/>
<text text-anchor="middle" x="291.56" y="-1288.24" font-family="Arial" font-size="20.00" fill="maroon">start_next: 03/11/18, 15:07:00</text>
<text text-anchor="middle" x="291.56" y="-1266.24" font-family="Arial" font-size="20.00" fill="maroon">gap: &#45;148sec</text>
<text text-anchor="middle" x="291.56" y="-1244.24" font-family="Arial" font-size="20.00" fill="maroon">end_prev: 03/11/18, 15:09:29</text>
</g>
<!-- ROOT PRIVILEGE ESCALATION
remoteware&#45;cl | ID: 72&#45;&gt;DATA MANIPULATION
remoteware&#45;cl | ID: 32 -->
<g id="edge20" class="edge">
<title>ROOT PRIVILEGE ESCALATION
remoteware&#45;cl | ID: 72&#45;&gt;DATA MANIPULATION
remoteware&#45;cl | ID: 32</title>
<path fill="none" stroke="maroon" stroke-width="5" d="M431.18,-1230.33C435.47,-1232.79 438.86,-1235.43 441.06,-1238.24 459.11,-1261.36 457.73,-1280.11 441.06,-1304.24 439.11,-1307.07 436.99,-1309.75 434.74,-1312.3"/>
<polygon fill="maroon" stroke="maroon" stroke-width="5" points="431.49,-1309.36 427.56,-1319.54 437.71,-1315.52 431.49,-1309.36"/>
<text text-anchor="middle" x="606.56" y="-1288.24" font-family="Arial" font-size="20.00" fill="maroon">start_next: 03/11/18, 18:08:43</text>
<text text-anchor="middle" x="606.56" y="-1266.24" font-family="Arial" font-size="20.00" fill="maroon">gap: &#45;147sec</text>
<text text-anchor="middle" x="606.56" y="-1244.24" font-family="Arial" font-size="20.00" fill="maroon">end_prev: 03/11/18, 18:11:10</text>
</g>
<!-- SURFING
remoteware&#45;cl -->
<g id="node12" class="node">
<title>SURFING
remoteware&#45;cl</title>
<g id="a_node12"><a xlink:title="ET WEB_SERVER WEB&#45;PHP phpinfo access">
<ellipse fill="none" stroke="black" stroke-width="3" cx="135.06" cy="-1534.65" rx="135.11" ry="42.35"/>
<text text-anchor="middle" x="135.06" y="-1541.45" font-family="Arial" font-size="24.00">SURFING</text>
<text text-anchor="middle" x="135.06" y="-1515.45" font-family="Arial" font-size="24.00">remoteware&#45;cl</text>
</a>
</g>
</g>
<!-- DATA MANIPULATION
remoteware&#45;cl | ID: 32&#45;&gt;SURFING
remoteware&#45;cl -->
<g id="edge10" class="edge">
<title>DATA MANIPULATION
remoteware&#45;cl | ID: 32&#45;&gt;SURFING
remoteware&#45;cl</title>
<path fill="none" stroke="maroon" stroke-width="5" d="M155,-1401.3C149.04,-1406.28 143.66,-1411.89 139.06,-1418.22 125.93,-1436.29 123.47,-1460.48 124.88,-1482.05"/>
<polygon fill="maroon" stroke="maroon" stroke-width="5" points="120.52,-1482.51 125.81,-1492.06 129.24,-1481.7 120.52,-1482.51"/>
<text text-anchor="middle" x="291.56" y="-1468.22" font-family="Arial" font-size="20.00" fill="maroon">start_next: 03/11/18, 15:07:02</text>
<text text-anchor="middle" x="291.56" y="-1446.22" font-family="Arial" font-size="20.00" fill="maroon">gap: &#45;97sec</text>
<text text-anchor="middle" x="291.56" y="-1424.22" font-family="Arial" font-size="20.00" fill="maroon">end_prev: 03/11/18, 15:08:39</text>
</g>
<!-- REMOTE SERVICE EXPLOIT
remoteware&#45;cl | ID: 122 -->
<g id="node14" class="node">
<title>REMOTE SERVICE EXPLOIT
remoteware&#45;cl | ID: 122</title>
<g id="a_node14"><a xlink:title="ET WEB_SERVER Script tag in URI Possible Cross Site Scripting Attempt">
<polygon fill="none" stroke="black" stroke-width="3" stroke-dasharray="1,5" points="618.06,-1564.65 286.06,-1564.65 286.06,-1504.65 618.06,-1504.65 618.06,-1564.65"/>
<text text-anchor="middle" x="452.06" y="-1541.45" font-family="Arial" font-size="24.00">REMOTE SERVICE EXPLOIT</text>
<text text-anchor="middle" x="452.06" y="-1515.45" font-family="Arial" font-size="24.00">remoteware&#45;cl | ID: 122</text>
</a>
</g>
</g>
<!-- DATA MANIPULATION
remoteware&#45;cl | ID: 32&#45;&gt;REMOTE SERVICE EXPLOIT
remoteware&#45;cl | ID: 122 -->
<g id="edge21" class="edge">
<title>DATA MANIPULATION
remoteware&#45;cl | ID: 32&#45;&gt;REMOTE SERVICE EXPLOIT
remoteware&#45;cl | ID: 122</title>
<path fill="none" stroke="maroon" stroke-width="5" d="M426.92,-1403.39C432.12,-1407.84 436.89,-1412.76 441.06,-1418.22 457.41,-1439.64 459.67,-1470.23 458.1,-1494.53"/>
<polygon fill="maroon" stroke="maroon" stroke-width="5" points="453.74,-1494.17 457.22,-1504.52 462.46,-1494.94 453.74,-1494.17"/>
<text text-anchor="middle" x="610.56" y="-1468.22" font-family="Arial" font-size="20.00" fill="maroon">start_next: 03/11/18, 18:08:43</text>
<text text-anchor="middle" x="610.56" y="-1446.22" font-family="Arial" font-size="20.00" fill="maroon">gap: &#45;96sec</text>
<text text-anchor="middle" x="610.56" y="-1424.22" font-family="Arial" font-size="20.00" fill="maroon">end_prev: 03/11/18, 18:10:19</text>
</g>
<!-- ACCOUNT MANIPULATION
remoteware&#45;cl | ID: 73 -->
<g id="node13" class="node">
<title>ACCOUNT MANIPULATION
remoteware&#45;cl | ID: 73</title>
<g id="a_node13"><a xlink:title="GPL EXPLOIT /iisadmpwd/aexp2.htr access&#10;ET WEB_SERVER SELECT USER SQL Injection Attempt in URI">
<polygon fill="none" stroke="black" stroke-width="3" stroke-dasharray="1,5" points="454.56,-1719.08 131.56,-1719.08 131.56,-1659.08 454.56,-1659.08 454.56,-1719.08"/>
<text text-anchor="middle" x="293.06" y="-1695.88" font-family="Arial" font-size="24.00">ACCOUNT MANIPULATION</text>
<text text-anchor="middle" x="293.06" y="-1669.88" font-family="Arial" font-size="24.00">remoteware&#45;cl | ID: 73</text>
</a>
</g>
</g>
<!-- SURFING
remoteware&#45;cl&#45;&gt;ACCOUNT MANIPULATION
remoteware&#45;cl | ID: 73 -->
<g id="edge11" class="edge">
<title>SURFING
remoteware&#45;cl&#45;&gt;ACCOUNT MANIPULATION
remoteware&#45;cl | ID: 73</title>
<path fill="none" stroke="maroon" stroke-width="5" d="M125.07,-1577.06C121.79,-1601.21 122.51,-1630.81 139.06,-1651.08 139.55,-1651.68 140.1,-1652.28 140.7,-1652.87"/>
<polygon fill="maroon" stroke="maroon" stroke-width="5" points="138.31,-1656.54 148.98,-1658.85 143.43,-1649.44 138.31,-1656.54"/>
<text text-anchor="middle" x="291.56" y="-1635.08" font-family="Arial" font-size="20.00" fill="maroon">start_next: 03/11/18, 15:07:28</text>
<text text-anchor="middle" x="291.56" y="-1613.08" font-family="Arial" font-size="20.00" fill="maroon">gap: &#45;453sec</text>
<text text-anchor="middle" x="291.56" y="-1591.08" font-family="Arial" font-size="20.00" fill="maroon">end_prev: 03/11/18, 15:15:00</text>
</g>
<!-- ACCOUNT MANIPULATION
remoteware&#45;cl | ID: 73&#45;&gt;RESOURCE HIJACKING
remoteware&#45;cl | ID: 33 -->
<g id="edge12" class="edge">
<title>ACCOUNT MANIPULATION
remoteware&#45;cl | ID: 73&#45;&gt;RESOURCE HIJACKING
remoteware&#45;cl | ID: 33</title>
<path fill="none" stroke="maroon" stroke-width="5" d="M148.86,-1719.21C144.62,-1721.65 141.27,-1724.27 139.06,-1727.08 120.9,-1750.11 122.23,-1769.05 139.06,-1793.08 141.47,-1796.52 144.11,-1799.75 146.96,-1802.78"/>
<polygon fill="maroon" stroke="maroon" stroke-width="5" points="144.16,-1806.16 154.41,-1809.92 150.21,-1799.84 144.16,-1806.16"/>
<text text-anchor="middle" x="291.56" y="-1777.08" font-family="Arial" font-size="20.00" fill="maroon">start_next: 03/11/18, 15:08:38</text>
<text text-anchor="middle" x="291.56" y="-1755.08" font-family="Arial" font-size="20.00" fill="maroon">gap: &#45;1sec</text>
<text text-anchor="middle" x="291.56" y="-1733.08" font-family="Arial" font-size="20.00" fill="maroon">end_prev: 03/11/18, 15:08:39</text>
</g>
<!-- ACCOUNT MANIPULATION
remoteware&#45;cl | ID: 73&#45;&gt;RESOURCE HIJACKING
remoteware&#45;cl | ID: 33 -->
<g id="edge23" class="edge">
<title>ACCOUNT MANIPULATION
remoteware&#45;cl | ID: 73&#45;&gt;RESOURCE HIJACKING
remoteware&#45;cl | ID: 33</title>
<path fill="none" stroke="maroon" stroke-width="5" d="M431.18,-1719.16C435.47,-1721.62 438.86,-1724.26 441.06,-1727.08 459.11,-1750.2 457.73,-1768.94 441.06,-1793.08 439.11,-1795.9 436.99,-1798.58 434.74,-1801.13"/>
<polygon fill="maroon" stroke="maroon" stroke-width="5" points="431.49,-1798.19 427.56,-1808.38 437.71,-1804.35 431.49,-1798.19"/>
<text text-anchor="middle" x="606.56" y="-1777.08" font-family="Arial" font-size="20.00" fill="maroon">start_next: 03/11/18, 18:10:18</text>
<text text-anchor="middle" x="606.56" y="-1755.08" font-family="Arial" font-size="20.00" fill="maroon">gap: &#45;1sec</text>
<text text-anchor="middle" x="606.56" y="-1733.08" font-family="Arial" font-size="20.00" fill="maroon">end_prev: 03/11/18, 18:10:19</text>
</g>
<!-- REMOTE SERVICE EXPLOIT
remoteware&#45;cl | ID: 122&#45;&gt;ACCOUNT MANIPULATION
remoteware&#45;cl | ID: 73 -->
<g id="edge22" class="edge">
<title>REMOTE SERVICE EXPLOIT
remoteware&#45;cl | ID: 122&#45;&gt;ACCOUNT MANIPULATION
remoteware&#45;cl | ID: 73</title>
<path fill="none" stroke="maroon" stroke-width="5" d="M457.84,-1564.83C461.15,-1590.58 461.27,-1627.57 441.06,-1651.08 440.38,-1651.87 439.6,-1652.64 438.73,-1653.41"/>
<polygon fill="maroon" stroke="maroon" stroke-width="5" points="436.26,-1649.8 430.38,-1659 441.12,-1657.07 436.26,-1649.8"/>
<text text-anchor="middle" x="611.56" y="-1635.08" font-family="Arial" font-size="20.00" fill="maroon">start_next: 03/11/18, 18:09:02</text>
<text text-anchor="middle" x="611.56" y="-1613.08" font-family="Arial" font-size="20.00" fill="maroon">gap: &#45;435sec</text>
<text text-anchor="middle" x="611.56" y="-1591.08" font-family="Arial" font-size="20.00" fill="maroon">end_prev: 03/11/18, 18:16:17</text>
</g>
</g>
</svg>
