<?xml version="1.0" encoding="UTF-8" standalone="no"?>
<!DOCTYPE svg PUBLIC "-//W3C//DTD SVG 1.1//EN"
 "http://www.w3.org/Graphics/SVG/1.1/DTD/svg11.dtd">
<!-- Generated by graphviz version 2.43.0 (0)
 -->
<!-- Title: RESOURCEHIJACKINGwapwsp Pages: 1 -->
<svg width="1310pt" height="2577pt"
 viewBox="0.00 0.00 1310.17 2577.38" xmlns="http://www.w3.org/2000/svg" xmlns:xlink="http://www.w3.org/1999/xlink">
<g id="graph0" class="graph" transform="scale(1 1) rotate(0) translate(4 2573.38)">
<title>RESOURCEHIJACKINGwapwsp</title>
<polygon fill="white" stroke="transparent" points="-4,4 -4,-2573.38 1306.17,-2573.38 1306.17,4 -4,4"/>
<!-- Victim: 10.0.0.24
RESOURCE HIJACKING
wap&#45;wsp -->
<g id="node1" class="node">
<title>Victim: 10.0.0.24
RESOURCE HIJACKING
wap&#45;wsp</title>
<polygon fill="salmon" stroke="black" stroke-width="3" points="438.18,-2472.37 438.18,-2526.76 313.99,-2565.22 138.35,-2565.22 14.16,-2526.76 14.16,-2472.37 138.35,-2433.91 313.99,-2433.91 438.18,-2472.37"/>
<polygon fill="none" stroke="black" stroke-width="3" points="442.18,-2469.43 442.18,-2529.7 314.59,-2569.21 137.74,-2569.21 10.16,-2529.7 10.16,-2469.43 137.74,-2429.92 314.59,-2429.92 442.18,-2469.43"/>
<text text-anchor="middle" x="226.17" y="-2519.36" font-family="Arial" font-size="24.00">Victim: 10.0.0.24</text>
<text text-anchor="middle" x="226.17" y="-2493.36" font-family="Arial" font-size="24.00">RESOURCE HIJACKING</text>
<text text-anchor="middle" x="226.17" y="-2467.36" font-family="Arial" font-size="24.00">wap&#45;wsp</text>
</g>
<!-- RESOURCE HIJACKING
wap&#45;wsp | ID: 62 -->
<g id="node2" class="node">
<title>RESOURCE HIJACKING
wap&#45;wsp | ID: 62</title>
<g id="a_node2"><a xlink:title="GPL WEB_SERVER Oracle Java Process Manager access">
<polygon fill="none" stroke="black" stroke-width="3" stroke-dasharray="1,5" points="452.51,-2363.75 339.34,-2412.73 113,-2412.73 -0.17,-2363.75 113,-2314.77 339.34,-2314.77 452.51,-2363.75"/>
<text text-anchor="middle" x="226.17" y="-2370.55" font-family="Arial" font-size="24.00">RESOURCE HIJACKING</text>
<text text-anchor="middle" x="226.17" y="-2344.55" font-family="Arial" font-size="24.00">wap&#45;wsp | ID: 62</text>
</a>
</g>
</g>
<!-- RESOURCE HIJACKING
wap&#45;wsp | ID: 62&#45;&gt;Victim: 10.0.0.24
RESOURCE HIJACKING
wap&#45;wsp -->
<g id="edge1" class="edge">
<title>RESOURCE HIJACKING
wap&#45;wsp | ID: 62&#45;&gt;Victim: 10.0.0.24
RESOURCE HIJACKING
wap&#45;wsp</title>
<path fill="none" stroke="black" stroke-width="5" d="M226.17,-2413.06C226.17,-2415.17 226.17,-2417.3 226.17,-2419.45"/>
<polygon fill="black" stroke="black" stroke-width="5" points="221.79,-2419.6 226.17,-2429.6 230.54,-2419.6 221.79,-2419.6"/>
</g>
<!-- HOST DISCOVERY
http -->
<g id="node3" class="node">
<title>HOST DISCOVERY
http</title>
<g id="a_node3"><a xlink:title="ET SCAN Possible Nmap User&#45;Agent Observed&#10;ET SCAN Nmap Scripting Engine User&#45;Agent Detected (Nmap Scripting Engine)">
<ellipse fill="yellow" stroke="black" stroke-width="3" cx="721.17" cy="-42.43" rx="161.44" ry="42.35"/>
<text text-anchor="middle" x="721.17" y="-49.23" font-family="Arial" font-size="24.00">HOST DISCOVERY</text>
<text text-anchor="middle" x="721.17" y="-23.23" font-family="Arial" font-size="24.00">http</text>
</a>
</g>
</g>
<!-- VULNERABILTY DISCOVERY
ms&#45;sql&#45;s -->
<g id="node4" class="node">
<title>VULNERABILTY DISCOVERY
ms&#45;sql&#45;s</title>
<g id="a_node4"><a xlink:title="ET SCAN Suspicious inbound to Oracle SQL port 1521&#10;ET SCAN Suspicious inbound to MSSQL port 1433&#10;ET SCAN Suspicious inbound to mySQL port 3306&#10;ET SCAN Nikto Web App Scan in Progress&#10;ET SCAN Suspicious inbound to PostgreSQL port 5432&#10;ET SCAN Suspicious inbound to mSQL port 4333">
<ellipse fill="none" stroke="black" stroke-width="3" cx="721.17" cy="-223.28" rx="238.09" ry="42.35"/>
<text text-anchor="middle" x="721.17" y="-230.08" font-family="Arial" font-size="24.00">VULNERABILTY DISCOVERY</text>
<text text-anchor="middle" x="721.17" y="-204.08" font-family="Arial" font-size="24.00">ms&#45;sql&#45;s</text>
</a>
</g>
</g>
<!-- HOST DISCOVERY
http&#45;&gt;VULNERABILTY DISCOVERY
ms&#45;sql&#45;s -->
<g id="edge2" class="edge">
<title>HOST DISCOVERY
http&#45;&gt;VULNERABILTY DISCOVERY
ms&#45;sql&#45;s</title>
<path fill="none" stroke="maroon" stroke-width="5" d="M592.15,-67.9C581.34,-74.42 571.69,-82.6 564.17,-92.85 543.14,-121.52 543.14,-144.18 564.17,-172.85 566.55,-176.1 569.14,-179.13 571.92,-181.98"/>
<polygon fill="maroon" stroke="maroon" stroke-width="5" points="569.33,-185.54 579.67,-189.05 575.23,-179.08 569.33,-185.54"/>
<text text-anchor="start" x="564.17" y="-157.85" font-family="Arial" font-size="20.00" fill="maroon"> start_next: 03/11/18, 14:52:49</text>
<text text-anchor="start" x="671.17" y="-137.85" font-family="Arial" font-size="20.00" fill="maroon">gap: 3sec</text>
<text text-anchor="start" x="572.17" y="-117.85" font-family="Arial" font-size="20.00" fill="maroon">end_prev: 03/11/18, 14:52:45</text>
<text text-anchor="start" x="588.17" y="-97.85" font-family="Arial" font-weight="bold" font-size="20.00" fill="maroon">Attacker: 10.0.254.201</text>
</g>
<!-- HOST DISCOVERY
http&#45;&gt;VULNERABILTY DISCOVERY
ms&#45;sql&#45;s -->
<g id="edge16" class="edge">
<title>HOST DISCOVERY
http&#45;&gt;VULNERABILTY DISCOVERY
ms&#45;sql&#45;s</title>
<path fill="none" stroke="maroon" stroke-width="5" d="M846.36,-69.19C856.33,-75.48 865.21,-83.25 872.17,-92.85 893.04,-121.64 893.04,-144.07 872.17,-172.85 870.06,-175.76 867.78,-178.49 865.35,-181.07"/>
<polygon fill="maroon" stroke="maroon" stroke-width="5" points="861.91,-178.3 857.62,-188.34 867.9,-184.68 861.91,-178.3"/>
<text text-anchor="start" x="887.17" y="-157.85" font-family="Arial" font-size="20.00" fill="maroon"> start_next: 03/11/18, 17:37:53</text>
<text text-anchor="start" x="994.17" y="-137.85" font-family="Arial" font-size="20.00" fill="maroon">gap: 5sec</text>
<text text-anchor="start" x="895.17" y="-117.85" font-family="Arial" font-size="20.00" fill="maroon">end_prev: 03/11/18, 17:37:48</text>
<text text-anchor="start" x="911.17" y="-97.85" font-family="Arial" font-weight="bold" font-size="20.00" fill="maroon">Attacker: 10.0.254.204</text>
</g>
<!-- INFO DISCOVERY
http -->
<g id="node5" class="node">
<title>INFO DISCOVERY
http</title>
<g id="a_node5"><a xlink:title="GPL EXPLOIT .cnf access&#10;GPL WEB_SERVER iisadmin access&#10;GPL WEB_SERVER .htpasswd access&#10;GPL WEB_SERVER printenv access&#10;GPL WEB_SERVER .htaccess access&#10;ET POLICY Proxy TRACE Request &#45; inbound&#10;GPL WEB_SERVER /~root access&#10;GPL EXPLOIT .htr access">
<ellipse fill="none" stroke="black" stroke-width="3" cx="721.17" cy="-390.13" rx="154.3" ry="42.35"/>
<text text-anchor="middle" x="721.17" y="-396.93" font-family="Arial" font-size="24.00">INFO DISCOVERY</text>
<text text-anchor="middle" x="721.17" y="-370.93" font-family="Arial" font-size="24.00">http</text>
</a>
</g>
</g>
<!-- VULNERABILTY DISCOVERY
ms&#45;sql&#45;s&#45;&gt;INFO DISCOVERY
http -->
<g id="edge3" class="edge">
<title>VULNERABILTY DISCOVERY
ms&#45;sql&#45;s&#45;&gt;INFO DISCOVERY
http</title>
<path fill="none" stroke="maroon" stroke-width="5" d="M582.03,-258C576.49,-262.6 571.47,-267.81 567.17,-273.71 549.89,-297.41 549.89,-316.01 567.17,-339.71 572.82,-347.45 579.7,-354.01 587.39,-359.56"/>
<polygon fill="maroon" stroke="maroon" stroke-width="5" points="585.26,-363.4 596.02,-365.2 590.04,-356.07 585.26,-363.4"/>
<text text-anchor="middle" x="719.67" y="-323.71" font-family="Arial" font-size="20.00" fill="maroon">start_next: 03/11/18, 14:52:49</text>
<text text-anchor="middle" x="719.67" y="-301.71" font-family="Arial" font-size="20.00" fill="maroon">gap: &#45;313sec</text>
<text text-anchor="middle" x="719.67" y="-279.71" font-family="Arial" font-size="20.00" fill="maroon">end_prev: 03/11/18, 14:58:02</text>
</g>
<!-- VULNERABILTY DISCOVERY
ms&#45;sql&#45;s&#45;&gt;INFO DISCOVERY
http -->
<g id="edge17" class="edge">
<title>VULNERABILTY DISCOVERY
ms&#45;sql&#45;s&#45;&gt;INFO DISCOVERY
http</title>
<path fill="none" stroke="maroon" stroke-width="5" d="M854.93,-258.44C860.25,-262.93 865.05,-267.99 869.17,-273.71 886.31,-297.51 886.31,-315.9 869.17,-339.71 864.05,-346.81 857.86,-352.92 850.95,-358.15"/>
<polygon fill="maroon" stroke="maroon" stroke-width="5" points="848.32,-354.65 842.54,-363.91 853.26,-361.87 848.32,-354.65"/>
<text text-anchor="middle" x="1033.67" y="-323.71" font-family="Arial" font-size="20.00" fill="maroon">start_next: 03/11/18, 17:37:53</text>
<text text-anchor="middle" x="1033.67" y="-301.71" font-family="Arial" font-size="20.00" fill="maroon">gap: &#45;292sec</text>
<text text-anchor="middle" x="1033.67" y="-279.71" font-family="Arial" font-size="20.00" fill="maroon">end_prev: 03/11/18, 17:42:44</text>
</g>
<!-- DATA EXFILTRATION
http | ID: 12 -->
<g id="node6" class="node">
<title>DATA EXFILTRATION
http | ID: 12</title>
<g id="a_node6"><a xlink:title="GPL EXPLOIT ISAPI .ida access&#10;GPL EXPLOIT ISAPI .idq access">
<polygon fill="none" stroke="black" stroke-width="3" points="926.05,-563.55 823.61,-612.53 618.73,-612.53 516.29,-563.55 618.73,-514.57 823.61,-514.57 926.05,-563.55"/>
<text text-anchor="middle" x="721.17" y="-570.35" font-family="Arial" font-size="24.00">DATA EXFILTRATION</text>
<text text-anchor="middle" x="721.17" y="-544.35" font-family="Arial" font-size="24.00">http | ID: 12</text>
</a>
</g>
</g>
<!-- INFO DISCOVERY
http&#45;&gt;DATA EXFILTRATION
http | ID: 12 -->
<g id="edge4" class="edge">
<title>INFO DISCOVERY
http&#45;&gt;DATA EXFILTRATION
http | ID: 12</title>
<path fill="none" stroke="maroon" stroke-width="5" d="M596.02,-415.06C584.84,-421.66 574.86,-430.01 567.17,-440.56 549.89,-464.26 550.34,-482.53 567.17,-506.56 571.23,-512.35 575.95,-517.55 581.17,-522.21"/>
<polygon fill="maroon" stroke="maroon" stroke-width="5" points="578.62,-525.77 589.15,-528.66 584.12,-518.97 578.62,-525.77"/>
<text text-anchor="middle" x="719.67" y="-490.56" font-family="Arial" font-size="20.00" fill="maroon">start_next: 03/11/18, 14:52:49</text>
<text text-anchor="middle" x="719.67" y="-468.56" font-family="Arial" font-size="20.00" fill="maroon">gap: &#45;3sec</text>
<text text-anchor="middle" x="719.67" y="-446.56" font-family="Arial" font-size="20.00" fill="maroon">end_prev: 03/11/18, 14:52:51</text>
</g>
<!-- INFO DISCOVERY
http&#45;&gt;DATA EXFILTRATION
http | ID: 12 -->
<g id="edge18" class="edge">
<title>INFO DISCOVERY
http&#45;&gt;DATA EXFILTRATION
http | ID: 12</title>
<path fill="none" stroke="maroon" stroke-width="5" d="M842.54,-416.36C852.85,-422.73 862.04,-430.67 869.17,-440.56 886.31,-464.36 885.84,-482.42 869.17,-506.56 865.72,-511.55 861.76,-516.1 857.41,-520.25"/>
<polygon fill="maroon" stroke="maroon" stroke-width="5" points="854.46,-517.01 849.73,-526.85 860.17,-523.65 854.46,-517.01"/>
<text text-anchor="middle" x="1033.67" y="-490.56" font-family="Arial" font-size="20.00" fill="maroon">start_next: 03/11/18, 17:37:54</text>
<text text-anchor="middle" x="1033.67" y="-468.56" font-family="Arial" font-size="20.00" fill="maroon">gap: &#45;3sec</text>
<text text-anchor="middle" x="1033.67" y="-446.56" font-family="Arial" font-size="20.00" fill="maroon">end_prev: 03/11/18, 17:37:57</text>
</g>
<!-- SERVICE DISCOVERY
unknown -->
<g id="node7" class="node">
<title>SERVICE DISCOVERY
unknown</title>
<g id="a_node7"><a xlink:title="ET SCAN Potential VNC Scan 5800&#45;5820&#10;ET SCAN Potential VNC Scan 5900&#45;5920&#10;ET SCAN Potential SSH Scan&#10;ET SCAN NMAP OS Detection Probe">
<ellipse fill="none" stroke="black" stroke-width="3" cx="721.17" cy="-736.96" rx="184.61" ry="42.35"/>
<text text-anchor="middle" x="721.17" y="-743.76" font-family="Arial" font-size="24.00">SERVICE DISCOVERY</text>
<text text-anchor="middle" x="721.17" y="-717.76" font-family="Arial" font-size="24.00">unknown</text>
</a>
</g>
</g>
<!-- DATA EXFILTRATION
http | ID: 12&#45;&gt;SERVICE DISCOVERY
unknown -->
<g id="edge5" class="edge">
<title>DATA EXFILTRATION
http | ID: 12&#45;&gt;SERVICE DISCOVERY
unknown</title>
<path fill="none" stroke="maroon" stroke-width="5" d="M589.15,-598.44C580.72,-604.62 573.21,-611.92 567.17,-620.54 550.34,-644.56 549.89,-662.84 567.17,-686.54 571.08,-691.9 575.58,-696.69 580.52,-700.97"/>
<polygon fill="maroon" stroke="maroon" stroke-width="5" points="578.07,-704.6 588.65,-707.29 583.44,-697.7 578.07,-704.6"/>
<text text-anchor="middle" x="719.67" y="-670.54" font-family="Arial" font-size="20.00" fill="maroon">start_next: 03/11/18, 14:53:39</text>
<text text-anchor="middle" x="719.67" y="-648.54" font-family="Arial" font-size="20.00" fill="maroon">gap: 50sec</text>
<text text-anchor="middle" x="719.67" y="-626.54" font-family="Arial" font-size="20.00" fill="maroon">end_prev: 03/11/18, 14:52:49</text>
</g>
<!-- DATA EXFILTRATION
http | ID: 12&#45;&gt;SERVICE DISCOVERY
unknown -->
<g id="edge19" class="edge">
<title>DATA EXFILTRATION
http | ID: 12&#45;&gt;SERVICE DISCOVERY
unknown</title>
<path fill="none" stroke="maroon" stroke-width="5" d="M849.73,-600.25C857.16,-606.03 863.78,-612.74 869.17,-620.54 885.84,-644.67 886.31,-662.74 869.17,-686.54 865.62,-691.47 861.56,-695.91 857.1,-699.92"/>
<polygon fill="maroon" stroke="maroon" stroke-width="5" points="854.27,-696.57 849.24,-706.26 859.77,-703.38 854.27,-696.57"/>
<text text-anchor="middle" x="1033.67" y="-670.54" font-family="Arial" font-size="20.00" fill="maroon">start_next: 03/11/18, 17:42:35</text>
<text text-anchor="middle" x="1033.67" y="-648.54" font-family="Arial" font-size="20.00" fill="maroon">gap: 281sec</text>
<text text-anchor="middle" x="1033.67" y="-626.54" font-family="Arial" font-size="20.00" fill="maroon">end_prev: 03/11/18, 17:37:54</text>
</g>
<!-- HOST DISCOVERY
wap&#45;wsp -->
<g id="node8" class="node">
<title>HOST DISCOVERY
wap&#45;wsp</title>
<g id="a_node8"><a xlink:title="ET SCAN Possible Nmap User&#45;Agent Observed&#10;ET SCAN Nmap Scripting Engine User&#45;Agent Detected (Nmap Scripting Engine)">
<ellipse fill="none" stroke="black" stroke-width="3" cx="721.17" cy="-903.82" rx="161.44" ry="42.35"/>
<text text-anchor="middle" x="721.17" y="-910.62" font-family="Arial" font-size="24.00">HOST DISCOVERY</text>
<text text-anchor="middle" x="721.17" y="-884.62" font-family="Arial" font-size="24.00">wap&#45;wsp</text>
</a>
</g>
</g>
<!-- SERVICE DISCOVERY
unknown&#45;&gt;HOST DISCOVERY
wap&#45;wsp -->
<g id="edge6" class="edge">
<title>SERVICE DISCOVERY
unknown&#45;&gt;HOST DISCOVERY
wap&#45;wsp</title>
<path fill="none" stroke="maroon" stroke-width="5" d="M588.65,-766.64C580.45,-772.38 573.13,-779.22 567.17,-787.39 549.89,-811.09 549.89,-829.69 567.17,-853.39 572.34,-860.48 578.55,-866.58 585.46,-871.82"/>
<polygon fill="maroon" stroke="maroon" stroke-width="5" points="583.15,-875.54 593.88,-877.59 588.1,-868.33 583.15,-875.54"/>
<text text-anchor="middle" x="719.67" y="-837.39" font-family="Arial" font-size="20.00" fill="maroon">start_next: 03/11/18, 15:01:05</text>
<text text-anchor="middle" x="719.67" y="-815.39" font-family="Arial" font-size="20.00" fill="maroon">gap: 194sec</text>
<text text-anchor="middle" x="719.67" y="-793.39" font-family="Arial" font-size="20.00" fill="maroon">end_prev: 03/11/18, 14:57:51</text>
</g>
<!-- SERVICE DISCOVERY
unknown&#45;&gt;HOST DISCOVERY
wap&#45;wsp -->
<g id="edge20" class="edge">
<title>SERVICE DISCOVERY
unknown&#45;&gt;HOST DISCOVERY
wap&#45;wsp</title>
<path fill="none" stroke="maroon" stroke-width="5" d="M849.24,-767.67C856.84,-773.18 863.63,-779.7 869.17,-787.39 886.31,-811.19 886.31,-829.59 869.17,-853.39 864.49,-859.88 858.93,-865.53 852.74,-870.45"/>
<polygon fill="maroon" stroke="maroon" stroke-width="5" points="850.16,-866.92 844.58,-876.3 855.26,-874.03 850.16,-866.92"/>
<text text-anchor="middle" x="1033.67" y="-837.39" font-family="Arial" font-size="20.00" fill="maroon">start_next: 03/11/18, 17:59:39</text>
<text text-anchor="middle" x="1033.67" y="-815.39" font-family="Arial" font-size="20.00" fill="maroon">gap: 938sec</text>
<text text-anchor="middle" x="1033.67" y="-793.39" font-family="Arial" font-size="20.00" fill="maroon">end_prev: 03/11/18, 17:44:01</text>
</g>
<!-- VULNERABILTY DISCOVERY
wap&#45;wsp -->
<g id="node9" class="node">
<title>VULNERABILTY DISCOVERY
wap&#45;wsp</title>
<g id="a_node9"><a xlink:title="ET SCAN Nikto Web App Scan in Progress">
<ellipse fill="none" stroke="black" stroke-width="3" cx="721.17" cy="-1070.67" rx="238.09" ry="42.35"/>
<text text-anchor="middle" x="721.17" y="-1077.47" font-family="Arial" font-size="24.00">VULNERABILTY DISCOVERY</text>
<text text-anchor="middle" x="721.17" y="-1051.47" font-family="Arial" font-size="24.00">wap&#45;wsp</text>
</a>
</g>
</g>
<!-- HOST DISCOVERY
wap&#45;wsp&#45;&gt;VULNERABILTY DISCOVERY
wap&#45;wsp -->
<g id="edge7" class="edge">
<title>HOST DISCOVERY
wap&#45;wsp&#45;&gt;VULNERABILTY DISCOVERY
wap&#45;wsp</title>
<path fill="none" stroke="maroon" stroke-width="5" d="M593.88,-930.05C583.56,-936.43 574.37,-944.37 567.17,-954.24 549.89,-977.94 549.89,-996.54 567.17,-1020.24 569.45,-1023.38 571.94,-1026.32 574.6,-1029.07"/>
<polygon fill="maroon" stroke="maroon" stroke-width="5" points="571.72,-1032.37 582.03,-1035.95 577.67,-1025.95 571.72,-1032.37"/>
<text text-anchor="middle" x="719.67" y="-1004.24" font-family="Arial" font-size="20.00" fill="maroon">start_next: 03/11/18, 15:05:26</text>
<text text-anchor="middle" x="719.67" y="-982.24" font-family="Arial" font-size="20.00" fill="maroon">gap: 260sec</text>
<text text-anchor="middle" x="719.67" y="-960.24" font-family="Arial" font-size="20.00" fill="maroon">end_prev: 03/11/18, 15:01:06</text>
</g>
<!-- HOST DISCOVERY
wap&#45;wsp&#45;&gt;VULNERABILTY DISCOVERY
wap&#45;wsp -->
<g id="edge21" class="edge">
<title>HOST DISCOVERY
wap&#45;wsp&#45;&gt;VULNERABILTY DISCOVERY
wap&#45;wsp</title>
<path fill="none" stroke="maroon" stroke-width="5" d="M844.58,-931.34C854.07,-937.48 862.52,-945.01 869.17,-954.24 886.31,-978.04 886.31,-996.44 869.17,-1020.24 867.11,-1023.1 864.88,-1025.8 862.5,-1028.34"/>
<polygon fill="maroon" stroke="maroon" stroke-width="5" points="859.18,-1025.45 854.93,-1035.51 865.2,-1031.81 859.18,-1025.45"/>
<text text-anchor="middle" x="1033.67" y="-1004.24" font-family="Arial" font-size="20.00" fill="maroon">start_next: 03/11/18, 18:07:13</text>
<text text-anchor="middle" x="1033.67" y="-982.24" font-family="Arial" font-size="20.00" fill="maroon">gap: 454sec</text>
<text text-anchor="middle" x="1033.67" y="-960.24" font-family="Arial" font-size="20.00" fill="maroon">end_prev: 03/11/18, 17:59:40</text>
</g>
<!-- INFO DISCOVERY
wap&#45;wsp -->
<g id="node10" class="node">
<title>INFO DISCOVERY
wap&#45;wsp</title>
<g id="a_node10"><a xlink:title="GPL WEB_SERVER iisadmin access&#10;GPL WEB_SERVER printenv access&#10;GPL WEB_SERVER author.exe access&#10;ET WEB_SERVER PHP Easteregg Information&#45;Disclosure (phpinfo)&#10;GPL WEB_SERVER globals.pl access&#10;GPL WEB_SERVER viewcode access&#10;GPL EXPLOIT ISAPI .idq attempt&#10;ET POLICY Proxy TRACE Request &#45; inbound&#10;GPL WEB_SERVER /~root access&#10;GPL WEB_SERVER service.pwd&#10;ET WEB_SERVER PHP REQUEST SuperGlobal in URI&#10;GPL WEB_SERVER services.cnf access&#10;GPL EXPLOIT unicode directory traversal attempt&#10;GPL EXPLOIT .htr access&#10;GPL EXPLOIT .cnf access&#10;ET WEB_SERVER PHP SERVER SuperGlobal in URI&#10;GPL WEB_SERVER .htaccess access&#10;GPL WEB_SERVER authors.pwd access&#10;GPL EXPLOIT iisadmpwd attempt&#10;GPL WEB_SERVER global.asa access&#10;GPL EXPLOIT fpcount access&#10;GPL WEB_SERVER .htpasswd access&#10;ET WEB_SERVER PHP SESSION SuperGlobal in URI&#10;GPL WEB_SERVER writeto.cnf access&#10;GPL EXPLOIT iissamples access&#10;ET WEB_SERVER PHP ENV SuperGlobal in URI&#10;GPL WEB_SERVER service.cnf access">
<ellipse fill="none" stroke="black" stroke-width="3" cx="484.17" cy="-1237.52" rx="154.3" ry="42.35"/>
<text text-anchor="middle" x="484.17" y="-1244.32" font-family="Arial" font-size="24.00">INFO DISCOVERY</text>
<text text-anchor="middle" x="484.17" y="-1218.32" font-family="Arial" font-size="24.00">wap&#45;wsp</text>
</a>
</g>
</g>
<!-- VULNERABILTY DISCOVERY
wap&#45;wsp&#45;&gt;INFO DISCOVERY
wap&#45;wsp -->
<g id="edge8" class="edge">
<title>VULNERABILTY DISCOVERY
wap&#45;wsp&#45;&gt;INFO DISCOVERY
wap&#45;wsp</title>
<path fill="none" stroke="maroon" stroke-width="5" d="M660.9,-1111.73C656.24,-1114.88 651.62,-1118.03 647.17,-1121.1 613.74,-1144.09 576.82,-1170.17 546.59,-1191.72"/>
<polygon fill="maroon" stroke="maroon" stroke-width="5" points="543.84,-1188.31 538.24,-1197.67 548.92,-1195.43 543.84,-1188.31"/>
<text text-anchor="middle" x="799.67" y="-1171.1" font-family="Arial" font-size="20.00" fill="maroon">start_next: 03/11/18, 15:05:26</text>
<text text-anchor="middle" x="799.67" y="-1149.1" font-family="Arial" font-size="20.00" fill="maroon">gap: 0sec</text>
<text text-anchor="middle" x="799.67" y="-1127.1" font-family="Arial" font-size="20.00" fill="maroon">end_prev: 03/11/18, 15:05:26</text>
</g>
<!-- DATA EXFILTRATION
wap&#45;wsp | ID: 21 -->
<g id="node11" class="node">
<title>DATA EXFILTRATION
wap&#45;wsp | ID: 21</title>
<g id="a_node11"><a xlink:title="GPL EXPLOIT ISAPI .ida access&#10;ET WEB_SERVER /system32/ in Uri &#45; Possible Protected Directory Access Attempt&#10;GPL WEB_SERVER Tomcat server snoop access&#10;GPL EXPLOIT /msadc/samples/ access&#10;ET WEB_SPECIFIC_APPS PHP&#45;CGI query string parameter vulnerability&#10;GPL EXPLOIT ISAPI .idq access&#10;ET WEB_SERVER /etc/shadow Detected in URI">
<polygon fill="none" stroke="black" stroke-width="3" points="940.05,-1410.94 837.61,-1459.92 632.73,-1459.92 530.29,-1410.94 632.73,-1361.96 837.61,-1361.96 940.05,-1410.94"/>
<text text-anchor="middle" x="735.17" y="-1417.74" font-family="Arial" font-size="24.00">DATA EXFILTRATION</text>
<text text-anchor="middle" x="735.17" y="-1391.74" font-family="Arial" font-size="24.00">wap&#45;wsp | ID: 21</text>
</a>
</g>
</g>
<!-- VULNERABILTY DISCOVERY
wap&#45;wsp&#45;&gt;DATA EXFILTRATION
wap&#45;wsp | ID: 21 -->
<g id="edge22" class="edge">
<title>VULNERABILTY DISCOVERY
wap&#45;wsp&#45;&gt;DATA EXFILTRATION
wap&#45;wsp | ID: 21</title>
<path fill="none" stroke="maroon" stroke-width="5" d="M904.84,-1097.83C925.38,-1104.09 941.64,-1111.76 949.17,-1121.1 1014.14,-1201.65 1012.41,-1272.03 949.17,-1353.95 940.74,-1364.87 920.2,-1374.06 895,-1381.65"/>
<polygon fill="maroon" stroke="maroon" stroke-width="5" points="893.54,-1377.52 885.13,-1384.48 895.95,-1385.93 893.54,-1377.52"/>
<text text-anchor="middle" x="1149.67" y="-1254.52" font-family="Arial" font-size="20.00" fill="maroon">start_next: 03/11/18, 18:07:13</text>
<text text-anchor="middle" x="1149.67" y="-1232.52" font-family="Arial" font-size="20.00" fill="maroon">gap: 0sec</text>
<text text-anchor="middle" x="1149.67" y="-1210.52" font-family="Arial" font-size="20.00" fill="maroon">end_prev: 03/11/18, 18:07:13</text>
</g>
<!-- INFO DISCOVERY
wap&#45;wsp&#45;&gt;DATA EXFILTRATION
wap&#45;wsp | ID: 21 -->
<g id="edge9" class="edge">
<title>INFO DISCOVERY
wap&#45;wsp&#45;&gt;DATA EXFILTRATION
wap&#45;wsp | ID: 21</title>
<path fill="none" stroke="maroon" stroke-width="5" d="M602.3,-1264.89C613.45,-1271.04 623.71,-1278.61 632.17,-1287.95 650.47,-1308.15 633.69,-1325.75 647.83,-1352.9"/>
<polygon fill="maroon" stroke="maroon" stroke-width="5" points="644.28,-1355.48 653.28,-1361.65 651.7,-1350.85 644.28,-1355.48"/>
<text text-anchor="middle" x="799.67" y="-1337.95" font-family="Arial" font-size="20.00" fill="maroon">start_next: 03/11/18, 15:05:26</text>
<text text-anchor="middle" x="799.67" y="-1315.95" font-family="Arial" font-size="20.00" fill="maroon">gap: &#45;10sec</text>
<text text-anchor="middle" x="799.67" y="-1293.95" font-family="Arial" font-size="20.00" fill="maroon">end_prev: 03/11/18, 15:05:37</text>
</g>
<!-- ARBITRARY CODE EXECUTION
wap&#45;wsp | ID: 108 -->
<g id="node12" class="node">
<title>ARBITRARY CODE EXECUTION
wap&#45;wsp | ID: 108</title>
<g id="a_node12"><a xlink:title="ET WEB_SPECIFIC_APPS WEB&#45;PHP RCE PHPBB 2004&#45;1315&#10;ET WEB_SPECIFIC_APPS Golem Gaming Portal root_path Parameter Remote File inclusion Attempt&#10;ET WEB_SERVER Exploit Suspected PHP Injection Attack (cmd=)&#10;ET WEB_SERVER Possible CVE&#45;2014&#45;6271 Attempt in Headers&#10;ET CURRENT_EVENTS QNAP Shellshock CVE&#45;2014&#45;6271&#10;ET WEB_SPECIFIC_APPS BASE base_stat_common.php remote file include">
<polygon fill="none" stroke="black" stroke-width="3" stroke-dasharray="1,5" points="412.67,-1601.93 39.67,-1601.93 39.67,-1541.93 412.67,-1541.93 412.67,-1601.93"/>
<text text-anchor="middle" x="226.17" y="-1578.73" font-family="Arial" font-size="24.00">ARBITRARY CODE EXECUTION</text>
<text text-anchor="middle" x="226.17" y="-1552.73" font-family="Arial" font-size="24.00">wap&#45;wsp | ID: 108</text>
</a>
</g>
</g>
<!-- INFO DISCOVERY
wap&#45;wsp&#45;&gt;ARBITRARY CODE EXECUTION
wap&#45;wsp | ID: 108 -->
<g id="edge24" class="edge">
<title>INFO DISCOVERY
wap&#45;wsp&#45;&gt;ARBITRARY CODE EXECUTION
wap&#45;wsp | ID: 108</title>
<path fill="none" stroke="maroon" stroke-width="5" d="M356.54,-1261.56C302.65,-1278.91 246.74,-1309.19 222.17,-1361.95 196.71,-1416.62 205.99,-1488.37 215.64,-1531.99"/>
<polygon fill="maroon" stroke="maroon" stroke-width="5" points="211.42,-1533.17 217.95,-1541.92 219.94,-1531.19 211.42,-1533.17"/>
<text text-anchor="middle" x="374.67" y="-1427.94" font-family="Arial" font-size="20.00" fill="maroon">start_next: 03/11/18, 18:07:14</text>
<text text-anchor="middle" x="374.67" y="-1405.94" font-family="Arial" font-size="20.00" fill="maroon">gap: &#45;10sec</text>
<text text-anchor="middle" x="374.67" y="-1383.94" font-family="Arial" font-size="20.00" fill="maroon">end_prev: 03/11/18, 18:07:24</text>
</g>
<!-- DATA EXFILTRATION
wap&#45;wsp | ID: 21&#45;&gt;INFO DISCOVERY
wap&#45;wsp -->
<g id="edge23" class="edge">
<title>DATA EXFILTRATION
wap&#45;wsp | ID: 21&#45;&gt;INFO DISCOVERY
wap&#45;wsp</title>
<path fill="none" stroke="maroon" stroke-width="5" d="M603.03,-1375.99C577.04,-1370.42 549.87,-1365.36 524.17,-1361.95 513.26,-1360.5 333.8,-1361.89 326.17,-1353.95 305.85,-1332.79 308.8,-1311.59 326.17,-1287.95 332.23,-1279.7 339.67,-1272.79 347.98,-1267"/>
<polygon fill="maroon" stroke="maroon" stroke-width="5" points="350.44,-1270.62 356.56,-1261.58 345.77,-1263.22 350.44,-1270.62"/>
<text text-anchor="middle" x="478.67" y="-1337.95" font-family="Arial" font-size="20.00" fill="maroon">start_next: 03/11/18, 18:07:13</text>
<text text-anchor="middle" x="478.67" y="-1315.95" font-family="Arial" font-size="20.00" fill="maroon">gap: &#45;6sec</text>
<text text-anchor="middle" x="478.67" y="-1293.95" font-family="Arial" font-size="20.00" fill="maroon">end_prev: 03/11/18, 18:07:19</text>
</g>
<!-- DATA EXFILTRATION
wap&#45;wsp | ID: 21&#45;&gt;ARBITRARY CODE EXECUTION
wap&#45;wsp | ID: 108 -->
<g id="edge10" class="edge">
<title>DATA EXFILTRATION
wap&#45;wsp | ID: 21&#45;&gt;ARBITRARY CODE EXECUTION
wap&#45;wsp | ID: 108</title>
<path fill="none" stroke="maroon" stroke-width="5" d="M612.28,-1450.32C525.63,-1477.39 410.9,-1513.23 329.07,-1538.79"/>
<polygon fill="maroon" stroke="maroon" stroke-width="5" points="327.5,-1534.69 319.26,-1541.85 330.11,-1543.04 327.5,-1534.69"/>
<text text-anchor="middle" x="693.67" y="-1517.93" font-family="Arial" font-size="20.00" fill="maroon">start_next: 03/11/18, 15:05:27</text>
<text text-anchor="middle" x="693.67" y="-1495.93" font-family="Arial" font-size="20.00" fill="maroon">gap: &#45;5sec</text>
<text text-anchor="middle" x="693.67" y="-1473.93" font-family="Arial" font-size="20.00" fill="maroon">end_prev: 03/11/18, 15:05:32</text>
</g>
<!-- ROOT PRIVILEGE ESCALATION
wap&#45;wsp | ID: 61 -->
<g id="node13" class="node">
<title>ROOT PRIVILEGE ESCALATION
wap&#45;wsp | ID: 61</title>
<g id="a_node13"><a xlink:title="GPL EXPLOIT CodeRed v2 root.exe access&#10;ET WEB_SERVER ColdFusion administrator access&#10;ETPRO WEB_SPECIFIC_APPS ipTIME firmware &lt; 9.58 RCE&#10;GPL EXPLOIT administrators.pwd access">
<polygon fill="none" stroke="black" stroke-width="3" stroke-dasharray="1,5" points="413.17,-1743.93 39.17,-1743.93 39.17,-1683.93 413.17,-1683.93 413.17,-1743.93"/>
<text text-anchor="middle" x="226.17" y="-1720.73" font-family="Arial" font-size="24.00">ROOT PRIVILEGE ESCALATION</text>
<text text-anchor="middle" x="226.17" y="-1694.73" font-family="Arial" font-size="24.00">wap&#45;wsp | ID: 61</text>
</a>
</g>
</g>
<!-- ARBITRARY CODE EXECUTION
wap&#45;wsp | ID: 108&#45;&gt;ROOT PRIVILEGE ESCALATION
wap&#45;wsp | ID: 61 -->
<g id="edge11" class="edge">
<title>ARBITRARY CODE EXECUTION
wap&#45;wsp | ID: 108&#45;&gt;ROOT PRIVILEGE ESCALATION
wap&#45;wsp | ID: 61</title>
<path fill="none" stroke="maroon" stroke-width="5" d="M81.97,-1602.06C77.73,-1604.5 74.38,-1607.12 72.17,-1609.93 54.01,-1632.97 54.01,-1652.89 72.17,-1675.93 72.65,-1676.54 73.19,-1677.15 73.78,-1677.74"/>
<polygon fill="maroon" stroke="maroon" stroke-width="5" points="71.33,-1681.37 81.97,-1683.79 76.53,-1674.33 71.33,-1681.37"/>
<text text-anchor="middle" x="224.67" y="-1659.93" font-family="Arial" font-size="20.00" fill="maroon">start_next: 03/11/18, 15:05:27</text>
<text text-anchor="middle" x="224.67" y="-1637.93" font-family="Arial" font-size="20.00" fill="maroon">gap: &#45;9sec</text>
<text text-anchor="middle" x="224.67" y="-1615.93" font-family="Arial" font-size="20.00" fill="maroon">end_prev: 03/11/18, 15:05:37</text>
</g>
<!-- ARBITRARY CODE EXECUTION
wap&#45;wsp | ID: 108&#45;&gt;ROOT PRIVILEGE ESCALATION
wap&#45;wsp | ID: 61 -->
<g id="edge25" class="edge">
<title>ARBITRARY CODE EXECUTION
wap&#45;wsp | ID: 108&#45;&gt;ROOT PRIVILEGE ESCALATION
wap&#45;wsp | ID: 61</title>
<path fill="none" stroke="maroon" stroke-width="5" d="M364.3,-1602.02C368.59,-1604.48 371.97,-1607.11 374.17,-1609.93 392.22,-1633.05 392.22,-1652.81 374.17,-1675.93 373.69,-1676.55 373.15,-1677.15 372.56,-1677.75"/>
<polygon fill="maroon" stroke="maroon" stroke-width="5" points="369.75,-1674.39 364.3,-1683.84 374.94,-1681.43 369.75,-1674.39"/>
<text text-anchor="middle" x="539.67" y="-1659.93" font-family="Arial" font-size="20.00" fill="maroon">start_next: 03/11/18, 18:07:14</text>
<text text-anchor="middle" x="539.67" y="-1637.93" font-family="Arial" font-size="20.00" fill="maroon">gap: &#45;9sec</text>
<text text-anchor="middle" x="539.67" y="-1615.93" font-family="Arial" font-size="20.00" fill="maroon">end_prev: 03/11/18, 18:07:24</text>
</g>
<!-- DATA MANIPULATION
wap&#45;wsp | ID: 22 -->
<g id="node14" class="node">
<title>DATA MANIPULATION
wap&#45;wsp | ID: 22</title>
<g id="a_node14"><a xlink:title="ET WEB_SERVER Possible SQL Injection Attempt UNION SELECT&#10;ET WEB_SERVER Possible SQL Injection Attempt SELECT FROM">
<polygon fill="none" stroke="black" stroke-width="3" points="443.55,-1874.92 334.86,-1923.9 117.48,-1923.9 8.79,-1874.92 117.48,-1825.94 334.86,-1825.94 443.55,-1874.92"/>
<text text-anchor="middle" x="226.17" y="-1881.72" font-family="Arial" font-size="24.00">DATA MANIPULATION</text>
<text text-anchor="middle" x="226.17" y="-1855.72" font-family="Arial" font-size="24.00">wap&#45;wsp | ID: 22</text>
</a>
</g>
</g>
<!-- ROOT PRIVILEGE ESCALATION
wap&#45;wsp | ID: 61&#45;&gt;DATA MANIPULATION
wap&#45;wsp | ID: 22 -->
<g id="edge12" class="edge">
<title>ROOT PRIVILEGE ESCALATION
wap&#45;wsp | ID: 61&#45;&gt;DATA MANIPULATION
wap&#45;wsp | ID: 22</title>
<path fill="none" stroke="maroon" stroke-width="5" d="M81.97,-1744.06C77.73,-1746.5 74.38,-1749.12 72.17,-1751.93 54.01,-1774.97 55.34,-1793.9 72.17,-1817.93 75.48,-1822.66 79.24,-1827 83.35,-1830.97"/>
<polygon fill="maroon" stroke="maroon" stroke-width="5" points="80.7,-1834.46 91.11,-1837.72 86.45,-1827.86 80.7,-1834.46"/>
<text text-anchor="middle" x="224.67" y="-1801.93" font-family="Arial" font-size="20.00" fill="maroon">start_next: 03/11/18, 15:05:28</text>
<text text-anchor="middle" x="224.67" y="-1779.93" font-family="Arial" font-size="20.00" fill="maroon">gap: &#45;4sec</text>
<text text-anchor="middle" x="224.67" y="-1757.93" font-family="Arial" font-size="20.00" fill="maroon">end_prev: 03/11/18, 15:05:33</text>
</g>
<!-- ROOT PRIVILEGE ESCALATION
wap&#45;wsp | ID: 61&#45;&gt;DATA MANIPULATION
wap&#45;wsp | ID: 22 -->
<g id="edge26" class="edge">
<title>ROOT PRIVILEGE ESCALATION
wap&#45;wsp | ID: 61&#45;&gt;DATA MANIPULATION
wap&#45;wsp | ID: 22</title>
<path fill="none" stroke="maroon" stroke-width="5" d="M364.3,-1744.02C368.59,-1746.48 371.97,-1749.11 374.17,-1751.93 392.22,-1775.05 390.84,-1793.79 374.17,-1817.93 371.46,-1821.85 368.44,-1825.49 365.16,-1828.89"/>
<polygon fill="maroon" stroke="maroon" stroke-width="5" points="361.95,-1825.9 357.6,-1835.91 367.9,-1832.31 361.95,-1825.9"/>
<text text-anchor="middle" x="539.67" y="-1801.93" font-family="Arial" font-size="20.00" fill="maroon">start_next: 03/11/18, 18:07:15</text>
<text text-anchor="middle" x="539.67" y="-1779.93" font-family="Arial" font-size="20.00" fill="maroon">gap: &#45;4sec</text>
<text text-anchor="middle" x="539.67" y="-1757.93" font-family="Arial" font-size="20.00" fill="maroon">end_prev: 03/11/18, 18:07:19</text>
</g>
<!-- SURFING
wap&#45;wsp -->
<g id="node15" class="node">
<title>SURFING
wap&#45;wsp</title>
<g id="a_node15"><a xlink:title="ET WEB_SERVER WEB&#45;PHP phpinfo access">
<ellipse fill="none" stroke="black" stroke-width="3" cx="226.17" cy="-2048.33" rx="86.03" ry="42.35"/>
<text text-anchor="middle" x="226.17" y="-2055.13" font-family="Arial" font-size="24.00">SURFING</text>
<text text-anchor="middle" x="226.17" y="-2029.13" font-family="Arial" font-size="24.00">wap&#45;wsp</text>
</a>
</g>
</g>
<!-- DATA MANIPULATION
wap&#45;wsp | ID: 22&#45;&gt;SURFING
wap&#45;wsp -->
<g id="edge13" class="edge">
<title>DATA MANIPULATION
wap&#45;wsp | ID: 22&#45;&gt;SURFING
wap&#45;wsp</title>
<path fill="none" stroke="maroon" stroke-width="5" d="M91.11,-1912.11C83.91,-1917.78 77.47,-1924.34 72.17,-1931.91 55.34,-1955.93 54.89,-1974.21 72.17,-1997.91 86.43,-2017.46 108.54,-2029.45 131.61,-2036.75"/>
<polygon fill="maroon" stroke="maroon" stroke-width="5" points="130.71,-2041.05 141.53,-2039.61 133.13,-2032.64 130.71,-2041.05"/>
<text text-anchor="middle" x="224.67" y="-1981.91" font-family="Arial" font-size="20.00" fill="maroon">start_next: 03/11/18, 15:05:28</text>
<text text-anchor="middle" x="224.67" y="-1959.91" font-family="Arial" font-size="20.00" fill="maroon">gap: &#45;4sec</text>
<text text-anchor="middle" x="224.67" y="-1937.91" font-family="Arial" font-size="20.00" fill="maroon">end_prev: 03/11/18, 15:05:32</text>
</g>
<!-- DATA MANIPULATION
wap&#45;wsp | ID: 22&#45;&gt;SURFING
wap&#45;wsp -->
<g id="edge27" class="edge">
<title>DATA MANIPULATION
wap&#45;wsp | ID: 22&#45;&gt;SURFING
wap&#45;wsp</title>
<path fill="none" stroke="maroon" stroke-width="5" d="M357.6,-1913.93C363.87,-1919.17 369.49,-1925.13 374.17,-1931.91 390.84,-1956.04 391.31,-1974.11 374.17,-1997.91 361.13,-2016.02 341.15,-2027.59 320.06,-2034.96"/>
<polygon fill="maroon" stroke="maroon" stroke-width="5" points="318.51,-2030.86 310.3,-2038.05 321.16,-2039.2 318.51,-2030.86"/>
<text text-anchor="middle" x="538.67" y="-1981.91" font-family="Arial" font-size="20.00" fill="maroon">start_next: 03/11/18, 18:07:15</text>
<text text-anchor="middle" x="538.67" y="-1959.91" font-family="Arial" font-size="20.00" fill="maroon">gap: &#45;4sec</text>
<text text-anchor="middle" x="538.67" y="-1937.91" font-family="Arial" font-size="20.00" fill="maroon">end_prev: 03/11/18, 18:07:19</text>
</g>
<!-- ACCOUNT MANIPULATION
wap&#45;wsp | ID: 109 -->
<g id="node16" class="node">
<title>ACCOUNT MANIPULATION
wap&#45;wsp | ID: 109</title>
<g id="a_node16"><a xlink:title="GPL EXPLOIT /iisadmpwd/aexp2.htr access&#10;ET WEB_SERVER SELECT USER SQL Injection Attempt in URI">
<polygon fill="none" stroke="black" stroke-width="3" stroke-dasharray="1,5" points="387.67,-2232.76 64.67,-2232.76 64.67,-2172.76 387.67,-2172.76 387.67,-2232.76"/>
<text text-anchor="middle" x="226.17" y="-2209.56" font-family="Arial" font-size="24.00">ACCOUNT MANIPULATION</text>
<text text-anchor="middle" x="226.17" y="-2183.56" font-family="Arial" font-size="24.00">wap&#45;wsp | ID: 109</text>
</a>
</g>
</g>
<!-- SURFING
wap&#45;wsp&#45;&gt;ACCOUNT MANIPULATION
wap&#45;wsp | ID: 109 -->
<g id="edge14" class="edge">
<title>SURFING
wap&#45;wsp&#45;&gt;ACCOUNT MANIPULATION
wap&#45;wsp | ID: 109</title>
<path fill="none" stroke="maroon" stroke-width="5" d="M141.53,-2057.06C115.02,-2063.95 88.47,-2076.41 72.17,-2098.76 54.89,-2122.46 54.01,-2141.72 72.17,-2164.76 72.65,-2165.38 73.19,-2165.98 73.78,-2166.58"/>
<polygon fill="maroon" stroke="maroon" stroke-width="5" points="71.33,-2170.2 81.97,-2172.63 76.53,-2163.17 71.33,-2170.2"/>
<text text-anchor="middle" x="224.67" y="-2148.76" font-family="Arial" font-size="20.00" fill="maroon">start_next: 03/11/18, 15:05:29</text>
<text text-anchor="middle" x="224.67" y="-2126.76" font-family="Arial" font-size="20.00" fill="maroon">gap: &#45;3sec</text>
<text text-anchor="middle" x="224.67" y="-2104.76" font-family="Arial" font-size="20.00" fill="maroon">end_prev: 03/11/18, 15:05:32</text>
</g>
<!-- SURFING
wap&#45;wsp&#45;&gt;ACCOUNT MANIPULATION
wap&#45;wsp | ID: 109 -->
<g id="edge28" class="edge">
<title>SURFING
wap&#45;wsp&#45;&gt;ACCOUNT MANIPULATION
wap&#45;wsp | ID: 109</title>
<path fill="none" stroke="maroon" stroke-width="5" d="M310.3,-2058.62C334.87,-2065.69 359.13,-2077.88 374.17,-2098.76 391.31,-2122.56 392.22,-2141.64 374.17,-2164.76 373.69,-2165.38 373.15,-2165.99 372.56,-2166.58"/>
<polygon fill="maroon" stroke="maroon" stroke-width="5" points="369.75,-2163.22 364.3,-2172.67 374.94,-2170.26 369.75,-2163.22"/>
<text text-anchor="middle" x="539.67" y="-2148.76" font-family="Arial" font-size="20.00" fill="maroon">start_next: 03/11/18, 18:07:16</text>
<text text-anchor="middle" x="539.67" y="-2126.76" font-family="Arial" font-size="20.00" fill="maroon">gap: &#45;3sec</text>
<text text-anchor="middle" x="539.67" y="-2104.76" font-family="Arial" font-size="20.00" fill="maroon">end_prev: 03/11/18, 18:07:19</text>
</g>
<!-- ACCOUNT MANIPULATION
wap&#45;wsp | ID: 109&#45;&gt;RESOURCE HIJACKING
wap&#45;wsp | ID: 62 -->
<g id="edge15" class="edge">
<title>ACCOUNT MANIPULATION
wap&#45;wsp | ID: 109&#45;&gt;RESOURCE HIJACKING
wap&#45;wsp | ID: 62</title>
<path fill="none" stroke="maroon" stroke-width="5" d="M81.97,-2232.9C77.73,-2235.34 74.38,-2237.95 72.17,-2240.76 54.01,-2263.8 55.34,-2282.74 72.17,-2306.76 75.03,-2310.84 78.22,-2314.63 81.68,-2318.14"/>
<polygon fill="maroon" stroke="maroon" stroke-width="5" points="78.81,-2321.44 89.14,-2324.96 84.71,-2314.99 78.81,-2321.44"/>
<text text-anchor="middle" x="224.67" y="-2290.76" font-family="Arial" font-size="20.00" fill="maroon">start_next: 03/11/18, 15:05:31</text>
<text text-anchor="middle" x="224.67" y="-2268.76" font-family="Arial" font-size="20.00" fill="maroon">gap: 0sec</text>
<text text-anchor="middle" x="224.67" y="-2246.76" font-family="Arial" font-size="20.00" fill="maroon">end_prev: 03/11/18, 15:05:31</text>
</g>
<!-- ACCOUNT MANIPULATION
wap&#45;wsp | ID: 109&#45;&gt;RESOURCE HIJACKING
wap&#45;wsp | ID: 62 -->
<g id="edge29" class="edge">
<title>ACCOUNT MANIPULATION
wap&#45;wsp | ID: 109&#45;&gt;RESOURCE HIJACKING
wap&#45;wsp | ID: 62</title>
<path fill="none" stroke="maroon" stroke-width="5" d="M364.3,-2232.85C368.59,-2235.31 371.97,-2237.94 374.17,-2240.76 392.22,-2263.88 390.84,-2282.63 374.17,-2306.76 371.93,-2310 369.48,-2313.06 366.84,-2315.94"/>
<polygon fill="maroon" stroke="maroon" stroke-width="5" points="363.55,-2313.03 359.46,-2323.15 369.67,-2319.29 363.55,-2313.03"/>
<text text-anchor="middle" x="539.67" y="-2290.76" font-family="Arial" font-size="20.00" fill="maroon">start_next: 03/11/18, 18:07:18</text>
<text text-anchor="middle" x="539.67" y="-2268.76" font-family="Arial" font-size="20.00" fill="maroon">gap: 0sec</text>
<text text-anchor="middle" x="539.67" y="-2246.76" font-family="Arial" font-size="20.00" fill="maroon">end_prev: 03/11/18, 18:07:18</text>
</g>
</g>
</svg>
