<?xml version="1.0" encoding="UTF-8" standalone="no"?>
<!DOCTYPE svg PUBLIC "-//W3C//DTD SVG 1.1//EN"
 "http://www.w3.org/Graphics/SVG/1.1/DTD/svg11.dtd">
<!-- Generated by graphviz version 2.43.0 (0)
 -->
<!-- Title: DATAMANIPULATIONhttp Pages: 1 -->
<svg width="914pt" height="1241pt"
 viewBox="0.00 0.00 914.29 1241.16" xmlns="http://www.w3.org/2000/svg" xmlns:xlink="http://www.w3.org/1999/xlink">
<g id="graph0" class="graph" transform="scale(1 1) rotate(0) translate(4 1237.16)">
<title>DATAMANIPULATIONhttp</title>
<polygon fill="white" stroke="transparent" points="-4,4 -4,-1237.16 910.29,-1237.16 910.29,4 -4,4"/>
<!-- Victim: 10.0.0.22
DATA MANIPULATION
http -->
<g id="node1" class="node">
<title>Victim: 10.0.0.22
DATA MANIPULATION
http</title>
<polygon fill="salmon" stroke="black" stroke-width="3" points="600.97,-1136.14 600.97,-1190.53 481.66,-1228.99 312.93,-1228.99 193.62,-1190.53 193.62,-1136.14 312.93,-1097.69 481.66,-1097.69 600.97,-1136.14"/>
<polygon fill="none" stroke="black" stroke-width="3" points="604.97,-1133.24 604.97,-1193.44 482.29,-1232.98 312.3,-1232.98 189.62,-1193.44 189.62,-1133.24 312.3,-1093.7 482.29,-1093.7 604.97,-1133.24"/>
<text text-anchor="middle" x="397.29" y="-1183.14" font-family="Arial" font-size="24.00">Victim: 10.0.0.22</text>
<text text-anchor="middle" x="397.29" y="-1157.14" font-family="Arial" font-size="24.00">DATA MANIPULATION</text>
<text text-anchor="middle" x="397.29" y="-1131.14" font-family="Arial" font-size="24.00">http</text>
</g>
<!-- DATA MANIPULATION
http | ID: 13 -->
<g id="node2" class="node">
<title>DATA MANIPULATION
http | ID: 13</title>
<g id="a_node2"><a xlink:title="ET WEB_SERVER Possible SQL Injection Attempt UNION SELECT&#10;ET WEB_SERVER Possible SQL Injection Attempt SELECT FROM&#10;ET WEB_SERVER MYSQL SELECT CONCAT SQL Injection Attempt">
<polygon fill="salmon" stroke="black" stroke-width="3" points="614.67,-1027.53 505.98,-1076.51 288.61,-1076.51 179.92,-1027.53 288.61,-978.55 505.98,-978.55 614.67,-1027.53"/>
<text text-anchor="middle" x="397.29" y="-1034.33" font-family="Arial" font-size="24.00">DATA MANIPULATION</text>
<text text-anchor="middle" x="397.29" y="-1008.33" font-family="Arial" font-size="24.00">http | ID: 13</text>
</a>
</g>
</g>
<!-- DATA MANIPULATION
http | ID: 13&#45;&gt;Victim: 10.0.0.22
DATA MANIPULATION
http -->
<g id="edge1" class="edge">
<title>DATA MANIPULATION
http | ID: 13&#45;&gt;Victim: 10.0.0.22
DATA MANIPULATION
http</title>
<path fill="none" stroke="black" stroke-width="5" d="M397.29,-1076.84C397.29,-1078.94 397.29,-1081.07 397.29,-1083.22"/>
<polygon fill="black" stroke="black" stroke-width="5" points="392.92,-1083.38 397.29,-1093.38 401.67,-1083.38 392.92,-1083.38"/>
</g>
<!-- HOST DISCOVERY
http -->
<g id="node3" class="node">
<title>HOST DISCOVERY
http</title>
<g id="a_node3"><a xlink:title="ET SCAN Possible Nmap User&#45;Agent Observed&#10;ET SCAN Nmap Scripting Engine User&#45;Agent Detected (Nmap Scripting Engine)">
<ellipse fill="yellow" stroke="black" stroke-width="3" cx="395.29" cy="-42.43" rx="161.44" ry="42.35"/>
<text text-anchor="middle" x="395.29" y="-49.23" font-family="Arial" font-size="24.00">HOST DISCOVERY</text>
<text text-anchor="middle" x="395.29" y="-23.23" font-family="Arial" font-size="24.00">http</text>
</a>
</g>
</g>
<!-- VULNERABILTY DISCOVERY
ms&#45;sql&#45;s -->
<g id="node4" class="node">
<title>VULNERABILTY DISCOVERY
ms&#45;sql&#45;s</title>
<g id="a_node4"><a xlink:title="ET SCAN Suspicious inbound to Oracle SQL port 1521&#10;ET SCAN Suspicious inbound to MSSQL port 1433&#10;ET SCAN Suspicious inbound to mySQL port 3306&#10;ET SCAN Nikto Web App Scan in Progress&#10;ET SCAN Suspicious inbound to PostgreSQL port 5432&#10;ET SCAN Suspicious inbound to mSQL port 4333">
<ellipse fill="none" stroke="black" stroke-width="3" cx="238.29" cy="-223.28" rx="238.09" ry="42.35"/>
<text text-anchor="middle" x="238.29" y="-230.08" font-family="Arial" font-size="24.00">VULNERABILTY DISCOVERY</text>
<text text-anchor="middle" x="238.29" y="-204.08" font-family="Arial" font-size="24.00">ms&#45;sql&#45;s</text>
</a>
</g>
</g>
<!-- HOST DISCOVERY
http&#45;&gt;VULNERABILTY DISCOVERY
ms&#45;sql&#45;s -->
<g id="edge2" class="edge">
<title>HOST DISCOVERY
http&#45;&gt;VULNERABILTY DISCOVERY
ms&#45;sql&#45;s</title>
<path fill="none" stroke="maroon" stroke-width="5" d="M266.81,-68.28C256.2,-74.73 246.72,-82.8 239.29,-92.85 223.1,-114.8 222.04,-145.03 225.4,-170.76"/>
<polygon fill="maroon" stroke="maroon" stroke-width="5" points="221.09,-171.53 226.94,-180.74 229.74,-170.18 221.09,-171.53"/>
<text text-anchor="start" x="239.29" y="-157.85" font-family="Arial" font-size="20.00" fill="maroon"> start_next: 03/11/18, 14:52:49</text>
<text text-anchor="start" x="346.29" y="-137.85" font-family="Arial" font-size="20.00" fill="maroon">gap: 3sec</text>
<text text-anchor="start" x="247.29" y="-117.85" font-family="Arial" font-size="20.00" fill="maroon">end_prev: 03/11/18, 14:52:45</text>
<text text-anchor="start" x="263.29" y="-97.85" font-family="Arial" font-weight="bold" font-size="20.00" fill="maroon">Attacker: 10.0.254.201</text>
</g>
<!-- INFO DISCOVERY
http -->
<g id="node5" class="node">
<title>INFO DISCOVERY
http</title>
<g id="a_node5"><a xlink:title="GPL WEB_SERVER iisadmin access&#10;GPL WEB_SERVER printenv access&#10;GPL WEB_SERVER author.exe access&#10;ET WEB_SERVER PHP Easteregg Information&#45;Disclosure (phpinfo)&#10;ET WEB_SERVER PHP Easteregg Information&#45;Disclosure (funny&#45;logo)&#10;GPL WEB_SERVER globals.pl access&#10;GPL WEB_SERVER viewcode access&#10;ET WEB_SPECIFIC_APPS Request to Wordpress W3TC Plug&#45;in dbcache Directory&#10;GPL EXPLOIT ISAPI .idq attempt&#10;ET POLICY Proxy TRACE Request &#45; inbound&#10;GPL WEB_SERVER /~root access&#10;GPL WEB_SERVER service.pwd&#10;ET WEB_SERVER PHP REQUEST SuperGlobal in URI&#10;ET WEB_SERVER PHP Easteregg Information&#45;Disclosure (php&#45;logo)&#10;GPL WEB_SERVER services.cnf access&#10;GPL EXPLOIT unicode directory traversal attempt&#10;GPL EXPLOIT .htr access&#10;GPL EXPLOIT .cnf access&#10;ET WEB_SERVER PHP SERVER SuperGlobal in URI&#10;GPL WEB_SERVER .htaccess access&#10;GPL EXPLOIT iisadmpwd attempt&#10;GPL WEB_SERVER service.cnf access&#10;GPL WEB_SERVER global.asa access&#10;GPL EXPLOIT fpcount access&#10;GPL WEB_SERVER .htpasswd access&#10;ET WEB_SERVER PHP SESSION SuperGlobal in URI&#10;GPL WEB_SERVER writeto.cnf access&#10;GPL EXPLOIT iissamples access&#10;ET WEB_SERVER PHP Easteregg Information&#45;Disclosure (zend&#45;logo)&#10;ET WEB_SERVER PHP ENV SuperGlobal in URI&#10;GPL WEB_SERVER authors.pwd access">
<ellipse fill="none" stroke="black" stroke-width="3" cx="397.29" cy="-390.13" rx="154.3" ry="42.35"/>
<text text-anchor="middle" x="397.29" y="-396.93" font-family="Arial" font-size="24.00">INFO DISCOVERY</text>
<text text-anchor="middle" x="397.29" y="-370.93" font-family="Arial" font-size="24.00">http</text>
</a>
</g>
</g>
<!-- HOST DISCOVERY
http&#45;&gt;INFO DISCOVERY
http -->
<g id="edge8" class="edge">
<title>HOST DISCOVERY
http&#45;&gt;INFO DISCOVERY
http</title>
<path fill="none" stroke="maroon" stroke-width="5" d="M521.31,-69.09C531.34,-75.39 540.28,-83.2 547.29,-92.85 611.77,-181.62 611.6,-250.81 547.29,-339.71 542.04,-346.97 535.68,-353.19 528.58,-358.5"/>
<polygon fill="maroon" stroke="maroon" stroke-width="5" points="525.77,-355.12 519.93,-364.34 530.67,-362.37 525.77,-355.12"/>
<text text-anchor="start" x="595.29" y="-248.28" font-family="Arial" font-size="20.00" fill="maroon"> start_next: 03/11/18, 17:37:53</text>
<text text-anchor="start" x="702.29" y="-228.28" font-family="Arial" font-size="20.00" fill="maroon">gap: 5sec</text>
<text text-anchor="start" x="603.29" y="-208.28" font-family="Arial" font-size="20.00" fill="maroon">end_prev: 03/11/18, 17:37:48</text>
<text text-anchor="start" x="619.29" y="-188.28" font-family="Arial" font-weight="bold" font-size="20.00" fill="maroon">Attacker: 10.0.254.204</text>
</g>
<!-- VULNERABILTY DISCOVERY
ms&#45;sql&#45;s&#45;&gt;INFO DISCOVERY
http -->
<g id="edge3" class="edge">
<title>VULNERABILTY DISCOVERY
ms&#45;sql&#45;s&#45;&gt;INFO DISCOVERY
http</title>
<path fill="none" stroke="maroon" stroke-width="5" d="M230.08,-265.92C227.78,-289.85 229.39,-319.14 245.29,-339.71 251.09,-347.2 258.05,-353.57 265.75,-358.99"/>
<polygon fill="maroon" stroke="maroon" stroke-width="5" points="263.6,-362.81 274.38,-364.51 268.31,-355.44 263.6,-362.81"/>
<text text-anchor="middle" x="397.79" y="-323.71" font-family="Arial" font-size="20.00" fill="maroon">start_next: 03/11/18, 14:52:49</text>
<text text-anchor="middle" x="397.79" y="-301.71" font-family="Arial" font-size="20.00" fill="maroon">gap: &#45;336sec</text>
<text text-anchor="middle" x="397.79" y="-279.71" font-family="Arial" font-size="20.00" fill="maroon">end_prev: 03/11/18, 14:58:24</text>
</g>
<!-- DATA EXFILTRATION
http | ID: 12 -->
<g id="node6" class="node">
<title>DATA EXFILTRATION
http | ID: 12</title>
<g id="a_node6"><a xlink:title="ET WEB_SERVER Possible XXE SYSTEM ENTITY in POST BODY.&#10;GPL EXPLOIT ISAPI .ida access&#10;ET WEB_SERVER /system32/ in Uri &#45; Possible Protected Directory Access Attempt&#10;GPL WEB_SERVER Tomcat server snoop access&#10;ET WEB_SERVER ColdFusion componentutils access&#10;GPL EXPLOIT /msadc/samples/ access&#10;ET WEB_SPECIFIC_APPS PHP&#45;CGI query string parameter vulnerability&#10;GPL EXPLOIT ISAPI .idq access&#10;ET WEB_SERVER /etc/shadow Detected in URI">
<polygon fill="none" stroke="black" stroke-width="3" points="602.18,-563.55 499.74,-612.53 294.85,-612.53 192.41,-563.55 294.85,-514.57 499.74,-514.57 602.18,-563.55"/>
<text text-anchor="middle" x="397.29" y="-570.35" font-family="Arial" font-size="24.00">DATA EXFILTRATION</text>
<text text-anchor="middle" x="397.29" y="-544.35" font-family="Arial" font-size="24.00">http | ID: 12</text>
</a>
</g>
</g>
<!-- INFO DISCOVERY
http&#45;&gt;DATA EXFILTRATION
http | ID: 12 -->
<g id="edge4" class="edge">
<title>INFO DISCOVERY
http&#45;&gt;DATA EXFILTRATION
http | ID: 12</title>
<path fill="none" stroke="maroon" stroke-width="5" d="M272.15,-415.06C260.97,-421.66 250.99,-430.01 243.29,-440.56 226.01,-464.26 226.47,-482.53 243.29,-506.56 247.35,-512.35 252.07,-517.55 257.29,-522.21"/>
<polygon fill="maroon" stroke="maroon" stroke-width="5" points="254.75,-525.77 265.27,-528.66 260.25,-518.97 254.75,-525.77"/>
<text text-anchor="middle" x="395.79" y="-490.56" font-family="Arial" font-size="20.00" fill="maroon">start_next: 03/11/18, 14:52:49</text>
<text text-anchor="middle" x="395.79" y="-468.56" font-family="Arial" font-size="20.00" fill="maroon">gap: &#45;23sec</text>
<text text-anchor="middle" x="395.79" y="-446.56" font-family="Arial" font-size="20.00" fill="maroon">end_prev: 03/11/18, 14:53:12</text>
</g>
<!-- INFO DISCOVERY
http&#45;&gt;DATA EXFILTRATION
http | ID: 12 -->
<g id="edge9" class="edge">
<title>INFO DISCOVERY
http&#45;&gt;DATA EXFILTRATION
http | ID: 12</title>
<path fill="none" stroke="maroon" stroke-width="5" d="M518.66,-416.36C528.98,-422.73 538.17,-430.67 545.29,-440.56 562.44,-464.36 561.97,-482.42 545.29,-506.56 541.84,-511.55 537.89,-516.1 533.53,-520.25"/>
<polygon fill="maroon" stroke="maroon" stroke-width="5" points="530.59,-517.01 525.86,-526.85 536.29,-523.65 530.59,-517.01"/>
<text text-anchor="middle" x="709.79" y="-490.56" font-family="Arial" font-size="20.00" fill="maroon">start_next: 03/11/18, 17:37:54</text>
<text text-anchor="middle" x="709.79" y="-468.56" font-family="Arial" font-size="20.00" fill="maroon">gap: &#45;48sec</text>
<text text-anchor="middle" x="709.79" y="-446.56" font-family="Arial" font-size="20.00" fill="maroon">end_prev: 03/11/18, 17:38:43</text>
</g>
<!-- ARBITRARY CODE EXECUTION
http | ID: 97 -->
<g id="node7" class="node">
<title>ARBITRARY CODE EXECUTION
http | ID: 97</title>
<g id="a_node7"><a xlink:title="ET WEB_SERVER Possible CVE&#45;2014&#45;6271 Attempt&#10;ET WEB_SPECIFIC_APPS WEB&#45;PHP RCE PHPBB 2004&#45;1315&#10;ET WEB_SPECIFIC_APPS Golem Gaming Portal root_path Parameter Remote File inclusion Attempt&#10;ET WEB_SPECIFIC_APPS Joomla swMenuPro ImageManager.php Remote File Inclusion Attempt&#10;ETPRO WEB_SPECIFIC_APPS PHPMoAdmin RCE Attempt&#10;ET WEB_SERVER cmd.exe In URI &#45; Possible Command Execution Attempt&#10;ET WEB_SERVER Exploit Suspected PHP Injection Attack (cmd=)&#10;ET WEB_SPECIFIC_APPS FormMailer formmailer.admin.inc.php BASE_DIR Parameter Remote File Inclusion Attempt&#10;ET WEB_SPECIFIC_APPS DesktopOnNet don3_requiem.php app_path Parameter Remote File Inclusion&#10;ET WEB_SPECIFIC_APPS Joomla Dada Mail Manager Component config.dadamail.php GLOBALS Parameter Remote File Inclusion&#10;ET WEB_SERVER Possible CVE&#45;2014&#45;6271 Attempt in Headers&#10;ET WEB_SPECIFIC_APPS Achievo debugger.php config_atkroot parameter Remote File Inclusion Attempt&#10;ET CURRENT_EVENTS QNAP Shellshock CVE&#45;2014&#45;6271&#10;ET WEB_SPECIFIC_APPS KingCMS menu.php CONFIG Parameter Remote File Inclusion&#10;ET WEB_SPECIFIC_APPS AjaxPortal di.php pathtoserverdata Parameter Remote File Inclusion Attempt&#10;ET WEB_SPECIFIC_APPS BASE base_stat_common.php remote file include&#10;ET WEB_SPECIFIC_APPS DesktopOnNet frontpage.php app_path Parameter Remote File Inclusion&#10;ET WEB_SPECIFIC_APPS KR&#45;Web krgourl.php DOCUMENT_ROOT Parameter Remote File Inclusion Attempt&#10;ET WEB_SPECIFIC_APPS Joomla AjaxChat Component ajcuser.php GLOBALS Parameter Remote File Inclusion Attempt&#10;ET WEB_SPECIFIC_APPS Horde type Parameter Local File Inclusion Attempt">
<polygon fill="none" stroke="black" stroke-width="3" points="583.79,-754.54 210.79,-754.54 210.79,-694.54 583.79,-694.54 583.79,-754.54"/>
<text text-anchor="middle" x="397.29" y="-731.34" font-family="Arial" font-size="24.00">ARBITRARY CODE EXECUTION</text>
<text text-anchor="middle" x="397.29" y="-705.34" font-family="Arial" font-size="24.00">http | ID: 97</text>
</a>
</g>
</g>
<!-- DATA EXFILTRATION
http | ID: 12&#45;&gt;ARBITRARY CODE EXECUTION
http | ID: 97 -->
<g id="edge5" class="edge">
<title>DATA EXFILTRATION
http | ID: 12&#45;&gt;ARBITRARY CODE EXECUTION
http | ID: 97</title>
<path fill="none" stroke="maroon" stroke-width="5" d="M265.27,-598.44C256.84,-604.62 249.33,-611.92 243.29,-620.54 226.47,-644.56 225.14,-663.5 243.29,-686.54 243.78,-687.15 244.32,-687.76 244.91,-688.35"/>
<polygon fill="maroon" stroke="maroon" stroke-width="5" points="242.45,-691.98 253.1,-694.4 247.65,-684.94 242.45,-691.98"/>
<text text-anchor="middle" x="395.79" y="-670.54" font-family="Arial" font-size="20.00" fill="maroon">start_next: 03/11/18, 14:52:51</text>
<text text-anchor="middle" x="395.79" y="-648.54" font-family="Arial" font-size="20.00" fill="maroon">gap: &#45;22sec</text>
<text text-anchor="middle" x="395.79" y="-626.54" font-family="Arial" font-size="20.00" fill="maroon">end_prev: 03/11/18, 14:53:12</text>
</g>
<!-- DATA EXFILTRATION
http | ID: 12&#45;&gt;ARBITRARY CODE EXECUTION
http | ID: 97 -->
<g id="edge10" class="edge">
<title>DATA EXFILTRATION
http | ID: 12&#45;&gt;ARBITRARY CODE EXECUTION
http | ID: 97</title>
<path fill="none" stroke="maroon" stroke-width="5" d="M525.86,-600.25C533.28,-606.03 539.91,-612.74 545.29,-620.54 561.97,-644.67 563.35,-663.42 545.29,-686.54 544.81,-687.15 544.28,-687.76 543.68,-688.36"/>
<polygon fill="maroon" stroke="maroon" stroke-width="5" points="540.88,-685 535.42,-694.45 546.07,-692.04 540.88,-685"/>
<text text-anchor="middle" x="710.79" y="-670.54" font-family="Arial" font-size="20.00" fill="maroon">start_next: 03/11/18, 17:37:57</text>
<text text-anchor="middle" x="710.79" y="-648.54" font-family="Arial" font-size="20.00" fill="maroon">gap: &#45;46sec</text>
<text text-anchor="middle" x="710.79" y="-626.54" font-family="Arial" font-size="20.00" fill="maroon">end_prev: 03/11/18, 17:38:43</text>
</g>
<!-- ROOT PRIVILEGE ESCALATION
http | ID: 51 -->
<g id="node8" class="node">
<title>ROOT PRIVILEGE ESCALATION
http | ID: 51</title>
<g id="a_node8"><a xlink:title="ETPRO WEB_SPECIFIC_APPS ipTIME firmware &lt; 9.58 RCE&#10;GPL EXPLOIT administrators.pwd access&#10;GPL SMTP vrfy root&#10;ET WEB_SERVER ColdFusion administrator access&#10;GPL EXPLOIT CodeRed v2 root.exe access">
<polygon fill="none" stroke="black" stroke-width="3" points="584.29,-896.54 210.29,-896.54 210.29,-836.54 584.29,-836.54 584.29,-896.54"/>
<text text-anchor="middle" x="397.29" y="-873.34" font-family="Arial" font-size="24.00">ROOT PRIVILEGE ESCALATION</text>
<text text-anchor="middle" x="397.29" y="-847.34" font-family="Arial" font-size="24.00">http | ID: 51</text>
</a>
</g>
</g>
<!-- ARBITRARY CODE EXECUTION
http | ID: 97&#45;&gt;ROOT PRIVILEGE ESCALATION
http | ID: 51 -->
<g id="edge6" class="edge">
<title>ARBITRARY CODE EXECUTION
http | ID: 97&#45;&gt;ROOT PRIVILEGE ESCALATION
http | ID: 51</title>
<path fill="none" stroke="maroon" stroke-width="5" d="M253.1,-754.67C248.86,-757.11 245.51,-759.73 243.29,-762.54 225.14,-785.58 225.14,-805.5 243.29,-828.54 243.78,-829.15 244.32,-829.76 244.91,-830.35"/>
<polygon fill="maroon" stroke="maroon" stroke-width="5" points="242.45,-833.98 253.1,-836.4 247.65,-826.94 242.45,-833.98"/>
<text text-anchor="middle" x="395.79" y="-812.54" font-family="Arial" font-size="20.00" fill="maroon">start_next: 03/11/18, 14:52:51</text>
<text text-anchor="middle" x="395.79" y="-790.54" font-family="Arial" font-size="20.00" fill="maroon">gap: &#45;21sec</text>
<text text-anchor="middle" x="395.79" y="-768.54" font-family="Arial" font-size="20.00" fill="maroon">end_prev: 03/11/18, 14:53:12</text>
</g>
<!-- ARBITRARY CODE EXECUTION
http | ID: 97&#45;&gt;ROOT PRIVILEGE ESCALATION
http | ID: 51 -->
<g id="edge11" class="edge">
<title>ARBITRARY CODE EXECUTION
http | ID: 97&#45;&gt;ROOT PRIVILEGE ESCALATION
http | ID: 51</title>
<path fill="none" stroke="maroon" stroke-width="5" d="M535.42,-754.62C539.71,-757.08 543.09,-759.72 545.29,-762.54 563.35,-785.66 563.35,-805.42 545.29,-828.54 544.81,-829.15 544.28,-829.76 543.68,-830.36"/>
<polygon fill="maroon" stroke="maroon" stroke-width="5" points="540.88,-827 535.42,-836.45 546.07,-834.04 540.88,-827"/>
<text text-anchor="middle" x="710.79" y="-812.54" font-family="Arial" font-size="20.00" fill="maroon">start_next: 03/11/18, 17:37:58</text>
<text text-anchor="middle" x="710.79" y="-790.54" font-family="Arial" font-size="20.00" fill="maroon">gap: &#45;45sec</text>
<text text-anchor="middle" x="710.79" y="-768.54" font-family="Arial" font-size="20.00" fill="maroon">end_prev: 03/11/18, 17:38:43</text>
</g>
<!-- ROOT PRIVILEGE ESCALATION
http | ID: 51&#45;&gt;DATA MANIPULATION
http | ID: 13 -->
<g id="edge7" class="edge">
<title>ROOT PRIVILEGE ESCALATION
http | ID: 51&#45;&gt;DATA MANIPULATION
http | ID: 13</title>
<path fill="none" stroke="maroon" stroke-width="5" d="M253.1,-896.67C248.86,-899.11 245.51,-901.73 243.29,-904.54 225.14,-927.58 226.47,-946.51 243.29,-970.54 246.61,-975.27 250.37,-979.61 254.48,-983.57"/>
<polygon fill="maroon" stroke="maroon" stroke-width="5" points="251.83,-987.06 262.24,-990.33 257.57,-980.47 251.83,-987.06"/>
<text text-anchor="middle" x="395.79" y="-954.54" font-family="Arial" font-size="20.00" fill="maroon">start_next: 03/11/18, 14:52:53</text>
<text text-anchor="middle" x="395.79" y="-932.54" font-family="Arial" font-size="20.00" fill="maroon">gap: &#45;264sec</text>
<text text-anchor="middle" x="395.79" y="-910.54" font-family="Arial" font-size="20.00" fill="maroon">end_prev: 03/11/18, 14:57:17</text>
</g>
<!-- ROOT PRIVILEGE ESCALATION
http | ID: 51&#45;&gt;DATA MANIPULATION
http | ID: 13 -->
<g id="edge12" class="edge">
<title>ROOT PRIVILEGE ESCALATION
http | ID: 51&#45;&gt;DATA MANIPULATION
http | ID: 13</title>
<path fill="none" stroke="maroon" stroke-width="5" d="M535.42,-896.62C539.71,-899.08 543.09,-901.72 545.29,-904.54 563.35,-927.66 561.97,-946.4 545.29,-970.54 542.59,-974.46 539.57,-978.1 536.29,-981.49"/>
<polygon fill="maroon" stroke="maroon" stroke-width="5" points="533.07,-978.51 528.72,-988.52 539.03,-984.92 533.07,-978.51"/>
<text text-anchor="middle" x="710.79" y="-954.54" font-family="Arial" font-size="20.00" fill="maroon">start_next: 03/11/18, 17:38:02</text>
<text text-anchor="middle" x="710.79" y="-932.54" font-family="Arial" font-size="20.00" fill="maroon">gap: &#45;13sec</text>
<text text-anchor="middle" x="710.79" y="-910.54" font-family="Arial" font-size="20.00" fill="maroon">end_prev: 03/11/18, 17:38:15</text>
</g>
</g>
</svg>
